<svg xmlns="http://www.w3.org/2000/svg" xmlns:xlink="http://www.w3.org/1999/xlink" width="85" height="91.394" viewBox="0 0 85 91.394">
  <defs>
    <clipPath id="clip-path">
      <rect id="Rect치ngulo_403025" data-name="Rect치ngulo 403025" width="67.003" height="82.788" transform="translate(0 0)" fill="none"/>
    </clipPath>
  </defs>
  <g id="Grupo_1102234" data-name="Grupo 1102234" transform="translate(-513.551 -614.606)">
    <rect id="Rect치ngulo_402863" data-name="Rect치ngulo 402863" width="85" height="50" rx="10" transform="translate(513.551 656)" fill="#8f61c2"/>
    <g id="Grupo_1101584" data-name="Grupo 1101584" transform="translate(166.499 -57.395)">
      <g id="Grupo_1101583" data-name="Grupo 1101583" transform="translate(356.051 672)">
        <g id="Grupo_1101582" data-name="Grupo 1101582" clip-path="url(#clip-path)">
          <path id="Trazado_912194" data-name="Trazado 912194" d="M61.037.981H10.027a.916.916,0,0,0-.916.916V12.624H61.953V1.9a.916.916,0,0,0-.916-.916" fill="#b9def9"/>
          <path id="Trazado_912195" data-name="Trazado 912195" d="M59.928,81.266a4.062,4.062,0,0,1-2.04-3.525l-4.1-32.518h7.7a.916.916,0,0,1,.916.916l1.759,31.6c0,2.248-3.643,3.87-4.24,3.527" fill="#ffc344"/>
          <path id="Trazado_912196" data-name="Trazado 912196" d="M65.1,45.223h-4.05a.916.916,0,0,1,.916.916v31.6a4.062,4.062,0,0,1-2.04,3.525,4.067,4.067,0,0,0,6.09-3.526v-31.6a.916.916,0,0,0-.916-.915" fill="#feb137"/>
          <path id="Trazado_912197" data-name="Trazado 912197" d="M58.289,77.749H5.046V5.961a.916.916,0,0,1,.916-.916H55.856l4.134,6.1v64.9a1.7,1.7,0,0,1-1.7,1.7Z" fill="#f0fcff"/>
          <path id="Trazado_912198" data-name="Trazado 912198" d="M57.022,8.5l.865,2.64v64.9a1.638,1.638,0,0,1-1.577,1.7h3.942a1.7,1.7,0,0,0,1.7-1.7v-64.9Z" fill="#d7ecfe"/>
          <path id="Trazado_912199" data-name="Trazado 912199" d="M55.856,5.046v5.181a.916.916,0,0,0,.916.916h5.181Z" fill="#9dcffd"/>
          <path id="Trazado_912200" data-name="Trazado 912200" d="M55.537,77.741h0V42.074a.916.916,0,0,0-.916-.916H39.6l-4.065,6.1H1.9a.916.916,0,0,0-.916.916V77.752a4.057,4.057,0,0,0,4.057,4.057H59.6a4.065,4.065,0,0,1-4.064-4.066Z" fill="#ffe177"/>
          <path id="Trazado_912201" data-name="Trazado 912201" d="M57.888,77.741h0V42.074a.916.916,0,0,0-.916-.916H53.046a.916.916,0,0,1,.916.916V77.741a4.065,4.065,0,0,0,4.064,4.064h3.926a4.065,4.065,0,0,1-4.064-4.064" fill="#f9d45d"/>
          <path id="Trazado_912202" data-name="Trazado 912202" d="M19.514,75.709H7.994a.916.916,0,0,1-.916-.916v-6.3a.916.916,0,0,1,.916-.916h11.52a.916.916,0,0,1,.916.916v6.3a.916.916,0,0,1-.916.916" fill="#ffc344"/>
          <path id="Trazado_912203" data-name="Trazado 912203" d="M22.421,67.579H18.5a.916.916,0,0,1,.916.916v6.3a.916.916,0,0,1-.916.916h3.926a.916.916,0,0,0,.916-.916V68.5a.916.916,0,0,0-.916-.916" fill="#feb137"/>
          <path id="Trazado_912204" data-name="Trazado 912204" d="M61.954,12.125a.981.981,0,0,1-.981-.981V1.9l-50.945.065.065,3.083a.982.982,0,1,1-1.963,0V1.9A1.9,1.9,0,0,1,10.03,0H61.04a1.9,1.9,0,0,1,1.9,1.9v9.246a.981.981,0,0,1-.983.979h0"/>
          <path id="Trazado_912205" data-name="Trazado 912205" d="M61.953,82.788a5.052,5.052,0,0,1-5.046-5.046.981.981,0,1,1,1.963,0,3.084,3.084,0,0,0,6.167,0v-31.6l-3.083.065a.982.982,0,0,1,0-1.963H65.1a1.9,1.9,0,0,1,1.9,1.9v31.6a5.052,5.052,0,0,1-5.05,5.044"/>
          <path id="Trazado_912206" data-name="Trazado 912206" d="M60.252,78.73H57.889a.982.982,0,0,1,0-1.963h2.363a.722.722,0,0,0,.72-.72v-64.5L55.45,6.027H5.962L6.027,33.66a.982.982,0,0,1-1.963,0V5.961a1.9,1.9,0,0,1,1.9-1.9H55.857a.979.979,0,0,1,.693.287l6.1,6.1a.983.983,0,0,1,.288.7v64.9a2.686,2.686,0,0,1-2.685,2.683"/>
          <path id="Trazado_912207" data-name="Trazado 912207" d="M5.046,48.193a.981.981,0,0,1-.981-.981V37.936a.981.981,0,0,1,1.962,0v9.276a.981.981,0,0,1-.981.981"/>
          <path id="Trazado_912208" data-name="Trazado 912208" d="M61.954,12.124H56.773a1.9,1.9,0,0,1-1.9-1.9V5.045a.981.981,0,1,1,1.963,0v5.181l5.116-.065a.981.981,0,1,1,0,1.963Z"/>
          <path id="Trazado_912209" data-name="Trazado 912209" d="M61.953,82.788H5.038A5.044,5.044,0,0,1,0,77.75V48.172a1.9,1.9,0,0,1,1.9-1.9H35.01l3.773-5.66a.982.982,0,0,1,.817-.437H56.972a1.9,1.9,0,0,1,1.9,1.9v8.767a.982.982,0,1,1-1.963,0V42.075l-16.783.063L36.349,47.8a.982.982,0,0,1-.817.437H1.9l.065,29.513A3.079,3.079,0,0,0,5.04,80.828H57.961a5.024,5.024,0,0,1-1.054-3.083V55.118H58.87V77.741a3.086,3.086,0,0,0,3.083,3.083.982.982,0,0,1,0,1.963Z"/>
          <path id="Trazado_912210" data-name="Trazado 912210" d="M22.422,76.691H18.945a.982.982,0,0,1,0-1.963h3.476L22.356,68.5l-14.362.065.065,6.232,6.608-.065a.982.982,0,1,1,0,1.963H7.994a1.9,1.9,0,0,1-1.9-1.9v-6.3a1.9,1.9,0,0,1,1.9-1.9H22.422a1.9,1.9,0,0,1,1.9,1.9v6.3a1.9,1.9,0,0,1-1.9,1.9"/>
        </g>
      </g>
    </g>
    <g id="XMLID_806_" transform="translate(536.834 613.87)">
      <g id="XMLID_386_" transform="translate(0 10.262)">
        <path id="XMLID_389_" d="M30.367,26.271A11.994,11.994,0,0,0,21.04,15.753v-1.51a2.02,2.02,0,0,0-.488-3.981H16.274a2.02,2.02,0,0,0-.488,3.981v1.514a11.932,11.932,0,0,0-5.852,3.219,12.061,12.061,0,0,0-1.009,1.145l-.045,0H4.645a.594.594,0,0,0,0,1.189H8.116a11.913,11.913,0,0,0-1.054,2.284H.594a.594.594,0,1,0,0,1.189H6.726a12.083,12.083,0,0,0-.295,2.284H3.8a.594.594,0,0,0,0,1.189H6.45a12.065,12.065,0,0,0,.371,2.284H2.971a.594.594,0,1,0,0,1.189H7.2A12,12,0,0,0,17.236,39.41q.589.058,1.178.058a12.033,12.033,0,0,0,6.551-1.936.594.594,0,1,0-.649-1,10.816,10.816,0,1,1,3.185-3.19.594.594,0,1,0,1,.647A12.042,12.042,0,0,0,30.367,26.271ZM15.442,12.283a.833.833,0,0,1,.832-.832h4.279a.832.832,0,0,1,0,1.664H16.274A.833.833,0,0,1,15.442,12.283Zm1.533,3.27V14.3h2.877v1.248A12.108,12.108,0,0,0,16.975,15.553Z" transform="translate(0 -10.262)"/>
        <path id="XMLID_391_" d="M436.364,425.5a.594.594,0,1,0,.42.174A.6.6,0,0,0,436.364,425.5Z" transform="translate(-409.874 -400.824)"/>
        <path id="XMLID_394_" d="M164.091,144.609a9.219,9.219,0,1,0,9.219,9.219A9.229,9.229,0,0,0,164.091,144.609Zm0,17.249a8.03,8.03,0,1,1,8.03-8.03A8.039,8.039,0,0,1,164.091,161.858Z" transform="translate(-145.669 -136.625)"/>
        <path id="XMLID_397_" d="M263.943,219.585,261,222.529a1.842,1.842,0,0,0-1.631,0l-1.317-1.317a.594.594,0,0,0-.84.84l1.317,1.317a1.847,1.847,0,1,0,3.312,0l2.857-2.857h0l.086-.086a.594.594,0,0,0-.84-.84Zm-3.759,5.258a.658.658,0,1,1,.658-.658A.659.659,0,0,1,260.184,224.843Z" transform="translate(-241.761 -206.982)"/>
        <path id="XMLID_398_" d="M398.8,289.86h-.551a.594.594,0,0,0,0,1.189h.551a.594.594,0,0,0,0-1.189Z" transform="translate(-374.024 -273.244)"/>
        <path id="XMLID_399_" d="M194.227,289.616h-.551a.594.594,0,1,0,0,1.189h.551a.594.594,0,1,0,0-1.189Z" transform="translate(-181.608 -273.015)"/>
        <path id="XMLID_400_" d="M300.717,184.558a.594.594,0,0,0,.594-.594v-.551a.594.594,0,1,0-1.189,0v.551A.594.594,0,0,0,300.717,184.558Z" transform="translate(-282.288 -172.565)"/>
        <path id="XMLID_424_" d="M300.473,387.393a.594.594,0,0,0-.594.594v.551a.594.594,0,1,0,1.189,0v-.551A.594.594,0,0,0,300.473,387.393Z" transform="translate(-282.058 -364.981)"/>
        <path id="XMLID_425_" d="M.594,351.44a.594.594,0,1,0,.42,1.014.594.594,0,0,0-.42-1.014Z" transform="translate(0 -331.165)"/>
      </g>
    </g>
  </g>
</svg>
