<svg xmlns="http://www.w3.org/2000/svg" width="85" height="72.486" viewBox="0 0 85 72.486">
  <g id="Grupo_1102233" data-name="Grupo 1102233" transform="translate(-1176.432 -777.589)">
    <rect id="Rectángulo_402863" data-name="Rectángulo 402863" width="85" height="50" rx="10" transform="translate(1176.432 800.075)" fill="#b1ce95"/>
    <g id="tower-of-babel" transform="translate(1166.615 777.589)">
      <g id="Grupo_1101558" data-name="Grupo 1101558" transform="translate(25.293 0.904)">
        <path id="Trazado_912168" data-name="Trazado 912168" d="M173.556,11.554v9.52h-26.2v-9.52A4.054,4.054,0,0,1,151.407,7.5H169.5A4.055,4.055,0,0,1,173.556,11.554Z" transform="translate(-133.43 -7.5)" fill="#b78e8e"/>
        <path id="Trazado_912169" data-name="Trazado 912169" d="M173.556,53.059v4.784h-26.2V49.31Z" transform="translate(-133.43 -44.268)" fill="#aa8080"/>
        <path id="Trazado_912170" data-name="Trazado 912170" d="M156.914,7.5a4.054,4.054,0,0,0-4.054,4.054v9.52h-5.508v-9.52A4.055,4.055,0,0,1,151.407,7.5Z" transform="translate(-133.429 -7.502)" fill="#aa8080"/>
        <path id="Trazado_912171" data-name="Trazado 912171" d="M225.089,33.264a4.239,4.239,0,0,1,4.239,4.239V47.662H220.85V37.5A4.239,4.239,0,0,1,225.089,33.264Z" transform="translate(-198.065 -30.157)" fill="#8b5e5e"/>
        <path id="Trazado_912172" data-name="Trazado 912172" d="M147.369,76.655V87.819H112.843V72.4a2.816,2.816,0,0,1,3.215-2.788l28.77,4.116A2.96,2.96,0,0,1,147.369,76.655Z" transform="translate(-103.082 -62.095)" fill="#b78e8e"/>
        <path id="Trazado_912173" data-name="Trazado 912173" d="M147.369,161.589v6.044l-34.526-3.244V156.65Z" transform="translate(-103.082 -138.665)" fill="#aa8080"/>
        <path id="Trazado_912174" data-name="Trazado 912174" d="M122.625,70.548a2.816,2.816,0,0,0-2.195,2.747V87.817H112.84V72.4a2.816,2.816,0,0,1,3.215-2.788Z" transform="translate(-103.079 -62.093)" fill="#aa8080"/>
        <path id="Trazado_912175" data-name="Trazado 912175" d="M282.9,128.337a4.239,4.239,0,0,1,4.239,4.239v10.159h-8.477V132.576A4.239,4.239,0,0,1,282.9,128.337Z" transform="translate(-248.902 -113.766)" fill="#8b5e5e"/>
        <path id="Trazado_912176" data-name="Trazado 912176" d="M167.281,109.575a4.239,4.239,0,0,1,4.239,4.239v10.159h-8.477V113.814A4.239,4.239,0,0,1,167.281,109.575Z" transform="translate(-147.227 -97.266)" fill="#8b5e5e"/>
        <path id="Trazado_912177" data-name="Trazado 912177" d="M109.085,186.145v12.663H62.393V180.148a2.816,2.816,0,0,1,3.215-2.788l40.936,5.856A2.96,2.96,0,0,1,109.085,186.145Z" transform="translate(-58.715 -156.852)" fill="#b78e8e"/>
        <path id="Trazado_912178" data-name="Trazado 912178" d="M109.085,279.5v3.284H62.393V272.82Z" transform="translate(-58.715 -240.826)" fill="#aa8080"/>
        <path id="Trazado_912179" data-name="Trazado 912179" d="M75.253,178.736a2.816,2.816,0,0,0-1.692,2.583v17.486H62.393V180.145a2.816,2.816,0,0,1,3.215-2.788Z" transform="translate(-58.715 -156.849)" fill="#aa8080"/>
        <g id="Grupo_1101556" data-name="Grupo 1101556" transform="translate(8.173 25.796)">
          <path id="Trazado_912180" data-name="Trazado 912180" d="M346.272,256a4.239,4.239,0,0,1,4.239,4.239V270.4h-8.477V260.239A4.238,4.238,0,0,1,346.272,256Z" transform="translate(-312.807 -251.831)" fill="#8b5e5e"/>
          <path id="Trazado_912181" data-name="Trazado 912181" d="M103.906,221.428a4.239,4.239,0,0,1,4.239,4.239v10.159H99.667V225.667A4.239,4.239,0,0,1,103.906,221.428Z" transform="translate(-99.667 -221.428)" fill="#8b5e5e"/>
          <path id="Trazado_912182" data-name="Trazado 912182" d="M225.089,238.714a4.239,4.239,0,0,1,4.239,4.239v10.159H220.85V242.953A4.239,4.239,0,0,1,225.089,238.714Z" transform="translate(-206.237 -236.63)" fill="#8b5e5e"/>
        </g>
        <path id="Trazado_912183" data-name="Trazado 912183" d="M35.108,297.8,83.4,304.708a2.96,2.96,0,0,1,2.541,2.93V322.7H31.893V300.587A2.816,2.816,0,0,1,35.108,297.8Z" transform="translate(-31.893 -262.768)" fill="#b78e8e"/>
        <path id="Trazado_912184" data-name="Trazado 912184" d="M45.566,299.3a2.814,2.814,0,0,0-2.2,2.747V322.7H31.893V300.587a2.817,2.817,0,0,1,3.215-2.788Z" transform="translate(-31.893 -262.768)" fill="#aa8080"/>
        <g id="Grupo_1101557" data-name="Grupo 1101557" transform="translate(7.271 45.533)">
          <path id="Trazado_912185" data-name="Trazado 912185" d="M96.433,385.1a4.239,4.239,0,0,1,4.239,4.239V399.5H92.194V389.341A4.239,4.239,0,0,1,96.433,385.1Z" transform="translate(-92.194 -385.102)" fill="#8b5e5e"/>
          <path id="Trazado_912186" data-name="Trazado 912186" d="M218.283,385.1a2.119,2.119,0,0,1,2.119,2.119V392.3h-4.239v-5.079A2.12,2.12,0,0,1,218.283,385.1Z" transform="translate(-201.215 -385.102)" fill="#8b5e5e"/>
          <path id="Trazado_912187" data-name="Trazado 912187" d="M289.665,385.1a2.119,2.119,0,0,1,2.119,2.119V392.3h-4.239v-5.079A2.119,2.119,0,0,1,289.665,385.1Z" transform="translate(-263.99 -385.102)" fill="#8b5e5e"/>
          <path id="Trazado_912188" data-name="Trazado 912188" d="M361.726,385.1a2.119,2.119,0,0,1,2.119,2.119V392.3h-4.239v-5.079A2.119,2.119,0,0,1,361.726,385.1Z" transform="translate(-327.361 -385.102)" fill="#8b5e5e"/>
        </g>
      </g>
      <g id="Grupo_1101559" data-name="Grupo 1101559" transform="translate(24.388 0)">
        <path id="Trazado_912189" data-name="Trazado 912189" d="M76.929,41.949l-.362-.052V30.2a3.883,3.883,0,0,0-3.317-3.825l-2.766-.4V15.465a3.884,3.884,0,0,0-3.317-3.825l-.844-.121V4.958A4.965,4.965,0,0,0,61.363,0H43.27a4.964,4.964,0,0,0-4.958,4.958V7.514a3.718,3.718,0,0,0-4.162,3.693V20.78l-1.836-.263A3.72,3.72,0,0,0,28.066,24.2V35a3.72,3.72,0,0,0-3.678,3.72V60.835a.9.9,0,0,0,.9.9H79.341a.9.9,0,0,0,.9-.9V45.774a3.884,3.884,0,0,0-3.317-3.825ZM43.27,1.809H61.364a3.154,3.154,0,0,1,3.151,3.15v6.3L57.46,10.251v-2a5.143,5.143,0,1,0-10.286,0V8.78L40.12,7.771V4.958a3.153,3.153,0,0,1,3.15-3.15ZM55.651,9.992l-6.668-.954V8.25a3.334,3.334,0,1,1,6.668,0V9.992ZM35.958,11.207a1.912,1.912,0,0,1,2.182-1.893l28.77,4.116a2.066,2.066,0,0,1,1.765,2.035V25.718l-4.244-.607v-5.4a5.143,5.143,0,0,0-10.287,0V23.64l-3.655-.523V17.452a5.149,5.149,0,0,0-5.143-5.144,5.073,5.073,0,0,0-2.2.494.9.9,0,0,0,.779,1.633,3.277,3.277,0,0,1,1.422-.318,3.338,3.338,0,0,1,3.334,3.335v5.406L42.012,21.9V17.452a3.341,3.341,0,0,1,.154-1.008.9.9,0,1,0-1.724-.546,5.145,5.145,0,0,0-.239,1.553v4.193l-4.245-.607V11.207ZM62.622,24.852l-6.67-.954V19.714a3.335,3.335,0,0,1,6.669,0v5.138Zm-32.088-2.1a1.911,1.911,0,0,1,1.523-.448l40.936,5.856A2.066,2.066,0,0,1,74.758,30.2v11.44l-2.685-.384V35.108a5.143,5.143,0,1,0-10.286,0v4.675l-4.327-.619V33.023a5.143,5.143,0,1,0-10.286,0v4.669l-4.327-.619V30.94a5.143,5.143,0,0,0-10.287,0V35.6l-2.686-.384V24.2a1.911,1.911,0,0,1,.659-1.444ZM55.651,38.905l-6.668-.954V33.023a3.334,3.334,0,0,1,6.668,0v5.882ZM41.039,36.815l-6.67-.954V30.94a3.335,3.335,0,0,1,6.669,0v5.875Zm-7.57,23.116V50.676a3.334,3.334,0,1,1,6.668,0v9.255Zm44.968,0H41.946V50.676a5.143,5.143,0,1,0-10.286,0v9.255H26.2V38.723a1.912,1.912,0,0,1,2.182-1.893l36.657,5.244a.9.9,0,0,0,.256-1.791l-1.7-.243V35.108a3.334,3.334,0,1,1,6.668,0V41l-1.4-.2a.9.9,0,1,0-.256,1.791l8.066,1.154a2.066,2.066,0,0,1,1.765,2.035V59.931Z" transform="translate(-24.388 0)"/>
        <path id="Trazado_912190" data-name="Trazado 912190" d="M211.689,377.6a3.027,3.027,0,0,0-3.024,3.024v5.079a.9.9,0,0,0,.9.9h4.239a.9.9,0,0,0,.9-.9v-5.079A3.027,3.027,0,0,0,211.689,377.6Zm1.215,7.2h-2.43v-4.175a1.215,1.215,0,1,1,2.43,0Z" transform="translate(-186.444 -332.069)"/>
        <path id="Trazado_912191" data-name="Trazado 912191" d="M283.071,377.6a3.027,3.027,0,0,0-3.024,3.024v5.079a.9.9,0,0,0,.9.9h4.239a.9.9,0,0,0,.9-.9v-5.079a3.027,3.027,0,0,0-3.024-3.024Zm1.215,7.2h-2.43v-4.175a1.215,1.215,0,1,1,2.43,0Z" transform="translate(-249.218 -332.069)"/>
        <path id="Trazado_912192" data-name="Trazado 912192" d="M355.132,377.6a3.027,3.027,0,0,0-3.024,3.024v5.079a.9.9,0,0,0,.9.9h4.239a.9.9,0,0,0,.9-.9v-5.079a3.027,3.027,0,0,0-3.024-3.024Zm1.215,7.2h-2.43v-4.175a1.215,1.215,0,1,1,2.43,0Z" transform="translate(-312.59 -332.069)"/>
      </g>
    </g>
  </g>
</svg>
