<svg xmlns="http://www.w3.org/2000/svg" xmlns:xlink="http://www.w3.org/1999/xlink" width="380.639" height="359.927" viewBox="0 0 380.639 359.927">
  <defs>
    <clipPath id="clip-path">
      <rect id="Rectángulo_403281" data-name="Rectángulo 403281" width="339.476" height="359.927" fill="none"/>
    </clipPath>
    <clipPath id="clip-path-3">
      <rect id="Rectángulo_403277" data-name="Rectángulo 403277" width="74.998" height="95.42" fill="none"/>
    </clipPath>
    <clipPath id="clip-path-5">
      <rect id="Rectángulo_403279" data-name="Rectángulo 403279" width="41.612" height="69.929" fill="none"/>
    </clipPath>
  </defs>
  <g id="Grupo_1102231" data-name="Grupo 1102231" transform="translate(-1039.361 -1416.525)">
    <g id="Grupo_1102230" data-name="Grupo 1102230">
      <g id="Grupo_1101803" data-name="Grupo 1101803" transform="translate(1039.361 1478.908)">
        <path id="Trazado_911259" data-name="Trazado 911259" d="M346.493,211.17c-8.726-29.733,38.137-74.053,26.825-129.3s-41.885-56.365-85.9-61.3S216.771-16.075,185.73,10.47s-42.067,42.984-100.469,13.9S-17.1,69.936,6.5,117.445s16.16,93.725,16.16,93.725Z" transform="translate(5.548 37.897)" fill="#ffdba9"/>
        <path id="Trazado_911233" data-name="Trazado 911233" d="M374.543,219a.687.687,0,0,0,.642-.443c5.337-14.069,6.7-24.749,4.556-35.71a77.345,77.345,0,0,0-5.663-16.9c-2.883-6.433-6.629-13.381-10.246-19.931-6.837-12.379-5.081-27.024-3.221-42.53,1.287-10.731,2.618-21.828,1.18-32.849a61.326,61.326,0,0,0-1.648-8.266,54.128,54.128,0,0,0-7.5-16.241,62.122,62.122,0,0,0-6.368-7.862,67.923,67.923,0,0,0-9.821-8.568,58.553,58.553,0,0,0-10.428-5.924,56.082,56.082,0,0,0-10.874-3.481A59.347,59.347,0,0,0,304,19.047a71.357,71.357,0,0,0-19.032,2.361A95.848,95.848,0,0,0,266.3,28.473a123.735,123.735,0,0,0-17.594,10.742,142.756,142.756,0,0,0-15.825,13.4c-23.173,22.689-52.3,34.27-84.8,34.27-16.675,0-34.235-3.049-52.333-9.211a59.206,59.206,0,0,0-11.874-2.7,64.384,64.384,0,0,0-12.159-.307A71.03,71.03,0,0,0,59.582,76.58a77.311,77.311,0,0,0-11.8,3.955,81.533,81.533,0,0,0-11.156,5.826A82.653,82.653,0,0,0,26.42,93.888a80.652,80.652,0,0,0-8.954,9.059,76.537,76.537,0,0,0-7.391,10.423,69.925,69.925,0,0,0-8.61,22.916,68.918,68.918,0,0,0,.278,26.027,78.917,78.917,0,0,0,4.131,13.8,93.649,93.649,0,0,0,7.136,14.115,116.983,116.983,0,0,0,10.4,14.285,151.312,151.312,0,0,0,13.912,14.31.687.687,0,0,0,.922-1.018,131.659,131.659,0,0,1-24.06-28.3A84.285,84.285,0,0,1,3.09,162.044a67.245,67.245,0,0,1,8.169-47.977C28.778,84.311,65.7,68.9,95.3,78.978A185.975,185.975,0,0,0,117.17,85a157.514,157.514,0,0,0,20.653,2.926,137.958,137.958,0,0,0,19.4.063,125.711,125.711,0,0,0,18.1-2.566,119.476,119.476,0,0,0,16.755-4.96,118.123,118.123,0,0,0,15.367-7.116,122.845,122.845,0,0,0,26.4-19.746,132.631,132.631,0,0,1,33.07-23.9,94.476,94.476,0,0,1,18.395-6.965,69.986,69.986,0,0,1,18.665-2.317c15.823.283,29.721,6.606,41.309,18.794,19.228,20.223,16.553,42.533,13.966,64.108-.951,7.933-1.85,15.426-1.658,22.695a53.561,53.561,0,0,0,1.264,10.66,40.52,40.52,0,0,0,1.522,5.1,36.912,36.912,0,0,0,2.254,4.908c3.6,6.524,7.333,13.441,10.2,19.828a76.026,76.026,0,0,1,5.568,16.6c2.09,10.692.747,21.147-4.493,34.959a.687.687,0,0,0,.642.931Z" transform="translate(-0.359 30.408)" fill="#ffdba9"/>
        <g id="Grupo_1100874" data-name="Grupo 1100874" transform="translate(7.568 0)">
          <path id="Elipse_11537" data-name="Elipse 11537" d="M9.76,19.52a9.76,9.76,0,0,0,6.9-16.662,9.76,9.76,0,1,0-13.8,13.8A9.7,9.7,0,0,0,9.76,19.52Zm0-16.937A7.177,7.177,0,1,1,2.583,9.76,7.185,7.185,0,0,1,9.76,2.583Z" transform="translate(336.026 138.676) rotate(-121.717)" fill="#39274d"/>
          <path id="Elipse_11538" data-name="Elipse 11538" d="M9.76,19.52a9.76,9.76,0,0,0,6.9-16.662,9.76,9.76,0,0,0-13.8,13.8A9.7,9.7,0,0,0,9.76,19.52Zm0-16.937A7.177,7.177,0,1,1,2.583,9.76,7.185,7.185,0,0,1,9.76,2.583Z" transform="translate(19.268 116.872) rotate(-170.783)" fill="#39274d"/>
          <path id="Trazado_911233-2" data-name="Trazado 911233" d="M560.926,249.646h16.743a1.291,1.291,0,0,0,1.155-1.869l-8.371-16.743a1.291,1.291,0,0,0-2.31,0l-8.371,16.743a1.291,1.291,0,0,0,1.155,1.869Zm14.653-2.583H563.015L569.3,234.5Z" transform="translate(-521.915 -36.746)" fill="#39274d"/>
          <path id="Trazado_911234" data-name="Trazado 911234" d="M419.371,64.237a4.719,4.719,0,1,1,4.719,4.719,4.72,4.72,0,0,1-4.719-4.719" transform="translate(-411.525 -59.518)" fill="#fe729d"/>
          <path id="Trazado_911235" data-name="Trazado 911235" d="M0,156.774a2.384,2.384,0,1,1,2.384,2.384A2.384,2.384,0,0,1,0,156.774" transform="translate(97.279 -59.914)" fill="#fe729d"/>
          <path id="Trazado_911236" data-name="Trazado 911236" d="M115.542,32.7a2.384,2.384,0,1,1,2.384,2.384,2.384,2.384,0,0,1-2.384-2.384" transform="translate(207.836 133.206)" fill="#fe729d"/>
          <path id="Trazado_911237" data-name="Trazado 911237" d="M600.278,292.012a2.384,2.384,0,1,1,2.384,2.384,2.384,2.384,0,0,1-2.384-2.384" transform="translate(-582.996 -44.991)" fill="#ffdba9"/>
        </g>
      </g>
      <g id="Grupo_1101940" data-name="Grupo 1101940" transform="translate(1068.173 1416.525)">
        <g id="Grupo_1101939" data-name="Grupo 1101939" clip-path="url(#clip-path)">
          <g id="Grupo_1101938" data-name="Grupo 1101938">
            <g id="Grupo_1101937" data-name="Grupo 1101937" clip-path="url(#clip-path)">
              <path id="Trazado_912954" data-name="Trazado 912954" d="M231.25,54.422c-8.038,2.669-10,3.259-15.572,11.919-5.343,8.312-10.848,23.677-15.633,36-8.841-2.511-27.6-6.88-33.789-10.477s-5.575-6.083-8.084-8.392c-2.911-2.679-5.963-9.091-8.339-5.573-1.6,2.376,1.713,3.977,1.506,6.979s-9.311-4.117-13.123-6.783c-2.53-1.77-8.392,3.775-6.04,9.792,2.084,5.331,5.415,8.706,11.391,11.234,6.318,2.672,9.612,4.008,17.541,7.567,8.283,3.72,42.411,18.83,45.784,16.721,7.694-3.8,14.732-27.583,19.387-37.861s1.591-20.857,4.97-31.129" transform="translate(14.351 5.933)" fill="#ffa8a7"/>
              <path id="Trazado_912955" data-name="Trazado 912955" d="M230.426,53.53c-3.442,4.537-2.024,2.7-3.088,9.7-.858,5.643-12.712,59.926-23.443,62.176-4.71.988-38.679-14.549-46.917-19.09,2.781-4.109,5.564-9.176,6.513-14.353,9.871,3.858,26.886,7.664,33,9.562,2.828-7.888,6.286-15.989,9.531-23.947,6.177-15.153,10.146-22,24.4-24.048" transform="translate(17.114 5.836)" fill="#27debf"/>
              <path id="Trazado_912956" data-name="Trazado 912956" d="M230.426,53.53c-3.442,4.537-2.024,2.7-3.088,9.7-.858,5.643-12.712,59.926-23.443,62.176-4.71.988-38.679-14.549-46.917-19.09,2.781-4.109,5.564-9.176,6.513-14.353,9.871,3.858,26.886,7.664,33,9.562,2.828-7.888,6.286-15.989,9.531-23.947,6.177-15.153,10.146-22,24.4-24.048" transform="translate(17.114 5.836)" fill="#8f61c2"/>
              <rect id="Rectángulo_403276" data-name="Rectángulo 403276" width="13.235" height="22.657" transform="translate(280.387 305.358)" fill="#ffa8a7"/>
              <path id="Trazado_912957" data-name="Trazado 912957" d="M221.9,285.643l-14.442.5-.723-26.18,16.36-.535Z" transform="translate(22.538 28.283)" fill="#ffa8a7"/>
              <path id="Trazado_912958" data-name="Trazado 912958" d="M269.628,136.59c0,12.046.831,82.088.831,82.088.294,3.467,3.631,9.63,3.889,22.116.376,18.106-2.408,60.756-2.408,60.756a16.6,16.6,0,0,1-14.046.277s-9.908-60.326-12.168-78.248c-1.973-15.642-7.608-56.566-7.608-56.566l-8.522,53.16a88.762,88.762,0,0,1,.705,19.235c-.59,8.291-6.865,49.5-6.865,49.5a27.7,27.7,0,0,1-16.838.152s-1.314-64.206-1.459-71.812c-.166-8.671,3.615-83.262,3.615-83.262Z" transform="translate(22.364 14.607)" fill="#37474f"/>
              <path id="Trazado_912959" data-name="Trazado 912959" d="M254.495,290.066v-1.891c-.709-.016-1.149.69-1.421,2.393-.194,1.219-.373,2.14-.774,3.744a44.344,44.344,0,0,1-2.311,6.774c-1.871,4.611-3.441,6.328-7.727,11.717-1.016,1.279-3.31,3.31-4.11,4.734s-1.081,5.387.277,6.293c5,3.331,12.585,3.424,17.953,1.85a10.836,10.836,0,0,0,7.794-8.756c.2-1.22.124-2.468.264-3.7a17.524,17.524,0,0,1,3.314-7.688,23.378,23.378,0,0,0,2.543-4.184c1.111-2.72.22-5.781-.49-8.491-.613-2.34-1.279-4.913-2.077-4.693,0,.285,0,1.443,0,1.443-.96,1.065-3.619,2.122-6.616,2.237-1.937.074-6.634-.309-6.619-1.787" transform="translate(25.891 31.416)" fill="#27debf"/>
              <path id="Trazado_912960" data-name="Trazado 912960" d="M254.495,290.066v-1.891c-.709-.016-1.149.69-1.421,2.393-.194,1.219-.373,2.14-.774,3.744a44.344,44.344,0,0,1-2.311,6.774c-1.871,4.611-3.441,6.328-7.727,11.717-1.016,1.279-3.31,3.31-4.11,4.734s-1.081,5.387.277,6.293c5,3.331,12.585,3.424,17.953,1.85a10.836,10.836,0,0,0,7.794-8.756c.2-1.22.124-2.468.264-3.7a17.524,17.524,0,0,1,3.314-7.688,23.378,23.378,0,0,0,2.543-4.184c1.111-2.72.22-5.781-.49-8.491-.613-2.34-1.279-4.913-2.077-4.693,0,.285,0,1.443,0,1.443-.96,1.065-3.619,2.122-6.616,2.237-1.937.074-6.634-.309-6.619-1.787" transform="translate(25.891 31.416)" fill="#8f61c2"/>
              <path id="Trazado_912961" data-name="Trazado 912961" d="M210.623,279.589c-.75.026-1.361,1.085-3.017,2.876a31.553,31.553,0,0,1-8.5,6.116c-5.41,2.708-15.93,6.876-20.691,9.021-2.974,1.339-2.835,4.932.24,6.977s10.5,3.518,19.41,1.524c4.855-1.086,11.177-5.571,15.177-5.328s11.487.184,14.439-1.852,1.772-6.382.937-10.118c-.911-4.077-1.827-10.434-3.176-10.156l-.07,1.52c-1.737,2.631-10.856,3.587-14.672,1.65Z" transform="translate(19.217 30.378)" fill="#27debf"/>
              <path id="Trazado_912962" data-name="Trazado 912962" d="M210.623,279.589c-.75.026-1.361,1.085-3.017,2.876a31.553,31.553,0,0,1-8.5,6.116c-5.41,2.708-15.93,6.876-20.691,9.021-2.974,1.339-2.835,4.932.24,6.977s10.5,3.518,19.41,1.524c4.855-1.086,11.177-5.571,15.177-5.328s11.487.184,14.439-1.852,1.772-6.382.937-10.118c-.911-4.077-1.827-10.434-3.176-10.156l-.07,1.52c-1.737,2.631-10.856,3.587-14.672,1.65Z" transform="translate(19.217 30.378)" fill="#8f61c2"/>
              <path id="Trazado_912963" data-name="Trazado 912963" d="M236.718,164.838s-11.254-3.671-18.738-10.9c0,0,3.39,6.347,13.47,12.254l-2.418,46.592Z" transform="translate(23.765 16.782)" fill="#263238"/>
              <path id="Trazado_912964" data-name="Trazado 912964" d="M247.51,53.053a122.352,122.352,0,0,1,13.708,3.967c3.422,1.22,5.26,4.466,5.989,7.673,2.332,10.27,2.737,31.811,2.737,31.811l.133,50.171c-8.688,6.328-44.392,9.542-62.676-3.811,0,0,2.237-59.75,2.237-69.05s5.168-20.473,19.436-21.3Z" transform="translate(22.611 5.725)" fill="#27debf"/>
              <path id="Trazado_912965" data-name="Trazado 912965" d="M247.51,53.053a122.352,122.352,0,0,1,13.708,3.967c3.422,1.22,5.26,4.466,5.989,7.673,2.332,10.27,2.737,31.811,2.737,31.811l.133,50.171c-8.688,6.328-44.392,9.542-62.676-3.811,0,0,2.237-59.75,2.237-69.05s5.168-20.473,19.436-21.3Z" transform="translate(22.611 5.725)" fill="#8f61c2"/>
              <path id="Trazado_912966" data-name="Trazado 912966" d="M312.7,106.1a.99.99,0,0,0-.382-.879.457.457,0,0,0-.1-.058l-2.012-1.174h0l0,0h0a.979.979,0,0,0-.978.1L269,127.283l-1.171-4.723a1.306,1.306,0,0,0-.581-.77l.008,0-2.094-1.215,0,.008a1.24,1.24,0,0,0-1.274.033l-17.113,9.878a3.076,3.076,0,0,0-1.392,2.41l0,57.067a1,1,0,0,0,.374.882l2.154,1.249a1,1,0,0,0,.948-.115l62.473-36.069a3.077,3.077,0,0,0,1.392-2.41Z" transform="translate(26.752 11.327)" fill="#27debf"/>
              <path id="Trazado_912967" data-name="Trazado 912967" d="M267.176,120.144a1.243,1.243,0,0,0-1.247.058l-17.112,9.877a2.967,2.967,0,0,0-.984,1.04L245.75,129.9a2.8,2.8,0,0,1,.983-1.04l17.112-9.877a1.24,1.24,0,0,1,1.272-.032v-.007Z" transform="translate(26.792 12.951)" fill="#b1ce95"/>
              <path id="Trazado_912968" data-name="Trazado 912968" d="M309.9,105.165a1.039,1.039,0,0,0-.913.135l-40.264,23.23a1.216,1.216,0,0,1-1.858-.74l-.187-.507,40.225-23.2a1.24,1.24,0,0,1,.617-.186.728.728,0,0,1,.359.09h.007Z" transform="translate(29.074 11.327)" fill="#b1ce95"/>
              <path id="Trazado_912969" data-name="Trazado 912969" d="M312.494,105.984l.024,47.4a3.068,3.068,0,0,1-1.393,2.411l-62.633,36.16a.82.82,0,0,1-1.23-.71V133.994a2.824,2.824,0,0,1,.406-1.367,2.947,2.947,0,0,1,.981-1.038l17.113-9.88a1.255,1.255,0,0,1,1.25-.057l.035.02h-.01a1.306,1.306,0,0,1,.581.772l1.173,4.721.185.509a1.216,1.216,0,0,0,1.855.74L311.1,105.183a1.03,1.03,0,0,1,.909-.134l.057.031.031.016.016.01a1,1,0,0,1,.38.879" transform="translate(26.957 11.447)" fill="#27debf"/>
              <path id="Trazado_912970" data-name="Trazado 912970" d="M294.991,113.951l0-7.48,4.447-2.572,0,7.485Z" transform="translate(32.161 11.327)" fill="#455a64"/>
              <path id="Trazado_912971" data-name="Trazado 912971" d="M247.973,189.4a.275.275,0,0,1-.062-.021l-2.154-1.249a1.011,1.011,0,0,1-.375-.884V130.18a2.817,2.817,0,0,1,.411-1.367l2.082,1.213v.006a2.817,2.817,0,0,0-.406,1.367v57.248a.81.81,0,0,0,.5.755" transform="translate(26.752 14.044)" fill="#8f61c2"/>
              <path id="Trazado_912972" data-name="Trazado 912972" d="M289.278,119.57C277.754,72.461,271.824,58,257.823,58.187c-4.086,4.886.223,20.087,2.926,27.476,0,0,12.386,30.251,14.684,41.052,2.018,9.49,4.305,21.427,4.16,29.585a5.908,5.908,0,0,1-1.6,3.88c-2.629,2.85-2.641,5.146-4.344,8.3-1.334,2.468-2.794,3.39-2.378,3.946.536.713,2.224,1.645,4.324.319a16.306,16.306,0,0,0,3.276-3.144,36.525,36.525,0,0,1-2.555,10.826l-2.929,1.69s.9,3.044,7.973,1.015c7.991-2.292,10.853-3.283,11.7-16.834a104.658,104.658,0,0,0,.149-15c-1.2-12.852-2.071-24.148-3.926-31.73" transform="translate(27.925 6.344)" fill="#ffa8a7"/>
              <path id="Trazado_912973" data-name="Trazado 912973" d="M256.091,56.577s10.679-.236,14.061,4.942c3.907,5.983,8.983,15.251,15.553,38.624s8.581,40.428,8.915,53.585c0,0-8.233,3.844-15.829-.542,0,0-3.365-20.332-6.347-31.149s-12.552-34.256-12.552-34.256-9.127-14.933-3.8-31.2" transform="translate(27.738 6.168)" fill="#27debf"/>
              <path id="Trazado_912974" data-name="Trazado 912974" d="M256.091,56.577s10.679-.236,14.061,4.942c3.907,5.983,8.983,15.251,15.553,38.624s8.581,40.428,8.915,53.585c0,0-8.233,3.844-15.829-.542,0,0-3.365-20.332-6.347-31.149s-12.552-34.256-12.552-34.256-9.127-14.933-3.8-31.2" transform="translate(27.738 6.168)" fill="#8f61c2"/>
              <path id="Trazado_912975" data-name="Trazado 912975" d="M244.216,18.9A16.743,16.743,0,1,1,227.472,2.156,16.743,16.743,0,0,1,244.216,18.9" transform="translate(22.974 0.235)" fill="#263238"/>
              <path id="Trazado_912976" data-name="Trazado 912976" d="M252.626,27.988s-2.713,12.747-3.8,14.842a5.772,5.772,0,0,1-3.336,2.689l.19-8.968Z" transform="translate(26.764 3.051)" fill="#263238"/>
              <path id="Trazado_912977" data-name="Trazado 912977" d="M249.022,11.526a6.279,6.279,0,0,1,5.2,1.829c2.234,2.283.986,9.431-1.8,16.432l-5.11.587Z" transform="translate(26.963 1.252)" fill="#263238"/>
              <path id="Trazado_912978" data-name="Trazado 912978" d="M249.516,31.147c1.024.612,2.485-1.356,3.75-2.678s5.39-3.13,7.448,1.207c2.1,4.419-1.817,10.258-5.065,11.279-5.6,1.757-6.437-1.833-6.437-1.833L248.8,59.93c-3.87,4.962-12.565,10.794-17.246,9.961-3.735-.664-4.55-6.976-.979-11.114l.017-6.145s-5.072.771-7.546.388c-4.118-.637-6.706-3.885-7.956-8.341-2.006-7.157-2.768-12.936-1.066-27.011,1.864-15.428,19.809-15.588,29.5-9.489s6,22.968,6,22.968" transform="translate(23.231 0.483)" fill="#ffa8a7"/>
              <path id="Trazado_912979" data-name="Trazado 912979" d="M214.5,11.269c3.385,2.748,5.587,4.215,12.128,4.449a29.274,29.274,0,0,0,12.982-2.553,8.429,8.429,0,0,0,1.931,4.24c2.331,2.377,3.671,2.427,4.587,3.01.353,2.775.34,6.339.511,9.131.057.943.053,5.852,2.289,4.451a11.418,11.418,0,0,0,1.949-2.187,32.744,32.744,0,0,1,2.572-2.858c1.768-1.608-.512-16.173-.512-16.173a7.068,7.068,0,0,0-1.217-7.864C249.3,2.249,245.923-1,234.934.294,227.1,1.22,218.576,3.663,211.688.28c-.949,3.947.39,9.022,2.814,10.989" transform="translate(23.045 0)" fill="#263238"/>
              <path id="Trazado_912980" data-name="Trazado 912980" d="M248.882,13.062l6.2-3.326a3.413,3.413,0,0,0-4.69-1.552,3.7,3.7,0,0,0-1.506,4.877" transform="translate(27.092 0.848)" fill="#263238"/>
              <path id="Trazado_912981" data-name="Trazado 912981" d="M228.866,48.676s9.189-1.851,12.4-3.559a10.592,10.592,0,0,0,4.441-4.394,14.484,14.484,0,0,1-2.523,5.182c-2.349,3-14.32,5.216-14.32,5.216Z" transform="translate(24.952 4.44)" fill="#f28f8f"/>
              <path id="Trazado_912982" data-name="Trazado 912982" d="M229.708,25.783a1.972,1.972,0,1,0,1.971-2.054,2,2,0,0,0-1.971,2.054" transform="translate(25.043 2.587)" fill="#263238"/>
              <path id="Trazado_912983" data-name="Trazado 912983" d="M231.485,19.686l4.079,2.251a2.445,2.445,0,0,0-.95-3.247,2.273,2.273,0,0,0-3.129,1" transform="translate(25.237 2.007)" fill="#263238"/>
              <path id="Trazado_912984" data-name="Trazado 912984" d="M230.013,37.672l-4.558,1.71a2.392,2.392,0,0,0,3.1,1.51,2.549,2.549,0,0,0,1.462-3.221" transform="translate(24.58 4.107)" fill="#f28f8f"/>
              <path id="Trazado_912985" data-name="Trazado 912985" d="M215.083,21.417l3.719-2.865a2.254,2.254,0,0,0-3.234-.5,2.466,2.466,0,0,0-.485,3.36" transform="translate(23.4 1.917)" fill="#263238"/>
              <path id="Trazado_912986" data-name="Trazado 912986" d="M215.794,25.442a1.908,1.908,0,1,0,1.908-1.986,1.938,1.938,0,0,0-1.908,1.986" transform="translate(23.527 2.557)" fill="#263238"/>
              <path id="Trazado_912987" data-name="Trazado 912987" d="M225.68,23.833l-.655,12.007L218.756,33.7Z" transform="translate(23.849 2.598)" fill="#f28f8f"/>
              <path id="Trazado_912988" data-name="Trazado 912988" d="M222.962,62.736c1.17,2.779,3.327,3.913,7.24,4.351a14.526,14.526,0,0,0,10.822-3.765l-4.866-4.844-6.168,4.649-.526-5.179Z" transform="translate(24.308 6.318)" fill="#263238"/>
              <path id="Trazado_912989" data-name="Trazado 912989" d="M225.8,60.9a12.95,12.95,0,0,0-.643,5.207,8.912,8.912,0,0,0,1.738,4.34,4.773,4.773,0,0,0,4.205.457,11.476,11.476,0,0,0,4-8.707l-5.341.61Z" transform="translate(24.54 6.639)" fill="#37474f"/>
              <path id="Trazado_912990" data-name="Trazado 912990" d="M227.362,69.506s-6.331,34.944-6.588,37.764,3.636,12.839,6.051,12.925,7.153-8.985,7.224-11.548-2.482-38.684-2.482-38.684Z" transform="translate(24.068 7.578)" fill="#37474f"/>
              <path id="Trazado_912991" data-name="Trazado 912991" d="M230.928,69.963a4.23,4.23,0,0,1-4.205-.457l-.1.552a4.82,4.82,0,0,0,4.373.865Z" transform="translate(24.707 7.578)" fill="#263238"/>
              <path id="Trazado_912992" data-name="Trazado 912992" d="M229.3,64.3l17.822-13.59.071-3.564s4.173,1.107,5.1,8.426c-2.541,5.9-7.147,10.943-13.91,14.8l-3.746-6.68Z" transform="translate(24.999 5.14)" fill="#27debf"/>
              <path id="Trazado_912993" data-name="Trazado 912993" d="M229.3,64.3l17.822-13.59.071-3.564s4.173,1.107,5.1,8.426c-2.541,5.9-7.147,10.943-13.91,14.8l-3.746-6.68Z" transform="translate(24.999 5.14)" fill="#8f61c2"/>
              <path id="Trazado_912994" data-name="Trazado 912994" d="M229.628,48.694s-4.189,1.945-5.978,4.894S221.877,66.1,221.877,66.1l4.268-3.876,3.961,1.906c-.38-3.751-.494-10.183-.494-10.183Z" transform="translate(24.19 5.309)" fill="#27debf"/>
              <path id="Trazado_912995" data-name="Trazado 912995" d="M229.628,48.694s-4.189,1.945-5.978,4.894S221.877,66.1,221.877,66.1l4.268-3.876,3.961,1.906c-.38-3.751-.494-10.183-.494-10.183Z" transform="translate(24.19 5.309)" fill="#8f61c2"/>
              <path id="Trazado_912996" data-name="Trazado 912996" d="M65.622,348.486,0,310.6V104.936l65.621,37.886Z" transform="translate(0 11.44)" fill="#263238"/>
              <path id="Trazado_912997" data-name="Trazado 912997" d="M59.17,144.418,152.914,90.3l0,205.664L59.171,350.082Z" transform="translate(6.451 9.844)" fill="#37474f"/>
              <path id="Trazado_912998" data-name="Trazado 912998" d="M159.365,94.02,65.621,148.142,0,110.256,93.744,56.133Z" transform="translate(0 6.12)" fill="#455a64"/>
              <path id="Trazado_912999" data-name="Trazado 912999" d="M67.623,263.545l75-43.3,0,52.123,1.725,1-75,43.3-1.725-1Z" transform="translate(7.372 24.012)" fill="#263238"/>
              <path id="Trazado_913000" data-name="Trazado 913000" d="M69.178,264.443l75-43.3,0,52.123-75,43.3Z" transform="translate(7.542 24.11)" fill="#455a64"/>
              <g id="Grupo_1101930" data-name="Grupo 1101930" transform="translate(76.718 245.255)" opacity="0.05">
                <g id="Grupo_1101929" data-name="Grupo 1101929">
                  <g id="Grupo_1101928" data-name="Grupo 1101928" clip-path="url(#clip-path-3)">
                    <path id="Trazado_913001" data-name="Trazado 913001" d="M69.178,264.443l75-43.3,0,52.123-75,43.3Z" transform="translate(-69.176 -221.145)" fill="#8f61c2"/>
                  </g>
                </g>
              </g>
              <path id="Trazado_913002" data-name="Trazado 913002" d="M95.979,253.622l12.753-7.363c1.656-.957,3-.52,3,.975a6,6,0,0,1-3,4.437l-12.755,7.363c-1.656.956-3,.519-3-.975a6,6,0,0,1,3-4.437" transform="translate(10.137 26.793)" fill="#263238"/>
              <path id="Trazado_913003" data-name="Trazado 913003" d="M67.623,206.795l75-43.3,0,52.123,1.725,1-75,43.3-1.725-1Z" transform="translate(7.372 17.825)" fill="#263238"/>
              <path id="Trazado_913004" data-name="Trazado 913004" d="M69.178,207.694l75-43.3,0,52.123-75,43.3Z" transform="translate(7.542 17.923)" fill="#455a64"/>
              <g id="Grupo_1101933" data-name="Grupo 1101933" transform="translate(76.718 182.318)" opacity="0.05">
                <g id="Grupo_1101932" data-name="Grupo 1101932">
                  <g id="Grupo_1101931" data-name="Grupo 1101931" clip-path="url(#clip-path-3)">
                    <path id="Trazado_913005" data-name="Trazado 913005" d="M69.178,207.694l75-43.3,0,52.123-75,43.3Z" transform="translate(-69.176 -164.395)" fill="#8f61c2"/>
                  </g>
                </g>
              </g>
              <path id="Trazado_913006" data-name="Trazado 913006" d="M95.979,196.873l12.753-7.364c1.656-.956,3-.519,3,.976a6,6,0,0,1-3,4.437l-12.755,7.363c-1.656.956-3,.519-3-.975a6,6,0,0,1,3-4.437" transform="translate(10.137 20.606)" fill="#263238"/>
              <path id="Trazado_913007" data-name="Trazado 913007" d="M67.621,150.046l75-43.3V158.86l-75,43.3Z" transform="translate(7.372 11.638)" fill="#263238"/>
              <path id="Trazado_913008" data-name="Trazado 913008" d="M173.145,136.577l-41.609-24.009,0,45.919L173.143,182.5Z" transform="translate(14.34 12.272)" fill="#37474f"/>
              <g id="Grupo_1101936" data-name="Grupo 1101936" transform="translate(145.873 124.839)" opacity="0.1">
                <g id="Grupo_1101935" data-name="Grupo 1101935">
                  <g id="Grupo_1101934" data-name="Grupo 1101934" clip-path="url(#clip-path-5)">
                    <path id="Trazado_913009" data-name="Trazado 913009" d="M173.145,136.577l-41.609-24.009,0,45.919L173.143,182.5Z" transform="translate(-131.533 -112.567)" fill="#8f61c2"/>
                  </g>
                </g>
              </g>
              <path id="Trazado_913010" data-name="Trazado 913010" d="M134.443,111.05l-2.911,1.678,41.613,24.015,2.91-1.678Z" transform="translate(14.34 12.107)" fill="#455a64"/>
              <path id="Trazado_913011" data-name="Trazado 913011" d="M151.7,115.848a1.043,1.043,0,0,0-.4-.927.458.458,0,0,0-.1-.06l-2.119-1.238h0l0,0h0a1.032,1.032,0,0,0-1.031.105L105.65,138.166l-1.233-4.977a1.373,1.373,0,0,0-.613-.811l.009,0-2.206-1.281v.009a1.3,1.3,0,0,0-1.342.034L82.234,141.546a3.239,3.239,0,0,0-1.466,2.539l0,60.13a1.051,1.051,0,0,0,.394.929l2.27,1.315a1.049,1.049,0,0,0,1-.121l65.826-38.005a3.242,3.242,0,0,0,1.466-2.54Z" transform="translate(8.806 12.377)" fill="#27debf"/>
              <path id="Trazado_913012" data-name="Trazado 913012" d="M103.732,130.644a1.312,1.312,0,0,0-1.313.061L84.388,141.112a3.11,3.11,0,0,0-1.036,1.1l-2.2-1.28a2.946,2.946,0,0,1,1.036-1.1l18.031-10.407a1.31,1.31,0,0,1,1.341-.034v-.007Z" transform="translate(8.848 14.088)" fill="#8f61c2"/>
              <path id="Trazado_913013" data-name="Trazado 913013" d="M148.746,114.86a1.1,1.1,0,0,0-.962.142l-42.426,24.476a1.28,1.28,0,0,1-1.956-.779l-.2-.535,42.382-24.443a1.3,1.3,0,0,1,.651-.2.762.762,0,0,1,.378.1h.008Z" transform="translate(11.252 12.377)" fill="#8f61c2"/>
              <path id="Trazado_913014" data-name="Trazado 913014" d="M151.482,115.725l.026,49.945a3.231,3.231,0,0,1-1.467,2.54l-65.995,38.1a.864.864,0,0,1-1.3-.749V145.238a2.979,2.979,0,0,1,.428-1.442,3.1,3.1,0,0,1,1.035-1.094l18.032-10.41a1.32,1.32,0,0,1,1.316-.06l.038.021h-.011a1.367,1.367,0,0,1,.612.813l1.237,4.975.2.536a1.281,1.281,0,0,0,1.955.781l42.428-24.478a1.087,1.087,0,0,1,.959-.141l.06.032.032.017.017.011a1.05,1.05,0,0,1,.4.926" transform="translate(9.022 12.503)" fill="#27debf"/>
              <path id="Trazado_913015" data-name="Trazado 913015" d="M151.482,115.725l.026,49.945a3.231,3.231,0,0,1-1.467,2.54l-65.995,38.1a.864.864,0,0,1-1.3-.749V145.238a2.979,2.979,0,0,1,.428-1.442,3.1,3.1,0,0,1,1.035-1.094l18.032-10.41a1.32,1.32,0,0,1,1.316-.06l.038.021h-.011a1.367,1.367,0,0,1,.612.813l1.237,4.975.2.536a1.281,1.281,0,0,0,1.955.781l42.428-24.478a1.087,1.087,0,0,1,.959-.141l.06.032.032.017.017.011a1.05,1.05,0,0,1,.4.926" transform="translate(9.022 12.503)" fill="#8f61c2"/>
              <path id="Trazado_913016" data-name="Trazado 913016" d="M105.657,139.927l0-7.882,4.687-2.71v7.887Z" transform="translate(11.519 14.1)" fill="#e0e0e0"/>
              <path id="Trazado_913017" data-name="Trazado 913017" d="M83.5,203.62a.3.3,0,0,1-.065-.022l-2.269-1.315a1.064,1.064,0,0,1-.4-.932v-60.13a2.981,2.981,0,0,1,.434-1.441l2.194,1.278v.006a2.972,2.972,0,0,0-.428,1.441v60.32a.855.855,0,0,0,.531.8" transform="translate(8.805 15.239)" fill="#8f61c2"/>
              <path id="Trazado_913018" data-name="Trazado 913018" d="M158.069,119.561a1.043,1.043,0,0,0-.4-.927.459.459,0,0,0-.1-.06l-2.119-1.238h0l0,0h0a1.032,1.032,0,0,0-1.031.105l-42.384,24.441-1.233-4.977a1.373,1.373,0,0,0-.613-.811l.009,0-2.206-1.281v.009a1.3,1.3,0,0,0-1.342.034L88.605,145.259a3.239,3.239,0,0,0-1.466,2.539l0,60.13a1.051,1.051,0,0,0,.394.929l2.27,1.315a1.049,1.049,0,0,0,1-.121l65.826-38.005a3.242,3.242,0,0,0,1.466-2.54Z" transform="translate(9.5 12.782)" fill="#27debf"/>
              <path id="Trazado_913019" data-name="Trazado 913019" d="M110.1,134.357a1.312,1.312,0,0,0-1.313.061L90.759,144.825a3.11,3.11,0,0,0-1.036,1.1l-2.2-1.28a2.946,2.946,0,0,1,1.036-1.1l18.031-10.407a1.31,1.31,0,0,1,1.341-.034V133.1Z" transform="translate(9.542 14.493)" fill="#8f61c2"/>
              <path id="Trazado_913020" data-name="Trazado 913020" d="M155.116,118.573a1.1,1.1,0,0,0-.962.142l-42.426,24.476a1.28,1.28,0,0,1-1.956-.779l-.2-.535,42.382-24.443a1.3,1.3,0,0,1,.65-.2.763.763,0,0,1,.379.1h.008Z" transform="translate(11.946 12.782)" fill="#8f61c2"/>
              <path id="Trazado_913021" data-name="Trazado 913021" d="M157.852,119.438l.025,49.945a3.231,3.231,0,0,1-1.467,2.54l-65.995,38.1a.864.864,0,0,1-1.3-.749V148.951a2.979,2.979,0,0,1,.428-1.442,3.1,3.1,0,0,1,1.035-1.094l18.032-10.41a1.32,1.32,0,0,1,1.316-.06l.038.021h-.011a1.371,1.371,0,0,1,.612.813l1.237,4.975.2.536a1.28,1.28,0,0,0,1.955.78l42.428-24.477a1.087,1.087,0,0,1,.959-.141l.06.032.032.017.017.011a1.051,1.051,0,0,1,.4.926" transform="translate(9.716 12.908)" fill="#27debf"/>
              <path id="Trazado_913022" data-name="Trazado 913022" d="M157.852,119.438l.025,49.945a3.231,3.231,0,0,1-1.467,2.54l-65.995,38.1a.864.864,0,0,1-1.3-.749V148.951a2.979,2.979,0,0,1,.428-1.442,3.1,3.1,0,0,1,1.035-1.094l18.032-10.41a1.32,1.32,0,0,1,1.316-.06l.038.021h-.011a1.371,1.371,0,0,1,.612.813l1.237,4.975.2.536a1.28,1.28,0,0,0,1.955.78l42.428-24.477a1.087,1.087,0,0,1,.959-.141l.06.032.032.017.017.011a1.051,1.051,0,0,1,.4.926" transform="translate(9.716 12.908)" fill="#8f61c2"/>
              <path id="Trazado_913023" data-name="Trazado 913023" d="M121.155,138.371l0-7.882,4.687-2.71v7.887Z" transform="translate(13.209 13.931)" fill="#e6e6e6"/>
              <path id="Trazado_913024" data-name="Trazado 913024" d="M89.868,207.333a.3.3,0,0,1-.065-.022L87.534,206a1.064,1.064,0,0,1-.4-.932v-60.13a2.981,2.981,0,0,1,.434-1.441l2.194,1.278v.006a2.972,2.972,0,0,0-.428,1.441v60.32a.855.855,0,0,0,.531.8" transform="translate(9.5 15.644)" fill="#8f61c2"/>
              <path id="Trazado_913025" data-name="Trazado 913025" d="M164.439,123.274a1.042,1.042,0,0,0-.4-.927.458.458,0,0,0-.1-.06l-2.119-1.238h0l0,0h0a1.034,1.034,0,0,0-1.031.1l-42.384,24.442-1.233-4.977a1.373,1.373,0,0,0-.613-.811l.009,0-2.206-1.281v.009a1.3,1.3,0,0,0-1.342.034L94.975,148.972a3.239,3.239,0,0,0-1.466,2.539l0,60.13a1.051,1.051,0,0,0,.394.929l2.27,1.315a1.049,1.049,0,0,0,1-.121L163,175.759a3.242,3.242,0,0,0,1.466-2.54Z" transform="translate(10.195 13.187)" fill="#27debf"/>
              <path id="Trazado_913026" data-name="Trazado 913026" d="M116.473,138.071a1.312,1.312,0,0,0-1.313.061L97.13,148.539a3.09,3.09,0,0,0-1.036,1.1l-2.2-1.28a2.946,2.946,0,0,1,1.036-1.1l18.03-10.407a1.31,1.31,0,0,1,1.341-.034v-.006Z" transform="translate(10.237 14.898)" fill="#27debf"/>
              <path id="Trazado_913027" data-name="Trazado 913027" d="M161.486,122.287a1.1,1.1,0,0,0-.962.142L118.1,146.905a1.28,1.28,0,0,1-1.956-.779l-.2-.535,42.382-24.443a1.3,1.3,0,0,1,.651-.2.77.77,0,0,1,.379.1h.007Z" transform="translate(12.641 13.187)" fill="#27debf"/>
              <path id="Trazado_913028" data-name="Trazado 913028" d="M164.222,123.151l.026,49.945a3.231,3.231,0,0,1-1.467,2.54l-65.995,38.1a.864.864,0,0,1-1.3-.749V152.664a2.972,2.972,0,0,1,.428-1.441,3.091,3.091,0,0,1,1.035-1.095l18.032-10.41a1.32,1.32,0,0,1,1.316-.06l.038.021h-.011a1.371,1.371,0,0,1,.612.813l1.237,4.975.2.536a1.28,1.28,0,0,0,1.955.78l42.428-24.477a1.087,1.087,0,0,1,.959-.141l.06.032.032.017.017.011a1.051,1.051,0,0,1,.4.926" transform="translate(10.411 13.312)" fill="#27debf"/>
              <path id="Trazado_913029" data-name="Trazado 913029" d="M164.222,123.151l.026,49.945a3.231,3.231,0,0,1-1.467,2.54l-65.995,38.1a.864.864,0,0,1-1.3-.749V152.664a2.972,2.972,0,0,1,.428-1.441,3.091,3.091,0,0,1,1.035-1.095l18.032-10.41a1.32,1.32,0,0,1,1.316-.06l.038.021h-.011a1.371,1.371,0,0,1,.612.813l1.237,4.975.2.536a1.28,1.28,0,0,0,1.955.78l42.428-24.477a1.087,1.087,0,0,1,.959-.141l.06.032.032.017.017.011a1.051,1.051,0,0,1,.4.926" transform="translate(10.411 13.312)" fill="#8f61c2"/>
              <path id="Trazado_913030" data-name="Trazado 913030" d="M136.652,136.814l0-7.881,4.686-2.712,0,7.887Z" transform="translate(14.898 13.761)" fill="#f0f0f0"/>
              <path id="Trazado_913031" data-name="Trazado 913031" d="M96.238,211.046a.3.3,0,0,1-.065-.022L93.9,209.708a1.064,1.064,0,0,1-.4-.932v-60.13a2.981,2.981,0,0,1,.434-1.441l2.194,1.278v.006a2.972,2.972,0,0,0-.428,1.441v60.32a.855.855,0,0,0,.531.8" transform="translate(10.195 16.049)" fill="#8f61c2"/>
              <path id="Trazado_913032" data-name="Trazado 913032" d="M170.81,126.987a1.043,1.043,0,0,0-.4-.927.465.465,0,0,0-.1-.06l-2.12-1.238h0l0,0h0a1.032,1.032,0,0,0-1.03.1l-42.385,24.442-1.233-4.977a1.369,1.369,0,0,0-.613-.811l.01,0-2.206-1.281v.009a1.3,1.3,0,0,0-1.342.034l-18.033,10.408a3.238,3.238,0,0,0-1.465,2.539v60.13a1.051,1.051,0,0,0,.395.929l2.27,1.315a1.046,1.046,0,0,0,1-.121l65.826-38.005a3.242,3.242,0,0,0,1.466-2.54Z" transform="translate(10.889 13.591)" fill="#27debf"/>
              <path id="Trazado_913033" data-name="Trazado 913033" d="M122.843,141.784a1.312,1.312,0,0,0-1.313.061L103.5,152.251a3.116,3.116,0,0,0-1.037,1.1l-2.2-1.28a2.946,2.946,0,0,1,1.036-1.1l18.031-10.407a1.31,1.31,0,0,1,1.341-.034v-.007Z" transform="translate(10.931 15.303)" fill="#b1ce95"/>
              <path id="Trazado_913034" data-name="Trazado 913034" d="M167.857,126a1.1,1.1,0,0,0-.962.142L124.47,150.618a1.28,1.28,0,0,1-1.956-.779l-.2-.535L164.7,124.862a1.3,1.3,0,0,1,.65-.2.764.764,0,0,1,.379.1h.007Z" transform="translate(13.335 13.591)" fill="#b1ce95"/>
              <path id="Trazado_913035" data-name="Trazado 913035" d="M170.593,126.864l.026,49.945a3.231,3.231,0,0,1-1.467,2.54l-65.995,38.1a.864.864,0,0,1-1.3-.749V156.377a2.972,2.972,0,0,1,.428-1.441,3.091,3.091,0,0,1,1.035-1.095l18.032-10.41a1.32,1.32,0,0,1,1.316-.06l.038.021H122.7a1.371,1.371,0,0,1,.612.813l1.237,4.975.2.536a1.28,1.28,0,0,0,1.955.78l42.428-24.477a1.087,1.087,0,0,1,.959-.141l.06.032.032.017.017.011a1.05,1.05,0,0,1,.4.926" transform="translate(11.105 13.717)" fill="#27debf"/>
              <path id="Trazado_913036" data-name="Trazado 913036" d="M152.15,135.258l0-7.882,4.686-2.71,0,7.887Z" transform="translate(16.588 13.591)" fill="#fafafa"/>
              <path id="Trazado_913037" data-name="Trazado 913037" d="M102.608,214.759a.3.3,0,0,1-.065-.022l-2.269-1.315a1.064,1.064,0,0,1-.4-.932V152.36a2.981,2.981,0,0,1,.434-1.441l2.194,1.278v.006a2.972,2.972,0,0,0-.428,1.441v60.32a.853.853,0,0,0,.531.8" transform="translate(10.889 16.454)" fill="#8f61c2"/>
              <path id="Trazado_913038" data-name="Trazado 913038" d="M110.784,172.58,69.175,148.571l0,45.919L110.782,218.5Z" transform="translate(7.541 16.198)" fill="#37474f"/>
              <path id="Trazado_913039" data-name="Trazado 913039" d="M72.083,147.053l-2.911,1.678,41.613,24.015,2.91-1.678Z" transform="translate(7.541 16.032)" fill="#455a64"/>
              <path id="Trazado_913040" data-name="Trazado 913040" d="M105.939,172.163l75-43.3,0,52.123-74.993,43.3Z" transform="translate(11.55 14.049)" fill="#455a64"/>
              <path id="Trazado_913041" data-name="Trazado 913041" d="M132.74,161.342l12.754-7.363c1.655-.957,3-.52,3,.975a6,6,0,0,1-3,4.437l-12.754,7.363c-1.657.956-3,.519-3-.975a6,6,0,0,1,3-4.437" transform="translate(14.145 16.732)" fill="#263238"/>
              <path id="Trazado_913042" data-name="Trazado 913042" d="M106.184,168.048l-2.5-1.442v52.12l2.5,1.444Z" transform="translate(11.304 18.164)" fill="#263238"/>
              <path id="Trazado_913043" data-name="Trazado 913043" d="M103.685,170.863l75-43.3,2.5,1.442-75,43.3Z" transform="translate(11.304 13.907)" fill="#37474f"/>
            </g>
          </g>
        </g>
      </g>
    </g>
  </g>
</svg>
