<svg xmlns="http://www.w3.org/2000/svg" xmlns:xlink="http://www.w3.org/1999/xlink" width="422.217" height="348.179" viewBox="0 0 422.217 348.179">
  <defs>
    <clipPath id="clip-path">
      <rect id="Rectángulo_403275" data-name="Rectángulo 403275" width="368.288" height="348.179" fill="none"/>
    </clipPath>
    <clipPath id="clip-path-3">
      <rect id="Rectángulo_403232" data-name="Rectángulo 403232" width="65.326" height="88.005" fill="none"/>
    </clipPath>
    <clipPath id="clip-path-5">
      <rect id="Rectángulo_403234" data-name="Rectángulo 403234" width="81.659" height="97.434" fill="none"/>
    </clipPath>
    <clipPath id="clip-path-7">
      <rect id="Rectángulo_403236" data-name="Rectángulo 403236" width="150.857" height="87.124" fill="none"/>
    </clipPath>
    <clipPath id="clip-path-9">
      <rect id="Rectángulo_403238" data-name="Rectángulo 403238" width="67.262" height="51.423" fill="none"/>
    </clipPath>
    <clipPath id="clip-path-10">
      <rect id="Rectángulo_403239" data-name="Rectángulo 403239" width="65.326" height="40.481" fill="none"/>
    </clipPath>
    <clipPath id="clip-path-12">
      <rect id="Rectángulo_403241" data-name="Rectángulo 403241" width="83.595" height="60.845" fill="none"/>
    </clipPath>
    <clipPath id="clip-path-13">
      <rect id="Rectángulo_403242" data-name="Rectángulo 403242" width="81.659" height="49.91" fill="none"/>
    </clipPath>
    <clipPath id="clip-path-14">
      <rect id="Rectángulo_403247" data-name="Rectángulo 403247" width="18.935" height="18.459" fill="none"/>
    </clipPath>
    <clipPath id="clip-path-15">
      <rect id="Rectángulo_403243" data-name="Rectángulo 403243" width="18.935" height="11.172" fill="none"/>
    </clipPath>
    <clipPath id="clip-path-16">
      <rect id="Rectángulo_403244" data-name="Rectángulo 403244" width="18.935" height="11.171" fill="none"/>
    </clipPath>
    <clipPath id="clip-path-19">
      <rect id="Rectángulo_403248" data-name="Rectángulo 403248" width="147.453" height="85.158" fill="none"/>
    </clipPath>
    <clipPath id="clip-path-20">
      <rect id="Rectángulo_403249" data-name="Rectángulo 403249" width="81.658" height="97.434" fill="none"/>
    </clipPath>
    <clipPath id="clip-path-21">
      <rect id="Rectángulo_403250" data-name="Rectángulo 403250" width="65.326" height="40.48" fill="none"/>
    </clipPath>
    <clipPath id="clip-path-22">
      <rect id="Rectángulo_403251" data-name="Rectángulo 403251" width="83.594" height="60.847" fill="none"/>
    </clipPath>
    <clipPath id="clip-path-23">
      <rect id="Rectángulo_403252" data-name="Rectángulo 403252" width="81.659" height="49.909" fill="none"/>
    </clipPath>
    <clipPath id="clip-path-24">
      <rect id="Rectángulo_403257" data-name="Rectángulo 403257" width="18.936" height="18.459" fill="none"/>
    </clipPath>
    <clipPath id="clip-path-25">
      <rect id="Rectángulo_403253" data-name="Rectángulo 403253" width="18.936" height="11.171" fill="none"/>
    </clipPath>
    <clipPath id="clip-path-26">
      <rect id="Rectángulo_403254" data-name="Rectángulo 403254" width="18.936" height="11.172" fill="none"/>
    </clipPath>
    <clipPath id="clip-path-30">
      <rect id="Rectángulo_403259" data-name="Rectángulo 403259" width="42.408" height="71.266" fill="none"/>
    </clipPath>
    <clipPath id="clip-path-32">
      <rect id="Rectángulo_403261" data-name="Rectángulo 403261" width="70.579" height="91.965" fill="none"/>
    </clipPath>
    <clipPath id="clip-path-33">
      <rect id="Rectángulo_403262" data-name="Rectángulo 403262" width="2.948" height="60.58" fill="none"/>
    </clipPath>
    <clipPath id="clip-path-36">
      <rect id="Rectángulo_403265" data-name="Rectángulo 403265" width="30.591" height="17.663" fill="none"/>
    </clipPath>
    <clipPath id="clip-path-37">
      <rect id="Rectángulo_403266" data-name="Rectángulo 403266" width="26.884" height="26.659" fill="none"/>
    </clipPath>
    <clipPath id="clip-path-38">
      <rect id="Rectángulo_403267" data-name="Rectángulo 403267" width="2.818" height="13.404" fill="none"/>
    </clipPath>
    <clipPath id="clip-path-39">
      <rect id="Rectángulo_403268" data-name="Rectángulo 403268" width="6.231" height="8.591" fill="none"/>
    </clipPath>
    <clipPath id="clip-path-40">
      <rect id="Rectángulo_403269" data-name="Rectángulo 403269" width="3.356" height="13.477" fill="none"/>
    </clipPath>
    <clipPath id="clip-path-41">
      <rect id="Rectángulo_403270" data-name="Rectángulo 403270" width="135.992" height="76.963" fill="none"/>
    </clipPath>
    <clipPath id="clip-path-42">
      <rect id="Rectángulo_403271" data-name="Rectángulo 403271" width="122.009" height="69.806" fill="none"/>
    </clipPath>
    <clipPath id="clip-path-44">
      <rect id="Rectángulo_403273" data-name="Rectángulo 403273" width="48.517" height="39.146" fill="none"/>
    </clipPath>
  </defs>
  <g id="Grupo_1102232" data-name="Grupo 1102232" transform="translate(-975.421 -2267.042)">
    <g id="Grupo_1101993" data-name="Grupo 1101993" transform="translate(975.421 2298.299)">
      <path id="Trazado_911259" data-name="Trazado 911259" d="M384.342,234.237c-9.679-32.981,42.3-82.142,29.755-143.421s-46.46-62.522-95.287-67.994-78.36-40.652-112.792-11.208S159.356,59.292,94.574,27.028-18.963,77.575,7.207,130.274,25.132,234.237,25.132,234.237Z" transform="translate(6.154 42.037)" fill="#ffdba9"/>
      <path id="Trazado_911233" data-name="Trazado 911233" d="M415.416,240.84a.762.762,0,0,0,.712-.492c5.92-15.606,7.431-27.452,5.054-39.611a85.8,85.8,0,0,0-6.282-18.743c-3.2-7.136-7.353-14.842-11.366-22.108-7.584-13.731-5.636-29.976-3.573-47.175,1.427-11.9,2.9-24.213,1.309-36.437a68.024,68.024,0,0,0-1.828-9.169,60.041,60.041,0,0,0-8.316-18.015,68.91,68.91,0,0,0-7.064-8.721,75.345,75.345,0,0,0-10.894-9.5A64.949,64.949,0,0,0,361.6,24.292a62.208,62.208,0,0,0-12.062-3.862,65.831,65.831,0,0,0-12.376-1.383,79.151,79.151,0,0,0-21.111,2.618,106.318,106.318,0,0,0-20.7,7.837,137.252,137.252,0,0,0-19.516,11.915,158.349,158.349,0,0,0-17.554,14.868C232.578,81.454,200.265,94.3,164.217,94.3c-18.5,0-37.975-3.382-58.05-10.217a65.674,65.674,0,0,0-13.171-3,71.417,71.417,0,0,0-13.487-.341,78.788,78.788,0,0,0-13.457,2.12,85.755,85.755,0,0,0-13.086,4.387,90.439,90.439,0,0,0-12.375,6.463,91.682,91.682,0,0,0-11.324,8.349,89.462,89.462,0,0,0-9.932,10.048,84.9,84.9,0,0,0-8.2,11.561,77.563,77.563,0,0,0-9.55,25.419,76.446,76.446,0,0,0,.308,28.87,87.538,87.538,0,0,0,4.582,15.3,103.879,103.879,0,0,0,7.915,15.657,129.761,129.761,0,0,0,11.532,15.845,167.839,167.839,0,0,0,15.432,15.873.762.762,0,0,0,1.023-1.129A146.041,146.041,0,0,1,15.69,208.127a93.491,93.491,0,0,1-12.3-30.462,74.591,74.591,0,0,1,9.061-53.218c19.433-33.006,60.383-50.1,93.227-38.921A206.289,206.289,0,0,0,129.93,92.2a174.72,174.72,0,0,0,22.908,3.245,153.027,153.027,0,0,0,21.516.07,139.441,139.441,0,0,0,20.075-2.846,132.525,132.525,0,0,0,18.585-5.5,131.024,131.024,0,0,0,17.046-7.893,136.263,136.263,0,0,0,29.288-21.9A147.119,147.119,0,0,1,296.03,30.868a104.8,104.8,0,0,1,20.4-7.726,77.63,77.63,0,0,1,20.7-2.571c17.551.314,32.967,7.328,45.821,20.847C404.287,63.85,401.319,88.6,398.45,112.529c-1.055,8.8-2.052,17.111-1.839,25.174a59.413,59.413,0,0,0,1.4,11.824,44.943,44.943,0,0,0,1.688,5.652,40.941,40.941,0,0,0,2.5,5.444c4,7.236,8.133,14.909,11.309,21.994a84.33,84.33,0,0,1,6.176,18.413c2.319,11.86.828,23.457-4.983,38.778a.762.762,0,0,0,.712,1.032Z" transform="translate(-0.359 35.809)" fill="#ffdba9"/>
      <g id="Grupo_1100874" data-name="Grupo 1100874" transform="translate(8.395 0)">
        <path id="Elipse_11537" data-name="Elipse 11537" d="M10.826,21.653A10.826,10.826,0,0,0,18.482,3.171,10.826,10.826,0,1,0,3.171,18.482,10.755,10.755,0,0,0,10.826,21.653Zm0-18.788a7.961,7.961,0,1,1-7.961,7.961A7.97,7.97,0,0,1,10.826,2.865Z" transform="translate(372.731 153.824) rotate(-121.717)" fill="#39274d"/>
        <path id="Elipse_11538" data-name="Elipse 11538" d="M10.826,21.653A10.826,10.826,0,0,0,18.482,3.171,10.826,10.826,0,0,0,3.171,18.482,10.755,10.755,0,0,0,10.826,21.653Zm0-18.788a7.961,7.961,0,1,1-7.961,7.961A7.97,7.97,0,0,1,10.826,2.865Z" transform="translate(21.373 129.638) rotate(-170.783)" fill="#39274d"/>
        <path id="Trazado_911233-2" data-name="Trazado 911233" d="M561.067,251.758h18.572a1.433,1.433,0,0,0,1.281-2.073l-9.286-18.572a1.433,1.433,0,0,0-2.563,0l-9.286,18.572a1.432,1.432,0,0,0,1.281,2.073Zm16.254-2.865H563.385l6.968-13.936Z" transform="translate(-517.795 -15.601)" fill="#39274d"/>
        <path id="Trazado_911234" data-name="Trazado 911234" d="M419.371,64.753a5.235,5.235,0,1,1,5.235,5.235,5.235,5.235,0,0,1-5.235-5.235" transform="translate(-410.668 -59.518)" fill="#fe729d"/>
        <path id="Trazado_911235" data-name="Trazado 911235" d="M0,157.035a2.645,2.645,0,1,1,2.645,2.645A2.645,2.645,0,0,1,0,157.035" transform="translate(107.905 -49.594)" fill="#fe729d"/>
        <path id="Trazado_911236" data-name="Trazado 911236" d="M115.542,32.956a2.645,2.645,0,1,1,2.645,2.645,2.645,2.645,0,0,1-2.645-2.645" transform="translate(243.16 151.067)" fill="#fe729d"/>
        <path id="Trazado_911237" data-name="Trazado 911237" d="M600.278,292.273a2.644,2.644,0,1,1,2.645,2.644,2.645,2.645,0,0,1-2.645-2.644" transform="translate(-581.108 -18.268)" fill="#ffdba9"/>
      </g>
    </g>
    <g id="Grupo_1101927" data-name="Grupo 1101927" transform="translate(1000 2267.042)">
      <g id="Grupo_1101926" data-name="Grupo 1101926" clip-path="url(#clip-path)">
        <path id="Trazado_912802" data-name="Trazado 912802" d="M231.507,291.028V240.739l65.326-37.716v50.288Z" transform="translate(-23.743 -20.822)" fill="#8261bd"/>
        <g id="Grupo_1101809" data-name="Grupo 1101809">
          <g id="Grupo_1101808" data-name="Grupo 1101808" clip-path="url(#clip-path)">
            <g id="Grupo_1101807" data-name="Grupo 1101807" transform="translate(207.764 182.202)" opacity="0.3">
              <g id="Grupo_1101806" data-name="Grupo 1101806">
                <g id="Grupo_1101805" data-name="Grupo 1101805" clip-path="url(#clip-path-3)">
                  <path id="Trazado_912803" data-name="Trazado 912803" d="M231.507,291.028V240.739l65.326-37.716v50.288Z" transform="translate(-231.507 -203.023)"/>
                </g>
              </g>
            </g>
          </g>
        </g>
        <path id="Trazado_912804" data-name="Trazado 912804" d="M222.175,239.662l-81.659-47.145V242.8l81.659,47.145Z" transform="translate(-14.411 -19.744)" fill="#8261bd"/>
        <g id="Grupo_1101814" data-name="Grupo 1101814">
          <g id="Grupo_1101813" data-name="Grupo 1101813" clip-path="url(#clip-path)">
            <g id="Grupo_1101812" data-name="Grupo 1101812" transform="translate(126.105 172.772)" opacity="0.55">
              <g id="Grupo_1101811" data-name="Grupo 1101811">
                <g id="Grupo_1101810" data-name="Grupo 1101810" clip-path="url(#clip-path-5)">
                  <path id="Trazado_912805" data-name="Trazado 912805" d="M222.175,239.662l-81.659-47.145V242.8l81.659,47.145Z" transform="translate(-140.516 -192.516)"/>
                </g>
              </g>
            </g>
          </g>
        </g>
        <path id="Trazado_912806" data-name="Trazado 912806" d="M221.954,235.093l67.262-38.85-83.594-48.274-67.262,38.851Z" transform="translate(-14.19 -15.175)" fill="#8261bd"/>
        <g id="Grupo_1101819" data-name="Grupo 1101819">
          <g id="Grupo_1101818" data-name="Grupo 1101818" clip-path="url(#clip-path)">
            <g id="Grupo_1101817" data-name="Grupo 1101817" transform="translate(124.169 132.794)" opacity="0.15">
              <g id="Grupo_1101816" data-name="Grupo 1101816">
                <g id="Grupo_1101815" data-name="Grupo 1101815" clip-path="url(#clip-path-7)">
                  <path id="Trazado_912807" data-name="Trazado 912807" d="M221.954,235.093l67.262-38.85-83.594-48.274-67.262,38.851Z" transform="translate(-138.359 -147.969)"/>
                </g>
              </g>
            </g>
          </g>
        </g>
        <path id="Trazado_912808" data-name="Trazado 912808" d="M231.507,240.61v12.572l67.262-38.834V201.759Z" transform="translate(-23.743 -20.692)" fill="#8261bd"/>
        <g id="Grupo_1101827" data-name="Grupo 1101827">
          <g id="Grupo_1101826" data-name="Grupo 1101826" clip-path="url(#clip-path)">
            <g id="Grupo_1101822" data-name="Grupo 1101822" transform="translate(207.764 181.067)" opacity="0.3">
              <g id="Grupo_1101821" data-name="Grupo 1101821">
                <g id="Grupo_1101820" data-name="Grupo 1101820" clip-path="url(#clip-path-9)">
                  <path id="Trazado_912809" data-name="Trazado 912809" d="M231.507,240.61v12.572l67.262-38.834V201.759Z" transform="translate(-231.507 -201.759)"/>
                </g>
              </g>
            </g>
            <g id="Grupo_1101825" data-name="Grupo 1101825" transform="translate(207.764 194.774)" opacity="0.2">
              <g id="Grupo_1101824" data-name="Grupo 1101824">
                <g id="Grupo_1101823" data-name="Grupo 1101823" clip-path="url(#clip-path-10)">
                  <path id="Trazado_912810" data-name="Trazado 912810" d="M231.507,254.748l65.326-37.717V219.8l-65.325,37.717Z" transform="translate(-231.507 -217.032)"/>
                </g>
              </g>
            </g>
          </g>
        </g>
        <path id="Trazado_912811" data-name="Trazado 912811" d="M138.359,191.259l83.6,48.273v12.572l-83.6-48.264Z" transform="translate(-14.19 -19.615)" fill="#8261bd"/>
        <g id="Grupo_1101880" data-name="Grupo 1101880">
          <g id="Grupo_1101879" data-name="Grupo 1101879" clip-path="url(#clip-path)">
            <g id="Grupo_1101830" data-name="Grupo 1101830" transform="translate(124.169 171.645)" opacity="0.55">
              <g id="Grupo_1101829" data-name="Grupo 1101829">
                <g id="Grupo_1101828" data-name="Grupo 1101828" clip-path="url(#clip-path-12)">
                  <path id="Trazado_912812" data-name="Trazado 912812" d="M138.359,191.259l83.6,48.273v12.572l-83.6-48.264Z" transform="translate(-138.359 -191.26)"/>
                </g>
              </g>
            </g>
            <g id="Grupo_1101833" data-name="Grupo 1101833" transform="translate(126.105 185.344)" opacity="0.2">
              <g id="Grupo_1101832" data-name="Grupo 1101832">
                <g id="Grupo_1101831" data-name="Grupo 1101831" clip-path="url(#clip-path-13)">
                  <path id="Trazado_912813" data-name="Trazado 912813" d="M222.175,253.671l-81.66-47.145,0,2.764,81.657,47.145Z" transform="translate(-140.516 -206.525)"/>
                </g>
              </g>
            </g>
            <path id="Trazado_912814" data-name="Trazado 912814" d="M255.271,252.066l22.316-12.884c.961-.555,1.74-.105,1.74,1.005v13.2a3.846,3.846,0,0,1-1.74,3.014L255.271,269.28c-.961.555-1.741.105-1.741-1.006V255.081a3.85,3.85,0,0,1,1.741-3.015" transform="translate(-26.001 -24.505)" fill="#37474f"/>
            <path id="Trazado_912815" data-name="Trazado 912815" d="M256.93,253.931,276.385,242.7c.642-.37,1.161-.069,1.161.67v9.892a2.563,2.563,0,0,1-1.161,2.01L256.93,266.5c-.642.37-1.161.07-1.161-.67v-9.891a2.565,2.565,0,0,1,1.16-2.01" transform="translate(-26.231 -24.874)" fill="#f5f5f5"/>
            <g id="Grupo_1101848" data-name="Grupo 1101848" transform="translate(230.96 220.497)" opacity="0.5">
              <g id="Grupo_1101847" data-name="Grupo 1101847">
                <g id="Grupo_1101846" data-name="Grupo 1101846" clip-path="url(#clip-path-14)">
                  <g id="Grupo_1101836" data-name="Grupo 1101836">
                    <g id="Grupo_1101835" data-name="Grupo 1101835">
                      <g id="Grupo_1101834" data-name="Grupo 1101834" clip-path="url(#clip-path-15)">
                        <path id="Trazado_912816" data-name="Trazado 912816" d="M257.636,256.867a.283.283,0,0,1-.142-.528l18.371-10.606a.283.283,0,0,1,.283.49l-18.371,10.605a.278.278,0,0,1-.141.039" transform="translate(-257.353 -245.695)" fill="#455a64"/>
                      </g>
                    </g>
                  </g>
                  <g id="Grupo_1101839" data-name="Grupo 1101839" transform="translate(0 2.429)">
                    <g id="Grupo_1101838" data-name="Grupo 1101838">
                      <g id="Grupo_1101837" data-name="Grupo 1101837" clip-path="url(#clip-path-16)">
                        <path id="Trazado_912817" data-name="Trazado 912817" d="M257.636,259.573a.283.283,0,0,1-.142-.528l18.371-10.606a.283.283,0,0,1,.283.49l-18.371,10.605a.278.278,0,0,1-.141.039" transform="translate(-257.353 -248.402)" fill="#455a64"/>
                      </g>
                    </g>
                  </g>
                  <g id="Grupo_1101842" data-name="Grupo 1101842" transform="translate(0 4.858)">
                    <g id="Grupo_1101841" data-name="Grupo 1101841">
                      <g id="Grupo_1101840" data-name="Grupo 1101840" clip-path="url(#clip-path-16)">
                        <path id="Trazado_912818" data-name="Trazado 912818" d="M257.636,262.279a.283.283,0,0,1-.142-.528l18.371-10.606a.283.283,0,0,1,.283.49l-18.371,10.605a.269.269,0,0,1-.141.039" transform="translate(-257.353 -251.108)" fill="#455a64"/>
                      </g>
                    </g>
                  </g>
                  <g id="Grupo_1101845" data-name="Grupo 1101845" transform="translate(0 7.287)">
                    <g id="Grupo_1101844" data-name="Grupo 1101844">
                      <g id="Grupo_1101843" data-name="Grupo 1101843" clip-path="url(#clip-path-16)">
                        <path id="Trazado_912819" data-name="Trazado 912819" d="M257.636,264.986a.283.283,0,0,1-.142-.529l18.371-10.605a.283.283,0,0,1,.283.49l-18.371,10.605a.278.278,0,0,1-.141.039" transform="translate(-257.353 -253.815)" fill="#455a64"/>
                      </g>
                    </g>
                  </g>
                </g>
              </g>
            </g>
            <g id="Grupo_1101851" data-name="Grupo 1101851" transform="translate(125.97 132.794)" opacity="0.3">
              <g id="Grupo_1101850" data-name="Grupo 1101850">
                <g id="Grupo_1101849" data-name="Grupo 1101849" clip-path="url(#clip-path-19)">
                  <path id="Trazado_912820" data-name="Trazado 912820" d="M140.366,185.779l81.992,47.348,65.46-37.81-81.992-47.348Z" transform="translate(-140.366 -147.969)"/>
                </g>
              </g>
            </g>
            <path id="Trazado_912821" data-name="Trazado 912821" d="M231.728,230.661V180.373l65.327-37.717v50.289Z" transform="translate(-23.765 -14.63)" fill="#8261bd"/>
            <path id="Trazado_912822" data-name="Trazado 912822" d="M222.4,179.295l-81.659-47.145v50.288L222.4,229.583Z" transform="translate(-14.434 -13.553)" fill="#8261bd"/>
            <g id="Grupo_1101854" data-name="Grupo 1101854" transform="translate(126.304 118.596)" opacity="0.15">
              <g id="Grupo_1101853" data-name="Grupo 1101853">
                <g id="Grupo_1101852" data-name="Grupo 1101852" clip-path="url(#clip-path-20)">
                  <path id="Trazado_912823" data-name="Trazado 912823" d="M222.4,179.295l-81.659-47.145v50.288L222.4,229.583Z" transform="translate(-140.738 -132.149)"/>
                </g>
              </g>
            </g>
            <path id="Trazado_912824" data-name="Trazado 912824" d="M222.175,174.726l67.262-38.85L205.843,87.6,138.58,126.452Z" transform="translate(-14.212 -8.984)" fill="#8261bd"/>
            <path id="Trazado_912825" data-name="Trazado 912825" d="M222.175,174.726l67.262-38.85L205.843,87.6,138.58,126.452Z" transform="translate(-14.212 -8.984)" fill="#e07199"/>
            <path id="Trazado_912826" data-name="Trazado 912826" d="M231.728,180.242v12.572l67.262-38.834V141.392Z" transform="translate(-23.765 -14.501)" fill="#8261bd"/>
            <g id="Grupo_1101857" data-name="Grupo 1101857" transform="translate(207.963 140.598)" opacity="0.2">
              <g id="Grupo_1101856" data-name="Grupo 1101856">
                <g id="Grupo_1101855" data-name="Grupo 1101855" clip-path="url(#clip-path-21)">
                  <path id="Trazado_912827" data-name="Trazado 912827" d="M231.728,194.382l65.326-37.717v2.764l-65.325,37.717Z" transform="translate(-231.728 -156.665)"/>
                </g>
              </g>
            </g>
            <path id="Trazado_912828" data-name="Trazado 912828" d="M138.581,130.892l83.595,48.273v12.572l-83.595-48.263Z" transform="translate(-14.212 -13.424)" fill="#8261bd"/>
            <g id="Grupo_1101860" data-name="Grupo 1101860" transform="translate(124.369 117.468)" opacity="0.2">
              <g id="Grupo_1101859" data-name="Grupo 1101859">
                <g id="Grupo_1101858" data-name="Grupo 1101858" clip-path="url(#clip-path-22)">
                  <path id="Trazado_912829" data-name="Trazado 912829" d="M138.581,130.892l83.595,48.273v12.572l-83.595-48.263Z" transform="translate(-138.581 -130.892)"/>
                </g>
              </g>
            </g>
            <g id="Grupo_1101863" data-name="Grupo 1101863" transform="translate(126.303 131.168)" opacity="0.2">
              <g id="Grupo_1101862" data-name="Grupo 1101862">
                <g id="Grupo_1101861" data-name="Grupo 1101861" clip-path="url(#clip-path-23)">
                  <path id="Trazado_912830" data-name="Trazado 912830" d="M222.4,193.3l-81.66-47.145,0,2.763L222.4,196.068Z" transform="translate(-140.737 -146.158)"/>
                </g>
              </g>
            </g>
            <path id="Trazado_912831" data-name="Trazado 912831" d="M255.493,191.7l22.316-12.884c.961-.556,1.74-.105,1.74,1.005v13.194a3.848,3.848,0,0,1-1.74,3.015l-22.316,12.883c-.962.556-1.741.1-1.741-1.005V194.715a3.846,3.846,0,0,1,1.741-3.015" transform="translate(-26.024 -18.314)" fill="#455a64"/>
            <path id="Trazado_912832" data-name="Trazado 912832" d="M257.152,193.564l19.455-11.232c.642-.371,1.161-.07,1.161.669v9.892a2.566,2.566,0,0,1-1.161,2.011l-19.455,11.232c-.642.371-1.16.07-1.16-.67v-9.891a2.565,2.565,0,0,1,1.16-2.01" transform="translate(-26.254 -18.683)" fill="#f5f5f5"/>
            <g id="Grupo_1101878" data-name="Grupo 1101878" transform="translate(231.158 166.321)" opacity="0.5">
              <g id="Grupo_1101877" data-name="Grupo 1101877">
                <g id="Grupo_1101876" data-name="Grupo 1101876" clip-path="url(#clip-path-24)">
                  <g id="Grupo_1101866" data-name="Grupo 1101866">
                    <g id="Grupo_1101865" data-name="Grupo 1101865">
                      <g id="Grupo_1101864" data-name="Grupo 1101864" clip-path="url(#clip-path-25)">
                        <path id="Trazado_912833" data-name="Trazado 912833" d="M257.857,196.5a.283.283,0,0,1-.142-.528l18.371-10.606a.283.283,0,1,1,.283.49L258,196.462a.286.286,0,0,1-.141.038" transform="translate(-257.574 -185.328)" fill="#455a64"/>
                      </g>
                    </g>
                  </g>
                  <g id="Grupo_1101869" data-name="Grupo 1101869" transform="translate(0 2.428)">
                    <g id="Grupo_1101868" data-name="Grupo 1101868">
                      <g id="Grupo_1101867" data-name="Grupo 1101867" clip-path="url(#clip-path-26)">
                        <path id="Trazado_912834" data-name="Trazado 912834" d="M257.857,199.206a.283.283,0,0,1-.142-.528l18.371-10.606a.283.283,0,1,1,.283.49L258,199.168a.278.278,0,0,1-.141.039" transform="translate(-257.574 -188.034)" fill="#455a64"/>
                      </g>
                    </g>
                  </g>
                  <g id="Grupo_1101872" data-name="Grupo 1101872" transform="translate(0 4.858)">
                    <g id="Grupo_1101871" data-name="Grupo 1101871">
                      <g id="Grupo_1101870" data-name="Grupo 1101870" clip-path="url(#clip-path-25)">
                        <path id="Trazado_912835" data-name="Trazado 912835" d="M257.857,201.912a.283.283,0,0,1-.142-.528l18.371-10.606a.283.283,0,1,1,.283.49L258,201.874a.269.269,0,0,1-.141.039" transform="translate(-257.574 -190.741)" fill="#455a64"/>
                      </g>
                    </g>
                  </g>
                  <g id="Grupo_1101875" data-name="Grupo 1101875" transform="translate(0 7.286)">
                    <g id="Grupo_1101874" data-name="Grupo 1101874">
                      <g id="Grupo_1101873" data-name="Grupo 1101873" clip-path="url(#clip-path-26)">
                        <path id="Trazado_912836" data-name="Trazado 912836" d="M257.857,204.618a.283.283,0,0,1-.142-.528l18.371-10.605a.283.283,0,1,1,.283.49L258,204.58a.269.269,0,0,1-.141.039" transform="translate(-257.574 -193.447)" fill="#455a64"/>
                      </g>
                    </g>
                  </g>
                </g>
              </g>
            </g>
          </g>
        </g>
        <path id="Trazado_912837" data-name="Trazado 912837" d="M0,304.076l79.087,45.662V121.8L0,76.137Z" transform="translate(0 -7.808)" fill="#263238"/>
        <path id="Trazado_912838" data-name="Trazado 912838" d="M88.126,119.88,196.3,57.425l0,227.94L88.127,347.819Z" transform="translate(-9.038 -5.889)" fill="#37474f"/>
        <path id="Trazado_912839" data-name="Trazado 912839" d="M0,69l79.087,45.663L187.26,52.208,108.171,6.546Z" transform="translate(0 -0.671)" fill="#455a64"/>
        <path id="Trazado_912840" data-name="Trazado 912840" d="M98.768,295.6l89.065-51.423v53.11L98.768,348.706Z" transform="translate(-10.129 -25.042)" fill="#263238"/>
        <path id="Trazado_912841" data-name="Trazado 912841" d="M235.746,275.118,193.34,250.649l0,46.8,42.406,24.469Z" transform="translate(-19.828 -25.706)" fill="#37474f"/>
        <g id="Grupo_1101885" data-name="Grupo 1101885">
          <g id="Grupo_1101884" data-name="Grupo 1101884" clip-path="url(#clip-path)">
            <g id="Grupo_1101883" data-name="Grupo 1101883" transform="translate(173.51 224.944)" opacity="0.1">
              <g id="Grupo_1101882" data-name="Grupo 1101882">
                <g id="Grupo_1101881" data-name="Grupo 1101881" clip-path="url(#clip-path-30)">
                  <path id="Trazado_912842" data-name="Trazado 912842" d="M235.746,275.118,193.34,250.649l0,46.8,42.406,24.469Z" transform="translate(-193.338 -250.65)"/>
                </g>
              </g>
            </g>
          </g>
        </g>
        <path id="Trazado_912843" data-name="Trazado 912843" d="M196.3,248.738l-2.966,1.711,42.408,24.473,2.967-1.71Z" transform="translate(-19.828 -25.51)" fill="#455a64"/>
        <g id="Grupo_1101920" data-name="Grupo 1101920">
          <g id="Grupo_1101919" data-name="Grupo 1101919" clip-path="url(#clip-path)">
            <path id="Trazado_912844" data-name="Trazado 912844" d="M190.124,260.287a1.127,1.127,0,0,0-.434-1,.525.525,0,0,0-.112-.066l-2.289-1.336h0l0,0v0a1.113,1.113,0,0,0-1.113.112l-42.733,24.625-.7-2.357a1.48,1.48,0,0,0-.661-.875l.01,0L139.7,278v.01a1.407,1.407,0,0,0-1.449.038l-19.472,11.239a3.5,3.5,0,0,0-1.583,2.742l0,56.573a1.135,1.135,0,0,0,.425,1l2.452,1.421a1.133,1.133,0,0,0,1.078-.131L188.57,312a3.5,3.5,0,0,0,1.583-2.742Z" transform="translate(-12.02 -26.437)" fill="#8261bd"/>
            <path id="Trazado_912845" data-name="Trazado 912845" d="M190.395,260.448l.028,48.966a3.49,3.49,0,0,1-1.585,2.743l-67.594,39a.934.934,0,0,1-1.4-.809V293.567a3.208,3.208,0,0,1,.462-1.555,3.358,3.358,0,0,1,1.117-1.182l19.472-11.242a1.429,1.429,0,0,1,1.421-.064l.041.023h-.012a1.48,1.48,0,0,1,.661.877l.7,2.355.211.579c.293.971,1.868.971,2.744.468l42.147-24.29a1.172,1.172,0,0,1,1.035-.152l.065.035.035.018.018.011a1.133,1.133,0,0,1,.433,1" transform="translate(-12.291 -26.595)" fill="#8261bd"/>
            <g id="Grupo_1101888" data-name="Grupo 1101888" transform="translate(107.552 232.725)" opacity="0.15">
              <g id="Grupo_1101887" data-name="Grupo 1101887">
                <g id="Grupo_1101886" data-name="Grupo 1101886" clip-path="url(#clip-path-32)">
                  <path id="Trazado_912846" data-name="Trazado 912846" d="M190.395,260.448l.028,48.966a3.49,3.49,0,0,1-1.585,2.743l-67.594,39a.934.934,0,0,1-1.4-.809V293.567a3.208,3.208,0,0,1,.462-1.555,3.358,3.358,0,0,1,1.117-1.182l19.472-11.242a1.429,1.429,0,0,1,1.421-.064l.041.023h-.012a1.48,1.48,0,0,1,.661.877l.7,2.355.211.579c.293.971,1.868.971,2.744.468l42.147-24.29a1.172,1.172,0,0,1,1.035-.152l.065.035.035.018.018.011a1.133,1.133,0,0,1,.433,1" transform="translate(-119.843 -259.32)"/>
                </g>
              </g>
            </g>
            <g id="Grupo_1101891" data-name="Grupo 1101891" transform="translate(105.179 264.033)" opacity="0.35">
              <g id="Grupo_1101890" data-name="Grupo 1101890">
                <g id="Grupo_1101889" data-name="Grupo 1101889" clip-path="url(#clip-path-33)">
                  <path id="Trazado_912847" data-name="Trazado 912847" d="M120.147,354.786a.361.361,0,0,1-.07-.023l-2.451-1.422a1.149,1.149,0,0,1-.427-1.006V295.762a3.212,3.212,0,0,1,.468-1.556l2.368,1.381v.005a3.209,3.209,0,0,0-.462,1.556v56.778a.922.922,0,0,0,.573.86" transform="translate(-117.199 -294.206)"/>
                </g>
              </g>
            </g>
            <path id="Trazado_912848" data-name="Trazado 912848" d="M198.625,265.242a1.127,1.127,0,0,0-.434-1,.526.526,0,0,0-.112-.065l-2.289-1.336h0l-.005,0v0a1.117,1.117,0,0,0-1.113.112l-42.732,24.625-.7-2.357a1.483,1.483,0,0,0-.661-.875l.01,0-2.383-1.383,0,.01a1.407,1.407,0,0,0-1.449.038l-19.472,11.239a3.5,3.5,0,0,0-1.583,2.742l0,56.574a1.134,1.134,0,0,0,.425,1l2.451,1.421a1.133,1.133,0,0,0,1.078-.131l67.414-38.9a3.5,3.5,0,0,0,1.583-2.742Z" transform="translate(-12.892 -26.945)" fill="#8261bd"/>
            <path id="Trazado_912849" data-name="Trazado 912849" d="M150.6,286.609a1.416,1.416,0,0,0-1.418.066l-19.471,11.238a3.362,3.362,0,0,0-1.119,1.185l-2.371-1.382a3.183,3.183,0,0,1,1.118-1.185l19.471-11.238a1.411,1.411,0,0,1,1.448-.036v-.007Z" transform="translate(-12.945 -29.236)" fill="#e07199"/>
            <path id="Trazado_912850" data-name="Trazado 912850" d="M201.076,264.176a1.18,1.18,0,0,0-1.038.153l-42.144,24.288c-.878.505-2.454.506-2.746-.466l-.213-.578,42.731-24.627a1.4,1.4,0,0,1,.7-.212.822.822,0,0,1,.409.1h.008Z" transform="translate(-15.89 -26.945)" fill="#e07199"/>
            <path id="Trazado_912851" data-name="Trazado 912851" d="M198.9,265.4l.028,48.966a3.49,3.49,0,0,1-1.585,2.743l-67.594,39a.933.933,0,0,1-1.4-.809V298.523a3.208,3.208,0,0,1,.461-1.556,3.375,3.375,0,0,1,1.117-1.182L149.4,284.543a1.427,1.427,0,0,1,1.421-.064l.041.023h-.012a1.475,1.475,0,0,1,.661.878l.7,2.354.211.579c.293.971,1.868.971,2.744.468l42.147-24.29a1.168,1.168,0,0,1,1.035-.152l.065.035.035.017.018.013a1.132,1.132,0,0,1,.433,1" transform="translate(-13.163 -27.103)" fill="#8261bd"/>
            <g id="Grupo_1101894" data-name="Grupo 1101894" transform="translate(112.809 268.48)" opacity="0.2">
              <g id="Grupo_1101893" data-name="Grupo 1101893">
                <g id="Grupo_1101892" data-name="Grupo 1101892" clip-path="url(#clip-path-33)">
                  <path id="Trazado_912852" data-name="Trazado 912852" d="M128.648,359.741a.307.307,0,0,1-.07-.023l-2.451-1.422a1.149,1.149,0,0,1-.427-1.006V300.717a3.212,3.212,0,0,1,.468-1.556l2.368,1.381v.005a3.212,3.212,0,0,0-.462,1.556v56.778a.922.922,0,0,0,.573.86" transform="translate(-125.7 -299.161)"/>
                </g>
              </g>
            </g>
            <path id="Trazado_912853" data-name="Trazado 912853" d="M207.126,270.2a1.13,1.13,0,0,0-.435-1,.551.551,0,0,0-.112-.065l-2.289-1.336,0,0,0,0h0a1.116,1.116,0,0,0-1.113.113l-42.732,24.625-.7-2.357a1.479,1.479,0,0,0-.661-.876l.01,0-2.381-1.383v.01a1.4,1.4,0,0,0-1.449.038L135.784,299.2a3.5,3.5,0,0,0-1.583,2.742l0,56.573a1.135,1.135,0,0,0,.425,1l2.452,1.421a1.133,1.133,0,0,0,1.078-.131l67.412-38.9a3.5,3.5,0,0,0,1.584-2.742Z" transform="translate(-13.763 -27.453)" fill="#8261bd"/>
            <path id="Trazado_912854" data-name="Trazado 912854" d="M159.1,291.564a1.416,1.416,0,0,0-1.418.065l-19.471,11.238a3.353,3.353,0,0,0-1.118,1.185l-2.372-1.382a3.183,3.183,0,0,1,1.118-1.185l19.471-11.237a1.411,1.411,0,0,1,1.448-.037V290.2Z" transform="translate(-13.816 -29.745)" fill="#e07199"/>
            <path id="Trazado_912855" data-name="Trazado 912855" d="M209.577,269.131a1.184,1.184,0,0,0-1.038.154l-42.144,24.289c-.877.5-2.454.505-2.746-.467l-.213-.578L206.167,267.9a1.4,1.4,0,0,1,.7-.212.831.831,0,0,1,.409.1h.008Z" transform="translate(-16.762 -27.454)" fill="#e07199"/>
            <path id="Trazado_912856" data-name="Trazado 912856" d="M207.4,270.358l.028,48.966a3.489,3.489,0,0,1-1.585,2.743l-67.594,39a.933.933,0,0,1-1.4-.809V303.478a3.2,3.2,0,0,1,.462-1.556,3.359,3.359,0,0,1,1.117-1.182L157.9,289.5a1.427,1.427,0,0,1,1.421-.064l.041.023h-.012a1.472,1.472,0,0,1,.66.878l.7,2.354.211.579c.293.971,1.868.971,2.744.468l42.147-24.29a1.169,1.169,0,0,1,1.035-.152l.065.035.035.017.018.013a1.132,1.132,0,0,1,.433,1" transform="translate(-14.034 -27.611)" fill="#8261bd"/>
            <path id="Trazado_912857" data-name="Trazado 912857" d="M207.4,270.358l.028,48.966a3.489,3.489,0,0,1-1.585,2.743l-67.594,39a.933.933,0,0,1-1.4-.809V303.478a3.2,3.2,0,0,1,.462-1.556,3.359,3.359,0,0,1,1.117-1.182L157.9,289.5a1.427,1.427,0,0,1,1.421-.064l.041.023h-.012a1.472,1.472,0,0,1,.66.878l.7,2.354.211.579c.293.971,1.868.971,2.744.468l42.147-24.29a1.169,1.169,0,0,1,1.035-.152l.065.035.035.017.018.013a1.132,1.132,0,0,1,.433,1" transform="translate(-14.034 -27.611)" fill="#e07199"/>
            <g id="Grupo_1101897" data-name="Grupo 1101897" transform="translate(120.438 272.927)" opacity="0.05">
              <g id="Grupo_1101896" data-name="Grupo 1101896">
                <g id="Grupo_1101895" data-name="Grupo 1101895" clip-path="url(#clip-path-33)">
                  <path id="Trazado_912858" data-name="Trazado 912858" d="M137.149,364.7a.306.306,0,0,1-.07-.023l-2.452-1.422a1.148,1.148,0,0,1-.426-1.006V305.672a3.2,3.2,0,0,1,.468-1.556l2.367,1.381v.005a3.208,3.208,0,0,0-.462,1.556v56.778a.922.922,0,0,0,.574.86" transform="translate(-134.201 -304.116)"/>
                </g>
              </g>
            </g>
            <path id="Trazado_912859" data-name="Trazado 912859" d="M215.626,275.152a1.127,1.127,0,0,0-.434-1,.522.522,0,0,0-.113-.066l-2.288-1.336h0l0,0h0a1.117,1.117,0,0,0-1.114.113l-42.732,24.625-.7-2.357a1.485,1.485,0,0,0-.661-.876l.01,0-2.383-1.383,0,.01a1.4,1.4,0,0,0-1.449.038l-19.472,11.239a3.5,3.5,0,0,0-1.583,2.742l0,56.573a1.135,1.135,0,0,0,.425,1l2.452,1.421a1.131,1.131,0,0,0,1.077-.131l67.414-38.9a3.5,3.5,0,0,0,1.583-2.742Z" transform="translate(-14.635 -27.962)" fill="#8261bd"/>
            <path id="Trazado_912860" data-name="Trazado 912860" d="M167.6,296.519a1.414,1.414,0,0,0-1.418.066L146.71,307.822a3.363,3.363,0,0,0-1.119,1.185l-2.371-1.382a3.177,3.177,0,0,1,1.118-1.185L163.809,295.2a1.413,1.413,0,0,1,1.448-.036v-.007Z" transform="translate(-14.688 -30.253)" fill="#e07199"/>
            <path id="Trazado_912861" data-name="Trazado 912861" d="M218.078,274.086a1.186,1.186,0,0,0-1.038.153L174.9,298.529c-.877.5-2.454.505-2.746-.467l-.213-.578,42.731-24.627a1.4,1.4,0,0,1,.7-.212.831.831,0,0,1,.409.1h.008Z" transform="translate(-17.633 -27.962)" fill="#e07199"/>
            <path id="Trazado_912862" data-name="Trazado 912862" d="M215.9,275.313l.027,48.966a3.491,3.491,0,0,1-1.584,2.744l-67.594,39a.933.933,0,0,1-1.4-.809V308.433a3.206,3.206,0,0,1,.46-1.556,3.371,3.371,0,0,1,1.117-1.181L166.4,294.454a1.427,1.427,0,0,1,1.421-.065l.042.023h-.012a1.474,1.474,0,0,1,.66.878l.7,2.354.211.579c.293.971,1.868.971,2.744.468l42.147-24.29a1.174,1.174,0,0,1,1.036-.152l.066.035.034.017.018.013a1.132,1.132,0,0,1,.433,1" transform="translate(-14.906 -28.12)" fill="#8261bd"/>
            <path id="Trazado_912863" data-name="Trazado 912863" d="M215.9,275.313l.027,48.966a3.491,3.491,0,0,1-1.584,2.744l-67.594,39a.933.933,0,0,1-1.4-.809V308.433a3.206,3.206,0,0,1,.46-1.556,3.371,3.371,0,0,1,1.117-1.181L166.4,294.454a1.427,1.427,0,0,1,1.421-.065l.042.023h-.012a1.474,1.474,0,0,1,.66.878l.7,2.354.211.579c.293.971,1.868.971,2.744.468l42.147-24.29a1.174,1.174,0,0,1,1.036-.152l.066.035.034.017.018.013a1.132,1.132,0,0,1,.433,1" transform="translate(-14.906 -28.12)" fill="#e07199"/>
            <path id="Trazado_912864" data-name="Trazado 912864" d="M143.13,328.59l-42.406-24.469,0,46.8,42.405,24.469Z" transform="translate(-10.33 -31.19)" fill="#37474f"/>
            <path id="Trazado_912865" data-name="Trazado 912865" d="M103.688,302.21l-2.967,1.711,42.409,24.473,2.966-1.71Z" transform="translate(-10.33 -30.994)" fill="#455a64"/>
            <path id="Trazado_912866" data-name="Trazado 912866" d="M149.54,322.9,238.6,271.48l0,53.12-89.063,51.422Z" transform="translate(-15.336 -27.842)" fill="#455a64"/>
            <path id="Trazado_912867" data-name="Trazado 912867" d="M149.026,328.482l-4.5-2.6V379l4.5,2.6Z" transform="translate(-14.822 -33.422)" fill="#263238"/>
            <path id="Trazado_912868" data-name="Trazado 912868" d="M144.527,320.01l89.065-51.423,4.5,2.6-89.065,51.423Z" transform="translate(-14.822 -27.546)" fill="#37474f"/>
            <path id="Trazado_912869" data-name="Trazado 912869" d="M213.28,305.168l-3.13-1.819,0,0a.91.91,0,0,0-.945.08,2.907,2.907,0,0,0-1.315,2.279.916.916,0,0,0,.395.854v0l3.139,1.823c.439.254.557.469.564.51,0,.063-.158.4-.813.775l-14.6,8.431a6.8,6.8,0,0,1-5.941.145l-3.129-1.81-.006,0-.006,0v0a.927.927,0,0,0-.92.1,2.9,2.9,0,0,0-1.314,2.278.931.931,0,0,0,.372.84v0l.013.007.005,0,3.128,1.81a9.37,9.37,0,0,0,4.6,1.1,10.313,10.313,0,0,0,5.055-1.246l14.6-8.431A4.749,4.749,0,0,0,215.7,308.9a4.378,4.378,0,0,0-2.423-3.731" transform="translate(-18.999 -31.101)" fill="#263238"/>
            <path id="Trazado_912870" data-name="Trazado 912870" d="M156.113,328.339l16.958-9.791c.558-.322,1.011-.061,1.011.584v8.623a2.237,2.237,0,0,1-1.012,1.753l-16.957,9.79c-.559.322-1.011.061-1.011-.584v-8.622a2.235,2.235,0,0,1,1.011-1.753" transform="translate(-15.907 -32.655)" fill="#fafafa"/>
            <path id="Trazado_912871" data-name="Trazado 912871" d="M156.295,338.187v-7.935a1.2,1.2,0,0,1,.476-.825l16.364-9.447v7.935a1.207,1.207,0,0,1-.476.825Zm16.645-17.87L156.869,329.6a1.031,1.031,0,0,0-.38.656v7.6l16.071-9.279a1.031,1.031,0,0,0,.38-.656Z" transform="translate(-16.029 -32.816)" fill="#8261bd"/>
            <path id="Trazado_912872" data-name="Trazado 912872" d="M158.583,332.537a.389.389,0,0,1-.195-.726l12.654-7.306a.389.389,0,1,1,.389.675l-12.653,7.305a.385.385,0,0,1-.195.052" transform="translate(-16.224 -33.275)" fill="#e0e0e0"/>
            <path id="Trazado_912873" data-name="Trazado 912873" d="M158.583,334.871a.39.39,0,0,1-.195-.727l12.654-7.305a.389.389,0,1,1,.389.675l-12.653,7.305a.385.385,0,0,1-.195.052" transform="translate(-16.224 -33.514)" fill="#e0e0e0"/>
            <path id="Trazado_912874" data-name="Trazado 912874" d="M103.714,223.179l89.065-51.423,0,53.12L103.713,276.3Z" transform="translate(-10.637 -17.615)" fill="#455a64"/>
            <path id="Trazado_912875" data-name="Trazado 912875" d="M103.2,228.759l-4.5-2.6V279.28l4.5,2.6Z" transform="translate(-10.122 -23.195)" fill="#263238"/>
            <path id="Trazado_912876" data-name="Trazado 912876" d="M98.7,220.287l89.065-51.423,4.5,2.6L103.2,222.882Z" transform="translate(-10.123 -17.318)" fill="#37474f"/>
            <path id="Trazado_912877" data-name="Trazado 912877" d="M98.7,220.275l11.044-6.583,11.079-6.521c7.383-4.353,14.814-8.623,22.219-12.938l22.292-12.813c7.456-4.226,14.9-8.48,22.389-12.642l.044-.024.041.024,4.456,2.669-4.541-2.522h.084c-7.35,4.408-14.755,8.724-22.143,13.069l-22.241,12.9c-7.44,4.256-14.853,8.557-22.314,12.774L109.924,214Z" transform="translate(-10.122 -17.307)" fill="#263238"/>
            <path id="Trazado_912878" data-name="Trazado 912878" d="M167.454,205.445l-3.13-1.819,0,0a.91.91,0,0,0-.945.08,2.907,2.907,0,0,0-1.315,2.279.918.918,0,0,0,.395.854h0l3.139,1.824c.439.254.557.469.564.51,0,.063-.158.4-.813.774l-14.6,8.431a6.8,6.8,0,0,1-5.941.145l-3.129-1.81-.006,0-.006,0h0a.928.928,0,0,0-.919.1,2.9,2.9,0,0,0-1.315,2.278.931.931,0,0,0,.372.84v0l.013.008.005,0,3.128,1.809a9.361,9.361,0,0,0,4.6,1.1A10.313,10.313,0,0,0,152.6,221.6l14.6-8.431a4.75,4.75,0,0,0,2.673-3.994,4.379,4.379,0,0,0-2.424-3.731" transform="translate(-14.299 -20.873)" fill="#263238"/>
            <path id="Trazado_912879" data-name="Trazado 912879" d="M110.286,228.616l16.957-9.791c.559-.322,1.012-.061,1.012.584v8.623a2.234,2.234,0,0,1-1.012,1.752l-16.957,9.791c-.558.322-1.011.061-1.011-.584v-8.623a2.235,2.235,0,0,1,1.011-1.752" transform="translate(-11.207 -22.428)" fill="#fafafa"/>
            <path id="Trazado_912880" data-name="Trazado 912880" d="M110.468,238.464v-7.935a1.207,1.207,0,0,1,.476-.825l16.364-9.446v7.935a1.2,1.2,0,0,1-.477.825Zm16.645-17.869-16.071,9.278a1.037,1.037,0,0,0-.38.656v7.6l16.07-9.278a1.03,1.03,0,0,0,.38-.656Z" transform="translate(-11.329 -22.589)" fill="#8261bd"/>
            <path id="Trazado_912881" data-name="Trazado 912881" d="M112.755,232.814a.39.39,0,0,1-.195-.727l12.654-7.305a.389.389,0,1,1,.389.675l-12.653,7.305a.394.394,0,0,1-.195.052" transform="translate(-11.524 -23.048)" fill="#e0e0e0"/>
            <path id="Trazado_912882" data-name="Trazado 912882" d="M112.755,235.149a.39.39,0,0,1-.195-.727l12.654-7.305a.389.389,0,1,1,.389.675L112.95,235.1a.394.394,0,0,1-.195.052" transform="translate(-11.524 -23.287)" fill="#e0e0e0"/>
            <path id="Trazado_912883" data-name="Trazado 912883" d="M103.714,147.45l89.065-51.423,0,53.12-89.063,51.422Z" transform="translate(-10.637 -9.848)" fill="#455a64"/>
            <path id="Trazado_912884" data-name="Trazado 912884" d="M103.2,153.029l-4.5-2.6v53.117l4.5,2.6Z" transform="translate(-10.122 -15.428)" fill="#263238"/>
            <path id="Trazado_912885" data-name="Trazado 912885" d="M98.7,144.557l89.065-51.423,4.5,2.6L103.2,147.153Z" transform="translate(-10.123 -9.552)" fill="#37474f"/>
            <path id="Trazado_912886" data-name="Trazado 912886" d="M98.7,144.546l11.044-6.583,11.079-6.521c7.383-4.354,14.814-8.623,22.219-12.938l22.292-12.813c7.456-4.226,14.9-8.48,22.389-12.642l.044-.024.041.024,4.456,2.669L187.724,93.2h.084c-7.35,4.408-14.755,8.724-22.143,13.069l-22.241,12.9c-7.44,4.256-14.853,8.556-22.314,12.774l-11.187,6.334Z" transform="translate(-10.122 -9.54)" fill="#263238"/>
            <path id="Trazado_912887" data-name="Trazado 912887" d="M167.454,129.716l-3.13-1.819,0,0a.91.91,0,0,0-.945.08,2.907,2.907,0,0,0-1.315,2.279.918.918,0,0,0,.395.854h0l3.139,1.824c.439.254.557.469.564.51,0,.063-.158.4-.813.774l-14.6,8.431a6.8,6.8,0,0,1-5.941.145l-3.129-1.81-.006,0-.006,0h0a.928.928,0,0,0-.919.1,2.9,2.9,0,0,0-1.315,2.278.931.931,0,0,0,.372.84v0l.013.008.005,0,3.128,1.809a9.36,9.36,0,0,0,4.6,1.1,10.313,10.313,0,0,0,5.055-1.246l14.6-8.431a4.75,4.75,0,0,0,2.673-3.994,4.379,4.379,0,0,0-2.424-3.731" transform="translate(-14.299 -13.107)" fill="#263238"/>
            <path id="Trazado_912888" data-name="Trazado 912888" d="M110.286,152.485l16.957-9.791c.559-.322,1.012-.061,1.012.584V151.9a2.237,2.237,0,0,1-1.012,1.753l-16.957,9.79c-.558.322-1.011.061-1.011-.584v-8.622a2.235,2.235,0,0,1,1.011-1.753" transform="translate(-11.207 -14.62)" fill="#fafafa"/>
            <path id="Trazado_912889" data-name="Trazado 912889" d="M110.468,162.334V154.4a1.206,1.206,0,0,1,.476-.826l16.364-9.446v7.935a1.207,1.207,0,0,1-.477.826Zm16.645-17.87-16.071,9.278a1.035,1.035,0,0,0-.38.657V162l16.07-9.278a1.035,1.035,0,0,0,.38-.657Z" transform="translate(-11.329 -14.781)" fill="#8261bd"/>
            <path id="Trazado_912890" data-name="Trazado 912890" d="M112.755,156.684a.39.39,0,0,1-.195-.727l12.654-7.306a.389.389,0,1,1,.389.675l-12.653,7.306a.394.394,0,0,1-.195.052" transform="translate(-11.524 -15.24)" fill="#e0e0e0"/>
            <path id="Trazado_912891" data-name="Trazado 912891" d="M112.755,159.019a.39.39,0,0,1-.195-.727l12.654-7.306a.389.389,0,1,1,.389.675l-12.653,7.306a.394.394,0,0,1-.195.052" transform="translate(-11.524 -15.479)" fill="#e0e0e0"/>
            <g id="Grupo_1101900" data-name="Grupo 1101900" transform="translate(115.493 32.482)" opacity="0.15">
              <g id="Grupo_1101899" data-name="Grupo 1101899">
                <g id="Grupo_1101898" data-name="Grupo 1101898" clip-path="url(#clip-path-36)">
                  <path id="Trazado_912892" data-name="Trazado 912892" d="M133.171,38.78c-5.973,3.449-5.973,9.04,0,12.489s15.659,3.449,21.632,0,5.973-9.04,0-12.489-15.659-3.449-21.632,0" transform="translate(-128.691 -36.194)"/>
                </g>
              </g>
            </g>
            <path id="Trazado_912893" data-name="Trazado 912893" d="M153.8,44.4c5.275-5.383,8.374-18.823,3.229-23.092h-26.18c-5.144,4.268-2.049,17.7,3.224,23.087.045.05.1.1.144.149s.12.119.181.177c.149.144.307.286.477.424.041.034.083.066.126.1.129.1.257.2.4.3a7.326,7.326,0,0,0,.682.436,17.369,17.369,0,0,0,15.713,0h0a7.349,7.349,0,0,0,.687-.439c.131-.092.249-.187.371-.28.052-.042.1-.08.156-.123.163-.134.316-.27.459-.409.071-.066.14-.136.21-.2.039-.042.083-.083.121-.125" transform="translate(-13.149 -2.186)" fill="#ebebeb"/>
            <path id="Trazado_912894" data-name="Trazado 912894" d="M133.171,19.1c-5.973,3.449-5.973,9.041,0,12.491s15.659,3.448,21.632,0,5.973-9.042,0-12.491-15.659-3.449-21.632,0" transform="translate(-13.198 -1.693)" fill="#fafafa"/>
            <path id="Trazado_912895" data-name="Trazado 912895" d="M138.091,21.94c-3.634,2.1-3.634,5.5,0,7.6a14.546,14.546,0,0,0,13.161,0c3.634-2.1,3.634-5.5,0-7.6a14.546,14.546,0,0,0-13.161,0" transform="translate(-13.883 -2.089)" fill="#ebebeb"/>
            <path id="Trazado_912896" data-name="Trazado 912896" d="M151.314,25.959a14.544,14.544,0,0,0-13.16,0,6.043,6.043,0,0,0-2.177,2,6.037,6.037,0,0,0,2.177,2,14.549,14.549,0,0,0,13.16,0,6.037,6.037,0,0,0,2.177-2,6.043,6.043,0,0,0-2.177-2" transform="translate(-13.945 -2.501)" fill="#e0e0e0"/>
            <path id="Trazado_912897" data-name="Trazado 912897" d="M143.323,26.607a10.6,10.6,0,0,1-7.477-4.272,30.908,30.908,0,0,1-2.092-3.209c-2.2-3.887-2.6-9.095-1.468-9.737s5.762,4.551,5.762,4.551a28.159,28.159,0,0,1-.487-6.635C137.756,3.843,138.6.7,139.59.063s3.21,3.732,4.161,6.9,1.519,5.767,1.519,5.767a49.046,49.046,0,0,1,1.705-7.284c1.154-3.286,2.2-4.029,3.013-3.7s1.347,1.858,1.584,6.234a43.408,43.408,0,0,1-.2,6.264s1.631-1.793,3.442-3.533c1.989-1.91,2.839-2.173,3.408-1.809s.724,3.337-2.355,8.906a34.5,34.5,0,0,1-3.217,4.814,10.631,10.631,0,0,1-9.161,4.007l-.171-.015" transform="translate(-13.504 0)" fill="#8261bd"/>
            <g id="Grupo_1101903" data-name="Grupo 1101903" transform="translate(118.166)" opacity="0.15">
              <g id="Grupo_1101902" data-name="Grupo 1101902">
                <g id="Grupo_1101901" data-name="Grupo 1101901" clip-path="url(#clip-path-37)">
                  <path id="Trazado_912898" data-name="Trazado 912898" d="M143.323,26.607a10.6,10.6,0,0,1-7.477-4.272,30.908,30.908,0,0,1-2.092-3.209c-2.2-3.887-2.6-9.095-1.468-9.737s5.762,4.551,5.762,4.551a28.159,28.159,0,0,1-.487-6.635C137.756,3.843,138.6.7,139.59.063s3.21,3.732,4.161,6.9,1.519,5.767,1.519,5.767a49.046,49.046,0,0,1,1.705-7.284c1.154-3.286,2.2-4.029,3.013-3.7s1.347,1.858,1.584,6.234a43.408,43.408,0,0,1-.2,6.264s1.631-1.793,3.442-3.533c1.989-1.91,2.839-2.173,3.408-1.809s.724,3.337-2.355,8.906a34.5,34.5,0,0,1-3.217,4.814,10.631,10.631,0,0,1-9.161,4.007l-.171-.015" transform="translate(-131.67 0)"/>
                </g>
              </g>
            </g>
            <g id="Grupo_1101906" data-name="Grupo 1101906" transform="translate(124.023 2.924)" opacity="0.15">
              <g id="Grupo_1101905" data-name="Grupo 1101905">
                <g id="Grupo_1101904" data-name="Grupo 1101904" clip-path="url(#clip-path-38)">
                  <path id="Trazado_912899" data-name="Trazado 912899" d="M138.868,3.258a23.624,23.624,0,0,0-.638,4.381,28.194,28.194,0,0,0,.486,6.635l2.3,2.387s-2.29-7.627-2.145-13.4" transform="translate(-138.196 -3.258)"/>
                </g>
              </g>
            </g>
            <g id="Grupo_1101909" data-name="Grupo 1101909" transform="translate(137.354 8.933)" opacity="0.15">
              <g id="Grupo_1101908" data-name="Grupo 1101908">
                <g id="Grupo_1101907" data-name="Grupo 1101907" clip-path="url(#clip-path-39)">
                  <path id="Trazado_912900" data-name="Trazado 912900" d="M159.281,9.954a9.65,9.65,0,0,0-2.27,1.772c-1.811,1.74-3.442,3.533-3.442,3.533a22.246,22.246,0,0,1-.52,3.286c3.371-1.947,6.231-8.591,6.231-8.591" transform="translate(-153.05 -9.954)"/>
                </g>
              </g>
            </g>
            <g id="Grupo_1101912" data-name="Grupo 1101912" transform="translate(131.749 2.211)" opacity="0.15">
              <g id="Grupo_1101911" data-name="Grupo 1101911">
                <g id="Grupo_1101910" data-name="Grupo 1101910" clip-path="url(#clip-path-40)">
                  <path id="Trazado_912901" data-name="Trazado 912901" d="M148.11,10.464a34.488,34.488,0,0,1,2.052-8,9.555,9.555,0,0,0-1.65,3.222,49.047,49.047,0,0,0-1.705,7.284l.618,2.972s.234-2.622.686-5.478" transform="translate(-146.805 -2.464)"/>
                </g>
              </g>
            </g>
            <g id="Grupo_1101915" data-name="Grupo 1101915" transform="translate(7.928 31.104)" opacity="0.15">
              <g id="Grupo_1101914" data-name="Grupo 1101914">
                <g id="Grupo_1101913" data-name="Grupo 1101913" clip-path="url(#clip-path-41)">
                  <path id="Trazado_912902" data-name="Trazado 912902" d="M144.152,76.068c.9-.509.9-1.334,0-1.842L74.919,35.038a3.665,3.665,0,0,0-3.254,0L8.834,70.605,81.349,111.62Z" transform="translate(-8.834 -34.658)"/>
                </g>
              </g>
            </g>
            <path id="Trazado_912903" data-name="Trazado 912903" d="M139.255,76.891a1.021,1.021,0,0,0,.612-.835V74.77l-62-35.053a3.323,3.323,0,0,0-2.955,0l-57.055,32.3,64.367,37.162Z" transform="translate(-1.831 -4.038)" fill="#8261bd"/>
            <path id="Trazado_912904" data-name="Trazado 912904" d="M139.255,75.493c.816-.462.816-1.211,0-1.673l-61.387-35.5a3.329,3.329,0,0,0-2.955,0l-57.055,32.3,64.367,37.162Z" transform="translate(-1.831 -3.894)" fill="#8261bd"/>
            <g id="Grupo_1101918" data-name="Grupo 1101918" transform="translate(16.026 34.078)" opacity="0.5">
              <g id="Grupo_1101917" data-name="Grupo 1101917">
                <g id="Grupo_1101916" data-name="Grupo 1101916" clip-path="url(#clip-path-42)">
                  <path id="Trazado_912905" data-name="Trazado 912905" d="M139.255,75.493c.816-.462.816-1.211,0-1.673l-61.387-35.5a3.329,3.329,0,0,0-2.955,0l-57.055,32.3,64.367,37.162Z" transform="translate(-17.858 -37.972)"/>
                </g>
              </g>
            </g>
            <path id="Trazado_912906" data-name="Trazado 912906" d="M31.789,62.169l42.241-23.9a3.321,3.321,0,0,1,2.954,0L133.49,71.01l5.493-3.137v6.378l-.1.06c.183.393.035.827-.51,1.134L90,102.817,25.63,65.655v-6.97Z" transform="translate(-2.629 -3.889)" fill="#ebebeb"/>
            <path id="Trazado_912907" data-name="Trazado 912907" d="M138.371,67.681c.816-.462.816-1.211,0-1.673l-61.387-35.5a3.323,3.323,0,0,0-2.955,0L25.629,57.89,90,95.052Z" transform="translate(-2.628 -3.093)" fill="#fafafa"/>
            <path id="Trazado_912908" data-name="Trazado 912908" d="M90,98.221v6.969L25.63,68.027V61.058Z" transform="translate(-2.628 -6.262)" fill="#e6e6e6"/>
            <path id="Trazado_912909" data-name="Trazado 912909" d="M96.431,99.309a1.9,1.9,0,0,0,.546.184,1.686,1.686,0,0,0,.871-.017.749.749,0,0,0,.273-.1c.443-.234.392-.669-.119-.954a1.955,1.955,0,0,0-.767-.217,1.631,1.631,0,0,0-.922.151.167.167,0,0,0-.085.066c-.341.251-.273.619.2.887" transform="translate(-9.847 -10.071)" fill="#263238"/>
            <path id="Trazado_912910" data-name="Trazado 912910" d="M88.173,104.651a3.707,3.707,0,0,0,.751,2.409,2.653,2.653,0,0,0,2.115.986h.017a4.14,4.14,0,0,0,2.046-.6c.12-.067.257-.135.376-.217l-.836-.469c-2.013,1.1-3.617.168-3.617-2.107a7.9,7.9,0,0,1,3.65-6.2,2.468,2.468,0,0,1,2.747-.135,1.9,1.9,0,0,1,.75,1.071,1.706,1.706,0,0,0,.871-.017,2.978,2.978,0,0,0-.615-1.272,2.669,2.669,0,0,0-2.115-.97,4.205,4.205,0,0,0-2.064.6,8.67,8.67,0,0,0-4.077,6.924" transform="translate(-9.043 -9.961)" fill="#455a64"/>
            <path id="Trazado_912911" data-name="Trazado 912911" d="M90.534,95.065l56.787-27.21v.909a1.593,1.593,0,0,1-.739,1.255L90.534,96.327Z" transform="translate(-9.285 -6.959)" fill="#8261bd"/>
            <path id="Trazado_912912" data-name="Trazado 912912" d="M139.255,64.491c.816-.462.816-1.211,0-1.673l-61.387-35.5a3.323,3.323,0,0,0-2.955,0L17.858,54.173,82.225,91.336Z" transform="translate(-1.831 -2.766)" fill="#8261bd"/>
            <path id="Trazado_912913" data-name="Trazado 912913" d="M139.255,64.491c.816-.462.816-1.211,0-1.673l-61.387-35.5a3.323,3.323,0,0,0-2.955,0L17.858,54.173,82.225,91.336Z" transform="translate(-1.831 -2.766)" fill="#e07199"/>
            <path id="Trazado_912914" data-name="Trazado 912914" d="M82.225,111.01,17.858,73.848V57.257L82.223,94.449Z" transform="translate(-1.831 -5.872)" fill="#8261bd"/>
            <path id="Trazado_912915" data-name="Trazado 912915" d="M82.225,111.01,17.858,73.848V57.257L82.223,94.449Z" transform="translate(-1.831 -5.872)" fill="#e07199"/>
            <path id="Trazado_912916" data-name="Trazado 912916" d="M74.4,104.047a2.685,2.685,0,0,0,2.128-.985,3.766,3.766,0,0,0,.748-2.411,8.715,8.715,0,0,0-4.085-6.935,4.2,4.2,0,0,0-2.061-.6c-1.72,0-2.876,1.364-2.876,3.4a8.7,8.7,0,0,0,4.086,6.935,4.206,4.206,0,0,0,2.059.6Z" transform="translate(-7 -9.55)" fill="#455a64"/>
            <path id="Trazado_912917" data-name="Trazado 912917" d="M76.523,100.747c0,2.286-1.636,3.212-3.657,2.07a7.89,7.89,0,0,1-3.659-6.209c0-2.288,1.638-3.214,3.657-2.07a7.907,7.907,0,0,1,3.659,6.21" transform="translate(-7.098 -9.645)" fill="#f5f5f5"/>
            <path id="Trazado_912918" data-name="Trazado 912918" d="M58.559,89.559v1.254c0,2.512-1.8,3.53-4.018,2.274L27.49,77.017a8.673,8.673,0,0,1-4.017-6.822V68.941c0-2.512,1.8-3.53,4.017-2.274l27.052,16.07a8.674,8.674,0,0,1,4.018,6.822" transform="translate(-2.407 -6.782)" fill="#f5f5f5"/>
            <path id="Trazado_912919" data-name="Trazado 912919" d="M90.461,114.722V98.23l-.882.42,0,16.561Z" transform="translate(-9.187 -10.074)" fill="#8261bd"/>
          </g>
        </g>
        <g id="Grupo_1101925" data-name="Grupo 1101925">
          <g id="Grupo_1101924" data-name="Grupo 1101924" clip-path="url(#clip-path)">
            <path id="Trazado_912920" data-name="Trazado 912920" d="M345.51,319.721a4.615,4.615,0,0,0,2.016,3.864c4.416,2.465,10.816,2.957,16.093,1.326,6.06-1.874,8.81-5.037,9.988-9.181s.87-8.769-.826-14.3c-1.1-3.592-.344-8.457.106-12.1.766-6.206.178-9.934-1.832-12.785a8.771,8.771,0,0,0-9.985-3.335l1.2,42.6Z" transform="translate(-35.435 -27.97)"/>
            <path id="Trazado_912921" data-name="Trazado 912921" d="M352.943,300.868c.044,5.588-1.246,7.606-3.69,10.921-2.148,2.911-7.74,7.5-.581,11.021,5.574,2.741,19.428,2.445,23.126-6.782,2.871-7.163-1.457-13.873-.388-23.266.717-6.3.162-17.307-7.158-18.992-4-.92-5.3-.845-11.568,2.362-4.359,2.23-4.719,3.234-4.548,3.82l1.066-.489a7.99,7.99,0,0,1,8.327,3.568c2.524,3.946,2.834,9.79.119,13.636Z" transform="translate(-35.397 -28.025)" fill="#263238"/>
            <path id="Trazado_912922" data-name="Trazado 912922" d="M298.556,235.345l32.91-8.292c1.606,6.642,2.606,19.741-.16,29.75s-12.045,26.72-12.045,26.72L342.1,271.895s4.717-.425,8.21,5.885c5.515,9.963.312,19.969.312,19.969s-27.111,16-44.316,26.352c-17.007,10.231-27.753,13.415-37.038,6-5.485-4.378-6.657-12.491-4.529-24.114,3.611-19.713,33.817-70.646,33.817-70.646" transform="translate(-27.049 -23.286)" fill="#455a64"/>
            <path id="Trazado_912923" data-name="Trazado 912923" d="M306.363,326.807c17.2-10.35,44.314-26.351,44.314-26.351s5.2-10.006-.311-19.969c-3.462-6.253-8.118-5.894-8.2-5.886h-.007L319.318,286.23h0s4.215-7.592,7.81-15.607l.011-.024v0c.145-.325.291-.651.433-.977l.011-.022c.006-.015.013-.031.02-.046q.207-.471.409-.942c.007-.015.013-.031.02-.046.639-1.485,1.242-2.964,1.779-4.392.012-.03.022-.059.033-.088q.263-.7.5-1.379l-28.587-9.254c1.775,10.264,10.133,19.887,10.133,19.887s-11.471,29.99-17.113,44.671c-4.429,11.526-14.635,14.94-21.987,13.155a11.389,11.389,0,0,1-8.5-7.278v0a19.5,19.5,0,0,0,.731,2.709h0q.223.633.49,1.228c.009.02.019.038.028.057q.254.563.547,1.091c.03.051.062.1.092.15.181.316.37.626.573.923.064.092.135.178.2.268.179.249.36.5.556.73.126.15.266.288.4.432.152.164.3.334.456.49.3.3.622.579.958.846a19.787,19.787,0,0,0,3.56,2.289,16.783,16.783,0,0,0,2.793,1.089,16.413,16.413,0,0,0,1.935.438,18.134,18.134,0,0,0,3.027.237h.03q.984,0,2-.108a27.859,27.859,0,0,0,4.56-.865q1.751-.477,3.615-1.177,1.244-.466,2.543-1.028a111.767,111.767,0,0,0,12.97-6.881h0" transform="translate(-27.105 -25.993)" fill="#37474f"/>
            <g id="Grupo_1101923" data-name="Grupo 1101923" transform="translate(272.194 248.602)" opacity="0.15">
              <g id="Grupo_1101922" data-name="Grupo 1101922">
                <g id="Grupo_1101921" data-name="Grupo 1101921" clip-path="url(#clip-path-44)">
                  <path id="Trazado_912924" data-name="Trazado 912924" d="M322.255,302.734c6.757-8.658,25.452-20.506,29.562-23.21a7.912,7.912,0,0,0-5.653-2.507h-.007l-11.419,5.815-11.418,5.814s-11.038,23.879-20.019,27.513a42.552,42.552,0,0,0,18.955-13.425" transform="translate(-303.3 -277.012)"/>
                </g>
              </g>
            </g>
            <path id="Trazado_912925" data-name="Trazado 912925" d="M378.281,339.646a4.615,4.615,0,0,0,2.016,3.864c4.416,2.466,10.815,2.957,16.093,1.326,6.06-1.873,8.809-5.036,9.988-9.181s.87-8.769-.826-14.3c-1.1-3.592-.344-8.457.106-12.1.766-6.207.178-9.935-1.832-12.786a8.77,8.77,0,0,0-9.985-3.334l1.2,42.6Z" transform="translate(-38.795 -30.014)" fill="#263238"/>
            <path id="Trazado_912926" data-name="Trazado 912926" d="M385.712,320.792c.044,5.588-1.246,7.606-3.69,10.921-2.148,2.911-7.74,7.5-.582,11.021,5.575,2.742,19.429,2.446,23.127-6.782,2.87-7.163-1.457-13.873-.388-23.266.717-6.3.161-17.307-7.158-18.992-4-.92-5.3-.845-11.568,2.362-4.359,2.23-4.719,3.234-4.549,3.82l1.067-.488a7.99,7.99,0,0,1,8.327,3.567c2.524,3.947,2.834,9.79.119,13.636Z" transform="translate(-38.757 -30.068)" fill="#37474f"/>
            <path id="Trazado_912927" data-name="Trazado 912927" d="M384.239,296.337a9.567,9.567,0,0,0-11.47-4.973l-17.141,9.449s9.973-16.333,13.76-26c4.484-11.449,6.13-18.236,4.138-34.8l-46.31-.806-24.974-2.916c.821,23.295,17.349,34.254,17.349,34.254S304.108,308.779,301,321.694c-2.924,12.165-.855,21.325,4.63,25.7,9.285,7.409,21.332,6.246,38.339-3.985,17.2-10.35,41.313-27.408,41.313-27.408s4.609-8.888-1.046-19.667" transform="translate(-30.734 -24.234)" fill="#455a64"/>
            <path id="Trazado_912928" data-name="Trazado 912928" d="M358.67,321.147c10.47-14.392,19.853-20.356,24.689-23.3a10.353,10.353,0,0,0-6.483-.237l-17.141,9.448s-11.038,23.879-20.019,27.513a38.6,38.6,0,0,0,18.955-13.425" transform="translate(-34.84 -30.48)" fill="#37474f"/>
            <path id="Trazado_912929" data-name="Trazado 912929" d="M303.263,145.964c-12.535,4.777-13.192,8.367-16.771,18.875-4.092,12.014-10.9,30.8-14.416,40.842.7,5.031,14.412,15.363,19.729,14.132l16.261-36.494Z" transform="translate(-27.903 -14.97)" fill="#e6e6e6"/>
            <path id="Trazado_912930" data-name="Trazado 912930" d="M369.69,165.326c8.387,36.921,4.722,71.357,4.722,71.357-9.8,8.757-60.449,12.012-73.857-10.129,6.648-23.22.006-29.947-2.113-58.654-.424-5.736,0-18.693,5.614-22.1,6.088-3.689,14.632-5.069,14.4-8.475l22.23-3.128c.409,6.045,17.917,8.262,17.917,8.262,7.26,5.2,9.382,15.376,11.083,22.863" transform="translate(-30.595 -13.763)" fill="#f5f5f5"/>
            <path id="Trazado_912931" data-name="Trazado 912931" d="M314.712,111.653a17.3,17.3,0,0,0,7.379,2.039c2.227-.048,4.372.778,6.625.91,4.821.284,6.38,8.426,10.282,5.536.761-5.253,9.89-14.085,9.076-27.723-.414-6.922-4.27-12.409-10.683-14.3a8.834,8.834,0,0,0-6.089-6.528A25.249,25.249,0,0,0,320.5,70.045a44.756,44.756,0,0,0-10.732,1.63c-3.694,1.123-7.239,2.319-11.061,1.014-1.624-.555-1.947,1.042-1.816,2.3a10.45,10.45,0,0,0,.749,2.862,19.4,19.4,0,0,0,1.094,2.084,7.061,7.061,0,0,1-3.131-1.763c-.792-.713-2.332-2.473-3-1.383a6.429,6.429,0,0,0-.08,4.339,11.632,11.632,0,0,0,2.708,4.852c-1.977.441-2.825,2.446-3.022,3.692a8.333,8.333,0,0,0,2.51,7,11.264,11.264,0,0,0,5.766,2.518,4.578,4.578,0,0,1,1.635.741,10.69,10.69,0,0,1,1.392,2.018,30.991,30.991,0,0,0,11.2,9.7" transform="translate(-29.96 -7.179)" fill="#37474f"/>
            <path id="Trazado_912932" data-name="Trazado 912932" d="M331.155,84.782c-2,3.847-2.323,19.336-.726,30.462a16.8,16.8,0,0,0,2.111.287c4.821.284,6.357,8.8,10.259,5.911.761-5.254,10.461-13.26,9.648-26.9-.414-6.922-4.33-14.815-11.232-15.5,0,0-6.941,1.755-10.059,5.735" transform="translate(-33.784 -8.107)" fill="#455a64"/>
            <path id="Trazado_912933" data-name="Trazado 912933" d="M327.995,85.407c-.769,6.179,3.753,13.056,7.95,13.669-.267,3.437-.243,5.071.4,7.329a5.838,5.838,0,0,0,.9,2.012,2.51,2.51,0,0,0,1.876,1.038c.994.015,1.368-.613,1.627-1.407a25.075,25.075,0,0,1,1.336-2.975,5.75,5.75,0,0,1,.814-1.164c1.425-1.483,5.793-3.446,8.143,1.181,2.434,4.794-1.252,11.229-4.666,12.759-4.632,2.076-7.694-2.044-7.694-2.044l2.154,14.073a11.238,11.238,0,0,1-1.4,7.693c-3.368,5.625-10.382,10.663-14.3,18.734-4.6-6.262-6.381-14.877-5.9-19.063l-.613-6.045a29.574,29.574,0,0,1-8.725.332c-5.594-.895-8.046-5.666-9.407-10.566-2.584-9.306-3-32.5,1.907-35.022,2.4-.186,6.025,4.5,8.71,4.6,6.627.254,10.24-6.839,16.893-5.138" transform="translate(-30.624 -8.732)" fill="#ffa8a7"/>
            <path id="Trazado_912934" data-name="Trazado 912934" d="M325.309,105.417a2.147,2.147,0,1,1-2.518-1.7,2.147,2.147,0,0,1,2.518,1.7" transform="translate(-32.926 -10.633)" fill="#263238"/>
            <path id="Trazado_912935" data-name="Trazado 912935" d="M307.137,106.478a2.147,2.147,0,1,1-2.348-1.926,2.147,2.147,0,0,1,2.348,1.926" transform="translate(-31.06 -10.721)" fill="#263238"/>
            <path id="Trazado_912936" data-name="Trazado 912936" d="M320.9,135.195s8.111-1.872,11.519-3.966a15.738,15.738,0,0,0,6.34-7.1,10.149,10.149,0,0,1-3.356,7.562c-5.685,4.971-14.251,5.986-14.251,5.986Z" transform="translate(-32.911 -12.731)" fill="#f28f8f"/>
            <path id="Trazado_912937" data-name="Trazado 912937" d="M315.558,101.055l-.944,14.846-7.334-.926c.653-3.868,4.377-10.741,8.278-13.92" transform="translate(-31.514 -10.364)" fill="#f28f8f"/>
            <path id="Trazado_912938" data-name="Trazado 912938" d="M321.73,99.75l5.223,1.433a2.841,2.841,0,0,0-1.958-3.411,2.643,2.643,0,0,0-3.265,1.978" transform="translate(-32.996 -10.018)" fill="#263238"/>
            <path id="Trazado_912939" data-name="Trazado 912939" d="M301.353,101.981l5.04-2.095a2.62,2.62,0,0,0-3.481-1.532,2.866,2.866,0,0,0-1.559,3.627" transform="translate(-30.888 -10.066)" fill="#263238"/>
            <path id="Trazado_912940" data-name="Trazado 912940" d="M324,119.793l-8,2.392a4.008,4.008,0,0,0,5.055,2.881A4.389,4.389,0,0,0,324,119.793" transform="translate(-32.408 -12.286)" fill="#b16668"/>
            <path id="Trazado_912941" data-name="Trazado 912941" d="M321.388,125.288a4.346,4.346,0,0,0,2.946-3.194,2.154,2.154,0,0,0-.383-.1,4.341,4.341,0,0,0-4.706,3.323,3.994,3.994,0,0,0,2.143-.034" transform="translate(-32.741 -12.509)" fill="#f28f8f"/>
            <path id="Trazado_912942" data-name="Trazado 912942" d="M329.878,158.195c1.954-4.055,7.349-11.672,10.181-15.537a26.008,26.008,0,0,0,3.868-8.8l-.456-3.028s.844-.385,2.979,3.028,7.478,6.65,7.478,6.65S349.139,154.737,340,161.219c-6.389-7-8.134-4.711-10.123-3.024" transform="translate(-33.831 -13.416)" fill="#e6e6e6"/>
            <path id="Trazado_912943" data-name="Trazado 912943" d="M324.4,158.137c-2.333-5.886-3.76-9.645-3.76-15.8l-.614-5.878a3.847,3.847,0,0,0-1.788,1.431,17.6,17.6,0,0,1-5.27,4.667c-1.9,6.626.689,15.124,3.225,19.419.9-3.815,4.608-8.73,8.206-3.838" transform="translate(-32.029 -13.995)" fill="#e6e6e6"/>
            <path id="Trazado_912944" data-name="Trazado 912944" d="M327.685,229.51c.427-.652,1.958.537,5.074,1,3.978.594,5.49.349,9.722,1.142a20.7,20.7,0,0,0,5.856.661l-14.911,4.166A16.768,16.768,0,0,1,329,234.2c-2.2-1.711-1.863-3.849-1.314-4.686" transform="translate(-33.565 -23.518)" fill="#ffa8a7"/>
            <path id="Trazado_912945" data-name="Trazado 912945" d="M250.328,188.611c-1.1-.378-1.821.109-1.613,1.086l10.633,50.043,73.1,25.124L321.63,214.752a3.869,3.869,0,0,0-2.371-2.452l-41.748-14.348-3.243-4.931a1.815,1.815,0,0,0-.931-.7l-17.311-5.964a1.758,1.758,0,0,0-2.266.88l-.672,2.321Z" transform="translate(-25.504 -19.101)" fill="#8261bd"/>
            <path id="Trazado_912946" data-name="Trazado 912946" d="M250.328,188.611c-1.1-.378-1.821.109-1.613,1.086l10.633,50.043,73.1,25.124L321.63,214.752a3.869,3.869,0,0,0-2.371-2.452l-41.748-14.348-3.243-4.931a1.815,1.815,0,0,0-.931-.7l-17.311-5.964a1.758,1.758,0,0,0-2.266.88l-.672,2.321Z" transform="translate(-25.504 -19.101)" fill="#e07199"/>
            <path id="Trazado_912947" data-name="Trazado 912947" d="M259.083,240.085l70.623,24.272L319,214.668l-72.91-25.057Z" transform="translate(-25.238 -19.446)" fill="#f0f0f0"/>
            <path id="Trazado_912948" data-name="Trazado 912948" d="M331.933,265.475l-15.239-47.028a4.457,4.457,0,0,0-2.553-2.424l-68.933-23.69c-1.1-.378-1.738.1-1.43,1.059l15.059,46.959Z" transform="translate(-24.993 -19.712)" fill="#8261bd"/>
            <path id="Trazado_912949" data-name="Trazado 912949" d="M331.933,265.475l-15.239-47.028a4.457,4.457,0,0,0-2.553-2.424l-68.933-23.69c-1.1-.378-1.738.1-1.43,1.059l15.059,46.959Z" transform="translate(-24.993 -19.712)" fill="#e07199"/>
            <path id="Trazado_912950" data-name="Trazado 912950" d="M249.421,211.873c-2.787,3.916-2.615,6.836-1.148,11.629s5.046,10.372,6.938,11.818,5.385,3.444,9.079,2.422c3.657-1.011,3.466-5.819,5-7.938,2.46-3.389-1.323-5.5-4.844-5.737-8.3-.551-12.538-4.418-12.538-4.418Z" transform="translate(-25.355 -21.729)" fill="#ffa8a7"/>
            <path id="Trazado_912951" data-name="Trazado 912951" d="M320.921,228.529a57.008,57.008,0,0,0,10.694-.86l14.911-4.165c6.794.308,25.089-14.539,25.089-14.539l-10.139-28.252c-5.856-13.152-6.039-31.328-1.711-37.308,14.2,3.594,17.2,4.673,21.03,16.964,3.1,9.966,10.94,36.424,14.313,46.578,1.933,5.816,2.891,11.013-3.314,15.16-5.524,3.69-19.888,11.12-32.382,15.636-6.678,2.413-10.321,4.572-17.441,6.139a67.115,67.115,0,0,1-10.43,1.646c-2.513.147-5.581.391-7.375-1.862-.4-.5-.768-1.5-1.28-1.813a10.375,10.375,0,0,0-1.576-.354,3.78,3.78,0,0,1-1.271-.764,4.7,4.7,0,0,1-1.4-2.4c-.207-.935-.359-.816-1.308-1.135a3.838,3.838,0,0,1-2.13-1.4c-.374-.568-.354-1.8-.764-2.172-.482-.441-1.761-.395-2.387-.611-.868-.3-2.632-1.155-2.428-2.28.165-.906,1.388-1.417,2.145-1.708,2.846-1.095,6.183-.541,9.156-.507" transform="translate(-31.752 -14.707)" fill="#ffa8a7"/>
            <path id="Trazado_912952" data-name="Trazado 912952" d="M365.051,143.407c-2.908,2.908-5.052,12.616-3.239,23.911S376.034,208.9,376.034,208.9l-12.387,9.576a19.851,19.851,0,0,1,7.228,7.268,14.2,14.2,0,0,1,1.273,9.073,189.909,189.909,0,0,0,17.7-7.865c7.47-3.847,11.847-6.27,12.823-9.455s-1.115-10.092-3.346-17.027-12.8-42.25-15.788-48.355c-2.328-4.757-8.352-6.925-18.482-8.705" transform="translate(-37.038 -14.707)" fill="#e6e6e6"/>
            <path id="Trazado_912953" data-name="Trazado 912953" d="M363.262,227.053l-5.874,3.292s5.341,3.01,6.7,7.89a20.942,20.942,0,0,1,.925,7.832l6.751-2.673s1.816-3.986-.625-9.32a14.031,14.031,0,0,0-7.876-7.021" transform="translate(-36.653 -23.286)" fill="#e0e0e0"/>
          </g>
        </g>
      </g>
    </g>
  </g>
</svg>
