<svg xmlns="http://www.w3.org/2000/svg" xmlns:xlink="http://www.w3.org/1999/xlink" width="476.95" height="429.917" viewBox="0 0 476.95 429.917">
  <defs>
    <clipPath id="clip-path">
      <rect id="Rectángulo_403423" data-name="Rectángulo 403423" width="472.131" height="429.917" fill="none"/>
    </clipPath>
    <clipPath id="clip-path-4">
      <rect id="Rectángulo_403384" data-name="Rectángulo 403384" width="56.474" height="71.852" fill="none"/>
    </clipPath>
    <clipPath id="clip-path-6">
      <rect id="Rectángulo_403386" data-name="Rectángulo 403386" width="31.335" height="52.657" fill="none"/>
    </clipPath>
    <clipPath id="clip-path-7">
      <rect id="Rectángulo_403387" data-name="Rectángulo 403387" width="51.775" height="69.086" fill="none"/>
    </clipPath>
    <clipPath id="clip-path-8">
      <rect id="Rectángulo_403388" data-name="Rectángulo 403388" width="2.055" height="48.073" fill="none"/>
    </clipPath>
    <clipPath id="clip-path-9">
      <rect id="Rectángulo_403389" data-name="Rectángulo 403389" width="17.001" height="9.779" fill="none"/>
    </clipPath>
    <clipPath id="clip-path-10">
      <rect id="Rectángulo_403390" data-name="Rectángulo 403390" width="34.292" height="19.699" fill="none"/>
    </clipPath>
    <clipPath id="clip-path-11">
      <rect id="Rectángulo_403391" data-name="Rectángulo 403391" width="2.056" height="48.073" fill="none"/>
    </clipPath>
    <clipPath id="clip-path-12">
      <rect id="Rectángulo_403392" data-name="Rectángulo 403392" width="17.001" height="9.777" fill="none"/>
    </clipPath>
    <clipPath id="clip-path-14">
      <rect id="Rectángulo_403394" data-name="Rectángulo 403394" width="51.776" height="69.086" fill="none"/>
    </clipPath>
    <clipPath id="clip-path-16">
      <rect id="Rectángulo_403396" data-name="Rectángulo 403396" width="17" height="9.779" fill="none"/>
    </clipPath>
    <clipPath id="clip-path-17">
      <rect id="Rectángulo_403397" data-name="Rectángulo 403397" width="34.294" height="19.699" fill="none"/>
    </clipPath>
    <clipPath id="clip-path-20">
      <rect id="Rectángulo_403400" data-name="Rectángulo 403400" width="6.858" height="15.924" fill="none"/>
    </clipPath>
    <clipPath id="clip-path-21">
      <rect id="Rectángulo_403401" data-name="Rectángulo 403401" width="15.186" height="12.303" fill="none"/>
    </clipPath>
    <clipPath id="clip-path-22">
      <rect id="Rectángulo_403402" data-name="Rectángulo 403402" width="2.411" height="48.539" fill="none"/>
    </clipPath>
    <clipPath id="clip-path-29">
      <rect id="Rectángulo_403409" data-name="Rectángulo 403409" width="222.914" height="128.699" fill="none"/>
    </clipPath>
    <clipPath id="clip-path-30">
      <rect id="Rectángulo_403410" data-name="Rectángulo 403410" width="222.569" height="317.494" fill="none"/>
    </clipPath>
    <clipPath id="clip-path-31">
      <rect id="Rectángulo_403411" data-name="Rectángulo 403411" width="126.941" height="71.62" fill="none"/>
    </clipPath>
    <clipPath id="clip-path-32">
      <rect id="Rectángulo_403412" data-name="Rectángulo 403412" width="73.153" height="42.082" fill="none"/>
    </clipPath>
    <clipPath id="clip-path-33">
      <rect id="Rectángulo_403413" data-name="Rectángulo 403413" width="11.596" height="26.02" fill="none"/>
    </clipPath>
    <clipPath id="clip-path-34">
      <rect id="Rectángulo_403414" data-name="Rectángulo 403414" width="46.934" height="214.363" fill="none"/>
    </clipPath>
    <clipPath id="clip-path-35">
      <rect id="Rectángulo_403415" data-name="Rectángulo 403415" width="212.463" height="125.285" fill="none"/>
    </clipPath>
    <clipPath id="clip-path-37">
      <rect id="Rectángulo_403417" data-name="Rectángulo 403417" width="36.7" height="54.627" fill="none"/>
    </clipPath>
    <clipPath id="clip-path-38">
      <rect id="Rectángulo_403418" data-name="Rectángulo 403418" width="62.134" height="62.997" fill="none"/>
    </clipPath>
    <clipPath id="clip-path-39">
      <rect id="Rectángulo_403419" data-name="Rectángulo 403419" width="66.284" height="71.02" fill="none"/>
    </clipPath>
    <clipPath id="clip-path-40">
      <rect id="Rectángulo_403420" data-name="Rectángulo 403420" width="31.188" height="56.736" fill="none"/>
    </clipPath>
    <clipPath id="clip-path-41">
      <rect id="Rectángulo_403421" data-name="Rectángulo 403421" width="21.06" height="7.659" fill="none"/>
    </clipPath>
  </defs>
  <g id="Grupo_1102235" data-name="Grupo 1102235" transform="translate(-838.05 -5080.684)">
    <g id="Grupo_1102110" data-name="Grupo 1102110" transform="translate(986.421 5240.363)">
      <path id="Trazado_911259" data-name="Trazado 911259" d="M299.1,182.288c-7.532-25.667,32.921-63.925,23.156-111.613S286.1,22.018,248.1,17.76s-60.982-31.636-87.777-8.722-36.313,37.1-86.728,12S-14.757,60.371,5.609,101.382s13.95,80.906,13.95,80.906Z" transform="translate(4.789 32.714)" fill="#ffdba9"/>
      <path id="Trazado_911233" data-name="Trazado 911233" d="M323.365,191.648a.593.593,0,0,0,.554-.383c4.607-12.145,5.783-21.364,3.933-30.826a66.767,66.767,0,0,0-4.888-14.587c-2.489-5.553-5.722-11.551-8.845-17.2-5.9-10.686-4.386-23.328-2.781-36.713,1.111-9.264,2.26-18.843,1.019-28.356a52.938,52.938,0,0,0-1.423-7.135,46.724,46.724,0,0,0-6.472-14.02,53.627,53.627,0,0,0-5.5-6.787,58.635,58.635,0,0,0-8.478-7.4,50.544,50.544,0,0,0-9-5.114,48.412,48.412,0,0,0-9.387-3.005,51.231,51.231,0,0,0-9.631-1.076,61.6,61.6,0,0,0-16.429,2.038,82.739,82.739,0,0,0-16.111,6.1,106.813,106.813,0,0,0-15.188,9.273A123.231,123.231,0,0,0,201.08,48.026c-20,19.585-45.15,29.583-73.2,29.583A140.33,140.33,0,0,1,82.7,69.658a51.109,51.109,0,0,0-10.25-2.332,55.579,55.579,0,0,0-10.5-.265,61.315,61.315,0,0,0-10.473,1.65A66.736,66.736,0,0,0,41.3,72.124a70.38,70.38,0,0,0-9.63,5.029,71.349,71.349,0,0,0-8.813,6.5,69.622,69.622,0,0,0-7.73,7.82,66.069,66.069,0,0,0-6.38,9,60.361,60.361,0,0,0-7.432,19.782,59.492,59.492,0,0,0,.24,22.468,68.124,68.124,0,0,0,3.566,11.91,80.841,80.841,0,0,0,6.16,12.184,100.983,100.983,0,0,0,8.974,12.331,130.617,130.617,0,0,0,12.009,12.353.593.593,0,0,0,.8-.879A113.652,113.652,0,0,1,12.29,166.191a72.757,72.757,0,0,1-9.574-23.706,58.048,58.048,0,0,1,7.052-41.415C24.891,75.383,56.76,62.079,82.319,70.78a160.539,160.539,0,0,0,18.875,5.2A135.97,135.97,0,0,0,119.022,78.5a119.088,119.088,0,0,0,16.744.054,108.517,108.517,0,0,0,15.623-2.215,103.134,103.134,0,0,0,14.463-4.281,101.966,101.966,0,0,0,13.265-6.143A106.043,106.043,0,0,0,201.91,48.873a114.492,114.492,0,0,1,28.547-20.629,81.555,81.555,0,0,1,15.879-6.013,60.414,60.414,0,0,1,16.112-2c13.659.244,25.656,5.7,35.659,16.223,16.6,17.458,14.289,36.716,12.056,55.34-.821,6.848-1.6,13.316-1.431,19.591a46.237,46.237,0,0,0,1.091,9.2,34.975,34.975,0,0,0,1.314,4.4,31.862,31.862,0,0,0,1.946,4.237c3.111,5.632,6.33,11.6,8.8,17.116a65.629,65.629,0,0,1,4.807,14.329c1.8,9.23.645,18.255-3.878,30.178a.593.593,0,0,0,.554.8Z" transform="translate(-0.359 23.645)" fill="#ffdba9"/>
      <g id="Grupo_1100874" data-name="Grupo 1100874" transform="translate(6.533 0)">
        <path id="Elipse_11537" data-name="Elipse 11537" d="M8.425,16.851A8.425,8.425,0,0,0,14.383,2.468,8.425,8.425,0,1,0,2.468,14.383,8.37,8.37,0,0,0,8.425,16.851Zm0-14.621a6.2,6.2,0,1,1-6.2,6.2A6.2,6.2,0,0,1,8.425,2.23Z" transform="translate(290.067 119.709) rotate(-121.717)" fill="#39274d"/>
        <path id="Elipse_11538" data-name="Elipse 11538" d="M8.425,16.851A8.425,8.425,0,0,0,14.383,2.468,8.425,8.425,0,0,0,2.468,14.383,8.37,8.37,0,0,0,8.425,16.851Zm0-14.621a6.2,6.2,0,1,1-6.2,6.2A6.2,6.2,0,0,1,8.425,2.23Z" transform="translate(16.633 100.887) rotate(-170.783)" fill="#39274d"/>
        <path id="Trazado_911233-2" data-name="Trazado 911233" d="M560.749,247H575.2a1.115,1.115,0,0,0,1-1.613l-7.227-14.453a1.115,1.115,0,0,0-1.994,0l-7.227,14.453a1.115,1.115,0,0,0,1,1.613Zm12.649-2.23H562.553l5.423-10.845Z" transform="translate(-527.074 -63.222)" fill="#39274d"/>
        <path id="Trazado_911234" data-name="Trazado 911234" d="M419.371,63.592a4.074,4.074,0,1,1,4.074,4.074,4.074,4.074,0,0,1-4.074-4.074" transform="translate(-412.598 -59.518)" fill="#fe729d"/>
        <path id="Trazado_911235" data-name="Trazado 911235" d="M0,156.448a2.058,2.058,0,1,1,2.058,2.058A2.058,2.058,0,0,1,0,156.448" transform="translate(83.974 -72.836)" fill="#fe729d"/>
        <path id="Trazado_911236" data-name="Trazado 911236" d="M115.542,32.369a2.058,2.058,0,1,1,2.058,2.058,2.058,2.058,0,0,1-2.058-2.058" transform="translate(163.607 110.841)" fill="#fe729d"/>
        <path id="Trazado_911237" data-name="Trazado 911237" d="M600.278,291.686a2.058,2.058,0,1,1,2.058,2.058,2.058,2.058,0,0,1-2.058-2.058" transform="translate(-585.359 -78.45)" fill="#ffdba9"/>
      </g>
    </g>
    <g id="Grupo_1102228" data-name="Grupo 1102228" transform="translate(838.05 5080.684)">
      <g id="Grupo_1102227" data-name="Grupo 1102227" clip-path="url(#clip-path)">
        <g id="Grupo_1102113" data-name="Grupo 1102113">
          <g id="Grupo_1102112" data-name="Grupo 1102112" clip-path="url(#clip-path)">
            <path id="Trazado_913246" data-name="Trazado 913246" d="M188.384,177.666,266.614,132.5a3.782,3.782,0,0,1,3.419,0l57.052,32.938a1.043,1.043,0,0,1,0,1.975l-78.228,45.164a3.777,3.777,0,0,1-3.421,0l-57.052-32.938a1.042,1.042,0,0,1,0-1.975" transform="translate(25.743 18.119)" fill="#e6e6e6"/>
          </g>
        </g>
        <path id="Trazado_913247" data-name="Trazado 913247" d="M245.934,219.236l-49.413-28.529V35.839l49.413,28.529Z" transform="translate(26.956 4.916)" fill="#263238"/>
        <path id="Trazado_913248" data-name="Trazado 913248" d="M239.973,65.843l70.59-40.755V179.956l-70.591,40.755Z" transform="translate(32.917 3.441)" fill="#37474f"/>
        <path id="Trazado_913249" data-name="Trazado 913249" d="M267.11,0,196.52,40.755l49.413,28.528,70.59-40.755Z" transform="translate(26.956 0)" fill="#455a64"/>
        <path id="Trazado_913250" data-name="Trazado 913250" d="M246.181,153.124l56.472-32.6v39.249l1.3.751-56.472,32.6-1.3-.751Z" transform="translate(33.768 16.531)" fill="#263238"/>
        <path id="Trazado_913251" data-name="Trazado 913251" d="M247.323,153.784l56.472-32.6V160.43l-56.472,32.6Z" transform="translate(33.925 16.622)" fill="#455a64"/>
        <g id="Grupo_1102160" data-name="Grupo 1102160">
          <g id="Grupo_1102159" data-name="Grupo 1102159" clip-path="url(#clip-path)">
            <g id="Grupo_1102116" data-name="Grupo 1102116" transform="translate(281.246 137.802)" opacity="0.05">
              <g id="Grupo_1102115" data-name="Grupo 1102115">
                <g id="Grupo_1102114" data-name="Grupo 1102114" clip-path="url(#clip-path-4)">
                  <path id="Trazado_913252" data-name="Trazado 913252" d="M247.323,153.784l56.472-32.6V160.43l-56.472,32.6Z" transform="translate(-247.321 -121.18)"/>
                </g>
              </g>
            </g>
            <path id="Trazado_913253" data-name="Trazado 913253" d="M267.06,145.177l9.6-5.545c1.246-.72,2.257-.391,2.257.735a4.52,4.52,0,0,1-2.257,3.341l-9.6,5.545c-1.247.72-2.257.391-2.257-.735a4.525,4.525,0,0,1,2.258-3.341" transform="translate(36.322 19.101)" fill="#263238"/>
            <path id="Trazado_913254" data-name="Trazado 913254" d="M246.181,111.449l56.472-32.6v39.249l1.3.752-56.472,32.6-1.3-.751Z" transform="translate(33.768 10.815)" fill="#263238"/>
            <path id="Trazado_913255" data-name="Trazado 913255" d="M247.323,112.109l56.472-32.6v39.249l-56.472,32.6Z" transform="translate(33.925 10.906)" fill="#455a64"/>
            <g id="Grupo_1102119" data-name="Grupo 1102119" transform="translate(281.246 90.411)" opacity="0.05">
              <g id="Grupo_1102118" data-name="Grupo 1102118">
                <g id="Grupo_1102117" data-name="Grupo 1102117" clip-path="url(#clip-path-4)">
                  <path id="Trazado_913256" data-name="Trazado 913256" d="M247.323,112.109l56.472-32.6v39.249l-56.472,32.6Z" transform="translate(-247.321 -79.505)"/>
                </g>
              </g>
            </g>
            <path id="Trazado_913257" data-name="Trazado 913257" d="M267.06,103.5l9.6-5.545c1.246-.72,2.257-.391,2.257.735a4.52,4.52,0,0,1-2.257,3.341l-9.6,5.545c-1.247.72-2.257.391-2.257-.735a4.525,4.525,0,0,1,2.258-3.341" transform="translate(36.322 13.384)" fill="#263238"/>
            <path id="Trazado_913258" data-name="Trazado 913258" d="M246.179,69.773l56.473-32.6V76.411l-56.472,32.6Z" transform="translate(33.768 5.099)" fill="#263238"/>
            <path id="Trazado_913259" data-name="Trazado 913259" d="M324.449,59.523l-31.332-18.08,0,34.578L324.447,94.1Z" transform="translate(40.206 5.685)" fill="#37474f"/>
            <g id="Grupo_1102122" data-name="Grupo 1102122" transform="translate(333.32 47.129)" opacity="0.1">
              <g id="Grupo_1102121" data-name="Grupo 1102121">
                <g id="Grupo_1102120" data-name="Grupo 1102120" clip-path="url(#clip-path-6)">
                  <path id="Trazado_913260" data-name="Trazado 913260" d="M324.449,59.523l-31.332-18.08,0,34.578L324.447,94.1Z" transform="translate(-293.114 -41.444)"/>
                </g>
              </g>
            </g>
            <path id="Trazado_913261" data-name="Trazado 913261" d="M295.306,40.329l-2.193,1.263,31.335,18.083,2.193-1.263Z" transform="translate(40.206 5.532)" fill="#455a64"/>
            <path id="Trazado_913262" data-name="Trazado 913262" d="M309.245,43.9a.787.787,0,0,0-.3-.7.363.363,0,0,0-.078-.045l-1.6-.931h0l0,0h0a.776.776,0,0,0-.776.078L274.57,60.7l-.929-3.747a1.032,1.032,0,0,0-.461-.611l.006,0-1.66-.965v.007a.98.98,0,0,0-1.011.026l-13.579,7.837a2.44,2.44,0,0,0-1.1,1.913v45.277a.79.79,0,0,0,.3.7l1.709.992a.791.791,0,0,0,.752-.092l49.568-28.618a2.439,2.439,0,0,0,1.1-1.912Z" transform="translate(35.092 5.781)" fill="#8261bd"/>
            <path id="Trazado_913263" data-name="Trazado 913263" d="M309.045,43.782l.019,37.608a2.435,2.435,0,0,1-1.105,1.914l-49.694,28.69a.651.651,0,0,1-.976-.564V66.006a2.229,2.229,0,0,1,.322-1.085,2.34,2.34,0,0,1,.779-.824l13.578-7.838a.994.994,0,0,1,.992-.045l.028.016h-.008a1.031,1.031,0,0,1,.461.613l.931,3.746.147.4a.965.965,0,0,0,1.473.587L307.94,43.146a.82.82,0,0,1,.722-.107l.044.025a.17.17,0,0,1,.025.013l.013.008a.789.789,0,0,1,.3.7" transform="translate(35.292 5.898)" fill="#8261bd"/>
            <g id="Grupo_1102125" data-name="Grupo 1102125" transform="translate(292.581 48.893)" opacity="0.15">
              <g id="Grupo_1102124" data-name="Grupo 1102124">
                <g id="Grupo_1102123" data-name="Grupo 1102123" clip-path="url(#clip-path-7)">
                  <path id="Trazado_913264" data-name="Trazado 913264" d="M309.045,43.782l.019,37.608a2.435,2.435,0,0,1-1.105,1.914l-49.694,28.69a.651.651,0,0,1-.976-.564V66.006a2.229,2.229,0,0,1,.322-1.085,2.34,2.34,0,0,1,.779-.824l13.578-7.838a.994.994,0,0,1,.992-.045l.028.016h-.008a1.031,1.031,0,0,1,.461.613l.931,3.746.147.4a.965.965,0,0,0,1.473.587L307.94,43.146a.82.82,0,0,1,.722-.107l.044.025a.17.17,0,0,1,.025.013l.013.008a.789.789,0,0,1,.3.7" transform="translate(-257.289 -42.995)"/>
                </g>
              </g>
            </g>
            <g id="Grupo_1102128" data-name="Grupo 1102128" transform="translate(290.926 69.853)" opacity="0.35">
              <g id="Grupo_1102127" data-name="Grupo 1102127">
                <g id="Grupo_1102126" data-name="Grupo 1102126" clip-path="url(#clip-path-8)">
                  <path id="Trazado_913265" data-name="Trazado 913265" d="M257.889,109.5a.2.2,0,0,1-.049-.016l-1.709-.992a.8.8,0,0,1-.3-.7V62.512a2.252,2.252,0,0,1,.326-1.085l1.652.963v0a2.238,2.238,0,0,0-.323,1.085V108.9a.643.643,0,0,0,.4.6" transform="translate(-255.834 -61.427)"/>
                </g>
              </g>
            </g>
            <path id="Trazado_913266" data-name="Trazado 913266" d="M313.924,46.623a.784.784,0,0,0-.3-.7.333.333,0,0,0-.077-.045l-1.6-.931h0l0,0h0a.779.779,0,0,0-.776.078l-31.916,18.4-.929-3.747a1.036,1.036,0,0,0-.461-.611l.006,0L276.2,58.1v.007a.978.978,0,0,0-1.01.026l-13.579,7.837a2.441,2.441,0,0,0-1.1,1.913l0,45.277a.788.788,0,0,0,.3.7l1.709.992a.79.79,0,0,0,.752-.092L312.84,86.144a2.438,2.438,0,0,0,1.1-1.912Z" transform="translate(35.734 6.155)" fill="#8261bd"/>
            <g id="Grupo_1102131" data-name="Grupo 1102131" transform="translate(296.57 64.139)" opacity="0.15">
              <g id="Grupo_1102130" data-name="Grupo 1102130">
                <g id="Grupo_1102129" data-name="Grupo 1102129" clip-path="url(#clip-path-9)">
                  <path id="Trazado_913267" data-name="Trazado 913267" d="M277.8,57.472a.99.99,0,0,0-.989.045l-13.577,7.836a2.349,2.349,0,0,0-.78.827l-1.655-.964a2.224,2.224,0,0,1,.78-.826l13.578-7.836a.986.986,0,0,1,1.01-.025v-.006Z" transform="translate(-260.797 -56.402)" fill="#fff"/>
                </g>
              </g>
            </g>
            <g id="Grupo_1102134" data-name="Grupo 1102134" transform="translate(314.983 51.03)" opacity="0.15">
              <g id="Grupo_1102133" data-name="Grupo 1102133">
                <g id="Grupo_1102132" data-name="Grupo 1102132" clip-path="url(#clip-path-10)">
                  <path id="Trazado_913268" data-name="Trazado 913268" d="M311.281,45.879a.825.825,0,0,0-.724.107L278.611,64.417a.965.965,0,0,1-1.474-.587l-.148-.4L308.9,45.023a.97.97,0,0,1,.489-.148.58.58,0,0,1,.285.071h.006Z" transform="translate(-276.989 -44.875)" fill="#fff"/>
                </g>
              </g>
            </g>
            <path id="Trazado_913269" data-name="Trazado 913269" d="M313.723,46.509l.019,37.608a2.435,2.435,0,0,1-1.105,1.914l-49.694,28.69a.651.651,0,0,1-.976-.564V68.733a2.229,2.229,0,0,1,.322-1.085,2.34,2.34,0,0,1,.779-.824l13.578-7.838a1,1,0,0,1,.992-.045l.028.016h-.008a1.032,1.032,0,0,1,.461.612l.931,3.747.147.4a.965.965,0,0,0,1.473.587l31.949-18.432a.823.823,0,0,1,.722-.106l.044.025.025.013.011.008a.787.787,0,0,1,.3.7" transform="translate(35.934 6.272)" fill="#8261bd"/>
            <g id="Grupo_1102137" data-name="Grupo 1102137" transform="translate(296.246 72.954)" opacity="0.2">
              <g id="Grupo_1102136" data-name="Grupo 1102136">
                <g id="Grupo_1102135" data-name="Grupo 1102135" clip-path="url(#clip-path-11)">
                  <path id="Trazado_913270" data-name="Trazado 913270" d="M262.568,112.227a.2.2,0,0,1-.049-.016l-1.709-.992a.8.8,0,0,1-.3-.7V65.239a2.24,2.24,0,0,1,.326-1.085l1.652.963v0a2.238,2.238,0,0,0-.323,1.085v45.422a.643.643,0,0,0,.4.6" transform="translate(-260.512 -64.154)"/>
                </g>
              </g>
            </g>
            <path id="Trazado_913271" data-name="Trazado 913271" d="M318.6,49.35a.787.787,0,0,0-.3-.7.363.363,0,0,0-.078-.045l-1.6-.931h0l0,0h0a.776.776,0,0,0-.776.078l-31.916,18.4L283,62.408a1.032,1.032,0,0,0-.461-.611l.006,0-1.66-.965v.007a.978.978,0,0,0-1.01.026L266.294,68.7a2.44,2.44,0,0,0-1.1,1.912V115.89a.79.79,0,0,0,.3.7l1.709.992a.791.791,0,0,0,.752-.092l49.568-28.618a2.441,2.441,0,0,0,1.1-1.912Z" transform="translate(36.376 6.529)" fill="#8261bd"/>
            <g id="Grupo_1102140" data-name="Grupo 1102140" transform="translate(301.89 67.24)" opacity="0.3">
              <g id="Grupo_1102139" data-name="Grupo 1102139">
                <g id="Grupo_1102138" data-name="Grupo 1102138" clip-path="url(#clip-path-12)">
                  <path id="Trazado_913272" data-name="Trazado 913272" d="M282.476,60.2a.988.988,0,0,0-.989.045L267.91,68.081a2.34,2.34,0,0,0-.78.827l-1.655-.964a2.223,2.223,0,0,1,.78-.826l13.578-7.836a.986.986,0,0,1,1.01-.025v-.006Z" transform="translate(-265.475 -59.129)" fill="#fff"/>
                </g>
              </g>
            </g>
            <g id="Grupo_1102143" data-name="Grupo 1102143" transform="translate(320.303 54.131)" opacity="0.3">
              <g id="Grupo_1102142" data-name="Grupo 1102142">
                <g id="Grupo_1102141" data-name="Grupo 1102141" clip-path="url(#clip-path-10)">
                  <path id="Trazado_913273" data-name="Trazado 913273" d="M315.959,48.606a.825.825,0,0,0-.724.107L283.289,67.144a.965.965,0,0,1-1.474-.587l-.148-.4L313.582,47.75a.97.97,0,0,1,.489-.148.577.577,0,0,1,.285.071h.006Z" transform="translate(-281.667 -47.602)" fill="#fff"/>
                </g>
              </g>
            </g>
            <path id="Trazado_913274" data-name="Trazado 913274" d="M318.4,49.236l.019,37.608a2.435,2.435,0,0,1-1.105,1.914l-49.694,28.69a.651.651,0,0,1-.976-.564V71.46a2.229,2.229,0,0,1,.322-1.085,2.34,2.34,0,0,1,.779-.824l13.579-7.839a.992.992,0,0,1,.99-.045l.028.016h-.008a1.032,1.032,0,0,1,.461.612l.931,3.747.147.4a.965.965,0,0,0,1.473.587L317.3,48.6a.823.823,0,0,1,.722-.106l.044.025.025.011.013.009a.789.789,0,0,1,.3.7" transform="translate(36.575 6.646)" fill="#8261bd"/>
            <g id="Grupo_1102146" data-name="Grupo 1102146" transform="translate(303.22 55.095)" opacity="0.15">
              <g id="Grupo_1102145" data-name="Grupo 1102145">
                <g id="Grupo_1102144" data-name="Grupo 1102144" clip-path="url(#clip-path-14)">
                  <path id="Trazado_913275" data-name="Trazado 913275" d="M318.4,49.236l.019,37.608a2.435,2.435,0,0,1-1.105,1.914l-49.694,28.69a.651.651,0,0,1-.976-.564V71.46a2.229,2.229,0,0,1,.322-1.085,2.34,2.34,0,0,1,.779-.824l13.579-7.839a.992.992,0,0,1,.99-.045l.028.016h-.008a1.032,1.032,0,0,1,.461.612l.931,3.747.147.4a.965.965,0,0,0,1.473.587L317.3,48.6a.823.823,0,0,1,.722-.106l.044.025.025.011.013.009a.789.789,0,0,1,.3.7" transform="translate(-266.645 -48.449)" fill="#fff"/>
                </g>
              </g>
            </g>
            <g id="Grupo_1102149" data-name="Grupo 1102149" transform="translate(301.566 76.055)" opacity="0.05">
              <g id="Grupo_1102148" data-name="Grupo 1102148">
                <g id="Grupo_1102147" data-name="Grupo 1102147" clip-path="url(#clip-path-11)">
                  <path id="Trazado_913276" data-name="Trazado 913276" d="M267.246,114.954a.272.272,0,0,1-.049-.016l-1.709-.992a.8.8,0,0,1-.3-.7V67.966a2.24,2.24,0,0,1,.326-1.085l1.652.963v0a2.238,2.238,0,0,0-.323,1.085v45.422a.643.643,0,0,0,.4.6" transform="translate(-265.19 -66.881)"/>
                </g>
              </g>
            </g>
            <path id="Trazado_913277" data-name="Trazado 913277" d="M323.28,52.076a.788.788,0,0,0-.3-.7.432.432,0,0,0-.078-.045l-1.6-.931h0l0,0v0a.773.773,0,0,0-.776.078l-31.916,18.4-.929-3.747a1.036,1.036,0,0,0-.461-.611l.006,0-1.66-.965v.007a.978.978,0,0,0-1.011.027l-13.579,7.837a2.437,2.437,0,0,0-1.1,1.912l0,45.277a.791.791,0,0,0,.3.7l1.709.99a.787.787,0,0,0,.752-.092L322.2,91.6a2.444,2.444,0,0,0,1.1-1.912Z" transform="translate(37.017 6.903)" fill="#8261bd"/>
            <g id="Grupo_1102152" data-name="Grupo 1102152" transform="translate(307.211 70.34)" opacity="0.5">
              <g id="Grupo_1102151" data-name="Grupo 1102151">
                <g id="Grupo_1102150" data-name="Grupo 1102150" clip-path="url(#clip-path-16)">
                  <path id="Trazado_913278" data-name="Trazado 913278" d="M287.154,62.925a.99.99,0,0,0-.989.045l-13.577,7.837a2.335,2.335,0,0,0-.78.826l-1.655-.963a2.219,2.219,0,0,1,.78-.827l13.578-7.835a.979.979,0,0,1,1.009-.026v-.006Z" transform="translate(-270.154 -61.855)" fill="#fff"/>
                </g>
              </g>
            </g>
            <g id="Grupo_1102155" data-name="Grupo 1102155" transform="translate(325.622 57.231)" opacity="0.5">
              <g id="Grupo_1102154" data-name="Grupo 1102154">
                <g id="Grupo_1102153" data-name="Grupo 1102153" clip-path="url(#clip-path-17)">
                  <path id="Trazado_913279" data-name="Trazado 913279" d="M320.638,51.333a.825.825,0,0,0-.724.107L287.968,69.871a.965.965,0,0,1-1.474-.587l-.148-.4,31.915-18.405a.97.97,0,0,1,.489-.148.566.566,0,0,1,.285.072h.006Z" transform="translate(-286.345 -50.328)" fill="#fff"/>
                </g>
              </g>
            </g>
            <path id="Trazado_913280" data-name="Trazado 913280" d="M323.08,51.962,323.1,89.57a2.435,2.435,0,0,1-1.105,1.914L272.3,120.174a.651.651,0,0,1-.977-.564V74.186a2.231,2.231,0,0,1,.323-1.085,2.34,2.34,0,0,1,.779-.824L286,64.438a1,1,0,0,1,.992-.045l.028.016h-.008a1.032,1.032,0,0,1,.461.612l.931,3.747.147.4a.965.965,0,0,0,1.473.587l31.949-18.432a.819.819,0,0,1,.722-.106l.044.025.025.011.011.009a.787.787,0,0,1,.3.7" transform="translate(37.217 7.02)" fill="#8261bd"/>
            <g id="Grupo_1102158" data-name="Grupo 1102158" transform="translate(308.54 58.196)" opacity="0.3">
              <g id="Grupo_1102157" data-name="Grupo 1102157">
                <g id="Grupo_1102156" data-name="Grupo 1102156" clip-path="url(#clip-path-14)">
                  <path id="Trazado_913281" data-name="Trazado 913281" d="M323.08,51.962,323.1,89.57a2.435,2.435,0,0,1-1.105,1.914L272.3,120.174a.651.651,0,0,1-.977-.564V74.186a2.231,2.231,0,0,1,.323-1.085,2.34,2.34,0,0,1,.779-.824L286,64.438a1,1,0,0,1,.992-.045l.028.016h-.008a1.032,1.032,0,0,1,.461.612l.931,3.747.147.4a.965.965,0,0,0,1.473.587l31.949-18.432a.819.819,0,0,1,.722-.106l.044.025.025.011.011.009a.787.787,0,0,1,.3.7" transform="translate(-271.323 -51.176)" fill="#fff"/>
                </g>
              </g>
            </g>
            <path id="Trazado_913282" data-name="Trazado 913282" d="M278.653,85.963,247.32,67.884l0,34.577,31.332,18.08Z" transform="translate(33.924 9.312)" fill="#37474f"/>
            <path id="Trazado_913283" data-name="Trazado 913283" d="M249.51,66.769l-2.192,1.263,31.335,18.083,2.192-1.263Z" transform="translate(33.924 9.159)" fill="#455a64"/>
            <path id="Trazado_913284" data-name="Trazado 913284" d="M274.319,86.016l56.472-32.6V92.66l-56.471,32.6Z" transform="translate(37.628 7.326)" fill="#455a64"/>
            <path id="Trazado_913285" data-name="Trazado 913285" d="M294.056,77.409l9.6-5.545c1.246-.72,2.257-.391,2.257.735a4.52,4.52,0,0,1-2.257,3.341l-9.6,5.545c-1.247.72-2.257.391-2.257-.735a4.526,4.526,0,0,1,2.258-3.341" transform="translate(40.025 9.805)" fill="#263238"/>
            <path id="Trazado_913286" data-name="Trazado 913286" d="M274.546,82.214l-1.882-1.086v39.247l1.882,1.087Z" transform="translate(37.401 11.128)" fill="#263238"/>
            <path id="Trazado_913287" data-name="Trazado 913287" d="M272.664,85.061l56.473-32.6,1.881,1.086-56.472,32.6Z" transform="translate(37.401 7.195)" fill="#37474f"/>
          </g>
        </g>
        <g id="Grupo_1102186" data-name="Grupo 1102186">
          <g id="Grupo_1102185" data-name="Grupo 1102185" clip-path="url(#clip-path)">
            <path id="Trazado_913288" data-name="Trazado 913288" d="M212.052,11.325a1.737,1.737,0,0,0-.072-.4c.015-.028,0-.057-.014-.086a1.534,1.534,0,0,0-.1-.384,1.97,1.97,0,0,0-.257-.557.765.765,0,0,0-.142-.226.636.636,0,0,0-.128-.157,1.364,1.364,0,0,0-.285-.287l-.028-.027a1.918,1.918,0,0,0-.371-.215,3.154,3.154,0,0,0-2.923.372l-198.5,114.6a9.627,9.627,0,0,0-4.349,7.528l0,179.909v.036l0,.951a2.967,2.967,0,0,0,1.562,2.628c.063.041.13.066.191.107s.142.085.227.129a1.713,1.713,0,0,0,.372.128,2.508,2.508,0,0,0,.556.07,2.781,2.781,0,0,0,1.44-.413l.114-.065.01-.006L13.5,312.57l194.23-112.21a9.606,9.606,0,0,0,4.349-7.528V11.868c0-.185-.014-.372-.028-.544" transform="translate(0.67 1.203)" fill="#fafafa"/>
            <path id="Trazado_913289" data-name="Trazado 913289" d="M209.66,9.828a1.283,1.283,0,0,1,.564.123,1.2,1.2,0,0,1,.127.067c.022.019.044.038.067.056a.318.318,0,0,1,.076.075,1.171,1.171,0,0,0,.092.107c.012.018.026.038.032.044l.032.042a1.271,1.271,0,0,0,.08.143.885.885,0,0,1,.121.259c.008.027.016.055.026.082a.646.646,0,0,1,.038.117,1.1,1.1,0,0,0,.028.158,1.059,1.059,0,0,0,.035.158.794.794,0,0,1,.02.154c.013.143.025.3.025.454V192.833a8.58,8.58,0,0,1-3.82,6.613L12.975,311.656l-4.111,2.372-.042.024h0l-.11.064a1.836,1.836,0,0,1-.856.275h-.06a1.482,1.482,0,0,1-.326-.047.714.714,0,0,1-.125-.04c-.052-.026-.1-.053-.143-.081a1.333,1.333,0,0,0-.167-.092c-.026-.017-.053-.033-.081-.048a1.9,1.9,0,0,1-1.01-1.7l0-.99,0-179.911a8.584,8.584,0,0,1,3.821-6.613l198.492-114.6a2.965,2.965,0,0,1,1.406-.447m0-1.056a3.957,3.957,0,0,0-1.929.586l-198.5,114.6a9.624,9.624,0,0,0-4.349,7.527l0,179.911v.035l0,.951a2.966,2.966,0,0,0,1.562,2.628c.061.042.13.066.19.107s.143.085.229.129a1.627,1.627,0,0,0,.371.128,2.516,2.516,0,0,0,.556.07h.06a2.853,2.853,0,0,0,1.381-.414l.114-.066.009,0L13.5,312.57l194.23-112.21a9.606,9.606,0,0,0,4.349-7.527V11.867c0-.185-.015-.371-.028-.542a1.81,1.81,0,0,0-.072-.4.094.094,0,0,0-.015-.085,1.53,1.53,0,0,0-.1-.385,2,2,0,0,0-.257-.556.771.771,0,0,0-.142-.227.718.718,0,0,0-.128-.157,1.359,1.359,0,0,0-.285-.285l-.028-.028a1.913,1.913,0,0,0-.371-.214,2.3,2.3,0,0,0-.994-.215" transform="translate(0.67 1.203)" fill="#e0e0e0"/>
            <path id="Trazado_913290" data-name="Trazado 913290" d="M7.118,299.582l-.227-.124L2.31,296.8a4.608,4.608,0,0,1-2.258-3.367A4.273,4.273,0,0,1,0,292.805V121.235l5.557,3.25V296.95c0,.073,0,.156,0,.156A2.931,2.931,0,0,0,7.1,299.561l.02.02" transform="translate(0 16.63)" fill="#e0e0e0"/>
            <path id="Trazado_913291" data-name="Trazado 913291" d="M211.324,9.366a3.155,3.155,0,0,0-2.924.371l-198.5,114.6a9.625,9.625,0,0,0-4.35,7.528v8.425L.01,137.039v-8.325A9.588,9.588,0,0,1,4.345,121.2L202.855,6.6a3.022,3.022,0,0,1,3.151-.257c.784.471,4.392,2.538,5.319,3.023" transform="translate(0.001 0.825)" fill="#f5f5f5"/>
            <path id="Trazado_913292" data-name="Trazado 913292" d="M212.071,11.838c-.017-2.744-1.953-3.852-4.341-2.474l-198.5,114.6a9.6,9.6,0,0,0-4.343,7.523l0,8.432,207.176-119.6Z" transform="translate(0.671 1.203)" fill="#ebebeb"/>
            <g id="Grupo_1102163" data-name="Grupo 1102163" transform="translate(0.004 125.192)" opacity="0.15">
              <g id="Grupo_1102162" data-name="Grupo 1102162">
                <g id="Grupo_1102161" data-name="Grupo 1102161" clip-path="url(#clip-path-20)">
                  <path id="Trazado_913293" data-name="Trazado 913293" d="M0,122.782l0-8.347a8.963,8.963,0,0,1,1.321-4.344l5.532,3.183a8.79,8.79,0,0,0-1.3,4.317l-.007,8.424Z" transform="translate(-0.004 -110.091)"/>
                </g>
              </g>
            </g>
            <g id="Grupo_1102166" data-name="Grupo 1102166" transform="translate(193.97 14.915)" opacity="0.15">
              <g id="Grupo_1102165" data-name="Grupo 1102165">
                <g id="Grupo_1102164" data-name="Grupo 1102164" clip-path="url(#clip-path-21)">
                  <path id="Trazado_913294" data-name="Trazado 913294" d="M172.223,19.335a4.354,4.354,0,0,0-1.65,3.495c0,1.4.738,2.114,1.65,1.587a4.351,4.351,0,0,0,1.65-3.493c0-1.4-.738-2.115-1.65-1.589" transform="translate(-170.573 -12.287)"/>
                  <path id="Trazado_913295" data-name="Trazado 913295" d="M177.449,16.312a4.352,4.352,0,0,0-1.65,3.495c0,1.4.738,2.114,1.65,1.587A4.351,4.351,0,0,0,179.1,17.9c0-1.4-.738-2.115-1.65-1.589" transform="translate(-169.856 -12.701)"/>
                  <path id="Trazado_913296" data-name="Trazado 913296" d="M182.674,13.289a4.356,4.356,0,0,0-1.65,3.5c0,1.4.738,2.114,1.65,1.587a4.351,4.351,0,0,0,1.651-3.495c0-1.4-.739-2.114-1.651-1.589" transform="translate(-169.139 -13.116)"/>
                </g>
              </g>
            </g>
            <path id="Trazado_913297" data-name="Trazado 913297" d="M18.8,252.693a1.15,1.15,0,0,1-1.144-1.146V205.852a2.721,2.721,0,0,1,.39-1.334,2.808,2.808,0,0,1,.956-1l13.668-7.887a1.452,1.452,0,0,1,1.471-.046,1.527,1.527,0,0,1,.711.906l1.1,3.683a.491.491,0,0,0,.777.309l32.148-18.545a1.277,1.277,0,0,1,1.163-.131l.148.078a1.247,1.247,0,0,1,.528,1.109v38.344a2.946,2.946,0,0,1-1.351,2.34l-50,28.861a1.131,1.131,0,0,1-.572.156m14.66-56.326a.629.629,0,0,0-.308.093l-13.664,7.887a1.85,1.85,0,0,0-.608.654,1.781,1.781,0,0,0-.259.851v45.695a.174.174,0,0,0,.09.157.182.182,0,0,0,.18,0l50-28.862a1.985,1.985,0,0,0,.869-1.506V182.992a.418.418,0,0,0-.074-.29l-.059-.032a.866.866,0,0,0-.258.1L37.213,201.315a1.516,1.516,0,0,1-1.309.126,1.5,1.5,0,0,1-.872-.993l-1.1-3.683a.567.567,0,0,0-.246-.339.468.468,0,0,0-.224-.059" transform="translate(2.422 24.926)" fill="#e0e0e0"/>
            <path id="Trazado_913298" data-name="Trazado 913298" d="M76.484,186.691a.792.792,0,0,0-.3-.7h0l-.013-.007-.023-.014-2.071-1.2h0l0,0h0a.779.779,0,0,0-.78.08L41.5,203.187l-.857-2.858a1.047,1.047,0,0,0-.464-.615l.007,0-2.09-1.207v.007a.99.99,0,0,0-1.018.026l-13.663,7.887a2.451,2.451,0,0,0-1.111,1.923v45.563a.791.791,0,0,0,.3.7l0,0,.022.013.009.006,2.069,1.193.023.013.016.01v0a.8.8,0,0,0,.756-.089l49.878-28.8a2.455,2.455,0,0,0,1.111-1.924Z" transform="translate(3.059 25.334)" fill="#e6e6e6"/>
            <path id="Trazado_913299" data-name="Trazado 913299" d="M40.112,198.046a1,1,0,0,0-1,.045l-13.662,7.886a2.359,2.359,0,0,0-.786.831L22.587,205.6a2.222,2.222,0,0,1,.785-.83l13.662-7.886a.993.993,0,0,1,1.017-.025v-.006Z" transform="translate(3.098 26.986)" fill="#f0f0f0"/>
            <path id="Trazado_913300" data-name="Trazado 913300" d="M73.785,185.942a.832.832,0,0,0-.729.108L40.91,204.6a.971.971,0,0,1-1.483-.59l-.247-.821,31.794-18.34a.972.972,0,0,1,.492-.149.573.573,0,0,1,.287.072h.006Z" transform="translate(5.374 25.334)" fill="#f0f0f0"/>
            <g id="Grupo_1102169" data-name="Grupo 1102169" transform="translate(25.356 232.588)" opacity="0.15">
              <g id="Grupo_1102168" data-name="Grupo 1102168">
                <g id="Grupo_1102167" data-name="Grupo 1102167" clip-path="url(#clip-path-22)">
                  <path id="Trazado_913301" data-name="Trazado 913301" d="M24.539,252.954a.594.594,0,0,0,.108.118l-2.016-1.16-.01,0-.02-.016a.621.621,0,0,1-.241-.343,1.064,1.064,0,0,1-.057-.359l0-45.563a1.289,1.289,0,0,1,0-.133,2.569,2.569,0,0,1,.047-.277c.01-.047.025-.092.035-.139a3.122,3.122,0,0,1,.169-.411,1.236,1.236,0,0,1,.072-.133l2.083,1.205a2.256,2.256,0,0,0-.323,1.093v45.563a1.208,1.208,0,0,0,.015.2.883.883,0,0,0,.02.107l.016.057c.01.025.02.051.031.072a.436.436,0,0,0,.072.129" transform="translate(-22.298 -204.533)"/>
                </g>
              </g>
            </g>
            <path id="Trazado_913302" data-name="Trazado 913302" d="M73.344,221.2a1.15,1.15,0,0,1-.572-.155,1.135,1.135,0,0,1-.572-.992v-45.7a2.731,2.731,0,0,1,.39-1.334,2.8,2.8,0,0,1,.956-1l13.668-7.887a1.447,1.447,0,0,1,1.471-.047,1.533,1.533,0,0,1,.711.907l1.1,3.683a.553.553,0,0,0,.3.373.534.534,0,0,0,.472-.064l32.148-18.545a1.279,1.279,0,0,1,1.164-.13l.148.078a1.26,1.26,0,0,1,.527,1.106v38.346a2.946,2.946,0,0,1-1.351,2.339l-50,28.862a1.153,1.153,0,0,1-.572.155M88,164.875a.608.608,0,0,0-.307.092l-13.664,7.886a1.842,1.842,0,0,0-.61.654,1.785,1.785,0,0,0-.259.851v45.7a.18.18,0,0,0,.27.156l50-28.861a1.983,1.983,0,0,0,.869-1.5V151.5a.425.425,0,0,0-.073-.289l-.059-.031a.772.772,0,0,0-.259.1L91.759,169.822a1.449,1.449,0,0,1-2.181-.867l-1.1-3.683a.573.573,0,0,0-.246-.338.455.455,0,0,0-.224-.059" transform="translate(9.904 20.606)" fill="#e0e0e0"/>
            <path id="Trazado_913303" data-name="Trazado 913303" d="M131.03,155.2a.792.792,0,0,0-.3-.7h0l-.013-.007-.023-.014-2.071-1.2h0l0,0h0a.779.779,0,0,0-.78.08l-31.794,18.34-.857-2.858a1.047,1.047,0,0,0-.464-.615l.007,0-2.09-1.207v.007a.988.988,0,0,0-1.018.026l-13.663,7.887a2.451,2.451,0,0,0-1.111,1.923v45.563a.791.791,0,0,0,.3.7l0,0,.022.013.009.006,2.069,1.193.023.013.016.01v0a.8.8,0,0,0,.756-.089l49.88-28.8a2.457,2.457,0,0,0,1.11-1.924Z" transform="translate(10.541 21.015)" fill="#e6e6e6"/>
            <path id="Trazado_913304" data-name="Trazado 913304" d="M94.659,166.553a.993.993,0,0,0-1,.047L80,174.485a2.364,2.364,0,0,0-.784.831l-2.083-1.205a2.22,2.22,0,0,1,.786-.831l13.662-7.886a.989.989,0,0,1,1.014-.025v-.006Z" transform="translate(10.58 22.666)" fill="#f0f0f0"/>
            <path id="Trazado_913305" data-name="Trazado 913305" d="M128.331,154.45a.832.832,0,0,0-.729.108L95.456,173.1a.971.971,0,0,1-1.483-.59l-.246-.821,31.793-18.34a.972.972,0,0,1,.492-.149.58.58,0,0,1,.288.072h0Z" transform="translate(12.856 21.015)" fill="#f0f0f0"/>
            <g id="Grupo_1102172" data-name="Grupo 1102172" transform="translate(87.385 196.777)" opacity="0.15">
              <g id="Grupo_1102171" data-name="Grupo 1102171">
                <g id="Grupo_1102170" data-name="Grupo 1102170" clip-path="url(#clip-path-22)">
                  <path id="Trazado_913306" data-name="Trazado 913306" d="M79.087,221.462a.594.594,0,0,0,.108.118l-2.016-1.16-.01,0-.02-.016a.6.6,0,0,1-.19-.215.551.551,0,0,1-.051-.129,1.063,1.063,0,0,1-.057-.359l-.006-45.563A1.035,1.035,0,0,1,76.85,174a2.571,2.571,0,0,1,.047-.277c.01-.047.025-.092.035-.139a3.187,3.187,0,0,1,.169-.411,1.234,1.234,0,0,1,.072-.133l2.083,1.205a2.26,2.26,0,0,0-.323,1.093V220.9a1.207,1.207,0,0,0,.015.2.884.884,0,0,0,.02.107l.016.057c.01.026.02.051.031.072a.436.436,0,0,0,.072.129" transform="translate(-76.844 -173.041)"/>
                </g>
              </g>
            </g>
            <path id="Trazado_913307" data-name="Trazado 913307" d="M127.891,189.708a1.15,1.15,0,0,1-1.144-1.146V142.867a2.731,2.731,0,0,1,.39-1.335,2.8,2.8,0,0,1,.956-1l13.668-7.889a1.449,1.449,0,0,1,1.472-.046,1.525,1.525,0,0,1,.711.907l1.1,3.682a.556.556,0,0,0,.3.373.534.534,0,0,0,.472-.064l32.148-18.545a1.277,1.277,0,0,1,1.163-.131l.149.08a1.264,1.264,0,0,1,.527,1.108v38.345a2.946,2.946,0,0,1-1.351,2.339l-50,28.862a1.141,1.141,0,0,1-.572.155m14.66-56.325a.619.619,0,0,0-.307.092l-13.664,7.887a1.842,1.842,0,0,0-.61.654,1.781,1.781,0,0,0-.259.851v45.695a.18.18,0,0,0,.27.157l50-28.862a1.983,1.983,0,0,0,.869-1.5V120.007a.423.423,0,0,0-.073-.29l-.059-.031a.79.79,0,0,0-.259.1L146.306,138.33a1.448,1.448,0,0,1-2.181-.867l-1.1-3.683a.572.572,0,0,0-.246-.338.456.456,0,0,0-.224-.059" transform="translate(17.386 16.286)" fill="#e0e0e0"/>
            <path id="Trazado_913308" data-name="Trazado 913308" d="M185.577,123.706a.792.792,0,0,0-.3-.7h0l-.012-.007-.024-.014-2.07-1.2h0l0,0h0a.779.779,0,0,0-.78.08L150.588,140.2l-.857-2.858a1.043,1.043,0,0,0-.464-.615l.007,0-2.09-1.207v.007a.988.988,0,0,0-1.018.026L132.5,143.44a2.451,2.451,0,0,0-1.111,1.923v45.563a.791.791,0,0,0,.3.7l0,0,.022.012.009.006,2.069,1.192a.15.15,0,0,0,.023.014l.016.01v0a.8.8,0,0,0,.756-.089l49.878-28.8a2.455,2.455,0,0,0,1.111-1.924Z" transform="translate(18.023 16.695)" fill="#e6e6e6"/>
            <path id="Trazado_913309" data-name="Trazado 913309" d="M149.205,135.061a.993.993,0,0,0-1,.047l-13.662,7.885a2.358,2.358,0,0,0-.786.831l-2.083-1.207a2.234,2.234,0,0,1,.786-.83l13.662-7.886a.991.991,0,0,1,1.015-.025v-.006Z" transform="translate(18.062 18.346)" fill="#f0f0f0"/>
            <path id="Trazado_913310" data-name="Trazado 913310" d="M182.877,122.957a.832.832,0,0,0-.729.108L150,141.611a.971.971,0,0,1-1.483-.59l-.246-.821,31.793-18.34a.972.972,0,0,1,.492-.149.58.58,0,0,1,.288.072h0Z" transform="translate(20.338 16.695)" fill="#f0f0f0"/>
            <g id="Grupo_1102175" data-name="Grupo 1102175" transform="translate(149.414 160.964)" opacity="0.15">
              <g id="Grupo_1102174" data-name="Grupo 1102174">
                <g id="Grupo_1102173" data-name="Grupo 1102173" clip-path="url(#clip-path-22)">
                  <path id="Trazado_913311" data-name="Trazado 913311" d="M133.632,189.969a.594.594,0,0,0,.108.118l-2.016-1.16-.01,0-.02-.016a.6.6,0,0,1-.19-.215.551.551,0,0,1-.051-.129,1.063,1.063,0,0,1-.057-.359l0-45.563a1.29,1.29,0,0,1,0-.133,2.568,2.568,0,0,1,.047-.277c.01-.047.025-.092.035-.139a3.192,3.192,0,0,1,.169-.411,1.238,1.238,0,0,1,.072-.133l2.083,1.205a2.26,2.26,0,0,0-.323,1.093v45.563a1.207,1.207,0,0,0,.015.2.881.881,0,0,0,.02.107l.016.057c.01.026.02.051.031.072a.464.464,0,0,0,.072.129" transform="translate(-131.391 -141.548)"/>
                </g>
              </g>
            </g>
            <path id="Trazado_913312" data-name="Trazado 913312" d="M18.8,188.413a1.15,1.15,0,0,1-.572-.155,1.135,1.135,0,0,1-.572-.992v-45.7a2.731,2.731,0,0,1,.39-1.334,2.8,2.8,0,0,1,.956-1l13.668-7.887a1.449,1.449,0,0,1,1.471-.047,1.533,1.533,0,0,1,.711.907l1.1,3.683a.553.553,0,0,0,.3.373.537.537,0,0,0,.472-.064l32.148-18.546a1.272,1.272,0,0,1,1.164-.129l.147.078a1.245,1.245,0,0,1,.528,1.106v38.345a2.948,2.948,0,0,1-1.351,2.34l-50,28.862a1.153,1.153,0,0,1-.572.155m14.66-56.325a.608.608,0,0,0-.307.092l-13.665,7.886a1.85,1.85,0,0,0-.608.654,1.785,1.785,0,0,0-.259.851v45.7a.172.172,0,0,0,.09.156.168.168,0,0,0,.18,0l50-28.861a1.985,1.985,0,0,0,.869-1.506V118.711a.419.419,0,0,0-.074-.288l-.059-.032a.8.8,0,0,0-.259.1L37.213,137.035a1.449,1.449,0,0,1-2.181-.867l-1.1-3.683a.573.573,0,0,0-.246-.338.455.455,0,0,0-.224-.059" transform="translate(2.422 16.109)" fill="#e0e0e0"/>
            <path id="Trazado_913313" data-name="Trazado 913313" d="M76.484,122.411a.792.792,0,0,0-.3-.7h0l-.013-.007-.023-.014-2.071-1.2h0l0,0h0a.779.779,0,0,0-.78.08L41.5,138.907l-.857-2.858a1.047,1.047,0,0,0-.464-.615l.007,0-2.09-1.207v.007a.988.988,0,0,0-1.018.026l-13.663,7.887a2.451,2.451,0,0,0-1.111,1.923v45.563a.791.791,0,0,0,.3.7l0,0,.022.013.009.006,2.069,1.193.023.013.016.01v0a.8.8,0,0,0,.756-.089l49.878-28.8a2.455,2.455,0,0,0,1.111-1.924Z" transform="translate(3.059 16.517)" fill="#e6e6e6"/>
            <path id="Trazado_913314" data-name="Trazado 913314" d="M40.112,133.766a.993.993,0,0,0-1,.047L25.455,141.7a2.359,2.359,0,0,0-.786.831l-2.082-1.205a2.217,2.217,0,0,1,.785-.831l13.662-7.886a.993.993,0,0,1,1.017-.025v-.006Z" transform="translate(3.098 18.168)" fill="#f0f0f0"/>
            <path id="Trazado_913315" data-name="Trazado 913315" d="M73.785,121.662a.832.832,0,0,0-.729.108L40.91,140.316a.971.971,0,0,1-1.483-.59l-.247-.821,31.794-18.34a.973.973,0,0,1,.492-.149.573.573,0,0,1,.287.072h.006Z" transform="translate(5.374 16.517)" fill="#f0f0f0"/>
            <g id="Grupo_1102178" data-name="Grupo 1102178" transform="translate(25.356 159.491)" opacity="0.15">
              <g id="Grupo_1102177" data-name="Grupo 1102177">
                <g id="Grupo_1102176" data-name="Grupo 1102176" clip-path="url(#clip-path-22)">
                  <path id="Trazado_913316" data-name="Trazado 913316" d="M24.539,188.674a.594.594,0,0,0,.108.118l-2.016-1.16-.01,0-.02-.016a.6.6,0,0,1-.19-.215.572.572,0,0,1-.051-.128,1.064,1.064,0,0,1-.057-.359l0-45.563a1.289,1.289,0,0,1,0-.133,2.569,2.569,0,0,1,.047-.277c.01-.047.025-.092.035-.139a3.12,3.12,0,0,1,.169-.411,1.236,1.236,0,0,1,.072-.133l2.083,1.205a2.256,2.256,0,0,0-.323,1.093v45.563a1.208,1.208,0,0,0,.015.2.884.884,0,0,0,.02.107l.016.057c.01.025.02.051.031.072a.436.436,0,0,0,.072.128" transform="translate(-22.298 -140.253)"/>
                </g>
              </g>
            </g>
            <path id="Trazado_913317" data-name="Trazado 913317" d="M73.344,156.92a1.157,1.157,0,0,1-.573-.155,1.136,1.136,0,0,1-.571-.992V110.079a2.731,2.731,0,0,1,.39-1.335,2.81,2.81,0,0,1,.956-1l13.668-7.889a1.455,1.455,0,0,1,1.471-.047,1.536,1.536,0,0,1,.711.907l1.1,3.683a.553.553,0,0,0,.3.373.542.542,0,0,0,.472-.064l32.148-18.545a1.28,1.28,0,0,1,1.163-.131l.149.08a1.264,1.264,0,0,1,.527,1.108v38.345a2.946,2.946,0,0,1-1.351,2.339l-50,28.862a1.141,1.141,0,0,1-.572.155M88,100.6a.617.617,0,0,0-.308.093l-13.663,7.886a1.842,1.842,0,0,0-.61.654,1.781,1.781,0,0,0-.259.851v45.695a.174.174,0,0,0,.09.157.178.178,0,0,0,.18,0l50-28.862a1.983,1.983,0,0,0,.869-1.5V87.219a.42.42,0,0,0-.074-.29l-.058-.031a.782.782,0,0,0-.259.1L91.759,105.542a1.507,1.507,0,0,1-1.309.125,1.491,1.491,0,0,1-.872-.992l-1.1-3.683a.565.565,0,0,0-.246-.338A.455.455,0,0,0,88,100.6" transform="translate(9.904 11.789)" fill="#e0e0e0"/>
            <path id="Trazado_913318" data-name="Trazado 913318" d="M131.03,90.919a.792.792,0,0,0-.3-.7h0l-.013-.007-.023-.014L128.621,89h0l0,0h0a.779.779,0,0,0-.78.08l-31.794,18.34-.857-2.858a1.047,1.047,0,0,0-.464-.615l.007,0-2.09-1.207v.007a.988.988,0,0,0-1.018.026l-13.663,7.887a2.451,2.451,0,0,0-1.111,1.923v45.563a.791.791,0,0,0,.3.7l0,0,.022.013.009.006,2.069,1.193.023.012.016.01v0a.8.8,0,0,0,.756-.089l49.88-28.8a2.457,2.457,0,0,0,1.11-1.924Z" transform="translate(10.541 12.197)" fill="#e6e6e6"/>
            <path id="Trazado_913319" data-name="Trazado 913319" d="M94.659,102.273a1,1,0,0,0-1,.045L80,110.205a2.364,2.364,0,0,0-.784.831l-2.083-1.205a2.22,2.22,0,0,1,.786-.831l13.662-7.886a.989.989,0,0,1,1.014-.025v-.006Z" transform="translate(10.58 13.849)" fill="#f0f0f0"/>
            <path id="Trazado_913320" data-name="Trazado 913320" d="M128.331,90.17a.832.832,0,0,0-.729.108L95.456,108.824a.971.971,0,0,1-1.483-.59l-.246-.821L125.52,89.072a.981.981,0,0,1,.492-.148A.58.58,0,0,1,126.3,89h0Z" transform="translate(12.856 12.198)" fill="#f0f0f0"/>
            <g id="Grupo_1102181" data-name="Grupo 1102181" transform="translate(87.385 123.68)" opacity="0.15">
              <g id="Grupo_1102180" data-name="Grupo 1102180">
                <g id="Grupo_1102179" data-name="Grupo 1102179" clip-path="url(#clip-path-22)">
                  <path id="Trazado_913321" data-name="Trazado 913321" d="M79.087,157.182a.594.594,0,0,0,.108.118l-2.016-1.16-.01,0-.02-.016a.621.621,0,0,1-.241-.343,1.063,1.063,0,0,1-.057-.359l-.006-45.563a1.034,1.034,0,0,1,.006-.133,2.571,2.571,0,0,1,.047-.277c.01-.047.025-.092.035-.139a3.121,3.121,0,0,1,.169-.411,1.235,1.235,0,0,1,.072-.133l2.083,1.205a2.256,2.256,0,0,0-.323,1.093v45.563a1.207,1.207,0,0,0,.015.2.884.884,0,0,0,.02.107l.016.057c.01.025.02.051.031.072a.436.436,0,0,0,.072.129" transform="translate(-76.844 -108.761)"/>
                </g>
              </g>
            </g>
            <path id="Trazado_913322" data-name="Trazado 913322" d="M127.891,125.428a1.15,1.15,0,0,1-.572-.155,1.135,1.135,0,0,1-.572-.992v-45.7a2.731,2.731,0,0,1,.39-1.334,2.813,2.813,0,0,1,.956-1l13.668-7.887a1.447,1.447,0,0,1,1.472-.047,1.53,1.53,0,0,1,.711.909l1.1,3.682a.558.558,0,0,0,.3.373.548.548,0,0,0,.473-.064l32.148-18.546a1.271,1.271,0,0,1,1.164-.129l.148.078a1.263,1.263,0,0,1,.527,1.106V94.071a2.946,2.946,0,0,1-1.351,2.34l-50,28.862a1.153,1.153,0,0,1-.572.155M142.551,69.1a.608.608,0,0,0-.307.092L128.58,77.082a1.852,1.852,0,0,0-.61.654,1.785,1.785,0,0,0-.259.851v45.7a.171.171,0,0,0,.09.156.168.168,0,0,0,.18,0l50-28.861a1.985,1.985,0,0,0,.869-1.506V55.726a.421.421,0,0,0-.073-.289l-.057-.03a.722.722,0,0,0-.263.1L146.306,74.05a1.512,1.512,0,0,1-1.309.125,1.5,1.5,0,0,1-.872-.992l-1.1-3.683a.569.569,0,0,0-.246-.338.455.455,0,0,0-.224-.059" transform="translate(17.386 7.469)" fill="#e0e0e0"/>
            <path id="Trazado_913323" data-name="Trazado 913323" d="M185.577,59.426a.792.792,0,0,0-.3-.7h0l-.012-.007-.024-.014-2.07-1.2h0l0,0h0a.779.779,0,0,0-.78.08l-31.794,18.34-.857-2.858a1.043,1.043,0,0,0-.464-.615l.007,0-2.09-1.207v.007a.988.988,0,0,0-1.018.026L132.5,79.159a2.455,2.455,0,0,0-1.111,1.924v45.563a.791.791,0,0,0,.3.7l0,0,.022.013.009.006,2.069,1.193.023.012.016.01v0a.8.8,0,0,0,.756-.089l49.878-28.8a2.455,2.455,0,0,0,1.111-1.924Z" transform="translate(18.023 7.878)" fill="#e6e6e6"/>
            <path id="Trazado_913324" data-name="Trazado 913324" d="M149.205,70.781a.993.993,0,0,0-1,.047l-13.662,7.885a2.359,2.359,0,0,0-.786.831l-2.083-1.205a2.229,2.229,0,0,1,.786-.831l13.662-7.886a.991.991,0,0,1,1.015-.025v-.006Z" transform="translate(18.062 9.529)" fill="#f0f0f0"/>
            <path id="Trazado_913325" data-name="Trazado 913325" d="M182.877,58.677a.832.832,0,0,0-.729.108L150,77.331a.971.971,0,0,1-1.483-.59l-.246-.821,31.793-18.34a.972.972,0,0,1,.492-.149.58.58,0,0,1,.288.072h0Z" transform="translate(20.338 7.878)" fill="#f0f0f0"/>
            <g id="Grupo_1102184" data-name="Grupo 1102184" transform="translate(149.414 87.867)" opacity="0.15">
              <g id="Grupo_1102183" data-name="Grupo 1102183">
                <g id="Grupo_1102182" data-name="Grupo 1102182" clip-path="url(#clip-path-22)">
                  <path id="Trazado_913326" data-name="Trazado 913326" d="M133.632,125.689a.594.594,0,0,0,.108.118l-2.016-1.16-.01,0-.02-.016a.6.6,0,0,1-.19-.215.55.55,0,0,1-.051-.128,1.063,1.063,0,0,1-.057-.359l0-45.563a1.29,1.29,0,0,1,0-.133,2.567,2.567,0,0,1,.047-.277c.01-.047.025-.092.035-.139a3.19,3.19,0,0,1,.169-.411,1.237,1.237,0,0,1,.072-.133l2.083,1.205a2.26,2.26,0,0,0-.323,1.093v45.563a1.207,1.207,0,0,0,.015.2.882.882,0,0,0,.02.107l.016.057c.01.025.02.051.031.072a.463.463,0,0,0,.072.128" transform="translate(-131.391 -77.268)"/>
                </g>
              </g>
            </g>
          </g>
        </g>
        <path id="Trazado_913327" data-name="Trazado 913327" d="M99.229,388.463l-13.113-7.57,209.8-121.129,13.113,7.57Z" transform="translate(11.812 35.631)" fill="#8261bd"/>
        <g id="Grupo_1102209" data-name="Grupo 1102209">
          <g id="Grupo_1102208" data-name="Grupo 1102208" clip-path="url(#clip-path)">
            <g id="Grupo_1102189" data-name="Grupo 1102189" transform="translate(97.928 295.395)" opacity="0.35">
              <g id="Grupo_1102188" data-name="Grupo 1102188">
                <g id="Grupo_1102187" data-name="Grupo 1102187" clip-path="url(#clip-path-29)">
                  <path id="Trazado_913328" data-name="Trazado 913328" d="M99.229,388.463l-13.113-7.57,209.8-121.129,13.113,7.57Z" transform="translate(-86.116 -259.764)"/>
                </g>
              </g>
            </g>
            <path id="Trazado_913329" data-name="Trazado 913329" d="M297.136,278.173a9.432,9.432,0,0,1-4.293,8.059L106.506,393.808l-4.7,2.711-12.826,7.4a10.526,10.526,0,0,1-1.647-4.616L74.613,210.873a13.968,13.968,0,0,1-.011-1.647c.011-.15.022-.3.033-.441s.022-.268.032-.4.033-.247.055-.355c.02-.15.042-.3.075-.441.053-.3.118-.581.193-.849.022-.086.043-.161.065-.248.032-.108.065-.2.1-.3.022-.075.14-.376.172-.451a3.1,3.1,0,0,1,1.109-1.5c1.216-.7,2.518-3.647,2.927-6.6l1.57-11.288a12.4,12.4,0,0,1,5.4-8.016l60.612-34.993a4.233,4.233,0,0,1,6.382,2.4l2.248,6.7a4.236,4.236,0,0,0,6.381,2.411l117.44-67.795c2.571-1.5,4.82-.291,5.025,2.668Z" transform="translate(10.23 11.855)" fill="#8261bd"/>
            <g id="Grupo_1102192" data-name="Grupo 1102192" transform="translate(84.813 98.283)" opacity="0.1">
              <g id="Grupo_1102191" data-name="Grupo 1102191">
                <g id="Grupo_1102190" data-name="Grupo 1102190" clip-path="url(#clip-path-30)">
                  <path id="Trazado_913330" data-name="Trazado 913330" d="M297.136,278.173a9.432,9.432,0,0,1-4.293,8.059L106.506,393.808l-4.7,2.711-12.826,7.4a10.526,10.526,0,0,1-1.647-4.616L74.613,210.873a13.968,13.968,0,0,1-.011-1.647c.011-.15.022-.3.033-.441s.022-.268.032-.4.033-.247.055-.355c.02-.15.042-.3.075-.441.053-.3.118-.581.193-.849.022-.086.043-.161.065-.248.032-.108.065-.2.1-.3.022-.075.14-.376.172-.451a3.1,3.1,0,0,1,1.109-1.5c1.216-.7,2.518-3.647,2.927-6.6l1.57-11.288a12.4,12.4,0,0,1,5.4-8.016l60.612-34.993a4.233,4.233,0,0,1,6.382,2.4l2.248,6.7a4.236,4.236,0,0,0,6.381,2.411l117.44-67.795c2.571-1.5,4.82-.291,5.025,2.668Z" transform="translate(-74.582 -86.428)"/>
                </g>
              </g>
            </g>
            <path id="Trazado_913331" data-name="Trazado 913331" d="M272.943,87.01a3.231,3.231,0,0,0-2.744.065,2.617,2.617,0,0,0-.3.14c-.1.043-.2.108-.3.161L152.157,155.171a5.232,5.232,0,0,1-.979.441c-.14.043-.291.086-.431.118a.515.515,0,0,1-.13.022,4.135,4.135,0,0,1-4.616-2.5,4.886,4.886,0,0,0,1.786-.6L265.227,84.847a3.4,3.4,0,0,1,3.455-.29c.463.258,3.637,2.1,4.261,2.453" transform="translate(20.027 11.551)" fill="#8261bd"/>
            <g id="Grupo_1102195" data-name="Grupo 1102195" transform="translate(166.029 95.76)" opacity="0.3">
              <g id="Grupo_1102194" data-name="Grupo 1102194">
                <g id="Grupo_1102193" data-name="Grupo 1102193" clip-path="url(#clip-path-31)">
                  <path id="Trazado_913332" data-name="Trazado 913332" d="M272.943,87.01a3.231,3.231,0,0,0-2.744.065,2.617,2.617,0,0,0-.3.14c-.1.043-.2.108-.3.161L152.157,155.171a5.232,5.232,0,0,1-.979.441c-.14.043-.291.086-.431.118a.515.515,0,0,1-.13.022,4.135,4.135,0,0,1-4.616-2.5,4.886,4.886,0,0,0,1.786-.6L265.227,84.847a3.4,3.4,0,0,1,3.455-.29c.463.258,3.637,2.1,4.261,2.453" transform="translate(-146.002 -84.209)" fill="#fff"/>
                </g>
              </g>
            </g>
            <path id="Trazado_913333" data-name="Trazado 913333" d="M146.5,134.223a4.262,4.262,0,0,0-4.358.118L81.517,169.335a11.6,11.6,0,0,0-3.772,3.9l4.371,2.525a11.611,11.611,0,0,1,3.78-3.9l60.612-34.992a.378.378,0,0,1,.1-.043,4.252,4.252,0,0,1,4.293-.088c-.248-.14-3.7-2.115-4.4-2.517" transform="translate(10.664 18.337)" fill="#8261bd"/>
            <g id="Grupo_1102198" data-name="Grupo 1102198" transform="translate(88.409 152.018)" opacity="0.3">
              <g id="Grupo_1102197" data-name="Grupo 1102197">
                <g id="Grupo_1102196" data-name="Grupo 1102196" clip-path="url(#clip-path-32)">
                  <path id="Trazado_913334" data-name="Trazado 913334" d="M146.5,134.223a4.262,4.262,0,0,0-4.358.118L81.517,169.335a11.6,11.6,0,0,0-3.772,3.9l4.371,2.525a11.611,11.611,0,0,1,3.78-3.9l60.612-34.992a.378.378,0,0,1,.1-.043,4.252,4.252,0,0,1,4.293-.088c-.248-.14-3.7-2.115-4.4-2.517" transform="translate(-77.744 -133.681)" fill="#fff"/>
                </g>
              </g>
            </g>
            <path id="Trazado_913335" data-name="Trazado 913335" d="M77,172.59l-1.573,11.288c-.408,2.937-1.722,5.9-2.925,6.585a3.071,3.071,0,0,0-1.109,1.5l4.368,2.529c.011-.032.151-.323.2-.431.043-.075.086-.15.128-.225a2.294,2.294,0,0,1,.774-.839c1.217-.7,2.519-3.648,2.928-6.6l1.57-11.288a11.022,11.022,0,0,1,1.622-4.117l-4.372-2.523A11.031,11.031,0,0,0,77,172.59" transform="translate(9.793 23.108)" fill="#8261bd"/>
            <g id="Grupo_1102201" data-name="Grupo 1102201" transform="translate(81.184 191.576)" opacity="0.15">
              <g id="Grupo_1102200" data-name="Grupo 1102200">
                <g id="Grupo_1102199" data-name="Grupo 1102199" clip-path="url(#clip-path-33)">
                  <path id="Trazado_913336" data-name="Trazado 913336" d="M77,172.59l-1.573,11.288c-.408,2.937-1.722,5.9-2.925,6.585a3.071,3.071,0,0,0-1.109,1.5l4.368,2.529c.011-.032.151-.323.2-.431.043-.075.086-.15.128-.225a2.294,2.294,0,0,1,.774-.839c1.217-.7,2.519-3.648,2.928-6.6l1.57-11.288a11.022,11.022,0,0,1,1.622-4.117l-4.372-2.523A11.031,11.031,0,0,0,77,172.59" transform="translate(-71.392 -168.468)"/>
                </g>
              </g>
            </g>
            <path id="Trazado_913337" data-name="Trazado 913337" d="M297.085,100.787a3.5,3.5,0,0,0-1.557-2.968c-.776-.441-3.591-2.075-4.367-2.521a3.427,3.427,0,0,0-3.468.289L87.21,211.335a9.435,9.435,0,0,0-4.3,8.059L94.648,393.252a3.512,3.512,0,0,0,1.535,2.957c.779.453,3.611,2.083,4.384,2.53a3.429,3.429,0,0,0,3.473-.285L304.522,282.7a9.433,9.433,0,0,0,4.3-8.058Z" transform="translate(11.371 13.024)" fill="#fff"/>
            <path id="Trazado_913338" data-name="Trazado 913338" d="M100.567,384.209c-.774-.453-3.6-2.088-4.379-2.539a3.5,3.5,0,0,1-1.539-2.959L82.909,204.857a8.438,8.438,0,0,1,.818-3.938l4.359,2.518a8.411,8.411,0,0,0-.8,3.938L99.017,381.239a3.488,3.488,0,0,0,1.55,2.97" transform="translate(11.371 27.56)" fill="#e0e0e0"/>
            <path id="Trazado_913339" data-name="Trazado 913339" d="M91.054,213.554,291.536,97.806c2.573-1.486,4.822-.288,5.022,2.677l11.734,173.859a9.434,9.434,0,0,1-4.3,8.058L103.513,398.148c-2.573,1.486-4.822.287-5.022-2.678L86.757,221.612a9.433,9.433,0,0,1,4.3-8.058" transform="translate(11.898 13.328)" fill="#f0f0f0"/>
            <path id="Trazado_913340" data-name="Trazado 913340" d="M112.9,215.277,101.678,392.783c-.188,2.965-2.426,4.164-5,2.679l-3.795-2.19a11.275,11.275,0,0,1-5.022-8.058L75.14,196.786a11.918,11.918,0,0,1,.714-5.133l-4.371-2.523a11.936,11.936,0,0,0-.714,5.133L83.845,387.941A11.271,11.271,0,0,0,88.867,396l11.875,6.856c2.573,1.485,4.811.285,5-2.679L117.271,217.8a8.325,8.325,0,0,1,.4-2.016l-4.375-2.513a8.345,8.345,0,0,0-.4,2.006" transform="translate(9.703 25.943)" fill="#8261bd"/>
            <g id="Grupo_1102204" data-name="Grupo 1102204" transform="translate(80.442 215.072)" opacity="0.25">
              <g id="Grupo_1102203" data-name="Grupo 1102203">
                <g id="Grupo_1102202" data-name="Grupo 1102202" clip-path="url(#clip-path-34)">
                  <path id="Trazado_913341" data-name="Trazado 913341" d="M112.9,215.277,101.678,392.783c-.188,2.965-2.426,4.164-5,2.679l-3.795-2.19a11.275,11.275,0,0,1-5.022-8.058L75.14,196.786a11.918,11.918,0,0,1,.714-5.133l-4.371-2.523a11.936,11.936,0,0,0-.714,5.133L83.845,387.941A11.271,11.271,0,0,0,88.867,396l11.875,6.856c2.573,1.485,4.811.285,5-2.679L117.271,217.8a8.325,8.325,0,0,1,.4-2.016l-4.375-2.513a8.345,8.345,0,0,0-.4,2.006" transform="translate(-70.739 -189.129)"/>
                </g>
              </g>
            </g>
            <path id="Trazado_913342" data-name="Trazado 913342" d="M320.625,105.11a3.274,3.274,0,0,0-2.981.441l-.053.032L117.137,221.626a11.373,11.373,0,0,0-4.6,6.059l-4.379-2.518a11.407,11.407,0,0,1,4.594-6.058L313.265,103.044a3.151,3.151,0,0,1,3.152-.365c.334.193,3.433,1.99,4.208,2.431" transform="translate(14.836 14.046)" fill="#8261bd"/>
            <g id="Grupo_1102207" data-name="Grupo 1102207" transform="translate(122.998 116.446)" opacity="0.3">
              <g id="Grupo_1102206" data-name="Grupo 1102206">
                <g id="Grupo_1102205" data-name="Grupo 1102205" clip-path="url(#clip-path-35)">
                  <path id="Trazado_913343" data-name="Trazado 913343" d="M320.625,105.11a3.274,3.274,0,0,0-2.981.441l-.053.032L117.137,221.626a11.373,11.373,0,0,0-4.6,6.059l-4.379-2.518a11.407,11.407,0,0,1,4.594-6.058L313.265,103.044a3.151,3.151,0,0,1,3.152-.365c.334.193,3.433,1.99,4.208,2.431" transform="translate(-108.162 -102.4)" fill="#fff"/>
                </g>
              </g>
            </g>
            <path id="Trazado_913344" data-name="Trazado 913344" d="M118.584,221.323a11.263,11.263,0,0,0-5,8.07l-11.535,182.45c-.2,2.7-2.13,3.9-4.433,2.884a9.9,9.9,0,0,0,4.2.839,9.434,9.434,0,0,0,4.541-1.086L306.858,298.695a11.21,11.21,0,0,0,5-8.06l11.551-182.7c.183-2.97-1.744-4.172-4.316-2.687Z" transform="translate(13.389 14.35)" fill="#8261bd"/>
          </g>
        </g>
        <g id="Grupo_1102226" data-name="Grupo 1102226">
          <g id="Grupo_1102225" data-name="Grupo 1102225" clip-path="url(#clip-path)">
            <path id="Trazado_913345" data-name="Trazado 913345" d="M366.075,92.669c-8.152-.643-12.637-2.9-17.528,6.331-5.034,9.5-15.7,32.077-19.17,39.09.776,4.233,10.512,9.562,14.967,8.327s17.975-31.493,17.975-31.493Z" transform="translate(45.18 12.614)" fill="#8261bd"/>
            <g id="Grupo_1102212" data-name="Grupo 1102212" transform="translate(374.555 104.584)" opacity="0.4">
              <g id="Grupo_1102211" data-name="Grupo 1102211">
                <g id="Grupo_1102210" data-name="Grupo 1102210" clip-path="url(#clip-path-37)">
                  <path id="Trazado_913346" data-name="Trazado 913346" d="M366.075,92.667c-8.744-.611-12.637-2.9-17.528,6.331-5.034,9.5-15.7,32.077-19.17,39.09.776,4.233,10.512,9.562,14.967,8.328s17.975-31.493,17.975-31.493Z" transform="translate(-329.375 -91.969)" fill="#fff"/>
                </g>
              </g>
            </g>
            <path id="Trazado_913347" data-name="Trazado 913347" d="M395.866,94.774s-8.9-2.783-15.576-3.211a70.413,70.413,0,0,0-17.507,1.16A45.42,45.42,0,0,0,351.5,103.186c-5.985,7.57-7.846,10.824-7.846,17.5,0,4.786,4.57,9.022,4.57,9.022.347,4.7.241,10.372.175,13.356-.075,3.331-.4,4.65,1.466,6.077,5.372,6.762,35.847,7.632,46.441-.845a3.757,3.757,0,0,0,2.178-3.263c.484-3.256,1.316-7.222,1.628-8.756,1.427-7,3.781-14.364,4.941-19.36,3.507-15.108-6.529-21.231-9.185-22.143" transform="translate(47.138 12.542)" fill="#8261bd"/>
            <g id="Grupo_1102215" data-name="Grupo 1102215" transform="translate(390.79 103.978)" opacity="0.6">
              <g id="Grupo_1102214" data-name="Grupo 1102214">
                <g id="Grupo_1102213" data-name="Grupo 1102213" clip-path="url(#clip-path-38)">
                  <path id="Trazado_913348" data-name="Trazado 913348" d="M395.866,94.774s-8.9-2.783-15.576-3.211a70.413,70.413,0,0,0-17.507,1.16A45.42,45.42,0,0,0,351.5,103.186c-5.985,7.57-7.846,10.824-7.846,17.5,0,4.786,4.57,9.022,4.57,9.022.347,4.7.241,10.372.175,13.356-.075,3.331-.4,4.65,1.466,6.077,5.372,6.762,35.847,7.632,46.441-.845a3.757,3.757,0,0,0,2.178-3.263c.484-3.256,1.316-7.222,1.628-8.756,1.427-7,3.781-14.364,4.941-19.36,3.507-15.108-6.529-21.231-9.185-22.143" transform="translate(-343.652 -91.436)" fill="#fff"/>
                </g>
              </g>
            </g>
            <path id="Trazado_913349" data-name="Trazado 913349" d="M368.425,43.313c-1.741.765-3.153,1.9-5.129,2.041a2.512,2.512,0,0,1-1.68-.346,1.123,1.123,0,0,1-.315-1.532,6.1,6.1,0,0,0-1.818,1.424,2.079,2.079,0,0,0-.316,2.177,8.4,8.4,0,0,0-5.765,1.292,3.479,3.479,0,0,0-1.508,1.744c-.556,1.772,1.194,3.875.173,5.425-.743,1.126-2.378,1.06-3.632,1.553a4.014,4.014,0,0,0-2.418,4.254,11.463,11.463,0,0,0,.969,2.567,10.818,10.818,0,0,1,.811,2.968,3.233,3.233,0,0,1-.508,2.5,1.43,1.43,0,0,1-2.235,0,2.6,2.6,0,0,0,2.211,2.981,2.916,2.916,0,0,0-1.659,2.058,3.335,3.335,0,0,0,.8,2.769c.274.338.655.487.932.779.892.938-.073,2.437-.21,3.455a3,3,0,0,0,.318,1.928,3.9,3.9,0,0,0,1.767,1.392,2.575,2.575,0,0,1,1.262.93,3.069,3.069,0,0,1,.237.768,4.953,4.953,0,0,0,4.223,3.656,13.743,13.743,0,0,0,2.7-.173,16.654,16.654,0,0,1,5-.017,20.152,20.152,0,0,0,5.624.573c1.4-.082,2.8-.248,4.206-.26a26.5,26.5,0,0,1,4.014.495c.886.125,1.516-.053,2.283.513.932.688,1.522,1.756,2.441,2.465a4.5,4.5,0,0,0,3.473.857c1.124-.2,2.164-.822,3.3-.84,1.481-.023,2.924.989,4.357.611,2.169-.573,2.642-3.821,4.767-4.542.982-.333,2.12-.032,3.058-.475a2.659,2.659,0,0,0,1.355-1.777,5.406,5.406,0,0,0-.008-2.291,2.466,2.466,0,0,0,3.307.24,1.082,1.082,0,0,1-1.133-1.028,2.572,2.572,0,0,1,.547-1.6,5.591,5.591,0,0,0,.841-1.492c.483-1.693-1.141-2.678-1.233-4.183-.078-1.266,1.106-2.3,1.539-3.393a3.247,3.247,0,0,0-.4-3.059c-.69-.936-1.916-1.552-2.136-2.7-.2-1.02.513-1.968.8-2.968a3.829,3.829,0,0,0-.9-3.537,8.044,8.044,0,0,0-1.376-1.018c-.415-.3-1.084-1.083-1.676-1.013a1.871,1.871,0,0,0,1.384-2.572,1.486,1.486,0,0,1-1.783.133,2.9,2.9,0,0,1-1.131-1.518,20.188,20.188,0,0,0-1.656-4.241,6.992,6.992,0,0,0-3.926-2.94c-3.375-1.153-5.472-.686-8.73.308-1.161-3.347-4.476-4.931-7.883-5.9a11.277,11.277,0,0,0-7.546.558" transform="translate(47.323 5.809)" fill="#263238"/>
            <path id="Trazado_913350" data-name="Trazado 913350" d="M384.324,89.624c.608-5.93,3.166-10.55,3.925-17.594s1-12.352-5.552-17.863c-6.629-5.574-13.531-5.7-16.654-5.108s-6.7,3.517-6.7,3.517Z" transform="translate(49.291 6.697)" fill="#8261bd"/>
            <path id="Trazado_913351" data-name="Trazado 913351" d="M352.456,70.355c-8.085-5.143-3.211-19.995,8.381-18.1,0,0,10.293-3.828,19.231,2.911A20.4,20.4,0,0,1,385.1,60.6a19.12,19.12,0,0,1,2.245,14.6l-1.221,5.138-.266,7.837Z" transform="translate(47.797 7.019)" fill="#263238"/>
            <path id="Trazado_913352" data-name="Trazado 913352" d="M357.157,55.731a8.161,8.161,0,0,0-4.2,5.416c-.805,3.244-1.269,8.494-.847,16.325.536,9.954,4.309,14.923,9.127,15.471a36.88,36.88,0,0,0,6.25.053l.1,5.336s-7.094,6.532-4.844,19.674c16.9-12.342,22.842-20.21,22.842-20.21l.064-17.973c.715,1.162,4.208,2.73,6.954-.778,3.23-4.125,2.509-9.048-.364-10.861-2.975-1.877-6.381-.1-7.7,3.269-3.094,1.288-21.222-.88-20.942-15.8a7.245,7.245,0,0,0-6.445.076" transform="translate(48.277 7.536)" fill="#ffa8a7"/>
            <path id="Trazado_913353" data-name="Trazado 913353" d="M386.578,74.927a1.634,1.634,0,1,1-1.849-1.376,1.623,1.623,0,0,1,1.849,1.376" transform="translate(52.58 10.087)" fill="#8261bd"/>
            <path id="Trazado_913354" data-name="Trazado 913354" d="M365.612,89.592c9.575-2.065,14.946-5.952,15.927-9.829,0,0-.606,5.068-3.3,7.3-3.77,3.135-12.582,5.17-12.582,5.17Z" transform="translate(50.15 10.941)" fill="#f28f8f"/>
            <path id="Trazado_913355" data-name="Trazado 913355" d="M361.154,79.9l6.68-2.465a3.386,3.386,0,0,1-1.962,4.527,3.756,3.756,0,0,1-4.718-2.062" transform="translate(49.539 10.621)" fill="#b16668"/>
            <path id="Trazado_913356" data-name="Trazado 913356" d="M363.962,81.963a3.591,3.591,0,0,0,1.524-.2,3.367,3.367,0,0,0,2.206-2.862,4.1,4.1,0,0,0-3.73,3.067" transform="translate(49.924 10.822)" fill="#f28f8f"/>
            <path id="Trazado_913357" data-name="Trazado 913357" d="M369.77,68.843a1.841,1.841,0,1,1-1.841-1.827,1.835,1.835,0,0,1,1.841,1.827" transform="translate(50.216 9.192)" fill="#263238"/>
            <path id="Trazado_913358" data-name="Trazado 913358" d="M358.477,68.773a1.841,1.841,0,1,1-1.841-1.827,1.835,1.835,0,0,1,1.841,1.827" transform="translate(48.667 9.183)" fill="#263238"/>
            <path id="Trazado_913359" data-name="Trazado 913359" d="M364.443,65.763l-.962,12.081-6.12-2.164Z" transform="translate(49.019 9.021)" fill="#f28f8f"/>
            <path id="Trazado_913360" data-name="Trazado 913360" d="M353.758,66.258l4.221-1.456a2.147,2.147,0,0,0-2.771-1.41,2.325,2.325,0,0,0-1.45,2.866" transform="translate(48.511 8.679)" fill="#263238"/>
            <path id="Trazado_913361" data-name="Trazado 913361" d="M370.665,66.43l-4.153-1.786a2.176,2.176,0,0,1,2.9-1.217,2.355,2.355,0,0,1,1.249,3" transform="translate(50.274 8.675)" fill="#263238"/>
            <path id="Trazado_913362" data-name="Trazado 913362" d="M405.207,301.456c.391,2.391,1.155,5.17,1.754,10.066.586,4.8-.47,5.072,2.476,17.363,1.768,7.378,1.361,10.289-3.252,16.381-4.939,6.519-9.926,5.074-13.047-2.343-2.669-6.34-2.441-9.254-2.32-15.758s.1-8.4-.1-13.565c-.168-4.552.274-7.652.063-11.141Z" transform="translate(53.589 41.35)" fill="#37474f"/>
            <path id="Trazado_913363" data-name="Trazado 913363" d="M407.393,324.735c-.769-6.323-.845-12.856-1.085-17.122-.538-9.56,1.788-28.383.719-42.763L382.885,261.9c.7,5.612,6.866,31.057,8.981,46.385,0,0,.53,20.751,1.676,29.908a1.751,1.751,0,0,0,2.427,1.408,15.929,15.929,0,0,1,10.968-.482,1.748,1.748,0,0,0,2.371-1.619c.012-3.379-1.338-8.022-1.915-12.765" transform="translate(52.52 35.925)" fill="#ffa8a7"/>
            <path id="Trazado_913364" data-name="Trazado 913364" d="M344.185,260.571c.091,19.875-.107,37.467-.815,42.621s-1,6.9-2.327,10.5-3.533,8.408-5.507,10.731c0,0-5.68,6.057-4.417,6.682s13.158,1.879,18.484.274,5.891-6.123,7.705-14.37,3.374-20.294,3.374-20.294a5.377,5.377,0,0,1-.548-1.4c-.706-2.378,1.457-8.561,2.007-14.55Z" transform="translate(45.394 35.742)" fill="#ffa8a7"/>
            <path id="Trazado_913365" data-name="Trazado 913365" d="M362.557,303.189c-.351,1.924-2.006,4.1-2.745,7.1a53.442,53.442,0,0,0-1.552,10.424c-.235,4.3-.27,4.907-.27,4.907l-1.332-.073s.341-6.21.491-8.936-.01-4.731-1.3-5.1c0,0,.258-8.685,6.7-8.33" transform="translate(48.812 41.587)" fill="#263238"/>
            <path id="Trazado_913366" data-name="Trazado 913366" d="M360.973,291.383c.864,2.273,3.756,5.475,5,7.646a8.169,8.169,0,0,1,1.017,3.734,3.9,3.9,0,0,1-1.178,2.921,44.307,44.307,0,0,0-4.136,4.581c-1.627,2.182-4.681,7.281-5.528,10.88s-1.337,6.773-4.428,8.559c-2.411,1.393-12.305,3.338-17.312,3.656-6.833.433-8.6-2.853-6.046-5.479s6.9-7.118,7.683-7.682a12.448,12.448,0,0,1,6.353.889c3.825,1.647,5.046,3.87,9.066,1.865,3.639-1.815,5.088-8.544,4.781-18.225-.348-10.991,4.732-13.347,4.732-13.347" transform="translate(44.888 39.969)" fill="#37474f"/>
            <path id="Trazado_913367" data-name="Trazado 913367" d="M396.607,141.437c.441,2.5.942,4.835,1.832,6.085,5.446,7.641,10.987,16.882,11.907,31.071a624.183,624.183,0,0,1,.308,67.239c.237,3.024,2.525,10.358,2.846,27.607.257,13.745-.661,35.106-.661,35.106s-9.873,4.77-18.43,1.482c-3.364-13.129-8.946-44.676-12.259-59.693-3.492-15.829-7.052-34.7-7.052-34.7l-5.926,27.623a80.047,80.047,0,0,1-.226,17.859c-1.094,9.174-8.561,41.513-8.561,41.513s-10.947,3.325-18.3-1.83c0,0-.631-45.777-.639-55.879s1.959-70.116,8.317-96.493a57.545,57.545,0,0,0,.4-6.14c7.2,6.011,36.771,5.594,46.441-.845" transform="translate(46.835 19.401)" fill="#37474f"/>
            <path id="Trazado_913368" data-name="Trazado 913368" d="M406.783,284.21c-3.756,3.416-15.23,4.261-19.721,1.845l1.361,7.149s2.959,2.02,9.483,1.468c6.579-.556,8.616-3.153,8.616-3.153Z" transform="translate(53.093 38.985)" fill="#455a64"/>
            <path id="Trazado_913369" data-name="Trazado 913369" d="M361.447,279.438c-3.888,1.284-15.45.608-19.683-2.022l.18,6.134s2.382,2.295,8.894,2.987c6.536.7,9.35-1.124,9.35-1.124Z" transform="translate(46.879 38.053)" fill="#455a64"/>
            <path id="Trazado_913370" data-name="Trazado 913370" d="M373.614,211.757,369.359,177.9a21.4,21.4,0,0,1-17.093-8.242s-.283,8.464,13.628,12.353l5.095,31.21-3.3,26.158Z" transform="translate(48.32 23.272)" fill="#263238"/>
            <path id="Trazado_913371" data-name="Trazado 913371" d="M348.833,147.931s7,5.329,23.539,4.642,24.554-5.905,24.447-6.194v0a22.918,22.918,0,0,1-1.11-4.31c-.052-.25-.093-.469-.115-.628-9.669,6.44-39.238,6.856-46.441.846,0,0-.088,3.951-.32,5.648" transform="translate(47.849 19.401)" fill="#263238"/>
            <path id="Trazado_913372" data-name="Trazado 913372" d="M380.734,146.834c-1.9,3.956-4.731,12.242-4.946,17.932a19.655,19.655,0,0,0,8.522,1.9s1.141-9.967-.686-18.488Z" transform="translate(51.546 20.141)" fill="#263238"/>
            <path id="Trazado_913373" data-name="Trazado 913373" d="M384.679,144.925c2.932,3.267,7.964,10.431,9.76,15.835a19.648,19.648,0,0,1-7.65,4.208s-3.881-9.25-4.51-17.942Z" transform="translate(52.437 19.879)" fill="#263238"/>
            <path id="Trazado_913374" data-name="Trazado 913374" d="M362.332,150c.4-.525,1.623.57,4.227,1.149,3.326.739,4.619.622,8.147,1.544a17.558,17.558,0,0,0,4.909.907l-12.847,2.631a14.173,14.173,0,0,1-3.6-2.194c-1.757-1.577-1.345-3.364-.831-4.038" transform="translate(49.64 20.557)" fill="#ffa8a7"/>
            <path id="Trazado_913375" data-name="Trazado 913375" d="M312.875,119.461c-.905-.384-1.544-.017-1.427.821l6.005,42.916,60.264,25.578-6.153-42.984a3.281,3.281,0,0,0-1.857-2.213l-34.421-14.607-2.446-4.36a1.543,1.543,0,0,0-.745-.645l-14.271-6.07a1.491,1.491,0,0,0-1.967.608l-.706,1.921Z" transform="translate(42.719 16.152)" fill="#8261bd"/>
            <g id="Grupo_1102218" data-name="Grupo 1102218" transform="translate(354.152 133.908)" opacity="0.15">
              <g id="Grupo_1102217" data-name="Grupo 1102217">
                <g id="Grupo_1102216" data-name="Grupo 1102216" clip-path="url(#clip-path-39)">
                  <path id="Trazado_913376" data-name="Trazado 913376" d="M312.875,119.461c-.905-.384-1.544-.017-1.427.821l6.005,42.916,60.264,25.578-6.153-42.984a3.281,3.281,0,0,0-1.857-2.213l-34.421-14.607-2.446-4.36a1.543,1.543,0,0,0-.745-.645l-14.271-6.07a1.491,1.491,0,0,0-1.967.608l-.706,1.921Z" transform="translate(-311.433 -117.756)"/>
                </g>
              </g>
            </g>
            <path id="Trazado_913377" data-name="Trazado 913377" d="M317.689,162.954l58.226,24.712-6.087-42.621-60.112-25.511Z" transform="translate(42.483 16.396)" fill="#f0f0f0"/>
            <path id="Trazado_913378" data-name="Trazado 913378" d="M378.194,188.3l-10.076-40.641a3.771,3.771,0,0,0-2.013-2.2l-56.832-24.119c-.905-.384-1.475-.022-1.271.81l9.929,40.573Z" transform="translate(42.242 16.623)" fill="#8261bd"/>
            <path id="Trazado_913379" data-name="Trazado 913379" d="M311.327,134.546c-2.588,3.142-2.617,5.62-1.661,9.757s3.646,9.064,5.158,10.4,4.344,3.231,7.527,2.587c3.15-.637,3.275-4.71,4.7-6.409,2.28-2.717-.79-4.729-3.75-5.137-6.98-.959-10.331-4.478-10.331-4.478Z" transform="translate(42.397 18.455)" fill="#ffa8a7"/>
            <path id="Trazado_913380" data-name="Trazado 913380" d="M359.072,163.943a48.332,48.332,0,0,0,9.086-.09l12.848-2.631c5.722.664,22.063-10.792,22.063-10.792a81.173,81.173,0,0,0-6.265-26.421c-5.381-7.543-5.759-20.5-2.05-29.633,10.684-.54,14.615,4.8,18.066,15.479,2.718,8.413,7.973,31.489,10.219,40.269,1.287,5.03,1.786,9.478-3.7,12.612-4.886,2.788-17.466,8.212-28.29,11.283-5.786,1.641-8.992,3.25-15.1,4.148a52.722,52.722,0,0,1-9.937.741,14.2,14.2,0,0,1-3.53-.374c-1.7-.564-3.48-2.115-4.933-3.15a3.425,3.425,0,0,1-1.184-1.193c-.348-.711-.2-1.613-.645-2.266-.376-.552-1.083-.785-1.518-1.29-.762-.882-.673-2.269-1.274-3.267-.513-.855-1.556-1.843-1.008-2.932.868-1.721,3.045-.832,7.155-.495" transform="translate(48.251 12.94)" fill="#ffa8a7"/>
            <path id="Trazado_913381" data-name="Trazado 913381" d="M389.528,94.305c5.453-.022,10.252-2.363,13.88,2.927,3.468,5.057,5.505,13.472,9.308,27.718a180.781,180.781,0,0,1,4.78,22.284s-12.227-1.214-19.166,3.273L391.68,127.58s-5.726-9.753-5.357-18.511a41.893,41.893,0,0,1,3.2-14.764" transform="translate(52.989 12.862)" fill="#8261bd"/>
            <g id="Grupo_1102221" data-name="Grupo 1102221" transform="translate(439.296 106.635)" opacity="0.4">
              <g id="Grupo_1102220" data-name="Grupo 1102220">
                <g id="Grupo_1102219" data-name="Grupo 1102219" clip-path="url(#clip-path-40)">
                  <path id="Trazado_913382" data-name="Trazado 913382" d="M389.528,94.305c5.453-.022,10.252-2.363,13.88,2.927,3.468,5.057,5.505,13.472,9.308,27.718a180.781,180.781,0,0,1,4.78,22.284s-12.227-1.214-19.166,3.273L391.68,127.58s-5.726-9.753-5.357-18.511a41.893,41.893,0,0,1,3.2-14.764" transform="translate(-386.307 -93.772)" fill="#fff"/>
                </g>
              </g>
            </g>
            <path id="Trazado_913383" data-name="Trazado 913383" d="M396.96,144.443s6.812-2.268,12.751-1.379,7.577,2.581,7.577,2.581.522-4.847-1.307-6.919a24.733,24.733,0,0,0-19.684,3.387Z" transform="translate(54.359 18.927)" fill="#8261bd"/>
            <g id="Grupo_1102224" data-name="Grupo 1102224" transform="translate(450.656 156.913)" opacity="0.3">
              <g id="Grupo_1102223" data-name="Grupo 1102223">
                <g id="Grupo_1102222" data-name="Grupo 1102222" clip-path="url(#clip-path-41)">
                  <path id="Trazado_913384" data-name="Trazado 913384" d="M396.96,144.443s6.812-2.268,12.751-1.379,7.577,2.581,7.577,2.581.522-4.847-1.307-6.919a24.733,24.733,0,0,0-19.684,3.387Z" transform="translate(-396.297 -137.986)"/>
                </g>
              </g>
            </g>
          </g>
        </g>
      </g>
    </g>
  </g>
</svg>
