<svg xmlns="http://www.w3.org/2000/svg" xmlns:xlink="http://www.w3.org/1999/xlink" width="295" height="325.218" viewBox="0 0 295 325.218">
  <defs>
    <clipPath id="clip-path">
      <rect id="Rectángulo_403169" data-name="Rectángulo 403169" width="206.691" height="325.218" fill="none"/>
    </clipPath>
    <clipPath id="clip-path-3">
      <path id="Trazado_912619" data-name="Trazado 912619" d="M186.68,179.478c0,4.374,3.764,32.109,5.851,60.275,2.353,31.752,3.058,64.053,3.058,64.053H179.025l-8.759-62.82-10.465-51.6-17.706,51.606-25.7,63.251H97.7s1.8,0,19.249-66.778c3.687-14.106,6.357-31.193,11.765-51.89,0-25.079,9.856-36.868,11.614-36.868l40.993-5.281c3.682,6.687,5.359,23.233,5.359,36.056" transform="translate(-97.7 -143.422)" fill="none"/>
    </clipPath>
    <clipPath id="clip-path-5">
      <path id="Trazado_912644" data-name="Trazado 912644" d="M139.655,44.395l1.73,17.668a8.965,8.965,0,0,1-8.159,9.8L128,72.374a8.965,8.965,0,0,1-9.906-8.03l-1.73-17.668a9.109,9.109,0,0,1,8.142-9.969l5.229-.512c.3-.03.594-.043.888-.043a9.117,9.117,0,0,1,9.033,8.244" transform="translate(-116.318 -36.151)" fill="none"/>
    </clipPath>
  </defs>
  <g id="Grupo_1102234" data-name="Grupo 1102234" transform="translate(-180 -3361)">
    <g id="Grupo_1101751" data-name="Grupo 1101751" transform="translate(-596.949 -367.646)">
      <path id="Trazado_911259" data-name="Trazado 911259" d="M268.537,163.66c-6.763-23.044,29.557-57.392,20.789-100.207S256.865,19.768,222.75,15.945,168-12.458,143.943,8.114s-32.6,33.313-77.865,10.77S-13.249,54.2,5.036,91.022,17.56,163.66,17.56,163.66Z" transform="translate(781.248 3889.397)" fill="#ffdba9"/>
      <path id="Trazado_911233" data-name="Trazado 911233" d="M290.357,174.009a.532.532,0,0,0,.5-.344c4.136-10.9,5.192-19.181,3.531-27.676a59.943,59.943,0,0,0-4.389-13.1c-2.235-4.986-5.137-10.37-7.941-15.446-5.3-9.594-3.938-20.944-2.5-32.961,1-8.317,2.029-16.917.914-25.459a47.527,47.527,0,0,0-1.277-6.406,41.951,41.951,0,0,0-5.811-12.587,48.148,48.148,0,0,0-4.935-6.094,52.641,52.641,0,0,0-7.611-6.64,45.38,45.38,0,0,0-8.082-4.592,43.463,43.463,0,0,0-8.428-2.7,46,46,0,0,0-8.647-.966,55.3,55.3,0,0,0-14.75,1.829,74.284,74.284,0,0,0-14.464,5.476,95.9,95.9,0,0,0-13.636,8.325,110.637,110.637,0,0,0-12.265,10.388c-17.959,17.584-40.536,26.56-65.722,26.56a125.99,125.99,0,0,1-40.559-7.138,45.886,45.886,0,0,0-9.2-2.094,49.9,49.9,0,0,0-9.424-.238,55.049,55.049,0,0,0-9.4,1.481A59.917,59.917,0,0,0,37.115,66.7a63.19,63.19,0,0,0-8.646,4.515,64.057,64.057,0,0,0-7.912,5.833,62.507,62.507,0,0,0-6.94,7.021,59.317,59.317,0,0,0-5.728,8.078,54.193,54.193,0,0,0-6.673,17.76,53.412,53.412,0,0,0,.215,20.172,61.162,61.162,0,0,0,3.2,10.693,72.58,72.58,0,0,0,5.53,10.939A90.663,90.663,0,0,0,18.22,162.78,117.267,117.267,0,0,0,29,173.871a.532.532,0,0,0,.715-.789,102.037,102.037,0,0,1-18.647-21.929,65.322,65.322,0,0,1-8.6-21.284A52.116,52.116,0,0,1,8.806,92.686C22.384,69.625,51,57.68,73.943,65.492a144.133,144.133,0,0,0,16.946,4.666A122.076,122.076,0,0,0,106.9,72.426a106.919,106.919,0,0,0,15.033.049,97.428,97.428,0,0,0,14.026-1.989,92.6,92.6,0,0,0,12.985-3.844,91.548,91.548,0,0,0,11.91-5.515,95.207,95.207,0,0,0,20.463-15.3A102.791,102.791,0,0,1,206.942,27.3,73.22,73.22,0,0,1,221.2,21.9a54.24,54.24,0,0,1,14.465-1.8c12.263.219,23.034,5.12,32.015,14.565,14.9,15.673,12.829,32.964,10.824,49.685a122.579,122.579,0,0,0-1.285,17.589,41.508,41.508,0,0,0,.98,8.261,31.4,31.4,0,0,0,1.179,3.949,28.605,28.605,0,0,0,1.747,3.8c2.793,5.056,5.683,10.417,7.9,15.367a58.924,58.924,0,0,1,4.315,12.865c1.62,8.286.579,16.389-3.482,27.094a.533.533,0,0,0,.5.721Z" transform="translate(776.589 3879.31)" fill="#ffdba9"/>
      <g id="Grupo_1100874" data-name="Grupo 1100874" transform="translate(782.814 3807.326)">
        <path id="Elipse_11537" data-name="Elipse 11537" d="M7.564,15.129A7.564,7.564,0,0,0,12.913,2.216a7.564,7.564,0,1,0-10.7,10.7A7.515,7.515,0,0,0,7.564,15.129ZM7.564,2A5.562,5.562,0,1,1,2,7.564,5.569,5.569,0,0,1,7.564,2Z" transform="translate(260.425 160.176) rotate(-121.717)" fill="#39274d"/>
        <path id="Elipse_11538" data-name="Elipse 11538" d="M7.564,15.129A7.564,7.564,0,0,0,12.913,2.216a7.564,7.564,0,0,0-10.7,10.7A7.515,7.515,0,0,0,7.564,15.129ZM7.564,2A5.562,5.562,0,1,1,2,7.564,5.569,5.569,0,0,1,7.564,2Z" transform="translate(14.933 143.278) rotate(-170.783)" fill="#39274d"/>
        <path id="Trazado_911233-2" data-name="Trazado 911233" d="M560.635,245.3h12.976a1,1,0,0,0,.9-1.449l-6.488-12.976a1,1,0,0,0-1.791,0L559.74,243.85a1,1,0,0,0,.9,1.449Zm11.356-2h-9.737l4.868-9.737Z" transform="translate(-530.401 -27.598)" fill="#39274d"/>
        <path id="Unión_7" data-name="Unión 7" d="M9,.5,6.254,5.252,1.5,2.508a1,1,0,0,0-1,1.735L5.253,6.987,2.51,11.738a1,1,0,0,0,1.733,1L6.986,7.987l4.752,2.744a1,1,0,0,0,1-1.735L7.988,6.253,10.731,1.5A1,1,0,0,0,9,.5Z" transform="translate(106.122 13.239) rotate(180)" fill="#39274d"/>
        <path id="Trazado_911234" data-name="Trazado 911234" d="M419.371,63.175a3.657,3.657,0,1,1,3.657,3.657,3.658,3.658,0,0,1-3.657-3.657" transform="translate(-413.29 -6.818)" fill="#fe729d"/>
        <path id="Trazado_911235" data-name="Trazado 911235" d="M0,156.238a1.848,1.848,0,1,1,1.848,1.848A1.848,1.848,0,0,1,0,156.238" transform="translate(75.392 -28.469)" fill="#fe729d"/>
        <path id="Trazado_911236" data-name="Trazado 911236" d="M115.542,32.159a1.848,1.848,0,1,1,1.848,1.848,1.848,1.848,0,0,1-1.848-1.848" transform="translate(135.08 149.117)" fill="#fe729d"/>
        <path id="Trazado_911237" data-name="Trazado 911237" d="M600.278,291.476a1.848,1.848,0,1,1,1.848,1.848,1.848,1.848,0,0,1-1.848-1.848" transform="translate(-586.884 -47.33)" fill="#ffdba9"/>
      </g>
    </g>
    <g id="Grupo_1101750" data-name="Grupo 1101750" transform="translate(232.257 3361)">
      <rect id="Rectángulo_403158" data-name="Rectángulo 403158" width="90.127" height="112.144" transform="translate(89.573 213.073)" fill="#e2e5f2"/>
      <rect id="Rectángulo_403159" data-name="Rectángulo 403159" width="47.165" height="46.984" transform="translate(126.442 217.122)" fill="#b7b8d9"/>
      <g id="Grupo_1101739" data-name="Grupo 1101739">
        <g id="Grupo_1101738" data-name="Grupo 1101738" clip-path="url(#clip-path)">
          <path id="Trazado_912567" data-name="Trazado 912567" d="M52.159,214.481V211.3a4.424,4.424,0,0,0-4.424-4.424H38.6A4.424,4.424,0,0,0,34.18,211.3v39.919H75.944l.027-36.734Z" transform="translate(94.628 11.571)" fill="#f4d9a9"/>
          <rect id="Rectángulo_403160" data-name="Rectángulo 403160" width="36.622" height="30.271" transform="translate(131.595 228.456)" fill="#fff"/>
          <path id="Trazado_912568" data-name="Trazado 912568" d="M76.1,217.844H34.359L31.973,250.6H73.737Z" transform="translate(96.835 12.185)" fill="#8261bd"/>
          <path id="Trazado_912569" data-name="Trazado 912569" d="M41.209,214.481V211.3a4.424,4.424,0,0,0-4.424-4.424H27.654A4.424,4.424,0,0,0,23.23,211.3v39.919H64.994l.029-36.734Z" transform="translate(117.139 11.571)" fill="#ffbd24"/>
          <path id="Trazado_912570" data-name="Trazado 912570" d="M63.179,206.872a4.517,4.517,0,0,0-4.5,4.8c-.005.917-.014,3.442-.019,4.394-.061,11.357-.054,23.858.1,35.15.153-11.273.162-23.808.1-35.15a50.631,50.631,0,0,1,.109-5.829,4.407,4.407,0,0,1,4.216-3.364" transform="translate(81.615 11.571)" fill="#002e5c"/>
          <rect id="Rectángulo_403161" data-name="Rectángulo 403161" width="36.622" height="30.271" transform="translate(143.156 228.456)" fill="#fff"/>
          <path id="Trazado_912571" data-name="Trazado 912571" d="M65.323,217.816H23.587L17.865,250.6H59.629Z" transform="translate(122.504 12.183)" fill="#8261bd"/>
          <path id="Trazado_912572" data-name="Trazado 912572" d="M34.473,214.481V211.3a4.424,4.424,0,0,0-4.424-4.424H20.918a4.424,4.424,0,0,0-4.424,4.424v39.919H58.258l.027-36.734Z" transform="translate(130.989 11.571)" fill="#f4d9a9"/>
          <path id="Trazado_912573" data-name="Trazado 912573" d="M56.442,206.872a4.517,4.517,0,0,0-4.5,4.8c-.005.917-.014,3.442-.019,4.394-.061,11.357-.054,23.858.1,35.15.153-11.273.162-23.808.1-35.15a50.631,50.631,0,0,1,.109-5.829,4.407,4.407,0,0,1,4.216-3.364" transform="translate(95.466 11.571)" fill="#002e5c"/>
          <rect id="Rectángulo_403162" data-name="Rectángulo 403162" width="36.622" height="30.271" transform="translate(150.269 228.456)" fill="#fff"/>
          <path id="Trazado_912574" data-name="Trazado 912574" d="M58.782,217.816H17.046L7.628,250.6H49.393Z" transform="translate(139.854 12.183)" fill="#8261bd"/>
          <rect id="Rectángulo_403163" data-name="Rectángulo 403163" width="47.165" height="26.745" transform="translate(126.442 237.361)" fill="#f5f5f5"/>
          <rect id="Rectángulo_403164" data-name="Rectángulo 403164" width="30.27" height="112.144" transform="translate(89.572 213.073)" fill="#b7b8d9"/>
          <path id="Trazado_912575" data-name="Trazado 912575" d="M5.757,252.6H52.923V205.621H5.757" transform="translate(147.689 11.501)" fill="#e2e5f2"/>
          <path id="Trazado_912576" data-name="Trazado 912576" d="M5.757,252.6H52.923V205.621H5.757" transform="translate(147.689 11.501)" fill="none" stroke="#b7b8d9" stroke-linecap="round" stroke-linejoin="round" stroke-width="0.425"/>
          <path id="Trazado_912577" data-name="Trazado 912577" d="M48.648,252.6h1.876V205.621H48.648" transform="translate(104.799 11.501)" fill="#f5f5f5"/>
          <rect id="Rectángulo_403165" data-name="Rectángulo 403165" width="13.023" height="7.05" transform="translate(170.517 223.626)" fill="#e2e5f2"/>
          <rect id="Rectángulo_403166" data-name="Rectángulo 403166" width="13.023" height="7.05" transform="translate(170.517 223.626)" fill="none" stroke="#b7b8d9" stroke-linecap="round" stroke-linejoin="round" stroke-width="0.425"/>
          <rect id="Rectángulo_403167" data-name="Rectángulo 403167" width="47.165" height="46.984" transform="translate(126.442 273.2)" fill="none" stroke="#b7b8d9" stroke-linecap="round" stroke-linejoin="round" stroke-width="0.425"/>
          <rect id="Rectángulo_403168" data-name="Rectángulo 403168" width="13.023" height="7.05" transform="translate(143.512 279.705)" fill="none" stroke="#b7b8d9" stroke-linecap="round" stroke-linejoin="round" stroke-width="0.425"/>
          <path id="Trazado_912578" data-name="Trazado 912578" d="M115.689,201.794q-45.064-.279-90.127,0,45.064.28,90.127,0" transform="translate(64.011 11.279)" fill="#fff"/>
          <line id="Línea_718" data-name="Línea 718" y2="26.745" transform="translate(153.447 237.361)" fill="#e2e5f2"/>
          <line id="Línea_719" data-name="Línea 719" y2="26.745" transform="translate(153.447 237.361)" fill="none" stroke="#b7b8d9" stroke-linecap="round" stroke-linejoin="round" stroke-width="0.425"/>
          <line id="Línea_720" data-name="Línea 720" x2="27.005" transform="translate(126.441 256.896)" fill="#e2e5f2"/>
          <line id="Línea_721" data-name="Línea 721" x2="27.005" transform="translate(126.441 256.896)" fill="none" stroke="#b7b8d9" stroke-linecap="round" stroke-linejoin="round" stroke-width="0.425"/>
          <line id="Línea_722" data-name="Línea 722" x2="27.005" transform="translate(126.441 243.917)" fill="#e2e5f2"/>
          <line id="Línea_723" data-name="Línea 723" x2="27.005" transform="translate(126.441 243.917)" fill="none" stroke="#b7b8d9" stroke-linecap="round" stroke-linejoin="round" stroke-width="0.425"/>
        </g>
      </g>
      <g id="Grupo_1101741" data-name="Grupo 1101741">
        <g id="Grupo_1101740" data-name="Grupo 1101740" clip-path="url(#clip-path)">
          <path id="Trazado_912579" data-name="Trazado 912579" d="M94.776,56.886,53.763,71.814,32.094,12.278,65.831,0l9.925,4.628Z" transform="translate(78.026)" fill="#f4d9a9"/>
          <path id="Trazado_912580" data-name="Trazado 912580" d="M50.107,0l2.648,7.276,7.276-2.648Z" transform="translate(93.75 0)" fill="#8261bd"/>
          <rect id="Rectángulo_403170" data-name="Rectángulo 403170" width="1.76" height="32.91" transform="translate(122.447 30.454) rotate(-110.001)" fill="#fff"/>
          <rect id="Rectángulo_403171" data-name="Rectángulo 403171" width="1.76" height="32.91" transform="translate(123.591 33.596) rotate(-110.001)" fill="#fff"/>
          <rect id="Rectángulo_403172" data-name="Rectángulo 403172" width="1.76" height="32.91" transform="translate(124.735 36.738) rotate(-110.001)" fill="#fff"/>
          <rect id="Rectángulo_403173" data-name="Rectángulo 403173" width="1.76" height="32.91" transform="translate(125.878 39.88) rotate(-110.001)" fill="#fff"/>
          <rect id="Rectángulo_403174" data-name="Rectángulo 403174" width="1.76" height="32.91" transform="translate(127.022 43.022) rotate(-110.001)" fill="#fff"/>
          <rect id="Rectángulo_403175" data-name="Rectángulo 403175" width="1.76" height="32.91" transform="translate(128.166 46.165) rotate(-110.001)" fill="#fff"/>
          <rect id="Rectángulo_403176" data-name="Rectángulo 403176" width="1.76" height="32.91" transform="translate(129.309 49.307) rotate(-110.001)" fill="#fff"/>
          <rect id="Rectángulo_403177" data-name="Rectángulo 403177" width="1.76" height="32.91" transform="translate(130.453 52.449) rotate(-110.001)" fill="#fff"/>
          <rect id="Rectángulo_403178" data-name="Rectángulo 403178" width="1.76" height="32.91" transform="translate(131.596 55.591) rotate(-110.001)" fill="#fff"/>
          <rect id="Rectángulo_403179" data-name="Rectángulo 403179" width="1.76" height="32.91" transform="translate(132.74 58.733) rotate(-110.001)" fill="#fff"/>
          <rect id="Rectángulo_403180" data-name="Rectángulo 403180" width="1.76" height="32.91" transform="translate(133.884 61.875) rotate(-110.001)" fill="#fff"/>
          <path id="Trazado_912581" data-name="Trazado 912581" d="M53.984,66.159,11,73.737,0,11.344,35.356,5.11l8.97,6.281Z" transform="translate(152.708 0.286)" fill="#f5f5f5"/>
          <path id="Trazado_912582" data-name="Trazado 912582" d="M9.146,5.11l1.344,7.626,7.626-1.345Z" transform="translate(178.918 0.286)" fill="#cacbe8"/>
          <rect id="Rectángulo_403181" data-name="Rectángulo 403181" width="1.76" height="32.91" transform="translate(161.691 31.669) rotate(-100)" fill="#f4d9a9"/>
          <rect id="Rectángulo_403182" data-name="Rectángulo 403182" width="1.76" height="32.91" transform="translate(162.272 34.962) rotate(-100)" fill="#f4d9a9"/>
          <rect id="Rectángulo_403183" data-name="Rectángulo 403183" width="1.76" height="32.91" transform="translate(162.853 38.255) rotate(-100)" fill="#f4d9a9"/>
          <rect id="Rectángulo_403184" data-name="Rectángulo 403184" width="1.76" height="32.91" transform="translate(163.433 41.548) rotate(-100)" fill="#f4d9a9"/>
          <rect id="Rectángulo_403185" data-name="Rectángulo 403185" width="1.76" height="32.91" transform="translate(164.014 44.841) rotate(-100)" fill="#f4d9a9"/>
          <rect id="Rectángulo_403186" data-name="Rectángulo 403186" width="1.76" height="32.91" transform="translate(164.595 48.134) rotate(-100)" fill="#f4d9a9"/>
          <rect id="Rectángulo_403187" data-name="Rectángulo 403187" width="1.759" height="32.91" transform="translate(165.176 51.427) rotate(-100)" fill="#f4d9a9"/>
          <rect id="Rectángulo_403188" data-name="Rectángulo 403188" width="1.76" height="32.91" transform="translate(165.756 54.72) rotate(-100)" fill="#f4d9a9"/>
          <rect id="Rectángulo_403189" data-name="Rectángulo 403189" width="1.76" height="32.91" transform="matrix(-0.174, -0.985, 0.985, -0.174, 166.337, 58.013)" fill="#f4d9a9"/>
          <rect id="Rectángulo_403190" data-name="Rectángulo 403190" width="1.76" height="32.91" transform="matrix(-0.174, -0.985, 0.985, -0.174, 166.917, 61.306)" fill="#f4d9a9"/>
          <rect id="Rectángulo_403191" data-name="Rectángulo 403191" width="1.76" height="32.91" transform="matrix(-0.174, -0.985, 0.985, -0.174, 167.498, 64.599)" fill="#f4d9a9"/>
          <path id="Trazado_912583" data-name="Trazado 912583" d="M148.266,65.609a7.685,7.685,0,1,1-8.413-6.879,7.684,7.684,0,0,1,8.413,6.879" transform="translate(-81.983 3.283)" fill="#3a2072"/>
          <path id="Trazado_912584" data-name="Trazado 912584" d="M154.057,57.442a7.685,7.685,0,1,1-8.413-6.879,7.684,7.684,0,0,1,8.413,6.879" transform="translate(-93.889 2.826)" fill="#3a2072"/>
          <path id="Trazado_912585" data-name="Trazado 912585" d="M153.8,46.647a9.5,9.5,0,1,1-10.4-8.508,9.5,9.5,0,0,1,10.4,8.508" transform="translate(-89.529 2.131)" fill="#3a2072"/>
          <path id="Trazado_912586" data-name="Trazado 912586" d="M150.877,37.808a7.685,7.685,0,1,1-8.413-6.879,7.684,7.684,0,0,1,8.413,6.879" transform="translate(-87.351 1.728)" fill="#3a2072"/>
          <path id="Trazado_912587" data-name="Trazado 912587" d="M140.929,33.67a7.685,7.685,0,1,1-8.413-6.879,7.684,7.684,0,0,1,8.413,6.879" transform="translate(-66.899 1.496)" fill="#3a2072"/>
          <path id="Trazado_912588" data-name="Trazado 912588" d="M129.715,34.43a7.685,7.685,0,1,1-8.413-6.879,7.684,7.684,0,0,1,8.413,6.879" transform="translate(-43.844 1.539)" fill="#3a2072"/>
          <path id="Trazado_912589" data-name="Trazado 912589" d="M130.282,43.057a7.684,7.684,0,1,1-8.412-6.879,7.684,7.684,0,0,1,8.412,6.879" transform="translate(-45.01 2.021)" fill="#3a2072"/>
          <path id="Trazado_912590" data-name="Trazado 912590" d="M127.613,60.838a7.685,7.685,0,1,1-8.413-6.879,7.684,7.684,0,0,1,8.413,6.879" transform="translate(-39.522 3.016)" fill="#3a2072"/>
          <path id="Trazado_912591" data-name="Trazado 912591" d="M127.889,52.637a7.685,7.685,0,1,1-8.413-6.879,7.684,7.684,0,0,1,8.413,6.879" transform="translate(-40.089 2.557)" fill="#3a2072"/>
          <path id="Trazado_912592" data-name="Trazado 912592" d="M111.38,142.73,69,99.518A158.836,158.836,0,0,0,55.995,114.1L97.867,146.75Z" transform="translate(36.185 5.566)" fill="#e2b9a0"/>
          <path id="Trazado_912593" data-name="Trazado 912593" d="M55.052,147.543c.833,2.261,3.967,7.388,4.852,7.155s.2-3.5.2-3.5,1.729,3.474,2.971,3.165.126-4.105.126-4.105,2.022,3.652,3.088,3.093-.563-4.44-.563-4.44,1.91,3.149,2.756,2.73-.016-4.507-1.57-9.073" transform="translate(79.75 7.974)" fill="#e2b9a0"/>
          <path id="Trazado_912594" data-name="Trazado 912594" d="M56.072,141.673s1.11,9.7,5.161,9.42,13.922-3.7,6.473-12.736c-7.756-9.409-11.634,3.316-11.634,3.316" transform="translate(77.071 7.545)" fill="#e2b9a0"/>
          <path id="Trazado_912595" data-name="Trazado 912595" d="M57.272,146.279a7.028,7.028,0,0,0,1.752,3.529c-.623-1.168-1.079-2.382-1.752-3.529" transform="translate(87.192 8.182)" fill="#002e5c"/>
          <path id="Trazado_912596" data-name="Trazado 912596" d="M59.423,147.7a7.917,7.917,0,0,0,2.031,3.832L59.423,147.7" transform="translate(82.491 8.261)" fill="#002e5c"/>
          <path id="Trazado_912597" data-name="Trazado 912597" d="M62.164,149.189a7.573,7.573,0,0,0,1.919,3.585c-.673-1.164-1.187-2.451-1.919-3.585" transform="translate(76.968 8.345)" fill="#002e5c"/>
          <path id="Trazado_912598" data-name="Trazado 912598" d="M56.149,143.174s1.6,3.309,2.844,3,1.374-6.191-5.176-6.826" transform="translate(90.204 7.794)" fill="#e2b9a0"/>
          <path id="Trazado_912599" data-name="Trazado 912599" d="M107.234,84.037C92.8,86.324,95.476,102.628,95.476,102.628l16.459,12.338c4.066-5.167,9.116-9.621,13.9-14.014Z" transform="translate(-19.755 4.7)" fill="#3a2072"/>
          <path id="Trazado_912600" data-name="Trazado 912600" d="M110.973,97.3c-5.292,2.76-8.894,7.933-11.6,13.109l-1.063,2.3c3.1-5.889,6.87-11.868,12.663-15.41" transform="translate(-8.09 5.442)" fill="#ffcf42"/>
          <path id="Trazado_912601" data-name="Trazado 912601" d="M66.334,90.654V85.305a7.429,7.429,0,0,0-7.428-7.428H43.573a7.428,7.428,0,0,0-7.428,7.428v67.028h70.127l.048-61.68Z" transform="translate(62.206 4.356)" fill="#f4d9a9"/>
          <path id="Trazado_912602" data-name="Trazado 912602" d="M109.982,87.191l-37.8,21.823L40.507,54.146,71.6,36.195l10.577,2.834Z" transform="translate(53.937 2.024)" fill="#f5f5f5"/>
          <path id="Trazado_912603" data-name="Trazado 912603" d="M66.839,36.2,70.711,42.9l6.706-3.872Z" transform="translate(58.696 2.024)" fill="#cacbe8"/>
          <rect id="Rectángulo_403192" data-name="Rectángulo 403192" width="1.759" height="32.91" transform="translate(109.739 71.928) rotate(-120)" fill="#cacbe8"/>
          <rect id="Rectángulo_403193" data-name="Rectángulo 403193" width="1.759" height="32.91" transform="translate(111.411 74.824) rotate(-120)" fill="#cacbe8"/>
          <rect id="Rectángulo_403194" data-name="Rectángulo 403194" width="1.759" height="32.91" transform="translate(113.083 77.72) rotate(-120)" fill="#cacbe8"/>
          <rect id="Rectángulo_403195" data-name="Rectángulo 403195" width="1.759" height="32.91" transform="translate(114.755 80.615) rotate(-120)" fill="#cacbe8"/>
          <rect id="Rectángulo_403196" data-name="Rectángulo 403196" width="1.759" height="32.91" transform="translate(116.427 83.511) rotate(-120)" fill="#cacbe8"/>
          <rect id="Rectángulo_403197" data-name="Rectángulo 403197" width="1.759" height="32.91" transform="translate(118.099 86.407) rotate(-120)" fill="#cacbe8"/>
          <rect id="Rectángulo_403198" data-name="Rectángulo 403198" width="1.759" height="32.91" transform="translate(119.771 89.303) rotate(-120)" fill="#cacbe8"/>
          <rect id="Rectángulo_403199" data-name="Rectángulo 403199" width="1.759" height="32.91" transform="translate(121.443 92.199) rotate(-120)" fill="#cacbe8"/>
          <rect id="Rectángulo_403200" data-name="Rectángulo 403200" width="1.759" height="32.91" transform="translate(123.115 95.094) rotate(-120)" fill="#cacbe8"/>
          <rect id="Rectángulo_403201" data-name="Rectángulo 403201" width="1.759" height="32.91" transform="translate(124.786 97.99) rotate(-120)" fill="#cacbe8"/>
          <rect id="Rectángulo_403202" data-name="Rectángulo 403202" width="1.759" height="32.91" transform="translate(126.458 100.886) rotate(-120)" fill="#cacbe8"/>
          <path id="Trazado_912604" data-name="Trazado 912604" d="M107.152,96.254H37.072L21.26,151.306H91.386Z" transform="translate(77.09 5.384)" fill="#8261bd"/>
          <path id="Trazado_912605" data-name="Trazado 912605" d="M140.328,148.7c-1.76,0-11.615,11.789-11.615,36.869-5.408,20.7-8.078,37.781-11.765,51.889C99.5,304.237,97.7,304.237,97.7,304.237h18.693l25.7-63.25,17.707-51.6,10.465,51.6,8.758,62.817h16.564s-.705-32.3-3.058-64.053c-2.087-28.165-5.851-55.9-5.851-60.273,0-12.824-1.676-29.37-5.359-36.056" transform="translate(-92.061 8.022)" fill="#8261bd"/>
        </g>
      </g>
      <g id="Grupo_1101743" data-name="Grupo 1101743" transform="translate(5.638 151.444)">
        <g id="Grupo_1101742" data-name="Grupo 1101742" clip-path="url(#clip-path-3)">
          <path id="Trazado_912606" data-name="Trazado 912606" d="M87.423,288.548c4.728-4.262,11.539-.24,15.357,3.4,1.774,1.073,3.878-.04,5.593-.677,5.868-2.53,9.061-3.362,13.961,1.366,6.009,3.428,12.57-1.507,18.731-1.982a7.169,7.169,0,0,1,5.361,1.31l1.445,1.276c2.478,2.16,4.694,1.188,7.223-.184a8.806,8.806,0,0,1,4.6-.918c.265.051,1.137.207,1.4.258.325.106,1.032.352,1.356.459,7.664,4.261,10.81,2.6,18.221-.825a5.946,5.946,0,0,1,3.708-.433c1.278.286,2.035,1.559,3.171,2.1,4.809,2.6,10.19-6.3,14.249-2.695-4.02-3.641-9.466,5.143-14.182,2.564-1.139-.57-1.894-1.835-3.193-2.129a6.108,6.108,0,0,0-3.814.426c-7.424,3.386-10.458,5.025-18.073.767-.325-.115-1.072-.366-1.381-.473-.288-.052-1.137-.213-1.44-.268a9.069,9.069,0,0,0-4.734.925c-2.473,1.311-4.545,2.294-6.931.2l-1.441-1.28a7.4,7.4,0,0,0-5.572-1.366c-6.137.471-12.607,5.419-18.581,2.079-4.925-4.755-8.309-3.9-14.15-1.339-1.7.629-3.709,1.729-5.44.709-3.848-3.625-10.754-7.578-15.444-3.267" transform="translate(-93.06 -135.41)" fill="#ffa924"/>
          <path id="Trazado_912607" data-name="Trazado 912607" d="M87.423,278.147c4.728-4.262,11.539-.239,15.357,3.4,1.774,1.073,3.878-.04,5.593-.677,5.868-2.53,9.061-3.362,13.961,1.366,6.009,3.428,12.57-1.507,18.731-1.982a7.169,7.169,0,0,1,5.361,1.31l1.445,1.276c2.478,2.16,4.694,1.188,7.223-.184a8.807,8.807,0,0,1,4.6-.918c.265.051,1.137.207,1.4.258.326.106,1.032.352,1.356.459,7.664,4.261,10.81,2.6,18.221-.825a5.946,5.946,0,0,1,3.708-.433c1.278.286,2.035,1.559,3.171,2.1,4.808,2.6,10.191-6.3,14.249-2.695-4.02-3.641-9.466,5.143-14.182,2.564-1.139-.57-1.894-1.835-3.193-2.129a6.108,6.108,0,0,0-3.814.426c-7.425,3.386-10.458,5.025-18.073.767-.325-.115-1.072-.365-1.381-.473-.288-.052-1.137-.213-1.44-.268a9.069,9.069,0,0,0-4.734.925c-2.473,1.311-4.545,2.293-6.931.2l-1.441-1.28a7.4,7.4,0,0,0-5.572-1.366c-6.137.471-12.607,5.419-18.581,2.079-4.925-4.755-8.309-3.9-14.15-1.339-1.7.629-3.709,1.729-5.44.709-3.848-3.625-10.754-7.578-15.444-3.267" transform="translate(-93.06 -135.992)" fill="#ffa924"/>
          <path id="Trazado_912608" data-name="Trazado 912608" d="M87.423,267.745c4.728-4.262,11.539-.24,15.357,3.4,1.774,1.073,3.878-.04,5.593-.677,5.868-2.53,9.061-3.362,13.961,1.366,6.009,3.428,12.57-1.507,18.731-1.982a7.169,7.169,0,0,1,5.361,1.31l1.445,1.276c2.478,2.16,4.694,1.188,7.223-.184a8.807,8.807,0,0,1,4.6-.918c.265.051,1.137.207,1.4.258.326.106,1.032.352,1.356.459,7.664,4.261,10.81,2.6,18.221-.825a5.946,5.946,0,0,1,3.708-.433c1.278.286,2.035,1.559,3.171,2.1,4.809,2.6,10.19-6.3,14.249-2.695-4.02-3.641-9.466,5.143-14.182,2.564-1.139-.57-1.894-1.835-3.193-2.129a6.108,6.108,0,0,0-3.814.426c-7.425,3.386-10.458,5.025-18.073.767-.325-.115-1.072-.366-1.381-.473-.288-.052-1.137-.213-1.44-.268a9.069,9.069,0,0,0-4.734.925c-2.473,1.311-4.545,2.293-6.931.2l-1.441-1.28a7.4,7.4,0,0,0-5.572-1.366c-6.137.471-12.607,5.419-18.581,2.079-4.925-4.755-8.309-3.9-14.15-1.339-1.7.629-3.709,1.729-5.44.709-3.848-3.625-10.754-7.578-15.444-3.267" transform="translate(-93.06 -136.574)" fill="#ffa924"/>
          <path id="Trazado_912609" data-name="Trazado 912609" d="M87.423,257.343c4.728-4.262,11.539-.24,15.357,3.4,1.774,1.073,3.878-.04,5.593-.677,5.868-2.53,9.061-3.362,13.962,1.366,6.008,3.428,12.569-1.507,18.73-1.982a7.169,7.169,0,0,1,5.361,1.31l1.446,1.276c2.477,2.16,4.693,1.188,7.222-.184a8.806,8.806,0,0,1,4.6-.918c.265.051,1.137.207,1.4.258.326.106,1.032.352,1.356.459,7.664,4.261,10.81,2.6,18.221-.825a5.946,5.946,0,0,1,3.708-.433c1.278.286,2.035,1.559,3.171,2.1,4.808,2.6,10.191-6.3,14.249-2.695-4.02-3.641-9.466,5.143-14.182,2.564-1.139-.57-1.894-1.835-3.193-2.129a6.108,6.108,0,0,0-3.814.426c-7.424,3.386-10.458,5.025-18.073.767-.325-.115-1.072-.365-1.381-.473-.288-.052-1.137-.213-1.44-.268a9.069,9.069,0,0,0-4.734.925c-2.473,1.311-4.544,2.293-6.931.2l-1.441-1.28a7.4,7.4,0,0,0-5.572-1.366c-6.137.471-12.607,5.418-18.581,2.079-4.925-4.755-8.309-3.9-14.15-1.339-1.7.629-3.709,1.729-5.44.709-3.848-3.625-10.754-7.578-15.444-3.267" transform="translate(-93.06 -137.155)" fill="#ffa924"/>
          <path id="Trazado_912610" data-name="Trazado 912610" d="M87.423,246.941c4.728-4.262,11.539-.24,15.357,3.395,1.774,1.074,3.878-.039,5.593-.677,5.868-2.529,9.061-3.361,13.962,1.367,6.008,3.428,12.569-1.507,18.73-1.982a7.169,7.169,0,0,1,5.361,1.31l1.446,1.276c2.477,2.16,4.693,1.188,7.222-.184a8.807,8.807,0,0,1,4.6-.918c.265.051,1.137.207,1.4.258.326.106,1.032.352,1.356.459,7.664,4.261,10.81,2.6,18.221-.825a5.946,5.946,0,0,1,3.708-.433c1.278.286,2.035,1.559,3.171,2.1,4.809,2.6,10.191-6.3,14.249-2.695-4.019-3.641-9.466,5.143-14.182,2.564-1.139-.57-1.894-1.835-3.193-2.129a6.108,6.108,0,0,0-3.814.426c-7.424,3.386-10.458,5.025-18.073.767-.325-.115-1.072-.365-1.381-.473-.288-.052-1.137-.213-1.44-.268a9.069,9.069,0,0,0-4.734.925c-2.473,1.311-4.544,2.293-6.931.2l-1.441-1.28a7.4,7.4,0,0,0-5.572-1.366c-6.137.471-12.607,5.418-18.581,2.079-4.925-4.755-8.309-3.9-14.15-1.339-1.7.629-3.709,1.729-5.44.709-3.848-3.625-10.754-7.578-15.444-3.267" transform="translate(-93.06 -137.737)" fill="#ffa924"/>
          <path id="Trazado_912611" data-name="Trazado 912611" d="M87.423,236.539c4.728-4.262,11.539-.24,15.357,3.395,1.774,1.074,3.878-.039,5.593-.677,5.868-2.529,9.061-3.361,13.962,1.366,6.008,3.429,12.569-1.506,18.73-1.981a7.169,7.169,0,0,1,5.361,1.31l1.446,1.276c2.477,2.16,4.693,1.188,7.222-.184a8.807,8.807,0,0,1,4.6-.918c.265.051,1.137.207,1.4.258.326.106,1.032.352,1.356.459,7.664,4.261,10.81,2.6,18.221-.825a5.938,5.938,0,0,1,3.708-.433c1.278.286,2.035,1.559,3.171,2.1,4.808,2.6,10.191-6.3,14.249-2.695-4.019-3.641-9.466,5.143-14.182,2.564-1.139-.57-1.894-1.835-3.193-2.129a6.108,6.108,0,0,0-3.814.426c-7.424,3.386-10.458,5.025-18.073.767-.325-.115-1.072-.366-1.381-.473-.288-.052-1.137-.213-1.44-.268a9.069,9.069,0,0,0-4.734.925c-2.473,1.311-4.544,2.293-6.931.2l-1.441-1.28a7.4,7.4,0,0,0-5.572-1.366c-6.137.471-12.607,5.418-18.581,2.079-4.925-4.755-8.309-3.9-14.15-1.339-1.7.629-3.709,1.729-5.44.709-3.848-3.625-10.754-7.578-15.444-3.267" transform="translate(-93.06 -138.319)" fill="#ffa924"/>
          <path id="Trazado_912612" data-name="Trazado 912612" d="M87.423,226.137c4.728-4.262,11.539-.24,15.357,3.395,1.774,1.074,3.878-.039,5.593-.677,5.868-2.529,9.061-3.361,13.962,1.367,6.008,3.428,12.569-1.507,18.73-1.982a7.169,7.169,0,0,1,5.361,1.31l1.446,1.276c2.477,2.16,4.693,1.188,7.222-.184a8.807,8.807,0,0,1,4.6-.918c.265.051,1.137.207,1.4.258.326.106,1.032.352,1.356.459,7.664,4.261,10.81,2.6,18.221-.825a5.946,5.946,0,0,1,3.708-.433c1.278.286,2.035,1.559,3.171,2.1,4.808,2.6,10.191-6.3,14.249-2.695-4.019-3.641-9.466,5.143-14.182,2.564-1.139-.57-1.894-1.835-3.193-2.129a6.108,6.108,0,0,0-3.814.426c-7.424,3.386-10.458,5.025-18.073.767-.325-.115-1.072-.365-1.381-.473-.288-.052-1.137-.213-1.44-.268a9.069,9.069,0,0,0-4.734.925c-2.473,1.311-4.544,2.294-6.931.2l-1.441-1.28a7.4,7.4,0,0,0-5.572-1.366c-6.137.471-12.607,5.418-18.581,2.079-4.925-4.755-8.309-3.9-14.15-1.339-1.7.629-3.709,1.729-5.44.709-3.848-3.625-10.754-7.578-15.444-3.267" transform="translate(-93.06 -138.901)" fill="#ffa924"/>
          <path id="Trazado_912613" data-name="Trazado 912613" d="M87.423,215.735c4.728-4.262,11.539-.24,15.357,3.395,1.774,1.074,3.878-.039,5.593-.677,5.868-2.529,9.061-3.361,13.962,1.366,6.008,3.429,12.569-1.506,18.73-1.981a7.169,7.169,0,0,1,5.361,1.31l1.446,1.276c2.477,2.16,4.693,1.188,7.222-.184a8.807,8.807,0,0,1,4.6-.918c.265.051,1.137.207,1.4.258.326.106,1.032.352,1.356.459,7.664,4.261,10.81,2.6,18.221-.825a5.946,5.946,0,0,1,3.708-.433c1.278.286,2.035,1.559,3.171,2.1,4.808,2.6,10.191-6.3,14.249-2.695-4.019-3.641-9.466,5.143-14.182,2.564-1.139-.57-1.894-1.835-3.193-2.129a6.108,6.108,0,0,0-3.814.426c-7.424,3.386-10.458,5.025-18.073.767-.325-.115-1.072-.366-1.381-.473-.288-.052-1.137-.213-1.44-.268a9.069,9.069,0,0,0-4.734.925c-2.473,1.311-4.544,2.293-6.931.2l-1.441-1.28a7.4,7.4,0,0,0-5.572-1.366c-6.137.471-12.607,5.418-18.581,2.079-4.925-4.755-8.309-3.9-14.15-1.339-1.7.629-3.709,1.729-5.44.709-3.848-3.625-10.754-7.578-15.444-3.267" transform="translate(-93.06 -139.483)" fill="#ffa924"/>
          <path id="Trazado_912614" data-name="Trazado 912614" d="M87.423,205.333c4.728-4.262,11.539-.24,15.357,3.395,1.774,1.074,3.878-.039,5.593-.676,5.868-2.53,9.061-3.362,13.962,1.366,6.008,3.428,12.569-1.507,18.73-1.982a7.169,7.169,0,0,1,5.361,1.31l1.446,1.276c2.477,2.16,4.693,1.188,7.222-.184a8.807,8.807,0,0,1,4.6-.918c.265.051,1.137.207,1.4.258.326.106,1.032.352,1.356.459,7.664,4.261,10.81,2.6,18.221-.825a5.946,5.946,0,0,1,3.708-.433c1.278.286,2.035,1.559,3.171,2.1,4.809,2.6,10.191-6.3,14.249-2.695-4.019-3.641-9.466,5.143-14.182,2.564-1.139-.57-1.894-1.835-3.193-2.129a6.108,6.108,0,0,0-3.814.426c-7.424,3.386-10.458,5.025-18.073.767-.325-.115-1.072-.365-1.381-.473-.288-.052-1.137-.213-1.44-.268a9.069,9.069,0,0,0-4.734.925c-2.473,1.311-4.544,2.293-6.931.2l-1.441-1.28a7.4,7.4,0,0,0-5.572-1.366c-6.137.471-12.607,5.418-18.581,2.079-4.925-4.755-8.309-3.9-14.15-1.339-1.7.629-3.709,1.729-5.44.709-3.848-3.625-10.754-7.578-15.444-3.267" transform="translate(-93.06 -140.064)" fill="#ffa924"/>
          <path id="Trazado_912615" data-name="Trazado 912615" d="M87.423,194.931c4.728-4.262,11.539-.24,15.357,3.395,1.774,1.074,3.878-.039,5.593-.677,5.868-2.529,9.061-3.361,13.962,1.366,6.008,3.429,12.569-1.506,18.73-1.981a7.169,7.169,0,0,1,5.361,1.31l1.446,1.276c2.477,2.16,4.693,1.188,7.222-.184a8.807,8.807,0,0,1,4.6-.918c.265.051,1.137.207,1.4.258.326.106,1.032.352,1.356.459,7.663,4.261,10.81,2.6,18.221-.825a5.946,5.946,0,0,1,3.708-.433c1.278.286,2.035,1.559,3.171,2.1,4.809,2.6,10.191-6.3,14.249-2.695-4.02-3.641-9.466,5.143-14.182,2.564-1.139-.57-1.894-1.835-3.193-2.129a6.108,6.108,0,0,0-3.814.426c-7.424,3.386-10.458,5.025-18.073.767-.325-.115-1.072-.366-1.381-.473-.288-.052-1.137-.213-1.44-.268a9.069,9.069,0,0,0-4.734.925c-2.473,1.311-4.544,2.293-6.931.2l-1.441-1.28a7.4,7.4,0,0,0-5.572-1.366c-6.137.471-12.607,5.418-18.581,2.079-4.925-4.755-8.309-3.9-14.15-1.339-1.7.629-3.709,1.729-5.44.709-3.848-3.625-10.754-7.578-15.444-3.267" transform="translate(-93.06 -140.646)" fill="#ffa924"/>
          <path id="Trazado_912616" data-name="Trazado 912616" d="M87.423,184.529c4.728-4.261,11.539-.24,15.357,3.4,1.774,1.073,3.878-.04,5.593-.676,5.868-2.531,9.061-3.362,13.962,1.366,6.008,3.428,12.569-1.508,18.73-1.982a7.173,7.173,0,0,1,5.361,1.309l1.446,1.276c2.477,2.161,4.693,1.188,7.222-.183a8.807,8.807,0,0,1,4.6-.919c.265.052,1.137.207,1.4.259.326.106,1.032.352,1.356.459,7.664,4.261,10.81,2.6,18.221-.825a5.954,5.954,0,0,1,3.708-.434c1.278.287,2.035,1.56,3.171,2.106,4.808,2.6,10.191-6.3,14.249-2.695-4.019-3.641-9.466,5.143-14.182,2.564-1.139-.57-1.894-1.835-3.193-2.129a6.108,6.108,0,0,0-3.814.426c-7.424,3.386-10.458,5.024-18.073.767-.325-.116-1.072-.366-1.381-.473-.288-.053-1.137-.214-1.44-.269a9.079,9.079,0,0,0-4.734.925c-2.473,1.313-4.544,2.295-6.931.2l-1.441-1.28a7.4,7.4,0,0,0-5.572-1.367c-6.137.472-12.607,5.419-18.581,2.079-4.925-4.754-8.309-3.9-14.15-1.338-1.7.629-3.709,1.729-5.44.707-3.848-3.625-10.754-7.578-15.444-3.267" transform="translate(-93.06 -141.228)" fill="#ffa924"/>
          <path id="Trazado_912617" data-name="Trazado 912617" d="M87.423,174.128c4.728-4.262,11.539-.24,15.357,3.395,1.774,1.074,3.878-.039,5.593-.677,5.868-2.529,9.061-3.361,13.962,1.367,6.008,3.428,12.569-1.507,18.73-1.982a7.169,7.169,0,0,1,5.361,1.31l1.446,1.276c2.477,2.16,4.693,1.188,7.222-.184a8.807,8.807,0,0,1,4.6-.918c.265.051,1.137.207,1.4.258.326.106,1.032.352,1.356.459,7.664,4.261,10.81,2.6,18.221-.825a5.946,5.946,0,0,1,3.708-.433c1.278.286,2.035,1.559,3.171,2.1,4.809,2.6,10.191-6.3,14.249-2.695-4.019-3.641-9.466,5.143-14.182,2.564-1.139-.57-1.894-1.835-3.193-2.129a6.108,6.108,0,0,0-3.814.426c-7.424,3.386-10.458,5.025-18.073.767-.325-.115-1.072-.365-1.381-.473-.288-.052-1.136-.213-1.44-.268a9.069,9.069,0,0,0-4.734.925c-2.473,1.311-4.544,2.293-6.931.2l-1.441-1.28a7.4,7.4,0,0,0-5.572-1.366c-6.137.471-12.607,5.418-18.581,2.079-4.925-4.755-8.309-3.9-14.15-1.339-1.7.629-3.709,1.729-5.44.709-3.848-3.625-10.754-7.578-15.444-3.267" transform="translate(-93.06 -141.81)" fill="#ffa924"/>
          <path id="Trazado_912618" data-name="Trazado 912618" d="M87.423,163.726c4.728-4.262,11.539-.24,15.357,3.395,1.774,1.074,3.878-.039,5.593-.676,5.868-2.53,9.061-3.362,13.962,1.366,6.008,3.428,12.569-1.507,18.73-1.982a7.169,7.169,0,0,1,5.361,1.31l1.446,1.276c2.477,2.16,4.693,1.188,7.222-.184a8.807,8.807,0,0,1,4.6-.918c.265.051,1.137.207,1.4.258.326.106,1.032.352,1.356.459,7.664,4.261,10.81,2.594,18.221-.825a5.946,5.946,0,0,1,3.708-.433c1.278.286,2.035,1.559,3.171,2.1,4.808,2.6,10.191-6.3,14.249-2.695-4.019-3.641-9.466,5.143-14.182,2.564-1.139-.57-1.894-1.835-3.193-2.129a6.108,6.108,0,0,0-3.814.426c-7.424,3.386-10.458,5.026-18.073.767-.325-.115-1.072-.365-1.381-.473-.288-.052-1.136-.213-1.44-.268a9.079,9.079,0,0,0-4.734.925c-2.473,1.311-4.544,2.293-6.931.2l-1.441-1.28a7.4,7.4,0,0,0-5.572-1.366c-6.137.471-12.607,5.418-18.581,2.079-4.925-4.755-8.309-3.9-14.15-1.339-1.7.629-3.709,1.729-5.44.709-3.848-3.625-10.754-7.578-15.444-3.267" transform="translate(-93.06 -142.392)" fill="#ffa924"/>
        </g>
      </g>
      <g id="Grupo_1101745" data-name="Grupo 1101745">
        <g id="Grupo_1101744" data-name="Grupo 1101744" clip-path="url(#clip-path)">
          <path id="Trazado_912620" data-name="Trazado 912620" d="M81.713,295.31l1.45,10.465h32s-2.377-3.931-11.794-5.668c-2.565-2.565-5.087-4.8-5.087-4.8Z" transform="translate(5.248 16.517)" fill="#f4d9a9"/>
          <rect id="Rectángulo_403204" data-name="Rectángulo 403204" width="32.18" height="2.926" transform="translate(88.229 322.292)" fill="#b7b8d9"/>
          <path id="Trazado_912621" data-name="Trazado 912621" d="M107.821,301.483a4.028,4.028,0,0,1,3.512,3.581,3.275,3.275,0,0,0-3.512-3.581" transform="translate(-18.533 16.862)" fill="#002e5c"/>
          <path id="Trazado_912622" data-name="Trazado 912622" d="M87.6,295.264q2.344,3.5,4.783,6.936c2.945.2,6.04.217,8.889,1.231a16.108,16.108,0,0,0-4.308-1.174,29.3,29.3,0,0,0-4.471-.276l.115.058q-2.453-3.424-5.008-6.776" transform="translate(12.92 16.515)" fill="#002e5c"/>
          <path id="Trazado_912623" data-name="Trazado 912623" d="M88.294,301.483a4.727,4.727,0,0,0-1.653,3.581,14.943,14.943,0,0,1,1.653-3.581" transform="translate(26.91 16.863)" fill="#002e5c"/>
          <path id="Trazado_912624" data-name="Trazado 912624" d="M165.6,294.859l-2.941,10.94h32s-2.377-3.931-11.794-5.668c.4-1.245,1.194-4.363,1.194-4.363Z" transform="translate(-159.728 16.492)" fill="#f4d9a9"/>
          <rect id="Rectángulo_403205" data-name="Rectángulo 403205" width="32.18" height="2.926" transform="translate(2.752 322.292)" fill="#b7b8d9"/>
          <path id="Trazado_912625" data-name="Trazado 912625" d="M188.773,301.124a4.561,4.561,0,0,1,3.226,3.96,3.573,3.573,0,0,0-3.226-3.96" transform="translate(-184.676 16.843)" fill="#002e5c"/>
          <path id="Trazado_912626" data-name="Trazado 912626" d="M170.692,295.608q-1.123,3.209-2.136,6.452a.138.138,0,0,0,.091.173,42.283,42.283,0,0,1,4.475.26,20.411,20.411,0,0,1,4.343.92,21.682,21.682,0,0,0-8.78-1.45l.135.178q.995-3.249,1.872-6.533" transform="translate(-148.749 16.534)" fill="#002e5c"/>
          <path id="Trazado_912627" data-name="Trazado 912627" d="M169.244,301.483a4.727,4.727,0,0,0-1.653,3.581,14.943,14.943,0,0,1,1.653-3.581" transform="translate(-139.517 16.863)" fill="#002e5c"/>
          <path id="Trazado_912628" data-name="Trazado 912628" d="M160.851,162.842l-8.614-30.08L154.5,85.25a35.21,35.21,0,0,0-23.205-9.242c-1.358-.007-2.646.053-3.868.14A20.7,20.7,0,0,0,108.3,100.059l6.194,36.488-4.222,12.877a122.429,122.429,0,0,0-4.285,17.2c17.883,4.976,38.746,5.395,54.868-3.783" transform="translate(-66.071 4.251)" fill="#3a2072"/>
          <path id="Trazado_912629" data-name="Trazado 912629" d="M112.493,82.61c1.586,4.866,3.291,9.69,5.169,14.454,2.053,4.573,3.84,9.781,2.251,14.765,1.812-4.92.08-10.323-1.993-14.872-1.705-4.11-3.854-10.12-5.427-14.347" transform="translate(-32.767 4.621)" fill="#ffcf42"/>
          <path id="Trazado_912630" data-name="Trazado 912630" d="M138.36,82.062a10.379,10.379,0,0,1-4.566,2.19c-5.763,1.126-10.263-3.432-10.7-3.888l3.073-27.623,15.265,1.7Z" transform="translate(-64.721 2.95)" fill="#e2b9a0"/>
          <path id="Trazado_912631" data-name="Trazado 912631" d="M124.737,68.535l4.4.489-.386,3.471Z" transform="translate(-54.157 3.833)" fill="#3a2072"/>
          <path id="Trazado_912632" data-name="Trazado 912632" d="M141.386,62.062a8.965,8.965,0,0,1-8.159,9.8L128,72.375a8.965,8.965,0,0,1-9.906-8.031l-1.731-17.667a9.11,9.11,0,0,1,8.143-9.97l5.228-.511a9.109,9.109,0,0,1,9.923,8.2Z" transform="translate(-57.563 2.022)" fill="#e2b9a0"/>
          <path id="Trazado_912633" data-name="Trazado 912633" d="M121.915,61.759a1.547,1.547,0,0,0,2.7.768,3.242,3.242,0,0,0,.636-.915,7.09,7.09,0,0,1-.787.742,1.588,1.588,0,0,1-2.552-.594" transform="translate(-47.296 3.446)" fill="#002e5c"/>
          <path id="Trazado_912634" data-name="Trazado 912634" d="M143.955,70.006a4.055,4.055,0,0,1-2.179-7.68" transform="translate(-84.562 3.486)" fill="none" stroke="#fff" stroke-linecap="round" stroke-linejoin="round" stroke-width="0.567"/>
          <path id="Trazado_912635" data-name="Trazado 912635" d="M144.96,59.082a4.012,4.012,0,1,1-4.369-3.474,3.948,3.948,0,0,1,4.369,3.474" transform="translate(-82.908 3.109)" fill="#e2b9a0"/>
          <path id="Trazado_912636" data-name="Trazado 912636" d="M129.555,53.181c.069.706-.186,1.309-.569,1.346s-.751-.5-.82-1.21.186-1.309.57-1.346.751.5.819,1.21" transform="translate(-58.197 2.907)" fill="#3a2072"/>
          <path id="Trazado_912637" data-name="Trazado 912637" d="M118.915,52.138c.07.706-.186,1.309-.569,1.347s-.751-.5-.82-1.21.186-1.309.57-1.347.751.5.819,1.21" transform="translate(-36.322 2.848)" fill="#3a2072"/>
          <path id="Trazado_912638" data-name="Trazado 912638" d="M119.456,53.986a7.829,7.829,0,0,0,1.214,3.371.655.655,0,0,0,.56.267c.272-.073.316-.158.475-.175.489-.063.644.491.569.919a3.363,3.363,0,0,1-1,1.68c.757-.551,1.769-1.761.971-2.705-.313-.306-.793-.137-1.057-.011-.189.023-.436-.289-.588-.554a18.872,18.872,0,0,1-1.148-2.791" transform="translate(-41.987 3.02)" fill="#002e5c"/>
          <path id="Trazado_912639" data-name="Trazado 912639" d="M128.782,51.2a2.823,2.823,0,0,1,2.51-.637,1.686,1.686,0,0,0-2.51.637" transform="translate(-60.586 2.81)" fill="#002e5c"/>
          <path id="Trazado_912640" data-name="Trazado 912640" d="M117.752,50.12a2.823,2.823,0,0,1,2.51-.637,1.685,1.685,0,0,0-2.51.637" transform="translate(-37.909 2.749)" fill="#002e5c"/>
          <path id="Trazado_912641" data-name="Trazado 912641" d="M142.047,61.884c-1.184-.891-.307-2.784,1.007-2.9a.148.148,0,0,0,.13-.163,2.376,2.376,0,0,0-1.392-1.62,1.99,1.99,0,0,0-2.013.292,2.1,2.1,0,0,1,2.681.513,2.671,2.671,0,0,1,.43.87l.124-.19c-1.5.132-2.43,2.381-.967,3.2" transform="translate(-84.092 3.191)" fill="#002e5c"/>
          <path id="Trazado_912642" data-name="Trazado 912642" d="M131.662,59.118c.072.734-.782,1.419-1.909,1.529s-2.1-.395-2.169-1.13.782-1.419,1.909-1.529,2.1.4,2.169,1.13" transform="translate(-59.691 3.243)" fill="#e29ea0"/>
        </g>
      </g>
      <g id="Grupo_1101747" data-name="Grupo 1101747" transform="translate(58.757 38.173)">
        <g id="Grupo_1101746" data-name="Grupo 1101746" transform="translate(0)" clip-path="url(#clip-path-5)">
          <path id="Trazado_912643" data-name="Trazado 912643" d="M119.09,57.887c.072.734-.782,1.419-1.909,1.529s-2.1-.395-2.169-1.13.782-1.418,1.909-1.529,2.1.4,2.169,1.13" transform="translate(-92.6 -34.999)" fill="#e29ea0"/>
        </g>
      </g>
      <g id="Grupo_1101749" data-name="Grupo 1101749">
        <g id="Grupo_1101748" data-name="Grupo 1101748" clip-path="url(#clip-path)">
          <path id="Trazado_912645" data-name="Trazado 912645" d="M106.575,159.235c17.479,4.374,37.355,5.736,53.7-3.061-16.5,8.432-36.134,7.066-53.7,3.061" transform="translate(-66.119 8.735)" fill="#ffcf42"/>
          <path id="Trazado_912646" data-name="Trazado 912646" d="M137.186,87.582c-14.494,1.9-12.252,18.269-12.252,18.269l16.122,12.775c4.2-5.056,9.371-9.374,14.273-13.638Z" transform="translate(-80.428 4.899)" fill="#3a2072"/>
          <path id="Trazado_912647" data-name="Trazado 912647" d="M140.726,111.755,92.287,121.808,73.792,104.065c-4.9,4.265-10.069,8.582-14.273,13.638l20.129,16.1a18.293,18.293,0,0,0,16.529,3.28l46.557-13.529Z" transform="translate(1.109 5.821)" fill="#e2b9a0"/>
          <path id="Trazado_912648" data-name="Trazado 912648" d="M124.809,91.037q6.13,7.083,12.7,13.757-6.127-7.085-12.7-13.757" transform="translate(-62.609 5.092)" fill="#ffcf42"/>
          <path id="Trazado_912649" data-name="Trazado 912649" d="M138.326,106.018q6.9,6.022,14.176,11.577-6.895-6.025-14.176-11.577" transform="translate(-91.873 5.93)" fill="#ffcf42"/>
          <path id="Trazado_912650" data-name="Trazado 912650" d="M140.834,101.231c-5.364,2.618-9.1,7.692-11.947,12.794l-1.125,2.271c3.253-5.8,7.186-11.679,13.071-15.065" transform="translate(-69.052 5.662)" fill="#ffcf42"/>
          <path id="Trazado_912651" data-name="Trazado 912651" d="M53.958,123.136c2.986-.887,9.871-4.156,9.651-5.045s-4.481-.13-4.481-.13,4.629-1.815,4.345-3.065-5.271-.044-5.271-.044,4.886-2.115,4.262-3.18-5.764.657-5.764.657,4.227-1.993,3.767-2.838-5.8.106-11.819,1.767" transform="translate(91.709 6.106)" fill="#e2b9a0"/>
          <path id="Trazado_912652" data-name="Trazado 912652" d="M62.189,124.836s12.581-1.315,12.6-5.4-2.214-12.421-15.794-6.285,3.2,11.688,3.2,11.688" transform="translate(75.219 6.207)" fill="#e2b9a0"/>
          <path id="Trazado_912653" data-name="Trazado 912653" d="M53.788,113.269a11.374,11.374,0,0,0,4.7-1.84c-1.534.645-3.184,1.146-4.7,1.84" transform="translate(91.406 6.232)" fill="#002e5c"/>
          <path id="Trazado_912654" data-name="Trazado 912654" d="M51.792,115.695a12.713,12.713,0,0,0,5.117-2.128l-5.117,2.128" transform="translate(95.094 6.352)" fill="#002e5c"/>
          <path id="Trazado_912655" data-name="Trazado 912655" d="M50.424,118.321a12.159,12.159,0,0,0,4.789-2.01c-1.557.71-3.252,1.246-4.789,2.01" transform="translate(98.234 6.506)" fill="#002e5c"/>
          <path id="Trazado_912656" data-name="Trazado 912656" d="M63.558,111.62s4.4-1.683,4.12-2.932-7.84-1.265-9.259,5.365" transform="translate(77.314 6.043)" fill="#e2b9a0"/>
          <path id="Trazado_912657" data-name="Trazado 912657" d="M129.345,38.4a6.089,6.089,0,1,1-6.667-5.452,6.09,6.09,0,0,1,6.667,5.452" transform="translate(-46.435 1.841)" fill="#3a2072"/>
          <path id="Trazado_912658" data-name="Trazado 912658" d="M138.026,39.267a6.089,6.089,0,1,1-6.667-5.452,6.09,6.09,0,0,1,6.667,5.452" transform="translate(-64.282 1.89)" fill="#3a2072"/>
          <path id="Trazado_912659" data-name="Trazado 912659" d="M144.863,42.405a6.09,6.09,0,1,1-6.667-5.452,6.09,6.09,0,0,1,6.667,5.452" transform="translate(-78.34 2.065)" fill="#3a2072"/>
          <path id="Trazado_912660" data-name="Trazado 912660" d="M144.612,50.325c.336,3.346-1.152,6.235-3.323,6.453s-4.2-2.318-4.537-5.665,1.152-6.235,3.322-6.453,4.2,2.319,4.538,5.665" transform="translate(-82.318 2.497)" fill="#3a2072"/>
          <path id="Trazado_912661" data-name="Trazado 912661" d="M136.039,61.939a4.054,4.054,0,0,1,.395,8.088" transform="translate(-77.039 3.464)" fill="none" stroke="#fff" stroke-linecap="round" stroke-linejoin="round" stroke-width="0.567"/>
          <path id="Trazado_912662" data-name="Trazado 912662" d="M122.752,187.082a77.382,77.382,0,0,0,9.336-2.544,77.132,77.132,0,0,0-9.336,2.544" transform="translate(-55.014 10.322)" fill="#002e5c"/>
          <path id="Trazado_912663" data-name="Trazado 912663" d="M130.606,33.632a8.77,8.77,0,0,1,6.4-8.073,16.087,16.087,0,0,1,3.642-.6c-5.109-.456-10.356,3.218-10.039,8.676" transform="translate(-71.849 1.394)" fill="#002e5c"/>
          <path id="Trazado_912664" data-name="Trazado 912664" d="M154.059,39.552a7.156,7.156,0,0,0-6.569,6.512,10.193,10.193,0,0,1,2.268-4.29,9.348,9.348,0,0,1,4.3-2.222" transform="translate(-103.107 2.212)" fill="#002e5c"/>
          <path id="Trazado_912665" data-name="Trazado 912665" d="M113.584,41.71a7.255,7.255,0,0,0,5.633-6.308c.042-.427.013-.856.021-1.279a8.407,8.407,0,0,1-5.655,7.587" transform="translate(-32.486 1.909)" fill="#002e5c"/>
        </g>
      </g>
    </g>
  </g>
</svg>
