<svg xmlns="http://www.w3.org/2000/svg" xmlns:xlink="http://www.w3.org/1999/xlink" width="570" height="187.855" viewBox="0 0 570 187.855">
  <defs>
    <clipPath id="clip-path">
      <rect id="Rectángulo_402902" data-name="Rectángulo 402902" width="569.768" height="160" rx="20" fill="#8f61c2"/>
    </clipPath>
    <clipPath id="clip-path-2">
      <rect id="Rectángulo_403124" data-name="Rectángulo 403124" width="387.621" height="187.855" fill="none"/>
    </clipPath>
  </defs>
  <g id="Grupo_1102230" data-name="Grupo 1102230" transform="translate(-850.051 -379.146)">
    <rect id="Rectángulo_402901" data-name="Rectángulo 402901" width="570" height="163" rx="20" transform="translate(850.051 404)" fill="#8f61c2"/>
    <g id="freepik--background-simple--inject-4" transform="translate(1143 453.948)">
      <path id="Trazado_911702" data-name="Trazado 911702" d="M45.93,217.488H178.357c2.173-2.6,14.817-19.051,9.153-44.052-6.189-27.29-9.831-27.671-37.135-44.784S113.63,96.978,82.306,108.629s-32.4,33.5-30.953,50.969S32.81,190.544,31.7,201.467C30.823,210.235,38.408,215.949,45.93,217.488Z" transform="translate(-31.631 -104.436)" fill="#ffdba9"/>
    </g>
    <g id="Grupo_1101673" data-name="Grupo 1101673" transform="translate(-3295.768 12090.053)">
      <g id="Grupo_1100912" data-name="Grupo 1100912" transform="translate(4167.583 -11663.465)">
        <path id="Elipse_11537" data-name="Elipse 11537" d="M4.966,0A4.966,4.966,0,0,1,8.477,8.477,4.966,4.966,0,0,1,1.454,1.454,4.933,4.933,0,0,1,4.966,0Zm0,8.618A3.652,3.652,0,1,0,1.314,4.966,3.656,3.656,0,0,0,4.966,8.618Z" transform="translate(366.925 25.99) rotate(-58.283)" fill="#39274d"/>
        <path id="Elipse_11538" data-name="Elipse 11538" d="M4.966,0A4.966,4.966,0,0,1,8.477,8.477,4.966,4.966,0,0,1,1.454,1.454,4.933,4.933,0,0,1,4.966,0Zm0,8.618A3.652,3.652,0,1,0,1.314,4.966,3.656,3.656,0,0,0,4.966,8.618Z" transform="matrix(0.987, -0.16, 0.16, 0.987, 524.176, 25.637)" fill="#39274d"/>
        <path id="Elipse_11538-2" data-name="Elipse 11538" d="M4.966,0A4.966,4.966,0,0,1,8.477,8.477,4.966,4.966,0,0,1,1.454,1.454,4.933,4.933,0,0,1,4.966,0Zm0,8.618A3.652,3.652,0,1,0,1.314,4.966,3.656,3.656,0,0,0,4.966,8.618Z" transform="matrix(0.987, -0.16, 0.16, 0.987, 371.822, 90.172)" fill="#39274d"/>
        <path id="Rectángulo_402855" data-name="Rectángulo 402855" d="M-.843-1.5H7.676a.657.657,0,0,1,.657.657V7.676a.657.657,0,0,1-.657.657H-.843A.657.657,0,0,1-1.5,7.676V-.843A.657.657,0,0,1-.843-1.5ZM7.019-.186h-7.2v7.2h7.2Z" transform="translate(485.151 1.5)" fill="#39274d"/>
        <path id="Rectángulo_402855-2" data-name="Rectángulo 402855" d="M-.843-1.5H7.676a.657.657,0,0,1,.657.657V7.676a.657.657,0,0,1-.657.657H-.843A.657.657,0,0,1-1.5,7.676V-.843A.657.657,0,0,1-.843-1.5ZM7.019-.186h-7.2v7.2h7.2Z" transform="translate(313.851 86.159)" fill="#39274d"/>
        <path id="Rectángulo_402855-3" data-name="Rectángulo 402855" d="M.657,0H9.176a.657.657,0,0,1,.657.657V9.176a.657.657,0,0,1-.657.657H.657A.657.657,0,0,1,0,9.176V.657A.657.657,0,0,1,.657,0ZM8.519,1.314h-7.2v7.2h7.2Z" transform="matrix(0.883, -0.469, 0.469, 0.883, 14.519, 47.751)" fill="#39274d"/>
        <path id="Trazado_911233" data-name="Trazado 911233" d="M568.81,240.154h-8.519a.657.657,0,0,1-.588-.951l4.259-8.519a.657.657,0,0,1,1.175,0L569.4,239.2a.657.657,0,0,1-.588.951Zm-7.455-1.314h6.392l-3.2-6.392Z" transform="translate(-53.087 -173.166)" fill="#39274d"/>
        <path id="Trazado_911233-2" data-name="Trazado 911233" d="M9.176,9.833H.657a.657.657,0,0,1-.588-.951L4.329.363A.657.657,0,0,1,5.5.363L9.763,8.882a.657.657,0,0,1-.588.951ZM1.72,8.519H8.113l-3.2-6.392Z" transform="translate(448.257 96.741) rotate(149)" fill="#39274d"/>
        <path id="Trazado_911233-3" data-name="Trazado 911233" d="M9.176,9.833H.657a.657.657,0,0,1-.588-.951L4.329.363A.657.657,0,0,1,5.5.363L9.763,8.882a.657.657,0,0,1-.588.951ZM1.72,8.519H8.113l-3.2-6.392Z" transform="matrix(-0.799, 0.602, -0.602, -0.799, 135.828, 15.717)" fill="#39274d"/>
        <path id="Trazado_911233-4" data-name="Trazado 911233" d="M568.81,240.154h-8.519a.657.657,0,0,1-.588-.951l4.259-8.519a.657.657,0,0,1,1.175,0L569.4,239.2a.657.657,0,0,1-.588.951Zm-7.455-1.314h6.392l-3.2-6.392Z" transform="translate(-372.413 -124.748)" fill="#39274d"/>
        <path id="Rectángulo_402856" data-name="Rectángulo 402856" d="M.657,0H9.175a.657.657,0,0,1,.657.657V9.176a.657.657,0,0,1-.657.657H.657A.657.657,0,0,1,0,9.176V.657A.657.657,0,0,1,.657,0ZM8.518,1.314h-7.2v7.2h7.2Z" transform="translate(332.52 26.551) rotate(-30.001)" fill="#39274d"/>
        <path id="Unión_7" data-name="Unión 7" d="M5.906,8.363l-1.8-3.119-3.12,1.8a.656.656,0,0,1-.9-.242.657.657,0,0,1,.24-.9l3.12-1.8L1.648.985A.657.657,0,0,1,2.785.329l1.8,3.119,3.12-1.8a.657.657,0,0,1,.657,1.139l-3.119,1.8,1.8,3.12a.657.657,0,0,1-1.139.656Z" transform="translate(328.342 46.759)" fill="#39274d"/>
        <path id="Unión_8" data-name="Unión 8" d="M5.906,8.363l-1.8-3.119-3.12,1.8a.656.656,0,0,1-.9-.242.657.657,0,0,1,.24-.9l3.12-1.8L1.648.985A.657.657,0,0,1,2.785.329l1.8,3.119,3.12-1.8a.657.657,0,0,1,.657,1.139l-3.119,1.8,1.8,3.12a.657.657,0,0,1-1.139.656Z" transform="translate(0 118.417)" fill="#39274d"/>
        <path id="Trazado_911234" data-name="Trazado 911234" d="M424.173,61.919a2.4,2.4,0,1,0-2.4,2.4,2.4,2.4,0,0,0,2.4-2.4" transform="translate(44.13 -44.377)" fill="#fe729d"/>
        <path id="Trazado_911759" data-name="Trazado 911759" d="M424.173,61.919a2.4,2.4,0,1,0-2.4,2.4,2.4,2.4,0,0,0,2.4-2.4" transform="translate(-86.727 56.498)" fill="#b1ce95"/>
        <path id="Trazado_911235" data-name="Trazado 911235" d="M2.426,155.6a1.213,1.213,0,1,0-1.213,1.213A1.213,1.213,0,0,0,2.426,155.6" transform="translate(247.813 -77.869)" fill="#fe729d"/>
        <path id="Trazado_911238" data-name="Trazado 911238" d="M2.426,155.6a1.213,1.213,0,1,0-1.213,1.213A1.213,1.213,0,0,0,2.426,155.6" transform="translate(3.133 -116.281)" fill="#b1ce95"/>
        <path id="Trazado_911236" data-name="Trazado 911236" d="M117.968,31.524a1.213,1.213,0,1,0-1.213,1.213,1.213,1.213,0,0,0,1.213-1.213" transform="translate(233.305 -16.775)" fill="#fe729d"/>
        <path id="Trazado_911237" data-name="Trazado 911237" d="M602.7,290.841a1.213,1.213,0,1,0-1.213,1.213,1.213,1.213,0,0,0,1.213-1.213" transform="translate(-75.926 -213.917)" fill="#ffdba9"/>
      </g>
      <g id="Enmascarar_grupo_1098686" data-name="Enmascarar grupo 1098686" transform="translate(4146 -11686.053)" clip-path="url(#clip-path)">
        <path id="Trazado_911233-5" data-name="Trazado 911233" d="M4.6,120.332a.492.492,0,0,1-.442-.225c-3.67-7.127-4.607-12.537-3.134-18.09a32.615,32.615,0,0,1,3.895-8.56c1.983-3.259,4.559-6.778,7.047-10.1,4.7-6.271,3.494-13.69,2.215-21.544-.885-5.436-1.8-11.058-.811-16.641a24.019,24.019,0,0,1,1.134-4.187,23.492,23.492,0,0,1,2.036-4.148,27.062,27.062,0,0,1,3.12-4.08,35.7,35.7,0,0,1,4.38-3.983,45.251,45.251,0,0,1,13.926-7.342,49,49,0,0,1,7.478-1.764,54.886,54.886,0,0,1,7.673-.632,65.809,65.809,0,0,1,13.089,1.2,81.847,81.847,0,0,1,12.836,3.579,94.662,94.662,0,0,1,12.1,5.442,96.953,96.953,0,0,1,10.883,6.79c15.937,11.493,35.972,17.36,58.321,17.36a148.284,148.284,0,0,0,35.992-4.666,53.358,53.358,0,0,1,8.166-1.369,60.027,60.027,0,0,1,8.362-.156,65.168,65.168,0,0,1,8.344.968,67.2,67.2,0,0,1,8.113,2A65.179,65.179,0,0,1,237,53.142a59.269,59.269,0,0,1,7.021,3.813,50.726,50.726,0,0,1,6.158,4.589,41.458,41.458,0,0,1,5.083,5.28,30.373,30.373,0,0,1,5.921,11.609,25.914,25.914,0,0,1-.191,13.185,32.591,32.591,0,0,1-2.841,6.989,44.32,44.32,0,0,1-4.908,7.15,64.075,64.075,0,0,1-7.15,7.236,94.431,94.431,0,0,1-9.568,7.249.6.6,0,0,1-.667-.024.288.288,0,0,1,.033-.491,77.2,77.2,0,0,0,16.547-14.334,37.258,37.258,0,0,0,7.628-13.912c2.288-8.439.345-16.843-5.618-24.3C242.4,52.1,217.007,44.3,196.644,49.4c-5.055,1.268-10.114,2.294-15.038,3.05-4.786.735-9.565,1.234-14.2,1.482a128.736,128.736,0,0,1-13.34.032,115.72,115.72,0,0,1-12.447-1.3,105.382,105.382,0,0,1-11.523-2.512,97.158,97.158,0,0,1-10.569-3.6,87.568,87.568,0,0,1-18.159-10A95.78,95.78,0,0,0,78.622,24.44a80.672,80.672,0,0,0-12.651-3.528,64.544,64.544,0,0,0-12.836-1.174c-10.882.143-20.44,3.347-28.41,9.52C11.5,39.5,13.341,50.8,15.121,61.734a59.469,59.469,0,0,1,1.14,11.5,20.384,20.384,0,0,1-.87,5.4,16.725,16.725,0,0,1-1.047,2.581,16.925,16.925,0,0,1-1.55,2.486C10.316,87,7.751,90.506,5.783,93.742a32.065,32.065,0,0,0-3.829,8.409c-1.438,5.416-.514,10.713,3.09,17.71.093.18-.03.381-.274.449A.624.624,0,0,1,4.6,120.332Z" transform="translate(423.726 39.668)" fill="#ffdba9"/>
        <path id="Trazado_911233-6" data-name="Trazado 911233" d="M7.286,137.268a.277.277,0,0,1-.32-.234c-1.842-8.62-1.756-15.374.287-22.584a70.107,70.107,0,0,1,4.451-11.3c2.1-4.359,4.708-9.116,7.218-13.608,4.744-8.489,4.924-17.76,5.114-27.576.132-6.793.268-13.818,1.926-21.011a53.233,53.233,0,0,1,1.558-5.44A49.97,49.97,0,0,1,29.8,30.021a51.259,51.259,0,0,1,3.135-5.53,56.994,56.994,0,0,1,4.131-5.551,58.837,58.837,0,0,1,6.092-6.275,45.3,45.3,0,0,1,6.219-4.624,36.971,36.971,0,0,1,6.274-3.09A32.7,32.7,0,0,1,61.9,3.276,31.978,31.978,0,0,1,72.221,3.3a37.03,37.03,0,0,1,9.745,3.075A46.271,46.271,0,0,1,90.834,11.9a55.469,55.469,0,0,1,7.682,7.37c11.008,12.758,26.177,17.914,44.111,15.364,9.2-1.308,19.132-4.644,29.6-10.023a36.177,36.177,0,0,1,6.765-2.667,32.768,32.768,0,0,1,6.734-1.151,30.973,30.973,0,0,1,6.545.276,30.317,30.317,0,0,1,11.9,4.483,31.364,31.364,0,0,1,5.043,4.035,32.825,32.825,0,0,1,4.231,5.117,35.1,35.1,0,0,1,3.261,6.116,40.46,40.46,0,0,1,2.954,14.047,53.823,53.823,0,0,1-2.195,16.743,70.939,70.939,0,0,1-3.362,9.188,87.184,87.184,0,0,1-5.045,9.628,108.337,108.337,0,0,1-6.858,9.993c-2.639,3.431-5.6,6.891-8.8,10.285-.175.186-.413.206-.532.045a.522.522,0,0,1,.1-.627,119.993,119.993,0,0,0,15.5-20.065,77.352,77.352,0,0,0,8.275-18.513c3.143-10.964,2.886-21.4-.745-30.182-7.334-17.742-26.5-24.748-43.63-15.949a118.291,118.291,0,0,1-12.539,5.584,89.155,89.155,0,0,1-11.627,3.5,68.785,68.785,0,0,1-10.71,1.562,55.445,55.445,0,0,1-9.786-.229,47.733,47.733,0,0,1-8.857-1.872,44.575,44.575,0,0,1-7.922-3.366A46.814,46.814,0,0,1,97.908,19.972,50.366,50.366,0,0,0,81.533,7.213a36.5,36.5,0,0,0-9.6-3.032,31.361,31.361,0,0,0-10.119-.025c-8.754,1.423-16.92,6.576-24.271,15.315C25.34,33.972,25.066,48.095,24.8,61.753a116.883,116.883,0,0,1-.865,14.45A44.749,44.749,0,0,1,22.4,83.15c-.362,1.164-.779,2.305-1.24,3.393a34.241,34.241,0,0,1-1.629,3.33c-2.5,4.474-5.1,9.21-7.182,13.538a68.918,68.918,0,0,0-4.375,11.1c-1.992,7.033-2.071,13.644-.263,22.107a.594.594,0,0,1-.289.6A.4.4,0,0,1,7.286,137.268Z" transform="translate(314.248 69.143) rotate(-120)" fill="#ffdba9"/>
        <path id="Trazado_911233-7" data-name="Trazado 911233" d="M6.136,156.982a.67.67,0,0,1-.6-.306c-5-9.706-6.275-17.073-4.268-24.635a44.416,44.416,0,0,1,5.3-11.657c2.7-4.438,6.208-9.231,9.6-13.749,6.4-8.54,4.758-18.643,3.017-29.34-1.205-7.4-2.452-15.058-1.105-22.661a32.709,32.709,0,0,1,1.544-5.7A31.992,31.992,0,0,1,22.4,43.283a36.853,36.853,0,0,1,4.249-5.556A48.617,48.617,0,0,1,32.609,32.3a61.623,61.623,0,0,1,18.964-10,66.733,66.733,0,0,1,10.184-2.4,74.744,74.744,0,0,1,10.449-.86,89.62,89.62,0,0,1,17.825,1.628,111.46,111.46,0,0,1,17.48,4.874,128.911,128.911,0,0,1,16.478,7.41A132.029,132.029,0,0,1,138.811,42.2c21.7,15.652,48.987,23.642,79.423,23.642a201.936,201.936,0,0,0,49.014-6.354,72.664,72.664,0,0,1,11.121-1.864,81.746,81.746,0,0,1,11.388-.212,88.748,88.748,0,0,1,11.363,1.319,91.512,91.512,0,0,1,11.049,2.728,88.761,88.761,0,0,1,10.449,4.019,80.714,80.714,0,0,1,9.561,5.193,69.081,69.081,0,0,1,8.386,6.249,56.453,56.453,0,0,1,6.922,7.19,41.362,41.362,0,0,1,8.064,15.809,35.29,35.29,0,0,1-.26,17.955,44.387,44.387,0,0,1-3.869,9.518,60.356,60.356,0,0,1-6.683,9.737A87.256,87.256,0,0,1,335,146.987a128.6,128.6,0,0,1-13.03,9.872.814.814,0,0,1-.909-.033.393.393,0,0,1,.045-.669c9.38-6.26,16.961-12.827,22.534-19.52a50.739,50.739,0,0,0,10.387-18.945c3.116-11.493.471-22.937-7.651-33.1-16.408-20.527-50.984-31.16-78.715-24.206-6.884,1.726-13.774,3.124-20.479,4.154-6.518,1-13.026,1.68-19.343,2.018a175.315,175.315,0,0,1-18.167.043,157.586,157.586,0,0,1-16.95-1.77,143.509,143.509,0,0,1-15.692-3.421A132.311,132.311,0,0,1,162.64,56.5a119.251,119.251,0,0,1-24.729-13.622,130.435,130.435,0,0,0-30.972-16.486A109.859,109.859,0,0,0,89.711,21.59a87.9,87.9,0,0,0-17.481-1.6c-14.819.2-27.836,4.557-38.689,12.965C15.533,46.908,18.039,62.3,20.462,77.182c.891,5.473,1.733,10.642,1.553,15.656a27.759,27.759,0,0,1-1.184,7.354,22.776,22.776,0,0,1-1.425,3.515,23.05,23.05,0,0,1-2.111,3.386c-3.375,4.5-6.867,9.273-9.549,13.679A43.667,43.667,0,0,0,2.53,132.223c-1.958,7.376-.7,14.589,4.208,24.117.126.245-.041.518-.373.611A.849.849,0,0,1,6.136,156.982Z" transform="translate(-321.307 -87.319)" fill="#ffdba9"/>
      </g>
    </g>
    <g id="Grupo_1101672" data-name="Grupo 1101672" transform="translate(937 379.146)">
      <g id="Grupo_1101671" data-name="Grupo 1101671" clip-path="url(#clip-path-2)">
        <path id="Trazado_912284" data-name="Trazado 912284" d="M610.221,180.625a4.05,4.05,0,1,1,4.05-4.05,4.054,4.054,0,0,1-4.05,4.05m0-7.5a3.451,3.451,0,1,0,3.451,3.451,3.455,3.455,0,0,0-3.451-3.451" transform="translate(-246.592 -70.184)"/>
        <path id="Trazado_912285" data-name="Trazado 912285" d="M198.639,313.7a2.174,2.174,0,1,1,2.175-2.174,2.177,2.177,0,0,1-2.175,2.174m0-3.75a1.576,1.576,0,1,0,1.576,1.576,1.578,1.578,0,0,0-1.576-1.576" transform="translate(-79.922 -125.845)"/>
        <path id="Trazado_912286" data-name="Trazado 912286" d="M518.8,18.643a2.175,2.175,0,1,1,2.175-2.175,2.177,2.177,0,0,1-2.175,2.175m0-3.751a1.576,1.576,0,1,0,1.576,1.576,1.578,1.578,0,0,0-1.576-1.576" transform="translate(-210.167 -5.815)"/>
        <path id="Trazado_912287" data-name="Trazado 912287" d="M391.532,238.065a2.175,2.175,0,1,1,2.175-2.175,2.177,2.177,0,0,1-2.175,2.175m0-3.751a1.576,1.576,0,1,0,1.576,1.576,1.578,1.578,0,0,0-1.576-1.576" transform="translate(-158.392 -95.076)"/>
        <path id="Trazado_912288" data-name="Trazado 912288" d="M248.048,68.448a3.322,3.322,0,1,1,3.323-3.322,3.327,3.327,0,0,1-3.323,3.322m0-6.046a2.724,2.724,0,1,0,2.724,2.724,2.727,2.727,0,0,0-2.724-2.724" transform="translate(-99.555 -25.142)"/>
        <path id="Trazado_912289" data-name="Trazado 912289" d="M28.478,77.665a2.175,2.175,0,1,1,2.175-2.175,2.177,2.177,0,0,1-2.175,2.175m0-3.751a1.576,1.576,0,1,0,1.576,1.576,1.578,1.578,0,0,0-1.576-1.576" transform="translate(-10.7 -29.825)"/>
        <path id="Trazado_912290" data-name="Trazado 912290" d="M186.875,76.823a44.3,44.3,0,0,0-.834,9.794l3.969,1.542s2.434,10.006-12.9,6.94c-2.98-.6-11.607-7.147-11.607-7.147L172.321,86s.654-9.918.914-14.844a126.11,126.11,0,0,0,13.641,5.667" transform="translate(-67.325 -28.946)" fill="#fff"/>
        <path id="Trazado_912291" data-name="Trazado 912291" d="M182.132,95.778a27.269,27.269,0,0,1-5.29-.592c-3.013-.6-11.375-6.933-11.729-7.2a.3.3,0,0,1,.1-.526l6.619-1.893c.1-1.461.664-10.157.9-14.63a.3.3,0,0,1,.425-.255,128.043,128.043,0,0,0,13.6,5.653.3.3,0,0,1,.2.354,43.645,43.645,0,0,0-.831,9.518l3.783,1.47a.3.3,0,0,1,.182.208,6.583,6.583,0,0,1-1.426,5.738c-1.379,1.437-3.569,2.158-6.538,2.158m-16.176-7.911c1.851,1.375,8.522,6.236,11,6.732,5.531,1.106,9.324.638,11.275-1.39a5.988,5.988,0,0,0,1.31-5.037l-3.816-1.482a.3.3,0,0,1-.191-.269,45.6,45.6,0,0,1,.781-9.6A127.724,127.724,0,0,1,173.3,71.409c-.271,5-.884,14.31-.891,14.406a.3.3,0,0,1-.216.268Z" transform="translate(-67.12 -28.741)"/>
        <path id="Trazado_912292" data-name="Trazado 912292" d="M194.623,25.819c1.4.335,2.8-1.083,2.828-2.583a4.067,4.067,0,0,0-2.317-3.515,13.336,13.336,0,0,0-4.234-.943,3.792,3.792,0,0,0-1.353-4.136,5.832,5.832,0,0,0-4.29-.97,5.243,5.243,0,0,0-2.731,1.049,3.453,3.453,0,0,0-1.253,2.753,5.543,5.543,0,0,0-5.374-2.265c-1.978.474-3.47,2.891-3.62,4.553a4.683,4.683,0,0,0-3.7-2.072c-2.941.159-3.6,2.659-2.281,5.876a3.393,3.393,0,0,0-4.644,2.178,6.767,6.767,0,0,0,1.246,5.714,3.344,3.344,0,0,0,.865.657c.459,2.516,1.03,5.15,1.9,8.47a30.294,30.294,0,0,0,2.982,7.244,4.338,4.338,0,0,0,2.268,2.089c.067-1.041,1.153-1.558,1.321-2.594.207-1.274-.613-2.4.155-3.524a18.63,18.63,0,0,0,2.926-6.926,9.076,9.076,0,0,0-.539-5.909,6.353,6.353,0,0,0-1.39-1.793,10.806,10.806,0,0,0,.623-1.558,5.721,5.721,0,0,0,3.649,3.205,3.134,3.134,0,0,0,3.976-1.612,6.3,6.3,0,0,0,4.173,3.8c1.48.151,2.036-.532,2.631-1.953,1.315,1.164,2.3,2.351,3.641,2.86a4.189,4.189,0,0,0,5.264-2.664,4.507,4.507,0,0,0-2.717-5.438" transform="translate(-65.677 -5.538)" fill="#8f61c2"/>
        <path id="Trazado_912293" data-name="Trazado 912293" d="M170.7,50.013a.3.3,0,0,1-.126-.028,4.621,4.621,0,0,1-2.4-2.21,30.512,30.512,0,0,1-3.012-7.319c-.788-3.023-1.386-5.682-1.877-8.355a3.481,3.481,0,0,1-.819-.648,7.045,7.045,0,0,1-1.307-6.007,3.831,3.831,0,0,1,2.149-2.4,3.64,3.64,0,0,1,2.27-.187,5.03,5.03,0,0,1,.058-4.284,3.234,3.234,0,0,1,2.717-1.388,4.519,4.519,0,0,1,3.53,1.7,5.8,5.8,0,0,1,3.739-4.173,5.6,5.6,0,0,1,5.2,1.819,3.758,3.758,0,0,1,1.311-2.247,5.508,5.508,0,0,1,2.885-1.116,6.107,6.107,0,0,1,4.509,1.031,4.181,4.181,0,0,1,1.56,4.124l.457.059a10.52,10.52,0,0,1,3.524.866,4.363,4.363,0,0,1,2.48,3.788,3.176,3.176,0,0,1-1.22,2.386,2.664,2.664,0,0,1-.771.42,4.876,4.876,0,0,1,1.866,5.3,4.481,4.481,0,0,1-2.34,2.646,4.216,4.216,0,0,1-3.317.208,8.885,8.885,0,0,1-2.811-2.061c-.2-.19-.4-.384-.616-.579-.59,1.262-1.267,1.9-2.769,1.751-1.409-.143-3.438-1.839-4.187-3.361a3.546,3.546,0,0,1-4.024,1.155,5.625,5.625,0,0,1-3.485-2.779c-.1.273-.211.532-.329.78a6.635,6.635,0,0,1,1.291,1.724,9.217,9.217,0,0,1,.567,6.1,18.822,18.822,0,0,1-2.973,7.037,2.322,2.322,0,0,0-.183,1.846,4.662,4.662,0,0,1,.077,1.557,3.085,3.085,0,0,1-.723,1.385,2.229,2.229,0,0,0-.6,1.18.3.3,0,0,1-.3.28m-5.966-26.658a3.094,3.094,0,0,0-1.2.242,3.24,3.24,0,0,0-1.812,2.035,6.464,6.464,0,0,0,1.186,5.423,3.08,3.08,0,0,0,.787.594.3.3,0,0,1,.149.208c.493,2.7,1.094,5.389,1.892,8.448a29.906,29.906,0,0,0,2.951,7.169,3.966,3.966,0,0,0,1.788,1.8,3.437,3.437,0,0,1,.642-1.084,2.545,2.545,0,0,0,.605-1.115,4.181,4.181,0,0,0-.076-1.363,2.856,2.856,0,0,1,.279-2.281,18.219,18.219,0,0,0,2.881-6.814A8.655,8.655,0,0,0,174.3,30.9a6.1,6.1,0,0,0-1.325-1.707.3.3,0,0,1-.066-.355,10.345,10.345,0,0,0,.606-1.514.3.3,0,0,1,.543-.06,5.452,5.452,0,0,0,3.484,3.071,2.853,2.853,0,0,0,3.6-1.427.3.3,0,0,1,.574.035,5.992,5.992,0,0,0,3.91,3.571c1.306.132,1.756-.413,2.326-1.771a.3.3,0,0,1,.474-.109c.33.293.639.585.937.868a8.339,8.339,0,0,0,2.611,1.936,3.616,3.616,0,0,0,2.843-.187,3.877,3.877,0,0,0,2.03-2.287,4.219,4.219,0,0,0-2.521-5.062.3.3,0,0,1,.16-.577,1.733,1.733,0,0,0,1.471-.373,2.562,2.562,0,0,0,.988-1.924,3.782,3.782,0,0,0-2.153-3.243,9.918,9.918,0,0,0-3.327-.806c-.271-.034-.543-.069-.813-.107a.3.3,0,0,1-.238-.4,3.485,3.485,0,0,0-1.255-3.793,5.52,5.52,0,0,0-4.071-.911,4.93,4.93,0,0,0-2.577.984,3.173,3.173,0,0,0-1.145,2.511.3.3,0,0,1-.533.2,5.2,5.2,0,0,0-5.07-2.159c-1.9.456-3.257,2.805-3.391,4.289a.3.3,0,0,1-.53.162c-1.112-1.366-2.273-2.027-3.455-1.962a2.633,2.633,0,0,0-2.243,1.11c-.613.97-.534,2.516.222,4.353a.3.3,0,0,1-.409.382,2.771,2.771,0,0,0-1.22-.274" transform="translate(-65.472 -5.333)"/>
        <path id="Trazado_912294" data-name="Trazado 912294" d="M194.222,43.846c0-.076,0-.154,0-.234-.091-.026-.181-.055-.271-.088-1.341-.51-2.326-1.7-3.64-2.86-.6,1.421-1.151,2.1-2.632,1.953a6.3,6.3,0,0,1-4.172-3.8,3.135,3.135,0,0,1-3.977,1.612,5.723,5.723,0,0,1-3.649-3.205,7.822,7.822,0,0,1-2.854,4.216,5.994,5.994,0,0,1-1.9.9c-.024.291-.05.573-.081.842a24.77,24.77,0,0,0-.141,5.354c-1.679-1.394-3.07-1.161-4.113-.1a2.671,2.671,0,0,0,.063,3.76,4.924,4.924,0,0,0,4.387,1.1c.409,2.652,1.018,7.964,2.86,10.312a11.869,11.869,0,0,0,9.01,4.154,12.616,12.616,0,0,0,9.378-3.85c2.483-2.758,3.035-6.408,2.827-9.829s-1.086-6.793-1.1-10.221" transform="translate(-67.55 -15.141)" fill="#fff"/>
        <path id="Trazado_912295" data-name="Trazado 912295" d="M183.113,67.842l-.214,0a12.15,12.15,0,0,1-9.241-4.269c-1.7-2.169-2.355-6.615-2.787-9.557-.031-.206-.06-.4-.088-.591a5.157,5.157,0,0,1-4.351-1.239A2.956,2.956,0,0,1,166.37,48a2.9,2.9,0,0,1,3.972-.319,26.308,26.308,0,0,1,.19-4.686l.008-.067c.027-.241.053-.505.079-.832a.3.3,0,0,1,.218-.264,5.714,5.714,0,0,0,1.8-.85,7.609,7.609,0,0,0,2.744-4.063.3.3,0,0,1,.252-.206.3.3,0,0,1,.292.147,5.448,5.448,0,0,0,3.484,3.071,2.853,2.853,0,0,0,3.6-1.427.3.3,0,0,1,.574.034,5.99,5.99,0,0,0,3.91,3.572c1.306.132,1.756-.413,2.326-1.771a.3.3,0,0,1,.475-.108c.33.292.639.585.937.868a8.344,8.344,0,0,0,2.612,1.937c.081.031.164.057.247.081a.3.3,0,0,1,.216.283c0,.081,0,.16,0,.237a40.492,40.492,0,0,0,.567,5.727c.215,1.462.437,2.974.529,4.476.259,4.239-.718,7.62-2.9,10.048a12.875,12.875,0,0,1-9.392,3.951m-12.08-15.067a.3.3,0,0,1,.3.253c.042.273.086.575.134.9.4,2.7,1.062,7.23,2.666,9.274a11.539,11.539,0,0,0,8.78,4.04,12.285,12.285,0,0,0,9.151-3.751c2.073-2.3,3-5.537,2.75-9.61-.09-1.477-.311-2.976-.524-4.426a41.04,41.04,0,0,1-.573-5.812v-.015l-.079-.029a8.88,8.88,0,0,1-2.811-2.062c-.2-.19-.405-.384-.617-.579-.589,1.262-1.267,1.9-2.768,1.752-1.41-.143-3.438-1.84-4.188-3.361a3.546,3.546,0,0,1-4.024,1.155,5.623,5.623,0,0,1-3.484-2.778,7.82,7.82,0,0,1-2.752,3.748,6.264,6.264,0,0,1-1.79.881c-.021.243-.042.451-.064.646l-.008.068a24.258,24.258,0,0,0-.133,5.22.3.3,0,0,1-.489.262c-1.4-1.16-2.645-1.2-3.709-.125a2.363,2.363,0,0,0,.064,3.34,4.6,4.6,0,0,0,4.111,1.016.307.307,0,0,1,.062-.007" transform="translate(-67.34 -14.936)"/>
        <path id="Trazado_912296" data-name="Trazado 912296" d="M207.07,56.169a.813.813,0,1,0-.893.672.789.789,0,0,0,.893-.672" transform="translate(-83.579 -22.5)"/>
        <path id="Trazado_912297" data-name="Trazado 912297" d="M188.014,57.2a.813.813,0,1,0-.893.672.789.789,0,0,0,.893-.672" transform="translate(-75.827 -22.918)"/>
        <path id="Trazado_912298" data-name="Trazado 912298" d="M192.508,78.824a4.326,4.326,0,0,1-3.256-1.473.3.3,0,0,1,.455-.389,3.706,3.706,0,0,0,3.693,1.15.3.3,0,0,1,.153.579,4.1,4.1,0,0,1-1.045.134" transform="translate(-76.959 -31.265)"/>
        <path id="Trazado_912299" data-name="Trazado 912299" d="M196.219,65.779a3.733,3.733,0,0,1-.575-.043,2.949,2.949,0,0,1-2.022-1.213.3.3,0,0,1,.5-.334,2.381,2.381,0,0,0,1.616.956,4.09,4.09,0,0,0,2-.252,1.649,1.649,0,0,0,.693-.4,1.226,1.226,0,0,0,.193-1.051A4.483,4.483,0,0,0,198.2,62.4l-.084-.169a15.187,15.187,0,0,1-1.529-6.7.3.3,0,0,1,.3-.3h0a.3.3,0,0,1,.3.3,14.58,14.58,0,0,0,1.469,6.434l.082.167a5,5,0,0,1,.463,1.18,1.8,1.8,0,0,1-.327,1.568,2.17,2.17,0,0,1-.943.574,5.082,5.082,0,0,1-1.713.323" transform="translate(-78.745 -22.469)"/>
        <path id="Trazado_912300" data-name="Trazado 912300" d="M174.162,57.705a.3.3,0,0,1-.3-.26c-.124-.943-.17-1.444-.254-2.355a.3.3,0,1,1,.6-.055c.084.9.129,1.4.252,2.331a.3.3,0,0,1-.257.336l-.04,0" transform="translate(-70.625 -22.278)"/>
        <path id="Trazado_912301" data-name="Trazado 912301" d="M218.363,42.392a.1.1,0,0,1-.069-.028.1.1,0,0,1,0-.141,2.881,2.881,0,0,0,.654-2.861.1.1,0,1,1,.189-.063,3.082,3.082,0,0,1-.7,3.064.1.1,0,0,1-.071.03" transform="translate(-88.79 -15.959)"/>
        <path id="Trazado_912302" data-name="Trazado 912302" d="M166.918,39.352a.1.1,0,0,1-.066-.025,4.647,4.647,0,0,1-1.282-4.9.1.1,0,1,1,.189.066,4.443,4.443,0,0,0,1.226,4.688.1.1,0,0,1-.066.174" transform="translate(-67.256 -13.976)"/>
        <path id="Trazado_912303" data-name="Trazado 912303" d="M281.98,100.719c3.39-7.8,7.363-22.142,11.383-29.762a21.9,21.9,0,0,0,7.064-7.45c.62-1.175.717-1.686.062-2.707a2.041,2.041,0,0,0-2.363-.5c.479-.72,1.38-1.277.574-2.283a1.384,1.384,0,0,0-1.492-.572c.593-1.537-.988-2.852-2.308-1.532,1.174-1.8,2.243-3.415,3.415-5.065.725-1.021,1.479-2.267.873-2.873-.778-.778-1.957.282-3.364,1.962a75.771,75.771,0,0,1-5.71,6.334c-2.364,2.365-4.886,7.1-3.9,9.254-.79,3.276-12.751,22.266-16.673,26.188-1.432,1.432-.263,2.811.074,4.808.406,2.412,2.167,10.9,8.293,8.143a12.561,12.561,0,0,0,4.075-3.948" transform="translate(-109.366 -19.412)" fill="#fff"/>
        <path id="Trazado_912304" data-name="Trazado 912304" d="M275.416,105.306a4.142,4.142,0,0,1-1.977-.492c-2.776-1.481-3.9-5.927-4.327-8.446a11.246,11.246,0,0,0-.4-1.515c-.386-1.233-.75-2.4.406-3.554,3.991-3.991,15.632-22.636,16.569-25.953-.958-2.394,1.7-7.187,4.007-9.489a74.89,74.89,0,0,0,5.638-6.25l.053-.065c1.357-1.621,2.211-2.3,2.946-2.328a1.111,1.111,0,0,1,.86.346c.759.759,0,2.072-.841,3.257-.984,1.386-1.9,2.76-2.763,4.069a1.537,1.537,0,0,1,1.082.228,1.759,1.759,0,0,1,.733,1.768,1.849,1.849,0,0,1,1.323.744,1.432,1.432,0,0,1-.073,2.019,2.014,2.014,0,0,1,1.88.787c.723,1.125.622,1.738-.049,3.008a22.392,22.392,0,0,1-7.1,7.52c-2.329,4.439-4.626,11.086-6.847,17.515-1.583,4.583-3.079,8.912-4.49,12.157a12.646,12.646,0,0,1-4.227,4.1,5.871,5.871,0,0,1-2.407.572m22.971-57.494h-.026c-.691.03-1.765,1.221-2.513,2.114l-.054.064a75.16,75.16,0,0,1-5.673,6.289c-2.462,2.462-4.724,6.989-3.842,8.919a.3.3,0,0,1,.019.195c-.852,3.537-12.908,22.485-16.753,26.329-.9.9-.631,1.761-.258,2.952a11.911,11.911,0,0,1,.415,1.595c.406,2.41,1.469,6.656,4.019,8.017a4.225,4.225,0,0,0,3.856-.1,12.356,12.356,0,0,0,3.925-3.794h0c1.4-3.223,2.894-7.541,4.473-12.114,2.241-6.484,4.557-13.189,6.92-17.668a.3.3,0,0,1,.1-.113,21.747,21.747,0,0,0,6.96-7.337c.583-1.106.653-1.5.074-2.406a1.762,1.762,0,0,0-2.011-.377.3.3,0,0,1-.349-.447,5.73,5.73,0,0,1,.359-.467c.482-.581.693-.886.23-1.463a1.112,1.112,0,0,0-1.154-.479.3.3,0,0,1-.383-.388,1.235,1.235,0,0,0-.378-1.518,1.122,1.122,0,0,0-1.439.306.3.3,0,0,1-.463-.375c1.044-1.6,2.181-3.327,3.422-5.075.349-.491,1.409-1.984.905-2.488a.522.522,0,0,0-.384-.172" transform="translate(-109.162 -19.206)"/>
        <path id="Trazado_912305" data-name="Trazado 912305" d="M313.951,73.261a1.128,1.128,0,0,1-.727-.247,1.24,1.24,0,0,1-.346-1.277,2.76,2.76,0,0,1,.589-1.019,7.813,7.813,0,0,1,1.565-1.575c.2-.16.453-.359.8-.646a.3.3,0,0,1,.384.459c-.349.293-.6.495-.809.657A7.305,7.305,0,0,0,313.93,71.1a2.216,2.216,0,0,0-.473.792.561.561,0,0,0,.8.713,2.615,2.615,0,0,0,.732-.511l1.181-1.035a.3.3,0,1,1,.395.45l-1.181,1.035a3.113,3.113,0,0,1-.912.619,1.469,1.469,0,0,1-.523.1" transform="translate(-127.26 -27.837)"/>
        <path id="Trazado_912306" data-name="Trazado 912306" d="M310.385,70.273a1,1,0,0,1-.464-.107,1.334,1.334,0,0,1-.536-1.512c.193-.891,1.5-2.486,4.007-4.876l.084-.079a.3.3,0,1,1,.413.432l-.084.08c-2.965,2.831-3.722,4.048-3.836,4.57-.072.33-.018.729.224.852a1,1,0,0,0,.747-.1c.286-.115.572-.24.851-.371a.3.3,0,1,1,.254.542c-.289.136-.585.265-.882.384a2.138,2.138,0,0,1-.778.186" transform="translate(-125.841 -25.879)"/>
        <path id="Trazado_912307" data-name="Trazado 912307" d="M304.762,72.438A.3.3,0,0,1,304.5,72c.581-1.1.069-2.281-.343-3.229-.316-.725-.564-1.3-.206-1.68.441-.472,1.617-.606,2.783-.7.221-.018.471-.039.53-.056a1.288,1.288,0,0,0,.851-.63.4.4,0,0,0,.037-.278,1.971,1.971,0,0,0-.643-.712,16.575,16.575,0,0,0-3.711-.087c-.2.009-.374.017-.51.021a3.544,3.544,0,0,0-1.917.889.3.3,0,0,1-.372.2.3.3,0,0,1-.2-.369c.2-.682,1.9-1.3,2.472-1.319.133,0,.3-.012.5-.021a15.428,15.428,0,0,1,3.926.117,2.387,2.387,0,0,1,1,1.038.965.965,0,0,1-.038.763,1.855,1.855,0,0,1-1.215.957,3.71,3.71,0,0,1-.663.082,5.684,5.684,0,0,0-2.4.517c-.09.1.165.682.318,1.033.438,1.009,1.039,2.391.324,3.747a.3.3,0,0,1-.265.16" transform="translate(-122.359 -26.023)"/>
        <path id="Trazado_912308" data-name="Trazado 912308" d="M309.973,63.275a.3.3,0,0,1-.259-.45,10.458,10.458,0,0,1,1.131-1.342c.205-.222.4-.431.529-.584a.3.3,0,1,1,.456.387c-.138.163-.336.377-.546.6a10.6,10.6,0,0,0-1.052,1.236.3.3,0,0,1-.259.149" transform="translate(-125.976 -24.731)"/>
        <path id="Trazado_912309" data-name="Trazado 912309" d="M308.45,71.388a1.2,1.2,0,0,1-.941-.5,1.724,1.724,0,0,1,.132-2.02.3.3,0,1,1,.508.315,1.227,1.227,0,0,0-.157,1.353.555.555,0,0,0,.528.25.3.3,0,1,1,.143.581.889.889,0,0,1-.214.025" transform="translate(-124.991 -27.956)"/>
        <path id="Trazado_912310" data-name="Trazado 912310" d="M118.949,133.088c2.133-11.205,2.148-23.233,11.175-30.768,4.333-3.616,14.6-5.177,20.625-5.564.368,5.83,6.067,7.216,9.715,6.983,6.092-.391,7.176-1.589,8.724-6.214,1.367.545,9.6.958,14.939,5.731,9.919,8.861,22.909,7.483,23.616,8.191.984.984-1.436,9.583,7.309,13.633,3.68,1.7-18.37,5.209-33.555,1.19.569,7.947-4.08,29.956-5.728,38.88-15.84,11.046-46.622-.27-46.622-.27s2.49-7.333,2.49-12.863c0-2.743-9.594,2.933-10.867,3.159a1.886,1.886,0,0,1-1.553-.666c-1.071-2.505-2.229-11.113-.268-21.421" transform="translate(-47.957 -39.361)" fill="#8f61c2"/>
        <path id="Trazado_912311" data-name="Trazado 912311" d="M156.686,170.071a71.088,71.088,0,0,1-10.416-.823,99.468,99.468,0,0,1-17.43-4.292.3.3,0,0,1-.18-.377c.025-.072,2.475-7.35,2.475-12.767a.353.353,0,0,0-.154-.346c-.984-.618-5.375,1.506-7.734,2.647a16.7,16.7,0,0,1-2.629,1.153,2.137,2.137,0,0,1-1.88-.843c-1.227-2.869-2.166-11.717-.287-21.594.4-2.1.73-4.262,1.05-6.354,1.381-9.044,2.809-18.4,10.227-24.587,4.118-3.438,13.777-5.183,20.8-5.634a.3.3,0,0,1,.217.074.3.3,0,0,1,.1.206,6.376,6.376,0,0,0,3.472,5.521,11.443,11.443,0,0,0,5.925,1.181c5.982-.384,6.944-1.481,8.459-6.01a.3.3,0,0,1,.394-.183,12.93,12.93,0,0,0,1.721.369c3.169.57,9.068,1.631,13.307,5.418,7.65,6.834,17.239,7.524,21.334,7.818,1.564.112,2.07.158,2.295.383.326.327.359,1.016.414,2.157.141,2.953.4,8.449,6.809,11.417.642.3.619.674.547.872-.443,1.228-6.522,2.227-12.3,2.58-4.651.284-13.578.446-21.608-1.6.331,6.955-2.732,22.818-4.773,33.387-.387,2-.721,3.732-.984,5.154a.3.3,0,0,1-.123.191c-5.332,3.718-12.354,4.881-19.051,4.881m-27.368-5.58a99.981,99.981,0,0,0,17.051,4.167c8.734,1.307,20.825,1.686,28.924-3.888.259-1.4.586-3.091.962-5.038,1.95-10.1,5.215-27,4.74-33.644a.3.3,0,0,1,.375-.311c8.059,2.133,17.142,1.969,21.839,1.681,7.4-.453,11.47-1.619,11.742-2.165a.7.7,0,0,0-.228-.145c-6.735-3.119-7.009-8.851-7.156-11.931a5.069,5.069,0,0,0-.231-1.753,10.479,10.479,0,0,0-1.923-.219c-4.155-.3-13.887-1-21.689-7.969-4.112-3.674-9.9-4.715-13.014-5.275-.658-.118-1.179-.212-1.536-.306-1.552,4.54-2.847,5.751-8.894,6.139a12.051,12.051,0,0,1-6.249-1.253,6.992,6.992,0,0,1-3.76-5.71c-6.9.473-16.208,2.178-20.159,5.476-7.244,6.047-8.592,14.873-10.019,24.218-.32,2.1-.652,4.266-1.053,6.376l-.294-.056.294.056c-2.036,10.7-.682,19.07.249,21.247a1.719,1.719,0,0,0,1.225.49,20.008,20.008,0,0,0,2.473-1.1c3.856-1.865,7.143-3.35,8.312-2.615a.942.942,0,0,1,.434.853c0,4.906-1.962,11.277-2.415,12.68m78.026-53.024Z" transform="translate(-47.753 -39.156)"/>
        <path id="Trazado_912312" data-name="Trazado 912312" d="M213.6,198.481l-21.375.459-.028-3.63,23.791-.581Z" transform="translate(-78.188 -79.216)" fill="#fff"/>
        <path id="Trazado_912313" data-name="Trazado 912313" d="M192.024,199.034a.3.3,0,0,1-.3-.3l-.027-3.63a.3.3,0,0,1,.292-.3l23.791-.581a.311.311,0,0,1,.268.152.3.3,0,0,1-.008.308l-2.388,3.753a.3.3,0,0,1-.246.138l-21.375.459Zm.273-3.638.023,3.033,20.911-.448,2-3.145Zm21.1,2.88h0Z" transform="translate(-77.983 -79.011)"/>
        <path id="Trazado_912314" data-name="Trazado 912314" d="M287.823,145.172l-46.466.254-16.016,32.895,46.03-.116Z" transform="translate(-91.669 -59.056)" fill="#fff"/>
        <path id="Trazado_912315" data-name="Trazado 912315" d="M225.136,178.415a.3.3,0,0,1-.269-.43l16.015-32.894a.3.3,0,0,1,.267-.168l46.466-.255h0a.3.3,0,0,1,.268.432l-16.451,33.033a.3.3,0,0,1-.268.165l-46.03.116Zm16.2-32.9-15.724,32.3,45.365-.114,16.153-32.432Z" transform="translate(-91.464 -58.851)"/>
        <path id="Trazado_912316" data-name="Trazado 912316" d="M278.747,167.75c1.319-.129,2.76.223,3.3,1.435a3.271,3.271,0,0,1-.854,3.623,4.208,4.208,0,0,1-3.719.89,2.884,2.884,0,0,1-1.793-1.088,2.543,2.543,0,0,1-.4-1.412c-.011-1.632.733-3.18,3.468-3.448" transform="translate(-111.984 -68.231)" fill="#fff"/>
        <path id="Trazado_912317" data-name="Trazado 912317" d="M278.255,173.9a4.8,4.8,0,0,1-1.055-.117,3.189,3.189,0,0,1-1.975-1.212,2.835,2.835,0,0,1-.452-1.578c-.01-1.541.63-3.442,3.738-3.747,1.73-.17,3.078.432,3.6,1.611a3.574,3.574,0,0,1-.925,3.966,4.359,4.359,0,0,1-2.932,1.078m.784-6.081c-.2,0-.358.012-.469.023-2.164.212-3.211,1.242-3.2,3.148a2.272,2.272,0,0,0,.349,1.247,2.588,2.588,0,0,0,1.611.964,3.9,3.9,0,0,0,3.452-.819,2.961,2.961,0,0,0,.782-3.281,2.609,2.609,0,0,0-2.526-1.281m-.5-.275h0Z" transform="translate(-111.779 -68.024)"/>
        <path id="Trazado_912318" data-name="Trazado 912318" d="M131.4,170.77c8.585-.478,17.222-1.07,25.859-1.664.774-.128,4.616-.677,5.564-.816a8.509,8.509,0,0,0,2.308-.755c2.569-1.186,8.081-3.513,9.31-2.825a15.193,15.193,0,0,1,7.41,5.469c1.127,1.454,2.051,3.862,1.584,4.276a.821.821,0,0,1-1.073.1,13.555,13.555,0,0,0-6.59-6.533,19.177,19.177,0,0,1,3.7,2.724,7.233,7.233,0,0,1,2.43,3.886.517.517,0,0,1-.03.354c-.154.254-.546.106-.781-.077-.459-.359-6.364-5.156-7.468-5.029,1.468.554,6.7,4.8,6.72,5.252a.9.9,0,0,1-.167.611.856.856,0,0,1-.806.255,2.318,2.318,0,0,1-.807-.352,39.254,39.254,0,0,0-5.059-3.071,3.018,3.018,0,0,0-2.834-.034,13.7,13.7,0,0,1,4.426,2.687,2.6,2.6,0,0,1,.51.65c.2.359.427.879.148,1.175-.456.485-.84.241-1.231.012a26.793,26.793,0,0,0-4.838-2.55,1.809,1.809,0,0,0-1.609-.087,12.965,12.965,0,0,1-6.429,1.695,20.921,20.921,0,0,0-4.443.908c-22.763,6.272-29.563,8.776-35.076,6.4-1.08-.464-1.444-1.031-1.084-2.884.961-4.948,1.9-7.761,10.356-9.779" transform="translate(-49.188 -66.953)" fill="#fff"/>
        <path id="Trazado_912319" data-name="Trazado 912319" d="M126.545,184.425a11.57,11.57,0,0,1-4.738-.917c-1.316-.566-1.622-1.347-1.259-3.216.974-5.014,1.945-7.952,10.58-10.013a.32.32,0,0,1,.053-.008c8.68-.483,17.4-1.083,25.841-1.662.59-.1,2.8-.416,4.27-.629l1.285-.187a8.336,8.336,0,0,0,2.226-.73c2.389-1.1,8.075-3.573,9.549-2.832a15.345,15.345,0,0,1,7.533,5.564c.954,1.231,2.3,4.014,1.546,4.683a1.118,1.118,0,0,1-1.417.141.632.632,0,0,1-.09.319.572.572,0,0,1-.392.269,1.137,1.137,0,0,1-.829-.265l-.2-.162-.206-.164a.643.643,0,0,1,.145.3,1.183,1.183,0,0,1-.233.813,1.146,1.146,0,0,1-1.087.362,2.6,2.6,0,0,1-.914-.391c-.569-.345-1.128-.724-1.668-1.09a19.519,19.519,0,0,0-3.351-1.961,3.561,3.561,0,0,0-1.939-.316,13.7,13.7,0,0,1,3.849,2.473,2.9,2.9,0,0,1,.569.724c.142.254.574,1.027.1,1.526a1.111,1.111,0,0,1-1.572.082l-.028-.016a26.406,26.406,0,0,0-4.8-2.531,1.59,1.59,0,0,0-1.338-.113,13.552,13.552,0,0,1-6.574,1.741,20.933,20.933,0,0,0-4.379.9c-3.032.836-5.822,1.616-8.283,2.3-11.683,3.267-17.894,5-22.253,5m4.7-13.557c-8.27,1.979-9.153,4.633-10.105,9.539-.349,1.8.027,2.173.908,2.553,4.682,2.013,10.2.469,26.593-4.114,2.462-.688,5.252-1.468,8.285-2.3a21.314,21.314,0,0,1,4.507-.918,12.955,12.955,0,0,0,6.283-1.648,2.074,2.074,0,0,1,1.882.061,26.9,26.9,0,0,1,4.892,2.578l.015.008c.41.241.566.309.833.024.051-.054.134-.243-.191-.825a2.3,2.3,0,0,0-.451-.575,13.346,13.346,0,0,0-4.33-2.628.3.3,0,0,1-.065-.526,3.309,3.309,0,0,1,3.119,0,19.9,19.9,0,0,1,3.457,2.017c.534.362,1.087.737,1.643,1.074a2.064,2.064,0,0,0,.7.312.474.474,0,0,0,.626-.514,32.044,32.044,0,0,0-6.528-5.028.3.3,0,0,1,.071-.577c.283-.031,1.142-.132,7.489,4.932l.2.158a.571.571,0,0,0,.355.148c-.009,0-.005-.029-.024-.139a6.773,6.773,0,0,0-2.34-3.718,18.872,18.872,0,0,0-3.643-2.681.3.3,0,0,1,.271-.533,13.927,13.927,0,0,1,6.7,6.609.561.561,0,0,0,.636-.126c.2-.289-.45-2.356-1.622-3.868a14.942,14.942,0,0,0-7.257-5.366.3.3,0,0,1-.062-.026c-.782-.437-4.415.7-9.039,2.836a8.88,8.88,0,0,1-2.389.779l-1.285.186c-1.478.214-3.712.537-4.273.629l-.028,0c-8.435.58-17.158,1.179-25.837,1.663" transform="translate(-48.982 -66.755)"/>
        <path id="Trazado_912320" data-name="Trazado 912320" d="M147.027,154.5a.3.3,0,0,1-.284-.393c3.214-9.733,5.033-15.888,5.033-29.221a.3.3,0,1,1,.6,0c0,13.425-1.829,19.618-5.062,29.41a.3.3,0,0,1-.284.205" transform="translate(-59.689 -50.681)"/>
        <path id="Trazado_912321" data-name="Trazado 912321" d="M224.912,139.921a.3.3,0,0,1-.258-.451c.037-.172.047-.881.062-1.932.021-1.472.057-3.934.2-7.674a.3.3,0,0,1,.31-.288.3.3,0,0,1,.288.31c-.138,3.734-.174,6.191-.2,7.66-.028,1.983-.031,2.145-.2,2.3a.3.3,0,0,1-.2.077m-.2-.523h0" transform="translate(-91.373 -52.712)"/>
        <path id="Trazado_912322" data-name="Trazado 912322" d="M183.243,136.252a146.3,146.3,0,0,1-19.02-1.362.1.1,0,0,1,.027-.2c10.142,1.42,27.412,2.421,33.424-.639a.1.1,0,0,1,.091.178c-2.914,1.483-8.441,2.021-14.522,2.021" transform="translate(-66.771 -54.529)" fill="#fff"/>
        <path id="Trazado_912323" data-name="Trazado 912323" d="M176.13,150.219a67.155,67.155,0,0,1-13.444-1.3.1.1,0,0,1,.04-.2c13,2.66,25.855.744,34.346-1.331a.1.1,0,1,1,.047.193,89.648,89.648,0,0,1-20.99,2.638" transform="translate(-66.149 -59.957)" fill="#fff"/>
        <path id="Trazado_912324" data-name="Trazado 912324" d="M118.411,175.169a.1.1,0,0,1-.076-.164,17.885,17.885,0,0,1,16.347-5.944.1.1,0,0,1-.033.2,17.682,17.682,0,0,0-16.162,5.877.1.1,0,0,1-.076.035" transform="translate(-48.129 -68.678)" fill="#fff"/>
        <path id="Trazado_912325" data-name="Trazado 912325" d="M119.607,169.977a.1.1,0,0,1-.037-.192,5.64,5.64,0,0,0,1.581-1.119c.175-.156.355-.317.539-.467a8.09,8.09,0,0,1,3.943-1.746.1.1,0,0,1,.113.084.1.1,0,0,1-.084.113,7.888,7.888,0,0,0-3.846,1.7c-.18.148-.359.307-.532.462a5.8,5.8,0,0,1-1.639,1.156.1.1,0,0,1-.037.007" transform="translate(-48.616 -67.713)" fill="#fff"/>
        <path id="Trazado_912326" data-name="Trazado 912326" d="M265.989,130.488a.1.1,0,0,1-.093-.062,19.487,19.487,0,0,1-1.433-7.842.1.1,0,0,1,.1-.1.1.1,0,0,1,.1.1,19.271,19.271,0,0,0,1.418,7.761.1.1,0,0,1-.055.13.1.1,0,0,1-.038.008" transform="translate(-107.582 -49.828)" fill="#fff"/>
        <path id="Trazado_912327" data-name="Trazado 912327" d="M260.682,125.575a.1.1,0,0,1-.1-.078,9.085,9.085,0,0,1-.181-2.92.1.1,0,1,1,.2.02,8.892,8.892,0,0,0,.177,2.856.1.1,0,0,1-.075.119.092.092,0,0,1-.022,0" transform="translate(-105.915 -49.828)" fill="#fff"/>
        <path id="Trazado_912328" data-name="Trazado 912328" d="M145.676,158.756a.305.305,0,0,1-.079-.011.3.3,0,0,1-.21-.367,143.421,143.421,0,0,0,4.421-24.485.3.3,0,1,1,.6.055,144.086,144.086,0,0,1-4.44,24.587.3.3,0,0,1-.288.221" transform="translate(-59.139 -54.357)" fill="#fff"/>
        <path id="Trazado_912329" data-name="Trazado 912329" d="M225.918,142.87a.3.3,0,0,1-.3-.295l-.139-9.141a.3.3,0,0,1,.6-.009l.139,9.141a.3.3,0,0,1-.294.3Z" transform="translate(-91.725 -54.158)" fill="#fff"/>
        <path id="Trazado_912330" data-name="Trazado 912330" d="M541.48,287.355a.3.3,0,0,1-.239-.479c1.734-2.311,3.816-4.782,6.586-4.854a9.678,9.678,0,0,1,2.706.452c1.375.363,2.672.706,3.786.033a5.64,5.64,0,0,0,1.79-2.341,8.616,8.616,0,0,1,1.408-2.124c1.241-1.237,2.931-1.426,4.566-1.61a13.366,13.366,0,0,0,2.611-.468,7.15,7.15,0,0,0,4.563-6.7,15.571,15.571,0,0,0-.675-3.854,12.5,12.5,0,0,1-.517-6.226v-.007a27.1,27.1,0,0,1-2.877-1.408,11.454,11.454,0,0,1-4.565-3.854c-1.052-1.778-1.166-4.581.486-6.007a.3.3,0,0,1,.237-.07c4.165.574,7.594,4.9,7.488,9.451-.012.5-.062,1.01-.12,1.5,3.219,1.251,6.723,1.663,9.116-.734a12.333,12.333,0,0,0,1.857-2.7c.305-.539.622-1.1.975-1.615,1.27-1.876,2.929-2.818,4.439-2.52a.3.3,0,0,1-.116.587c-1.876-.372-3.4,1.642-3.827,2.268-.339.5-.649,1.048-.95,1.576a12.971,12.971,0,0,1-1.954,2.824c-2.573,2.578-6.248,2.2-9.615.923a15.159,15.159,0,0,0-.154,2.122,16.117,16.117,0,0,0,.674,3.731,16,16,0,0,1,.694,4,7.769,7.769,0,0,1-4.976,7.27,13.8,13.8,0,0,1-2.729.493c-1.6.18-3.117.351-4.21,1.439a8.211,8.211,0,0,0-1.3,1.981,6.145,6.145,0,0,1-2.008,2.573c-1.331.8-2.814.413-4.248.034a9.454,9.454,0,0,0-2.538-.432c-2.5.066-4.473,2.417-6.124,4.615a.3.3,0,0,1-.239.12m19.923-38.9c-1.27,1.218-1.174,3.621-.263,5.159a10.957,10.957,0,0,0,4.343,3.637,26.824,26.824,0,0,0,2.657,1.313c.048-.428.088-.86.1-1.285.1-4.209-3.018-8.214-6.834-8.824" transform="translate(-220.154 -100.82)"/>
        <path id="Trazado_912331" data-name="Trazado 912331" d="M353.344,104.993a.3.3,0,0,1-.243-.123,37.88,37.88,0,0,0-9.661-9.293.3.3,0,0,1,.333-.5,38.5,38.5,0,0,1,9.813,9.439.3.3,0,0,1-.242.475" transform="translate(-139.659 -38.658)"/>
        <path id="Trazado_912332" data-name="Trazado 912332" d="M347.459,115.421a.3.3,0,0,1-.13-.03,49.733,49.733,0,0,0-7.212-2.819.3.3,0,0,1,.174-.573,50.367,50.367,0,0,1,7.3,2.853.3.3,0,0,1-.13.569" transform="translate(-138.274 -45.556)"/>
        <path id="Trazado_912333" data-name="Trazado 912333" d="M142.751,12.886a.3.3,0,0,1-.233-.112c-1.956-2.427-3.829-4.969-5.565-7.558a.3.3,0,1,1,.5-.333c1.726,2.574,3.589,5.1,5.534,7.516a.3.3,0,0,1-.233.487" transform="translate(-55.692 -1.932)"/>
        <path id="Trazado_912334" data-name="Trazado 912334" d="M154.62,8.411a.3.3,0,0,1-.295-.25l-1.1-6.525a.3.3,0,1,1,.59-.1l1.1,6.525a.3.3,0,0,1-.246.345.282.282,0,0,1-.05,0" transform="translate(-62.332 -0.524)"/>
        <path id="Trazado_912335" data-name="Trazado 912335" d="M132.071,23.92a.3.3,0,0,1-.195-.072,18.955,18.955,0,0,0-9.3-4.308.3.3,0,0,1,.1-.591,19.559,19.559,0,0,1,9.59,4.444.3.3,0,0,1-.195.527" transform="translate(-49.764 -7.707)"/>
        <path id="Trazado_912336" data-name="Trazado 912336" d="M159.506,275.95a12.485,12.485,0,0,1-3.522-.5.3.3,0,0,1,.169-.574,13.224,13.224,0,0,0,15.31-7.02c.317-.7.577-1.446.829-2.166a20.722,20.722,0,0,1,1.15-2.833,10.755,10.755,0,0,1,7.469-5.387,8.284,8.284,0,0,1-.544-1.585,11.44,11.44,0,0,1,1.68-8.375,33.611,33.611,0,0,1,5.594-6.5.3.3,0,0,1,.419.428,33.153,33.153,0,0,0-5.5,6.384,10.857,10.857,0,0,0-1.611,7.932,7.8,7.8,0,0,0,.575,1.621,10.063,10.063,0,0,1,4.19.3A4,4,0,0,1,188,259.112a2,2,0,0,1-.289,2.7,2.562,2.562,0,0,1-2.558-.048,8.8,8.8,0,0,1-3.96-3.741,10.155,10.155,0,0,0-7.217,5.112,20.287,20.287,0,0,0-1.115,2.752c-.256.733-.521,1.491-.849,2.216a13.921,13.921,0,0,1-12.5,7.846m22.32-18.015a8.176,8.176,0,0,0,3.576,3.288,2.086,2.086,0,0,0,1.956.107,1.433,1.433,0,0,0,.148-1.879,3.4,3.4,0,0,0-1.959-1.2,9.456,9.456,0,0,0-3.72-.316" transform="translate(-63.367 -98.008)"/>
        <path id="Trazado_912337" data-name="Trazado 912337" d="M189.021,247.666a.3.3,0,0,1-.3-.287,13.492,13.492,0,0,1,3.407-9.5.3.3,0,1,1,.445.4,12.893,12.893,0,0,0-3.254,9.073.3.3,0,0,1-.287.312h-.012" transform="translate(-76.768 -96.73)"/>
        <path id="Trazado_912338" data-name="Trazado 912338" d="M72.363,290.167s-8.5.123-10.6-.085c-.271,2.62.033,4.342,1.43,6.085a5.237,5.237,0,0,0,4.439,1.906c5.386.043,4.732-7.906,4.732-7.906" transform="translate(-25.088 -118.006)" fill="#8f61c2"/>
        <path id="Trazado_912339" data-name="Trazado 912339" d="M67.469,298.167h-.046a5.51,5.51,0,0,1-4.67-2.018c-1.386-1.729-1.79-3.437-1.494-6.3a.3.3,0,0,1,.327-.267c2.055.2,10.482.085,10.567.084a.293.293,0,0,1,.3.275c.015.187.352,4.6-1.779,6.9a4.194,4.194,0,0,1-3.207,1.334M61.826,290.2c-.222,2.513.167,4.044,1.393,5.575a4.9,4.9,0,0,0,4.208,1.794h.04a3.619,3.619,0,0,0,2.768-1.142c1.662-1.789,1.672-5.172,1.637-6.162-1.456.019-7.812.091-10.047-.065" transform="translate(-24.883 -117.801)"/>
        <path id="Trazado_912340" data-name="Trazado 912340" d="M109.093,265.1a11.781,11.781,0,0,1-3.592,7.856c-1.578,1.5-3.269,1.81-6.076,1.788-8.84-.071-22.541-.381-28.975-.432,2.605-.114,5.424-.316,5.482-7.6.107-13.343.2-35.037.2-35.037l33.229.266s-.123,30.449-.265,33.16" transform="translate(-28.659 -94.244)" fill="#fff"/>
        <path id="Trazado_912341" data-name="Trazado 912341" d="M99.492,274.836h-.276c-4.771-.038-11.083-.148-16.652-.245-4.815-.084-9.362-.163-12.324-.187a.3.3,0,0,1-.011-.6c2.526-.111,5.139-.225,5.2-7.3.106-13.19.2-34.819.2-35.037a.3.3,0,0,1,.3-.3h0l33.229.266a.3.3,0,0,1,.3.3c0,.3-.125,30.487-.266,33.174a12.085,12.085,0,0,1-3.685,8.058c-1.627,1.547-3.385,1.871-6.008,1.871m-26.243-1c2.668.037,5.93.094,9.325.152,5.568.1,11.878.207,16.646.246,2.679.021,4.323-.237,5.868-1.705a11.482,11.482,0,0,0,3.5-7.655l.3.015-.3-.015c.133-2.529.251-29.683.264-32.847l-32.631-.262c-.011,2.668-.1,22.4-.2,34.739-.038,4.711-1.253,6.571-2.775,7.333" transform="translate(-28.453 -94.039)"/>
        <path id="Trazado_912342" data-name="Trazado 912342" d="M96.4,242.348h0L90,242.3a.1.1,0,0,1,0-.2l6.4.052a.1.1,0,0,1,0,.2" transform="translate(-36.571 -98.486)"/>
        <path id="Trazado_912343" data-name="Trazado 912343" d="M99.009,245.748h0l-9.037-.072a.1.1,0,0,1,0-.2h0l9.037.072a.1.1,0,0,1,0,.2" transform="translate(-36.56 -99.86)"/>
        <path id="Trazado_912344" data-name="Trazado 912344" d="M115.676,260.83h0l-16.956-.136a.1.1,0,0,1,0-.2h0l16.955.136a.1.1,0,0,1,.1.1.1.1,0,0,1-.1.1" transform="translate(-40.119 -105.97)"/>
        <path id="Trazado_912345" data-name="Trazado 912345" d="M115.588,271.874h0l-16.956-.136a.1.1,0,0,1,0-.2h0l16.955.136a.1.1,0,0,1,.1.1.1.1,0,0,1-.1.1" transform="translate(-40.083 -110.463)"/>
        <path id="Trazado_912346" data-name="Trazado 912346" d="M115.5,282.919h0l-16.956-.136a.1.1,0,0,1,0-.2h0l16.955.136a.1.1,0,0,1,0,.2" transform="translate(-40.048 -114.956)"/>
        <path id="Trazado_912347" data-name="Trazado 912347" d="M89.606,260.046a.8.8,0,1,1,.791.8.8.8,0,0,1-.791-.8" transform="translate(-36.452 -105.466)"/>
        <path id="Trazado_912348" data-name="Trazado 912348" d="M90.2,260.945h-.009a1.1,1.1,0,0,1,.008-2.195h.009a1.1,1.1,0,0,1-.008,2.195m-.5-1.1a.5.5,0,0,0,.495.5h0a.5.5,0,0,0,0-1h0a.5.5,0,0,0-.5.495" transform="translate(-36.247 -105.26)"/>
        <path id="Trazado_912349" data-name="Trazado 912349" d="M89.517,271.091a.8.8,0,1,1,.791.8.8.8,0,0,1-.791-.8" transform="translate(-36.416 -109.959)"/>
        <path id="Trazado_912350" data-name="Trazado 912350" d="M90.11,271.989H90.1a1.1,1.1,0,0,1,.009-2.194h.009a1.1,1.1,0,0,1-.008,2.194m0-1.6a.5.5,0,0,0,0,1,.5.5,0,0,0,.5-.495.5.5,0,0,0-.495-.5Zm-.8.492h0Z" transform="translate(-36.211 -109.753)"/>
        <path id="Trazado_912351" data-name="Trazado 912351" d="M89.43,281.976a.8.8,0,1,1,.791.8.8.8,0,0,1-.791-.8" transform="translate(-36.38 -114.387)"/>
        <path id="Trazado_912352" data-name="Trazado 912352" d="M90.023,282.874h-.009a1.1,1.1,0,0,1,.009-2.194h.009a1.1,1.1,0,0,1,1.089,1.106,1.1,1.1,0,0,1-1.1,1.089m0-1.6a.5.5,0,0,0,0,1h0a.5.5,0,0,0,.5-.5.5.5,0,0,0-.495-.5Z" transform="translate(-36.175 -114.181)"/>
        <path id="Trazado_912353" data-name="Trazado 912353" d="M25.2,232.486a2.856,2.856,0,0,1-2.751-2.232l-5.779-23.9a3.461,3.461,0,0,1,.443-2.677,3.2,3.2,0,0,1,2.105-1.433l5.589-1.072a3.209,3.209,0,0,1,2.462.535,3.463,3.463,0,0,1,1.418,2.279L32.462,227.4a.3.3,0,1,1-.591.095L28.1,204.08a2.823,2.823,0,0,0-1.17-1.883,2.612,2.612,0,0,0-2.006-.438l-5.589,1.073A2.614,2.614,0,0,0,17.62,204a2.863,2.863,0,0,0-.365,2.213l5.779,23.9a2.241,2.241,0,0,0,2.631,1.724l2.259-.488a2.275,2.275,0,0,0,1.691-2.671l-3.668-19.118a2.589,2.589,0,0,0-1.049-1.639,2.383,2.383,0,0,0-3.406.666,2.614,2.614,0,0,0-.331,2.026l3.91,16.043a.3.3,0,0,1-.581.142l-3.91-16.043a3.217,3.217,0,0,1,.409-2.491,2.982,2.982,0,0,1,4.254-.832,3.182,3.182,0,0,1,1.292,2.016L30.2,228.567a2.877,2.877,0,0,1-2.152,3.368l-2.259.488a2.771,2.771,0,0,1-.588.063" transform="translate(-6.743 -81.814)"/>
        <path id="Trazado_912354" data-name="Trazado 912354" d="M79.188,55.534c-2.078-1.71-4.641-2.123-6.6-.233s-2.221,5.881-.262,7.771c2.131,2.055,7.194,2.027,9.962,1.979,5.327-.093,10.745.164,16.072.164,9.983,0,8.9-8.575,6.237-10.4a3.4,3.4,0,0,0-4.228.343c.5-3.61-1.718-7.445-4.785-8.275s-6.513,1.475-7.438,4.97a4.584,4.584,0,0,0-5.5-1.307,6.959,6.959,0,0,0-3.458,4.99" transform="translate(-28.875 -19.002)" fill="#fff"/>
        <path id="Trazado_912355" data-name="Trazado 912355" d="M98.155,65.309c-2.258,0-4.571-.047-6.808-.092-3.045-.062-6.194-.125-9.259-.072-2.563.045-7.895.136-10.175-2.063a5.268,5.268,0,0,1-1.436-3.807,6.171,6.171,0,0,1,1.7-4.395c1.813-1.749,4.317-1.764,6.622-.075a7.068,7.068,0,0,1,3.512-4.735,4.813,4.813,0,0,1,5.5.987,7.413,7.413,0,0,1,3.266-4.005,5.748,5.748,0,0,1,4.384-.666c3.04.822,5.245,4.348,5.068,7.913a3.713,3.713,0,0,1,4.036.061c1.462,1,2.488,3.821,1.684,6.415-.525,1.693-2.274,4.534-8.091,4.534m-13.642-.782c2.29,0,4.6.046,6.847.092,2.233.045,4.543.092,6.8.092,5.433,0,7.043-2.577,7.519-4.113.715-2.308-.19-4.88-1.451-5.745a3.122,3.122,0,0,0-3.856.316.3.3,0,0,1-.5-.26c.476-3.446-1.657-7.158-4.566-7.944a5.153,5.153,0,0,0-3.929.606,6.825,6.825,0,0,0-3.142,4.151.3.3,0,0,1-.52.115,4.31,4.31,0,0,0-5.139-1.23,6.638,6.638,0,0,0-3.3,4.782.3.3,0,0,1-.483.171c-2.184-1.8-4.5-1.889-6.2-.249a5.567,5.567,0,0,0-1.515,3.964,4.674,4.674,0,0,0,1.253,3.376c2.1,2.028,7.461,1.935,9.749,1.9.807-.014,1.621-.02,2.435-.02" transform="translate(-28.67 -18.797)"/>
        <rect id="Rectángulo_403112" data-name="Rectángulo 403112" width="3.916" height="3.916" transform="translate(251.485 12.529) rotate(-45)"/>
        <path id="Trazado_912356" data-name="Trazado 912356" d="M426.512,22.085A.3.3,0,0,1,426.3,22l-2.769-2.768a.3.3,0,0,1,0-.424l2.769-2.768a.3.3,0,0,1,.423,0l2.769,2.768a.3.3,0,0,1,0,.424L426.723,22a.3.3,0,0,1-.211.088m-2.346-3.068,2.346,2.346,2.346-2.346-2.346-2.345Z" transform="translate(-172.258 -6.488)"/>
        <rect id="Rectángulo_403113" data-name="Rectángulo 403113" width="3.916" height="3.916" transform="translate(201.18 111.622) rotate(-45)"/>
        <path id="Trazado_912357" data-name="Trazado 912357" d="M341.708,189.137a.3.3,0,0,1-.211-.088l-2.769-2.768a.3.3,0,0,1,0-.424l2.769-2.768a.307.307,0,0,1,.423,0l2.769,2.768a.3.3,0,0,1,0,.424l-2.769,2.768a.3.3,0,0,1-.212.088m-2.345-3.068,2.345,2.346,2.346-2.346-2.346-2.346Z" transform="translate(-137.76 -74.447)"/>
        <rect id="Rectángulo_403114" data-name="Rectángulo 403114" width="3.916" height="3.916" transform="translate(43.247 120.798) rotate(-45)"/>
        <path id="Trazado_912358" data-name="Trazado 912358" d="M75.467,204.605a.3.3,0,0,1-.211-.088l-2.769-2.768a.3.3,0,0,1,0-.424l2.769-2.769a.308.308,0,0,1,.423,0l2.769,2.769a.3.3,0,0,1,0,.424l-2.769,2.768a.3.3,0,0,1-.212.088m-2.346-3.068,2.346,2.346,2.346-2.346-2.346-2.346Z" transform="translate(-29.452 -80.739)"/>
        <path id="Trazado_912359" data-name="Trazado 912359" d="M581.373,222.894a.8.8,0,1,1,.8.8.8.8,0,0,1-.8-.8" transform="translate(-236.504 -90.349)"/>
        <path id="Trazado_912360" data-name="Trazado 912360" d="M581.965,223.785a1.1,1.1,0,1,1,1.1-1.1,1.1,1.1,0,0,1-1.1,1.1m0-1.6a.5.5,0,1,0,.5.5.5.5,0,0,0-.5-.5" transform="translate(-236.299 -90.144)"/>
        <path id="Trazado_912361" data-name="Trazado 912361" d="M609.333,222.894a.8.8,0,1,1,.8.8.8.8,0,0,1-.8-.8" transform="translate(-247.878 -90.349)"/>
        <path id="Trazado_912362" data-name="Trazado 912362" d="M609.925,223.785a1.1,1.1,0,1,1,1.1-1.1,1.1,1.1,0,0,1-1.1,1.1m0-1.6a.5.5,0,1,0,.5.5.5.5,0,0,0-.5-.5" transform="translate(-247.673 -90.144)"/>
        <path id="Trazado_912363" data-name="Trazado 912363" d="M595.353,222.894a.8.8,0,1,1,.8.8.8.8,0,0,1-.8-.8" transform="translate(-242.191 -90.349)"/>
        <path id="Trazado_912364" data-name="Trazado 912364" d="M595.945,223.785a1.1,1.1,0,1,1,1.1-1.1,1.1,1.1,0,0,1-1.1,1.1m0-1.6a.5.5,0,1,0,.5.5.5.5,0,0,0-.5-.5" transform="translate(-241.986 -90.144)"/>
        <path id="Trazado_912365" data-name="Trazado 912365" d="M261.345,29.248a.8.8,0,1,1,.8.8.8.8,0,0,1-.8-.8" transform="translate(-106.316 -11.574)"/>
        <path id="Trazado_912366" data-name="Trazado 912366" d="M261.938,30.14a1.1,1.1,0,1,1,1.1-1.1,1.1,1.1,0,0,1-1.1,1.1m0-1.6a.5.5,0,1,0,.5.5.5.5,0,0,0-.5-.5" transform="translate(-106.111 -11.369)"/>
        <path id="Trazado_912367" data-name="Trazado 912367" d="M289.3,29.248a.8.8,0,1,1,.8.8.8.8,0,0,1-.8-.8" transform="translate(-117.69 -11.574)"/>
        <path id="Trazado_912368" data-name="Trazado 912368" d="M289.9,30.14a1.1,1.1,0,1,1,1.1-1.1,1.1,1.1,0,0,1-1.1,1.1m0-1.6a.5.5,0,1,0,.5.5.5.5,0,0,0-.5-.5" transform="translate(-117.485 -11.369)"/>
        <path id="Trazado_912369" data-name="Trazado 912369" d="M275.325,29.248a.8.8,0,1,1,.8.8.8.8,0,0,1-.8-.8" transform="translate(-112.003 -11.574)"/>
        <path id="Trazado_912370" data-name="Trazado 912370" d="M275.917,30.14a1.1,1.1,0,1,1,1.1-1.1,1.1,1.1,0,0,1-1.1,1.1m0-1.6a.5.5,0,1,0,.5.5.5.5,0,0,0-.5-.5" transform="translate(-111.798 -11.369)"/>
        <rect id="Rectángulo_403115" data-name="Rectángulo 403115" width="6.046" height="6.046" transform="translate(265.449 179.635)" fill="#8f61c2"/>
        <path id="Trazado_912371" data-name="Trazado 912371" d="M453.33,308.965h-6.046a.3.3,0,0,1-.3-.3V302.62a.3.3,0,0,1,.3-.3h6.046a.3.3,0,0,1,.3.3v6.046a.3.3,0,0,1-.3.3m-5.747-.6h5.447V302.92h-5.447Z" transform="translate(-181.835 -122.985)"/>
        <path id="Trazado_912372" data-name="Trazado 912372" d="M411.594,271.622l12.2-22.893,4.9,2.614-12.2,22.893-4.368,2.077Z" transform="translate(-167.438 -101.184)" fill="#fff"/>
        <path id="Trazado_912373" data-name="Trazado 912373" d="M411.918,276.408a.3.3,0,0,1-.3-.266l-.529-4.692a.3.3,0,0,1,.033-.174l12.2-22.893a.3.3,0,0,1,.177-.145.3.3,0,0,1,.228.023l4.9,2.614a.3.3,0,0,1,.123.4l-12.2,22.893a.3.3,0,0,1-.136.13l-4.368,2.077a.293.293,0,0,1-.128.029m-.221-4.932.472,4.183,3.9-1.855,12.014-22.542-4.369-2.333Z" transform="translate(-167.233 -100.979)"/>
        <path id="Trazado_912374" data-name="Trazado 912374" d="M416.209,289.75a.3.3,0,0,1-.141-.035l-4.746-2.534a.3.3,0,1,1,.282-.528l4.746,2.534a.3.3,0,0,1-.141.563" transform="translate(-167.263 -116.597)"/>
        <path id="Trazado_912375" data-name="Trazado 912375" d="M411.192,296.5a.3.3,0,0,1-.264-.44l.677-1.271a.3.3,0,0,1,.528.281l-.677,1.271a.3.3,0,0,1-.265.158" transform="translate(-167.152 -119.856)"/>
        <rect id="Rectángulo_403116" data-name="Rectángulo 403116" width="4.886" height="3.989" transform="translate(257.008 148.029) rotate(-61.945)"/>
        <path id="Trazado_912376" data-name="Trazado 912376" d="M580.595,123.377a.3.3,0,0,1-.3-.293l-.882-42.749a.3.3,0,0,1,.293-.305l35.119-.684a.286.286,0,0,1,.213.084.3.3,0,0,1,.092.21l.225,11.571a.3.3,0,1,1-.6.011l-.219-11.272-34.52.672.87,42.15,34.47-.7-.133-6.841a.3.3,0,0,1,.293-.306.3.3,0,0,1,.305.294l.139,7.14a.3.3,0,0,1-.293.306l-35.069.71Z" transform="translate(-235.707 -32.278)"/>
        <path id="Trazado_912377" data-name="Trazado 912377" d="M617.3,90.85a.1.1,0,0,1,0-.2l6.4-.125a.1.1,0,0,1,0,.2l-6.4.125Z" transform="translate(-251.077 -36.826)"/>
        <path id="Trazado_912378" data-name="Trazado 912378" d="M612.921,94.278a.1.1,0,0,1,0-.2l9.035-.176a.1.1,0,0,1,.1.1.1.1,0,0,1-.1.1l-9.035.176Z" transform="translate(-249.297 -38.2)"/>
        <path id="Trazado_912379" data-name="Trazado 912379" d="M591,109.514a.1.1,0,0,1,0-.2l19.7-.384a.1.1,0,0,1,.1.1.1.1,0,0,1-.1.1l-19.7.383Z" transform="translate(-240.379 -44.313)"/>
        <path id="Trazado_912380" data-name="Trazado 912380" d="M591.381,120.482a.1.1,0,0,1,0-.2l16.554-.323a.1.1,0,0,1,.1.1.1.1,0,0,1-.1.1l-16.554.322Z" transform="translate(-240.535 -48.8)"/>
        <path id="Trazado_912381" data-name="Trazado 912381" d="M591.428,131.627a.1.1,0,0,1,0-.2l17.695-.345a.1.1,0,0,1,.1.1.1.1,0,0,1-.1.1l-17.7.345Z" transform="translate(-240.554 -53.325)"/>
        <path id="Trazado_912382" data-name="Trazado 912382" d="M641.358,115.374c-.776-.574-1.349-.593-1.99-1.036-.072-.743-.293-2.014-.4-2.761.7-.647,1.068-.807,1.676-1.352a.584.584,0,0,0-.133-.3c-.159-.234-.318-.469-.483-.7a14.212,14.212,0,0,0-2.09-2.313c-.689.654-1.258,1.291-1.825,1.928a10.009,10.009,0,0,0-2.7-.581,20.2,20.2,0,0,0-.523-2.533,11.576,11.576,0,0,0-3.546,1.14,12.765,12.765,0,0,0,.719,1.991,19.724,19.724,0,0,0-1.953,2.009c-.841-.445-1.533-.653-2.322-1.078a7.306,7.306,0,0,0-1.319,4.06c.891.1,1.411.055,2.225.1a10.189,10.189,0,0,0,.846,2.72c-.647.626-1,1.176-1.569,1.656a6.762,6.762,0,0,0,2.227,2.687c.565-.62.925-1,1.44-1.543a11.929,11.929,0,0,0,2.612.77,8.841,8.841,0,0,1,.428,2.012,9.938,9.938,0,0,0,3.852-.24,16.444,16.444,0,0,0-.266-2.146,8.8,8.8,0,0,0,1.914-1.939,11.962,11.962,0,0,1,1.916.514,7.815,7.815,0,0,0,1.259-3.068m-7.253,1.23c-.559.209-1.12.394-2.606-.517a2.539,2.539,0,0,1-.372-3.836,2.286,2.286,0,0,1,2.069-.891,3.543,3.543,0,0,1,1.844.675,2.627,2.627,0,0,1,.858,2.545,2.883,2.883,0,0,1-1.793,2.023" transform="translate(-254.037 -43.011)" fill="#8f61c2"/>
        <path id="Trazado_912383" data-name="Trazado 912383" d="M633.767,122.439a9.335,9.335,0,0,1-1.332-.094.3.3,0,0,1-.254-.256l-.015-.112a8.363,8.363,0,0,0-.341-1.667,12.065,12.065,0,0,1-2.243-.67l-.064-.024c-.47.494-.815.864-1.3,1.4a.3.3,0,0,1-.4.042,7.053,7.053,0,0,1-2.325-2.807.3.3,0,0,1,.079-.352,7.368,7.368,0,0,0,.79-.819c.189-.217.382-.439.615-.675a10.477,10.477,0,0,1-.744-2.367c-.208-.008-.4-.011-.588-.014a13.482,13.482,0,0,1-1.414-.076.3.3,0,0,1-.266-.292,7.535,7.535,0,0,1,1.367-4.228.3.3,0,0,1,.393-.1c.387.209.747.363,1.129.526.31.132.629.268.971.439a18.771,18.771,0,0,1,1.558-1.593l.119-.113a12.2,12.2,0,0,1-.653-1.841.3.3,0,0,1,.149-.34,11.884,11.884,0,0,1,3.637-1.171.3.3,0,0,1,.338.216,20.58,20.58,0,0,1,.5,2.334,10.3,10.3,0,0,1,2.35.51c.524-.587,1.067-1.188,1.708-1.8a.3.3,0,0,1,.4-.007,14.518,14.518,0,0,1,2.134,2.362c.165.229.323.463.482.7a.85.85,0,0,1,.19.473.3.3,0,0,1-.1.224,9.521,9.521,0,0,1-.769.614,9.865,9.865,0,0,0-.789.63c.034.233.075.5.119.786.088.571.187,1.211.241,1.689a4.459,4.459,0,0,0,.692.33,5.073,5.073,0,0,1,1.194.638.3.3,0,0,1,.116.3,8.065,8.065,0,0,1-1.308,3.183.3.3,0,0,1-.33.116c-.21-.062-.389-.119-.555-.174a7.63,7.63,0,0,0-1.142-.3,9.227,9.227,0,0,1-1.709,1.733,6.449,6.449,0,0,1,.135,1.083c.018.274.036.556.087.9a.3.3,0,0,1-.222.334,10.742,10.742,0,0,1-2.637.34m-1.023-.657a9.609,9.609,0,0,0,3.254-.2c-.029-.252-.044-.474-.057-.676a5.259,5.259,0,0,0-.166-1.161.3.3,0,0,1,.112-.322,8.56,8.56,0,0,0,1.845-1.868.3.3,0,0,1,.291-.125,8.056,8.056,0,0,1,1.415.353c.1.034.212.069.33.106a7.435,7.435,0,0,0,1.053-2.585,4.775,4.775,0,0,0-.911-.457,4.459,4.459,0,0,1-.918-.466.3.3,0,0,1-.128-.217c-.046-.471-.155-1.176-.252-1.8-.054-.352-.106-.685-.143-.951a.3.3,0,0,1,.094-.261,9.993,9.993,0,0,1,.955-.776c.187-.139.367-.271.571-.444l-.027-.041c-.161-.238-.317-.467-.479-.691a13.917,13.917,0,0,0-1.841-2.079c-.592.578-1.1,1.153-1.6,1.711a.31.31,0,0,1-.332.088,9.734,9.734,0,0,0-2.62-.563.3.3,0,0,1-.275-.257,20.069,20.069,0,0,0-.444-2.233,11.293,11.293,0,0,0-2.976.953,12.666,12.666,0,0,0,.6,1.626l.04.093a.3.3,0,0,1-.069.334l-.271.256a16.4,16.4,0,0,0-1.654,1.72.3.3,0,0,1-.375.079c-.4-.214-.781-.374-1.145-.53-.3-.128-.61-.26-.931-.421a6.967,6.967,0,0,0-1.124,3.4c.409.035.741.04,1.09.046.263,0,.535.008.851.025a.3.3,0,0,1,.279.255,9.861,9.861,0,0,0,.822,2.64.3.3,0,0,1-.064.341c-.284.275-.511.534-.73.786a9.178,9.178,0,0,1-.681.728,6.452,6.452,0,0,0,1.822,2.211c.44-.48.78-.844,1.262-1.348a.3.3,0,0,1,.32-.074l.249.093a10.422,10.422,0,0,0,2.29.661.3.3,0,0,1,.253.2,8.355,8.355,0,0,1,.411,1.842m.373-4.912a3.884,3.884,0,0,1-1.979-.732,2.775,2.775,0,0,1-1.166-1.783,3.134,3.134,0,0,1,.712-2.488,2.575,2.575,0,0,1,2.348-1.006,3.767,3.767,0,0,1,1.994.741,2.935,2.935,0,0,1,.961,2.84,3.164,3.164,0,0,1-1.981,2.239,2.445,2.445,0,0,1-.889.19m.784-.47h0Zm-1.174-4.962a2.029,2.029,0,0,0-1.567.791,2.526,2.526,0,0,0-.6,2.016,2.214,2.214,0,0,0,.89,1.383c1.388.85,1.852.676,2.345.492a2.6,2.6,0,0,0,1.606-1.807,2.323,2.323,0,0,0-.756-2.25,3.23,3.23,0,0,0-1.695-.609,1.556,1.556,0,0,0-.224-.015" transform="translate(-253.833 -42.806)"/>
        <path id="Trazado_912384" data-name="Trazado 912384" d="M62.875,124.934,55.133,151.79l-33.211-1.329L17.9,124.828Z" transform="translate(-7.284 -50.78)" fill="#8f61c2"/>
        <path id="Trazado_912385" data-name="Trazado 912385" d="M54.928,151.884h-.011L21.7,150.554a.3.3,0,0,1-.284-.252L17.4,124.669a.3.3,0,0,1,.3-.346h0l44.97.107a.3.3,0,0,1,.287.382l-7.741,26.855a.3.3,0,0,1-.288.216m-32.954-1.917,32.731,1.31,7.566-26.249-44.223-.1Z" transform="translate(-7.078 -50.575)"/>
        <path id="Trazado_912386" data-name="Trazado 912386" d="M56.173,103.428l-.533,39.848-35.547-.09-.145-39.758Z" transform="translate(-8.115 -42.075)" fill="#fff"/>
        <path id="Trazado_912387" data-name="Trazado 912387" d="M55.435,143.371h0l-35.547-.09a.3.3,0,0,1-.3-.3l-.145-39.758a.3.3,0,0,1,.087-.212.3.3,0,0,1,.212-.088H55.968a.3.3,0,0,1,.213.089.3.3,0,0,1,.087.215l-.533,39.848a.3.3,0,0,1-.3.3m-35.248-.688,34.954.089.524-39.249H20.044Z" transform="translate(-7.91 -41.87)"/>
        <path id="Trazado_912388" data-name="Trazado 912388" d="M60.277,130.468H45.89a.1.1,0,0,1,0-.2H60.277a.1.1,0,1,1,0,.2" transform="translate(-18.628 -52.994)"/>
        <path id="Trazado_912389" data-name="Trazado 912389" d="M61.461,140.81H48.8a.1.1,0,0,1,0-.2H61.461a.1.1,0,0,1,0,.2" transform="translate(-19.812 -57.201)"/>
        <path id="Trazado_912390" data-name="Trazado 912390" d="M61.461,151.153H48.8a.1.1,0,0,1,0-.2H61.461a.1.1,0,0,1,0,.2" transform="translate(-19.812 -61.409)"/>
        <path id="Trazado_912391" data-name="Trazado 912391" d="M15.835,115.4l5.489,5.73,20.835-.269,5.571,27.269-40.552-.092L.5,115.361Z" transform="translate(-0.205 -46.929)" fill="#fff"/>
        <path id="Trazado_912392" data-name="Trazado 912392" d="M47.526,148.225h0l-40.552-.091a.3.3,0,0,1-.292-.24L.006,115.216a.3.3,0,0,1,.293-.359h0l15.331.04a.3.3,0,0,1,.215.093l5.4,5.636,20.7-.268h0a.3.3,0,0,1,.293.24l5.571,27.268a.3.3,0,0,1-.293.359m-40.307-.689,39.941.09L41.711,120.96l-20.588.266a.288.288,0,0,1-.219-.093L15.5,115.5l-14.836-.04Z" transform="translate(0 -46.724)"/>
        <path id="Trazado_912393" data-name="Trazado 912393" d="M54.966,114.454h-20.2a.1.1,0,1,1,0-.2h20.2a.1.1,0,1,1,0,.2" transform="translate(-14.102 -46.479)"/>
        <path id="Trazado_912394" data-name="Trazado 912394" d="M61.332,119.656H50.414a.1.1,0,0,1,0-.2H61.332a.1.1,0,1,1,0,.2" transform="translate(-20.468 -48.595)"/>
        <path id="Trazado_912395" data-name="Trazado 912395" d="M346.495,46.072a.3.3,0,0,1,0-.6l31.3-.087V6.671a.3.3,0,0,1,.6,0V45.686a.3.3,0,0,1-.3.3l-31.6.087Z" transform="translate(-140.834 -2.592)"/>
        <path id="Trazado_912396" data-name="Trazado 912396" d="M347.728.5l-6.942,7.56V39.9l31.121-.088V.5Z" transform="translate(-138.633 -0.205)" fill="#fff"/>
        <path id="Trazado_912397" data-name="Trazado 912397" d="M340.581,39.993a.3.3,0,0,1-.3-.3V7.859a.3.3,0,0,1,.079-.2L347.3.1a.3.3,0,0,1,.22-.1H371.7a.3.3,0,0,1,.3.3V39.605a.3.3,0,0,1-.3.3l-31.122.088Zm.3-32.017V39.393l30.523-.086V.6H347.654Z" transform="translate(-138.427)"/>
        <path id="Trazado_912398" data-name="Trazado 912398" d="M340.786,8.065,347.8,7.9,347.728.5Z" transform="translate(-138.633 -0.205)" fill="#8f61c2"/>
        <path id="Trazado_912399" data-name="Trazado 912399" d="M340.581,8.159a.3.3,0,0,1-.221-.5L347.3.1a.3.3,0,0,1,.52.2l.075,7.394a.3.3,0,0,1-.292.3l-7.016.166h-.007m6.65-7.1-5.954,6.484L347.3,7.4Z" transform="translate(-138.427 0)"/>
        <path id="Trazado_912400" data-name="Trazado 912400" d="M379.371,10.238H373.69a.1.1,0,0,1,0-.2h5.681a.1.1,0,1,1,0,.2" transform="translate(-151.977 -4.084)"/>
        <path id="Trazado_912401" data-name="Trazado 912401" d="M377.767,13.356h-8.019a.1.1,0,0,1,0-.2h8.019a.1.1,0,1,1,0,.2" transform="translate(-150.374 -5.352)"/>
        <path id="Trazado_912402" data-name="Trazado 912402" d="M369.748,27.15H350.036a.1.1,0,0,1,0-.2h19.713a.1.1,0,0,1,0,.2" transform="translate(-142.355 -10.964)"/>
        <path id="Trazado_912403" data-name="Trazado 912403" d="M369.748,37.342H350.036a.1.1,0,0,1,0-.2h19.713a.1.1,0,0,1,0,.2" transform="translate(-142.355 -15.11)"/>
        <path id="Trazado_912404" data-name="Trazado 912404" d="M369.748,47.534H350.036a.1.1,0,0,1,0-.2h19.713a.1.1,0,0,1,0,.2" transform="translate(-142.355 -19.256)"/>
        <path id="Trazado_912405" data-name="Trazado 912405" d="M552.841,57.338H503a.3.3,0,1,1,0-.6h49.843a.3.3,0,1,1,0,.6" transform="translate(-204.499 -23.082)"/>
        <path id="Trazado_912406" data-name="Trazado 912406" d="M519.964,135.506c-.849,4.73,1.3,10.032,5.539,12.295,2.309,1.233,5,1.53,7.4,2.574s4.655,3.325,4.269,5.914c-.257,1.719-1.84,5.463,2.947,8.548,3.948,2.545,1.345,12.572-12.462,14.8-4.23.684-1.121-2.212-5.2-3.509a19.178,19.178,0,0,1-9.789-7.706,34.874,34.874,0,0,1-4.772-11.685c-1.113-4.743-1.61-9.869.24-14.376s6.638-8.094,11.829-6.857" transform="translate(-206.209 -55.024)"/>
        <path id="Trazado_912407" data-name="Trazado 912407" d="M526.372,179.835a1.682,1.682,0,0,1-1.9-1.438,2.905,2.905,0,0,0-2.315-2.187,19.464,19.464,0,0,1-9.946-7.823,34.973,34.973,0,0,1-4.816-11.785c-1.42-6.049-1.339-10.676.255-14.558,1.8-4.387,6.68-8.343,12.175-7.035a.3.3,0,0,1,.225.344c-.864,4.814,1.4,9.851,5.386,11.978a20.185,20.185,0,0,0,4.041,1.456,25.987,25.987,0,0,1,3.341,1.107c2.432,1.058,4.86,3.46,4.445,6.232-.033.225-.088.482-.146.754-.42,1.956-1.054,4.912,2.959,7.5,1.485.957,2.122,2.916,1.663,5.113-.793,3.789-5,8.744-14.239,10.238a7.1,7.1,0,0,1-1.126.1m-8.691-44.481c-4.328,0-8,3.306-9.478,6.917-1.544,3.762-1.616,8.272-.226,14.195a34.387,34.387,0,0,0,4.728,11.586,18.868,18.868,0,0,0,9.632,7.589,3.48,3.48,0,0,1,2.7,2.573c.257.8.4,1.242,2.362.926,8.942-1.446,13-6.167,13.749-9.771.407-1.948-.129-3.667-1.4-4.487-4.361-2.811-3.62-6.269-3.221-8.127.059-.275.11-.511.141-.717.368-2.461-1.863-4.625-4.092-5.6a25.616,25.616,0,0,0-3.264-1.08,20.553,20.553,0,0,1-4.161-1.5c-4.129-2.2-6.512-7.353-5.74-12.328a8.6,8.6,0,0,0-1.733-.177" transform="translate(-206 -54.819)"/>
        <path id="Trazado_912408" data-name="Trazado 912408" d="M492.124,116.381c1.4,6.828-6.258,16.5-9.055,22.889-.909,2.075-2.23,3.964-2.977,6.1a19.033,19.033,0,0,0-.673,7.989c.459,5.069,1.981,10.27,5.546,13.9s9.529,5.217,13.927,2.654c3.859-2.249,5.621-7.082,5.378-11.542s-2.146-8.646-4.154-12.636c-4.824-9.584-1.436-21.095-7.993-29.36" transform="translate(-194.976 -47.344)"/>
        <path id="Trazado_912409" data-name="Trazado 912409" d="M493.832,171.258a13.242,13.242,0,0,1-9.283-3.989c-3.184-3.245-5.078-7.985-5.631-14.087a19.063,19.063,0,0,1,.688-8.114,24.911,24.911,0,0,1,1.707-3.6c.444-.818.9-1.664,1.278-2.524.807-1.842,2.01-3.948,3.285-6.178,3.153-5.516,6.727-11.768,5.75-16.531a.3.3,0,0,1,.527-.246c3.661,4.615,4.253,10.087,4.879,15.879.492,4.557,1,9.269,3.148,13.533,1.981,3.935,3.936,8.161,4.186,12.754.275,5.061-1.894,9.7-5.527,11.817a9.908,9.908,0,0,1-5.008,1.285m-1.463-53.973c.312,4.785-3.012,10.6-5.973,15.778-1.266,2.215-2.462,4.307-3.256,6.121-.386.882-.851,1.74-1.3,2.569a24.425,24.425,0,0,0-1.668,3.512,18.5,18.5,0,0,0-.657,7.863c.54,5.961,2.378,10.577,5.462,13.721,3.739,3.812,9.57,4.933,13.563,2.605,3.441-2.005,5.493-6.428,5.23-11.267-.244-4.477-2.171-8.639-4.123-12.517-2.195-4.361-2.71-9.128-3.209-13.738-.575-5.317-1.119-10.36-4.069-14.648" transform="translate(-194.772 -47.139)"/>
        <path id="Trazado_912410" data-name="Trazado 912410" d="M504.211,167.438c-.125-3.64-.065-7.23.082-9.952a16.268,16.268,0,0,0-4.677-1.509,2.736,2.736,0,0,0-2.112.277c-.351.276-2.016-1.193-2.188-.788-1.185,2.779-2.392,9.472-3.577,12.25-.091.214-5.659.976-5.751,1.192-.386.9,2.459,4.558,2.747,4.749,15.192,10.1,23.39-5.026,23.39-5.026s-3.638-.375-7.914-1.193" transform="translate(-197.687 -63.215)" fill="#fff"/>
        <path id="Trazado_912411" data-name="Trazado 912411" d="M498.606,177.227A18.6,18.6,0,0,1,488.37,173.7c-.2-.13-3.352-3.955-2.857-5.116.093-.218.11-.257,3.106-.775,1-.172,2.334-.4,2.686-.515a52.4,52.4,0,0,0,1.732-5.983,50.306,50.306,0,0,1,1.8-6.169.406.406,0,0,1,.249-.23c.282-.093.631.1,1.222.445a4.091,4.091,0,0,0,.848.425,3.058,3.058,0,0,1,2.3-.307,16.492,16.492,0,0,1,4.763,1.538.3.3,0,0,1,.165.284c-.16,2.976-.192,6.492-.09,9.686,4.114.775,7.618,1.141,7.654,1.144a.3.3,0,0,1,.232.44c-.036.066-3.642,6.6-10.359,8.266a13.3,13.3,0,0,1-3.224.394m-12.563-8.317c-.059.827,2.261,3.971,2.665,4.3,4.552,3.026,8.918,4.053,12.971,3.047,5.522-1.37,8.873-6.176,9.751-7.582-1.118-.129-4.116-.5-7.476-1.145a.3.3,0,0,1-.243-.284c-.11-3.2-.084-6.756.072-9.781a15.9,15.9,0,0,0-4.416-1.4,2.5,2.5,0,0,0-1.879.217c-.333.262-.84-.034-1.48-.409a6.036,6.036,0,0,0-.675-.361,53.3,53.3,0,0,0-1.717,5.944,50.328,50.328,0,0,1-1.8,6.169c-.093.218-.11.257-3.094.772-.982.17-2.3.4-2.677.511" transform="translate(-197.487 -63.01)"/>
        <path id="Trazado_912412" data-name="Trazado 912412" d="M489.345,113.778c-.826,3.3-1.494,6.837-3.54,9.636-1.116,1.527-4.5,10.194,1.466,15.406a14.482,14.482,0,0,0,12.1,3.34c3.166-.537,8.17-4.12,9.444-9.14,1.881,1.423,4.533.825,5.31-1.065a2.811,2.811,0,0,0-1.517-3.383,2.521,2.521,0,0,0-2.107-.1,31.14,31.14,0,0,1,2.028-7.408c-1.354-3.6-4.668-6.471-8.29-8.572a15.339,15.339,0,0,0-3.814-1.681c-3.878-1-10.233-.418-11.081,2.97" transform="translate(-196.826 -44.898)" fill="#fff"/>
        <path id="Trazado_912413" data-name="Trazado 912413" d="M496.543,142.481a14.541,14.541,0,0,1-9.677-3.637c-5.979-5.224-2.879-13.935-1.511-15.808,1.762-2.411,2.49-5.414,3.194-8.319q.148-.61.3-1.213a3.854,3.854,0,0,1,1.911-2.363c2.5-1.488,6.781-1.535,9.535-.823a15.8,15.8,0,0,1,3.889,1.711c3,1.739,6.89,4.664,8.419,8.725a.3.3,0,0,1,0,.22,30.524,30.524,0,0,0-1.936,6.887,2.716,2.716,0,0,1,1.836.225,2.759,2.759,0,0,1,1.55,1.516,2.977,2.977,0,0,1,.148,2.264,3.3,3.3,0,0,1-2.23,1.9,4.1,4.1,0,0,1-3.178-.466c-1.491,5.037-6.454,8.424-9.572,8.953a15.973,15.973,0,0,1-2.671.228m-7.117-28.832c-.1.4-.2.8-.3,1.209-.718,2.961-1.46,6.024-3.292,8.531-.765,1.047-4.638,9.711,1.421,15a14.1,14.1,0,0,0,11.854,3.27c2.964-.5,7.948-3.968,9.2-8.918a.3.3,0,0,1,.471-.165,3.508,3.508,0,0,0,3.018.609,2.7,2.7,0,0,0,1.834-1.55,2.37,2.37,0,0,0-.139-1.789,2.165,2.165,0,0,0-1.2-1.2,2.252,2.252,0,0,0-1.93-.1.3.3,0,0,1-.377-.333,31.418,31.418,0,0,1,2-7.366c-1.5-3.84-5.233-6.635-8.118-8.309a15.241,15.241,0,0,0-3.738-1.65c-2.637-.681-6.716-.647-9.079.759a3.277,3.277,0,0,0-1.637,1.994" transform="translate(-196.617 -44.696)"/>
        <path id="Trazado_912414" data-name="Trazado 912414" d="M509.765,140.861a4.434,4.434,0,0,1-1.093-.137,5.383,5.383,0,0,1,2.636-10.387,4.619,4.619,0,0,1,2.956,2.381,5.613,5.613,0,0,1,.443,4.009,5.285,5.285,0,0,1-4.941,4.133m.449-10.062a4.686,4.686,0,0,0-4.36,3.682,4.292,4.292,0,1,0,8.271,2.1,5.005,5.005,0,0,0-.391-3.583,4.028,4.028,0,0,0-2.573-2.08,3.852,3.852,0,0,0-.947-.119" transform="translate(-205.473 -52.966)"/>
        <path id="Trazado_912415" data-name="Trazado 912415" d="M488.228,133.455a4.437,4.437,0,0,1-1.093-.137,4.622,4.622,0,0,1-2.956-2.381,5.752,5.752,0,0,1,1.859-7.323,4.558,4.558,0,0,1,6.69,1.7,5.613,5.613,0,0,1,.441,4.009,5.284,5.284,0,0,1-4.941,4.133m.442-10.064a4.14,4.14,0,0,0-2.3.72,5.155,5.155,0,0,0-1.662,6.546,4.03,4.03,0,0,0,2.574,2.08,4.539,4.539,0,0,0,5.307-3.563,5.017,5.017,0,0,0-.39-3.583,4.03,4.03,0,0,0-2.575-2.08,3.867,3.867,0,0,0-.954-.12m4.209,5.857h0Z" transform="translate(-196.711 -49.953)"/>
        <path id="Trazado_912416" data-name="Trazado 912416" d="M538.3,94.948a8.587,8.587,0,1,0-9.262,7.855,8.587,8.587,0,0,0,9.262-7.855" transform="translate(-212.006 -34.845)"/>
        <path id="Trazado_912417" data-name="Trazado 912417" d="M529.539,102.927q-.365,0-.734-.03a8.882,8.882,0,1,1,.734.03m-.012-17.175a8.295,8.295,0,1,0,.685.028c-.23-.019-.458-.028-.685-.028m8.565,8.992h0Z" transform="translate(-211.8 -34.641)"/>
        <path id="Trazado_912418" data-name="Trazado 912418" d="M511.689,124.931c-.781-3.945-1.124-6.7-.275-10.787-9.234,1.467-16.608-.655-23.663-3.764a14.281,14.281,0,0,1,2.618-4.828,13.442,13.442,0,0,1,9.97-4.4,21.984,21.984,0,0,1,11.1,2.331,16.965,16.965,0,0,1,6.621,7.65,15.061,15.061,0,0,1,1.047,8.713c-.463,2.521-1.718,4.018-3.709,5.985a2.893,2.893,0,0,0-1.622-1.227,3.6,3.6,0,0,0-2.082.326" transform="translate(-198.419 -41.141)"/>
        <path id="Trazado_912419" data-name="Trazado 912419" d="M515.188,125.926h-.014a.3.3,0,0,1-.215-.106l-.058-.069a2.506,2.506,0,0,0-1.39-1.056,3.307,3.307,0,0,0-1.921.312.3.3,0,0,1-.4-.222,24.691,24.691,0,0,1-.358-10.485c-9.668,1.428-17.251-1.138-23.406-3.851a.3.3,0,0,1-.169-.349,14.644,14.644,0,0,1,2.7-4.966,13.748,13.748,0,0,1,10.169-4.485,22.325,22.325,0,0,1,11.257,2.37,17.127,17.127,0,0,1,6.742,7.781,15.279,15.279,0,0,1,1.071,8.9c-.5,2.712-1.949,4.321-3.793,6.143a.3.3,0,0,1-.21.086m-2.129-1.874a2.993,2.993,0,0,1,.562.054,2.751,2.751,0,0,1,1.586,1.08c1.964-1.966,2.983-3.352,3.4-5.6a14.865,14.865,0,0,0-1.023-8.53,16.554,16.554,0,0,0-6.5-7.52,21.686,21.686,0,0,0-10.934-2.291,13.187,13.187,0,0,0-9.772,4.312A14.243,14.243,0,0,0,487.906,110c6.123,2.678,13.664,5.162,23.256,3.638a.3.3,0,0,1,.34.356,23.517,23.517,0,0,0,.208,10.325,3.988,3.988,0,0,1,1.349-.272" transform="translate(-198.213 -40.936)"/>
        <path id="Trazado_912420" data-name="Trazado 912420" d="M502.113,153.345a2.671,2.671,0,0,1-2.436-1.284.3.3,0,0,1,.526-.287,2.1,2.1,0,0,0,1.968.972,4.135,4.135,0,0,0,2.752-1.162.3.3,0,0,1,.411.436,4.735,4.735,0,0,1-3.152,1.325h-.069" transform="translate(-203.255 -61.632)"/>
        <path id="Trazado_912421" data-name="Trazado 912421" d="M511.756,138.739a.813.813,0,1,0-.976.546.792.792,0,0,0,.976-.546" transform="translate(-207.534 -56.044)"/>
        <path id="Trazado_912422" data-name="Trazado 912422" d="M492.526,132.271a.813.813,0,1,0-.976.546.792.792,0,0,0,.976-.546" transform="translate(-199.712 -53.413)"/>
        <path id="Trazado_912423" data-name="Trazado 912423" d="M496.878,139.66a.3.3,0,0,1-.2-.078l-.866-.791a.645.645,0,0,1,.14-1.162,4.445,4.445,0,0,0,2.092-3.29.3.3,0,1,1,.595.062,5.048,5.048,0,0,1-2.372,3.738,1.059,1.059,0,0,0-.154.11c.012.014.042.046.1.1l.866.791a.3.3,0,0,1-.2.52" transform="translate(-201.573 -54.54)"/>
        <path id="Trazado_912424" data-name="Trazado 912424" d="M503.7,132.7a.3.3,0,0,1-.266-.162,3.3,3.3,0,0,0-2.46-1.691c-.519-.067-1.119.068-1.263.453a.3.3,0,1,1-.56-.211,1.71,1.71,0,0,1,1.9-.836,3.917,3.917,0,0,1,2.916,2.01.3.3,0,0,1-.266.437" transform="translate(-203.05 -52.979)"/>
        <path id="Trazado_912425" data-name="Trazado 912425" d="M524.938,139.72a.3.3,0,0,1-.109-.021l-3.7-1.453a.3.3,0,0,1,.219-.558l3.7,1.453a.3.3,0,0,1-.109.578" transform="translate(-211.919 -56.004)"/>
        <path id="Trazado_912426" data-name="Trazado 912426" d="M526.9,143.459a.3.3,0,0,1-.277-.412,7.144,7.144,0,0,0,.524-2.849.3.3,0,0,1,.292-.307.3.3,0,0,1,.306.292,7.748,7.748,0,0,1-.568,3.089.3.3,0,0,1-.277.186" transform="translate(-214.222 -56.908)"/>
        <path id="Trazado_912427" data-name="Trazado 912427" d="M477.956,199.64c3.6-2.09,9.561-9.5,7.928-15.513-.87-3.2-2.405-14.725-19.21-15.8-.339,5.357-5.562,7.775-8.9,8.174-1.815.217-8.664.014-8.664-7.936-4.534.25-10.26.95-19.072,4.46-6.678,2.659-18.065,4.419-18.065,4.419s-11.511-14.727-15.646-20.767c-2.269-3.315-6.365,10.425-8.9,4.624-.384-.88,11.792,23.472,12.781,25.313,5.173,9.626,29.047,3.534,33.666,3.534-.452,6.706,2.411,10.673,4.742,12.708.719,15.482-3.066,26.2-3.066,26.2s21.175,7.867,43.1,1.39c1.682-.5-4.2-14.052-.7-30.8" transform="translate(-157.605 -63.522)" fill="#8f61c2"/>
        <path id="Trazado_912428" data-name="Trazado 912428" d="M459.929,233.079a79.634,79.634,0,0,1-11.293-.817,72.3,72.3,0,0,1-13.39-3.14.3.3,0,0,1-.178-.38c.037-.107,3.737-10.784,3.055-25.957-1.992-1.774-5.123-5.686-4.766-12.541-.968.046-2.551.275-4.5.557-8.7,1.26-24.888,3.6-29.112-4.257-.509-.946-3.88-7.656-7.141-14.144-2.183-4.345-4.426-8.81-5.282-10.487a4.959,4.959,0,0,1-.369-.7.3.3,0,0,1,.138-.413c.263-.124.378.095.521.373.058.111.134.26.227.443a1.181,1.181,0,0,0,.8.623c.953.1,2.211-1.721,3.327-3.321,1.224-1.754,2.282-3.27,3.344-3.27h.005a1.285,1.285,0,0,1,1.054.654c3.868,5.651,14.342,19.1,15.526,20.613,1.455-.234,11.7-1.935,17.827-4.374a57.146,57.146,0,0,1,19.167-4.48.31.31,0,0,1,.222.081.3.3,0,0,1,.093.218,7.511,7.511,0,0,0,2.232,5.9,8.323,8.323,0,0,0,6.1,1.738c2.835-.339,8.288-2.425,8.633-7.9a.3.3,0,0,1,.318-.279c15.84,1.016,18.341,11.348,19.283,15.237.072.3.136.563.2.786,1.677,6.17-4.311,13.584-7.951,15.782-2.249,10.907-.477,20.624.477,25.853.6,3.293.874,4.8.041,5.042a65.888,65.888,0,0,1-18.606,2.56m-24.2-4.422a73.939,73.939,0,0,0,13.011,3.014c7.3,1.05,18.36,1.6,29.627-1.726.3-.205-.105-2.413-.46-4.36-.965-5.291-2.761-15.138-.447-26.212a.3.3,0,0,1,.142-.2c3.627-2.109,9.34-9.473,7.79-15.176-.062-.228-.127-.5-.2-.8-.992-4.1-3.309-13.668-18.445-14.76-.545,5.64-6.182,7.8-9.136,8.151a8.977,8.977,0,0,1-6.565-1.885,7.93,7.93,0,0,1-2.429-6.032,56.725,56.725,0,0,0-18.667,4.421c-6.633,2.642-18.015,4.419-18.129,4.437a.3.3,0,0,1-.281-.112c-.115-.147-11.565-14.8-15.657-20.782-.269-.392-.491-.393-.564-.394h0c-.75,0-1.867,1.6-2.854,3.015-1.328,1.9-2.58,3.7-3.877,3.573a1.255,1.255,0,0,1-.134-.02c.227.448.487.965.775,1.536,1.045,2.073,2.453,4.876,3.916,7.786,3.107,6.182,6.628,13.19,7.133,14.129,4.026,7.492,19.946,5.186,28.5,3.948a45.327,45.327,0,0,1,4.9-.571.3.3,0,0,1,.3.319c-.466,6.913,2.707,10.775,4.64,12.462a.3.3,0,0,1,.1.212,77.875,77.875,0,0,1-2.989,26.026" transform="translate(-157.4 -63.316)"/>
        <path id="Trazado_912429" data-name="Trazado 912429" d="M395.431,101.335l-11.345,12.038L379.2,168.521l45.673,4.588,6.036-68.091Z" transform="translate(-154.258 -41.224)" fill="#fff"/>
        <path id="Trazado_912430" data-name="Trazado 912430" d="M424.663,173.2l-.03,0-45.673-4.588a.3.3,0,0,1-.268-.324l4.889-55.147a.3.3,0,0,1,.08-.179l11.346-12.039a.3.3,0,0,1,.249-.093l35.475,3.683a.3.3,0,0,1,.267.324l-6.037,68.091a.3.3,0,0,1-.3.273m-45.349-5.156,45.077,4.529,5.984-67.5-35.034-3.638L384.169,113.3Z" transform="translate(-154.053 -41.019)"/>
        <path id="Trazado_912431" data-name="Trazado 912431" d="M387.438,113.374l10.32.782,1.026-12.82Z" transform="translate(-157.611 -41.224)" fill="#8f61c2"/>
        <path id="Trazado_912432" data-name="Trazado 912432" d="M397.553,114.25h-.023l-10.32-.782a.3.3,0,0,1-.2-.5l11.345-12.038a.3.3,0,0,1,.516.229l-1.026,12.82a.3.3,0,0,1-.3.276m-9.673-1.332,9.4.712.934-11.675Z" transform="translate(-157.406 -41.019)"/>
        <path id="Trazado_912433" data-name="Trazado 912433" d="M444.546,122.28h-.011l-8.334-.865a.1.1,0,1,1,.02-.2l8.334.866a.1.1,0,0,1-.01.2" transform="translate(-177.412 -49.311)"/>
        <path id="Trazado_912434" data-name="Trazado 912434" d="M441.716,127.437H441.7l-11.764-1.221a.1.1,0,1,1,.021-.2l11.764,1.221a.1.1,0,0,1-.01.2" transform="translate(-174.865 -51.264)"/>
        <path id="Trazado_912435" data-name="Trazado 912435" d="M427.831,150.111h-.011l-28.921-3a.1.1,0,1,1,.021-.2l28.921,3a.1.1,0,0,1-.01.2" transform="translate(-162.237 -59.763)"/>
        <path id="Trazado_912436" data-name="Trazado 912436" d="M426.266,167.767h-.011l-28.921-3a.1.1,0,1,1,.021-.2l28.921,3a.1.1,0,0,1-.01.2" transform="translate(-161.6 -66.945)"/>
        <path id="Trazado_912437" data-name="Trazado 912437" d="M424.7,185.422h-.011l-28.921-3a.1.1,0,1,1,.021-.2l28.921,3a.1.1,0,0,1-.01.2" transform="translate(-160.963 -74.127)"/>
        <path id="Trazado_912438" data-name="Trazado 912438" d="M468.307,178.519a18.325,18.325,0,0,1-4.9-6.71c-1.029-2.388-4.485-7.643-5.758-8.286-2.133-1.078-3.42-2.054-5.427-2.325-1.675-.227-4.97.205-5.065.789-.3,1.82,4.079.666,4.449.8a7.3,7.3,0,0,1,3.72,2.436c-1.79.067-4.919.47-5.714.966a19.612,19.612,0,0,0-3.264,3.7c-.431.832.019,1.653,1.056.785a20.656,20.656,0,0,0,2.928-2.471c.308-.38,3.453-.67,4.895-.39-1.485-.491-4.293-.162-4.911.4-.147.133-2.474,2.67-2.62,2.926-.609,1.07.43,1.472,1.253.855.933-.7,1.917-1.837,2.159-1.961,1.322-.677,2.685-.291,3.82-.155a6.6,6.6,0,0,0-3.76.082c-.243.093-2.731,2.079-2.155,3.061.309.527,1.491.247,2.936-1.372a18.515,18.515,0,0,1,2.06.494c.5.119,2.192,3.882,4.117,4.977.386.219,1.7,3.483,4.048,7.9.508.953,2.85,2.446,5.417-1.121.926-1.287,2.163-3.926.711-5.378" transform="translate(-181.512 -65.551)" fill="#fff"/>
        <path id="Trazado_912439" data-name="Trazado 912439" d="M464.027,186.252c-.063,0-.125,0-.184-.006a2.7,2.7,0,0,1-2.133-1.29c-1.125-2.113-2.02-3.978-2.673-5.341a18.6,18.6,0,0,0-1.275-2.451c-1.26-.715-2.386-2.472-3.208-3.754a7.935,7.935,0,0,0-.838-1.187c-.241-.058-.456-.119-.665-.179a9.716,9.716,0,0,0-1.188-.281c-.984,1.066-1.976,1.658-2.674,1.588a.8.8,0,0,1-.635-.384.992.992,0,0,1-.111-.678,1.156,1.156,0,0,1-1.156-.142c-.126-.111-.493-.526-.088-1.3-.664.466-1.07.256-1.221.135a1.159,1.159,0,0,1-.1-1.439,19.6,19.6,0,0,1,3.371-3.82c.831-.517,3.569-.864,5.25-.978a7.286,7.286,0,0,0-3.18-1.882,7.018,7.018,0,0,0-.725.078c-1.518.2-3.053.349-3.683-.3a1.011,1.011,0,0,1-.255-.912c.156-.964,3.958-1.233,5.4-1.037a11.334,11.334,0,0,1,4.081,1.588c.451.247.918.5,1.441.767,1.36.687,4.852,6.01,5.9,8.434a16.772,16.772,0,0,0,4.3,6.1c.179.174.355.347.529.521,1.592,1.592.322,4.372-.68,5.764-1.4,1.939-2.7,2.383-3.607,2.383M451.75,171.146l.042,0a9.937,9.937,0,0,1,1.423.321c.209.06.426.121.663.178.291.069.556.467,1.18,1.441.743,1.16,1.867,2.914,3.016,3.567.27.154.576.772,1.5,2.7.651,1.357,1.543,3.216,2.662,5.317a2.1,2.1,0,0,0,1.645.974c.75.052,1.932-.277,3.264-2.129.83-1.153,2.053-3.681.743-4.991-.172-.173-.347-.343-.524-.516a17.509,17.509,0,0,1-4.436-6.287c-1.057-2.453-4.479-7.562-5.618-8.137-.531-.268-1-.526-1.458-.775a10.726,10.726,0,0,0-3.874-1.52c-1.668-.226-4.424.219-4.734.567a.406.406,0,0,0,.1.372c.473.486,2.3.241,3.174.123a2.648,2.648,0,0,1,.986-.056,7.608,7.608,0,0,1,3.856,2.534.3.3,0,0,1-.224.484,18.811,18.811,0,0,0-5.567.921,19.527,19.527,0,0,0-3.156,3.586c-.176.339-.147.627-.06.7.066.053.3.024.659-.279l.108-.079a24.358,24.358,0,0,0,2.255-1.8c.288-.311.5-.536.539-.572.759-.687,3.727-.949,5.207-.46a.3.3,0,0,1-.151.578,11.579,11.579,0,0,0-4.617.3,6.009,6.009,0,0,1-.562.588c-.722.783-1.924,2.116-2.036,2.3-.16.281-.187.513-.07.615a.788.788,0,0,0,.886-.15c.129-.1.26-.2.39-.314a7.567,7.567,0,0,1,1.9-1.759,4.956,4.956,0,0,1,.644-.2,4.338,4.338,0,0,1,1.122-.139,9.89,9.89,0,0,1,2.157.24.3.3,0,0,1,.239.341.3.3,0,0,1-.332.25c-.194-.023-.394-.054-.6-.085a9.551,9.551,0,0,0-1.513-.148,4.72,4.72,0,0,0-.883.11,3.111,3.111,0,0,0-.652.247,6.831,6.831,0,0,0-.556.524c-.307.3-.695.689-1.1,1.038a2.177,2.177,0,0,0-.33.622.483.483,0,0,0,.011.388c.013.021.046.078.179.091.4.042,1.225-.333,2.277-1.511a.3.3,0,0,1,.223-.1" transform="translate(-181.307 -65.348)"/>
        <path id="Trazado_912440" data-name="Trazado 912440" d="M374.531,159.4c-.492-2.553.749-7.274,1.806-8.231,1.771-1.6,2.754-2.886,4.617-3.68,1.555-.663,4.848-1.119,5.093-.581.768,1.677-3.756,1.723-4.079,1.947a7.3,7.3,0,0,0-2.942,3.334c1.745-.409,4.868-.849,5.766-.582a19.621,19.621,0,0,1,4.128,2.706c.637.688.419,1.6-.811,1.036a20.6,20.6,0,0,1-3.478-1.608c-.4-.284-3.507.269-4.823.921,1.3-.866,4.1-1.293,4.842-.917.177.09,3.093,1.92,3.3,2.128.871.87-.025,1.533-.982,1.157-1.084-.425-2.335-1.264-2.6-1.319-1.454-.3-2.666.429-3.725.862a6.6,6.6,0,0,1,3.648-.916c.258.025,3.184,1.282,2.889,2.382-.158.59-1.373.633-3.2-.546a18.4,18.4,0,0,0-1.855,1.021c-.45.247-1.086,4.323-2.652,5.89-.314.314-.587,3.21-.883,5.863-.338,3.031-3.536-8.142-4.061-10.869" transform="translate(-152.315 -59.665)" fill="#fff"/>
        <path id="Trazado_912441" data-name="Trazado 912441" d="M378.129,170.877c-.3,0-.81-.218-2.3-4.988-.835-2.665-1.567-5.47-1.793-6.641-.505-2.624.737-7.456,1.9-8.509.434-.393.817-.763,1.187-1.121a11.33,11.33,0,0,1,3.513-2.612c1.34-.571,5.077-1.318,5.483-.43a1.013,1.013,0,0,1,0,.947c-.436.791-1.954,1.058-3.471,1.264a6.707,6.707,0,0,0-.721.117,7.278,7.278,0,0,0-2.568,2.656c1.651-.336,4.383-.727,5.322-.448a19.626,19.626,0,0,1,4.262,2.79,1.16,1.16,0,0,1,.288,1.414c-.114.156-.449.464-1.214.192.6.636.351,1.134.259,1.275a1.156,1.156,0,0,1-1.077.443.983.983,0,0,1,.072.683.8.8,0,0,1-.511.539c-.653.252-1.767-.056-3-.823a9.712,9.712,0,0,0-1.072.585c-.185.112-.376.228-.593.348a7.938,7.938,0,0,0-.494,1.367c-.453,1.454-1.074,3.445-2.112,4.484a29.551,29.551,0,0,0-.68,4.62c-.039.355-.078.712-.117,1.065-.024.209-.086.766-.511.782h-.044m.1-.584h0Zm6.716-23.532a12.563,12.563,0,0,0-4.077.8,10.727,10.727,0,0,0-3.333,2.491c-.374.361-.76.735-1.2,1.135-.937.848-2.2,5.444-1.713,7.952.488,2.535,2.6,9.731,3.457,10.991,0-.029.009-.062.013-.1.039-.353.078-.709.117-1.064.359-3.291.537-4.663.852-4.978.934-.934,1.554-2.923,1.964-4.238.344-1.1.494-1.558.756-1.7.214-.117.406-.234.591-.346a9.983,9.983,0,0,1,1.288-.687.3.3,0,0,1,.282.023c1.326.858,2.227,1,2.6.855.124-.047.141-.111.148-.135a.482.482,0,0,0-.092-.377,2.175,2.175,0,0,0-.482-.513c-.483-.229-.959-.5-1.335-.71a6.865,6.865,0,0,0-.678-.358,3.112,3.112,0,0,0-.719-.064,4.65,4.65,0,0,0-.825.12,9.176,9.176,0,0,0-1.447.55c-.19.085-.375.167-.556.241a.3.3,0,0,1-.246-.546,10.017,10.017,0,0,1,2.012-.8,4.311,4.311,0,0,1,1.126-.164,4.94,4.94,0,0,1,.671.019,7.6,7.6,0,0,1,2.3,1.194c.155.073.31.141.46.2a.788.788,0,0,0,.895-.09c.085-.13,0-.346-.233-.577-.154-.142-1.668-1.11-2.571-1.674a6.139,6.139,0,0,1-.7-.421l-.055-.018a12.348,12.348,0,0,0-4.468.959.3.3,0,0,1-.3-.517c1.3-.863,4.229-1.4,5.142-.935.048.024.311.184.672.409a24.485,24.485,0,0,0,2.653,1.141l.124.048c.429.2.66.164.71.095.066-.09.017-.375-.242-.656a19.541,19.541,0,0,0-3.993-2.623,18.812,18.812,0,0,0-5.612.587.3.3,0,0,1-.344-.408,7.609,7.609,0,0,1,3.047-3.464,2.619,2.619,0,0,1,.966-.207c.877-.119,2.7-.366,3.028-.96a.408.408,0,0,0,0-.384,1.453,1.453,0,0,0-.638-.089" transform="translate(-152.11 -59.461)"/>
        <path id="Trazado_912442" data-name="Trazado 912442" d="M499.7,204.829l-.043,0c-.8-.093-13.1-10.993-16.594-14.377a.3.3,0,1,1,.416-.43c4.148,4.015,15.262,13.724,16.265,14.211,1.2-.107,11.634-8.1,15.576-11.115a.3.3,0,1,1,.364.475c-10.657,8.159-15.033,11.238-15.984,11.238" transform="translate(-196.474 -77.267)"/>
        <path id="Trazado_912443" data-name="Trazado 912443" d="M492.936,226.758a5.3,5.3,0,0,1-1.682-.249c-3.593-1.2-14.765-16.688-18.437-21.779l-.425-.588c-.909-1.258-1.821-3.9-1.092-5.4a.3.3,0,1,1,.538.263c-.6,1.218.218,3.646,1.04,4.782l.425.589c9.775,13.552,15.878,20.805,18.141,21.561,3.546,1.185,11.1-2.448,22.46-10.793a.3.3,0,0,1,.354.483c-10.157,7.461-17.17,11.126-21.322,11.126" transform="translate(-191.619 -80.782)"/>
        <path id="Trazado_912444" data-name="Trazado 912444" d="M476.625,204.586a.1.1,0,0,1-.014-.2c2.061-.285,3.616-1.89,5.157-3.652a.1.1,0,1,1,.15.131c-1.567,1.791-3.15,3.424-5.279,3.718h-.014" transform="translate(-193.852 -81.646)"/>
        <path id="Trazado_912445" data-name="Trazado 912445" d="M478.589,208.926a.1.1,0,0,1-.021-.2,4.781,4.781,0,0,0,2.29-1.227.1.1,0,0,1,.138.144,4.983,4.983,0,0,1-2.385,1.278l-.021,0" transform="translate(-194.651 -84.401)"/>
        <path id="Trazado_912446" data-name="Trazado 912446" d="M494.977,278.316a103.531,103.531,0,0,1-22.956-2.752.1.1,0,0,1-.073-.12.1.1,0,0,1,.12-.074c5.172,1.241,23.265,4.972,38.923.883a.1.1,0,0,1,.05.193,64.16,64.16,0,0,1-16.064,1.87" transform="translate(-191.988 -112.02)"/>
        <path id="Trazado_912447" data-name="Trazado 912447" d="M465.3,210.262a.3.3,0,0,1-.108-.02.3.3,0,0,1-.17-.387l2.14-5.507a.3.3,0,1,1,.558.217l-2.14,5.507a.3.3,0,0,1-.278.191" transform="translate(-189.165 -83.051)"/>
        <path id="Trazado_912448" data-name="Trazado 912448" d="M322.132,305.659H234.979a.3.3,0,0,1,0-.6h87.153a.3.3,0,0,1,0,.6" transform="translate(-95.468 -124.099)"/>
        <rect id="Rectángulo_403117" data-name="Rectángulo 403117" width="12.411" height="45.95" transform="translate(152.191 134.986)" fill="#fff"/>
        <path id="Trazado_912449" data-name="Trazado 912449" d="M268.767,273.6H256.355a.3.3,0,0,1-.3-.3v-45.95a.3.3,0,0,1,.3-.3h12.412a.3.3,0,0,1,.3.3V273.3a.3.3,0,0,1-.3.3m-12.112-.6h11.813V227.651H256.655Z" transform="translate(-104.164 -92.365)"/>
        <rect id="Rectángulo_403118" data-name="Rectángulo 403118" width="12.411" height="45.95" transform="translate(164.516 134.986)" fill="#fff"/>
        <path id="Trazado_912450" data-name="Trazado 912450" d="M289.544,273.6H277.133a.3.3,0,0,1-.3-.3v-45.95a.3.3,0,0,1,.3-.3h12.411a.3.3,0,0,1,.3.3V273.3a.3.3,0,0,1-.3.3m-12.113-.6h11.814V227.651H277.432Z" transform="translate(-112.616 -92.365)"/>
        <path id="Trazado_912451" data-name="Trazado 912451" d="M266,294.074a.864.864,0,1,1,.864-.864.864.864,0,0,1-.864.864" transform="translate(-107.859 -118.928)"/>
        <path id="Trazado_912452" data-name="Trazado 912452" d="M265.8,294.168a1.163,1.163,0,1,1,1.163-1.163,1.165,1.165,0,0,1-1.163,1.163m0-1.728a.565.565,0,1,0,.565.565.565.565,0,0,0-.565-.565" transform="translate(-107.653 -118.722)"/>
        <path id="Trazado_912453" data-name="Trazado 912453" d="M287.207,294.074a.864.864,0,1,1,.864-.864.864.864,0,0,1-.864.864" transform="translate(-116.485 -118.928)"/>
        <path id="Trazado_912454" data-name="Trazado 912454" d="M287,294.168a1.163,1.163,0,1,1,1.163-1.163A1.165,1.165,0,0,1,287,294.168m0-1.728a.565.565,0,1,0,.565.565.565.565,0,0,0-.565-.565" transform="translate(-116.28 -118.722)"/>
        <path id="Trazado_912455" data-name="Trazado 912455" d="M266.954,257.9a.1.1,0,0,1-.1-.1V237.738a.1.1,0,1,1,.2,0V257.8a.1.1,0,0,1-.1.1" transform="translate(-108.557 -96.672)"/>
        <path id="Trazado_912456" data-name="Trazado 912456" d="M287.731,257.9a.1.1,0,0,1-.1-.1V237.738a.1.1,0,0,1,.2,0V257.8a.1.1,0,0,1-.1.1" transform="translate(-117.009 -96.672)"/>
        <rect id="Rectángulo_403119" data-name="Rectángulo 403119" width="12.325" height="3.686" transform="translate(152.169 164.805)" fill="#8f61c2"/>
        <path id="Trazado_912457" data-name="Trazado 912457" d="M268.643,281.606H256.319a.3.3,0,0,1-.3-.3V277.62a.3.3,0,0,1,.3-.3h12.325a.3.3,0,0,1,.3.3v3.686a.3.3,0,0,1-.3.3m-12.026-.6h11.727v-3.088H256.618Z" transform="translate(-104.149 -112.815)"/>
        <rect id="Rectángulo_403120" data-name="Rectángulo 403120" width="12.325" height="3.686" transform="translate(164.537 164.805)" fill="#8f61c2"/>
        <path id="Trazado_912458" data-name="Trazado 912458" d="M289.494,281.606H277.169a.3.3,0,0,1-.3-.3V277.62a.3.3,0,0,1,.3-.3h12.325a.3.3,0,0,1,.3.3v3.686a.3.3,0,0,1-.3.3m-12.025-.6h11.726v-3.088H277.469Z" transform="translate(-112.631 -112.815)"/>
        <rect id="Rectángulo_403121" data-name="Rectángulo 403121" width="12.412" height="45.95" transform="matrix(0.791, -0.611, 0.611, 0.791, 178.437, 144.577)" fill="#fff"/>
        <path id="Trazado_912459" data-name="Trazado 912459" d="M328.7,274.973l-.038,0a.3.3,0,0,1-.2-.115l-28.1-36.359a.3.3,0,0,1,.054-.42l9.821-7.589a.3.3,0,0,1,.42.053l28.1,36.359a.3.3,0,0,1-.054.419l-9.821,7.589a.3.3,0,0,1-.183.062m-27.677-36.6,27.73,35.885,9.348-7.223-27.73-35.886Z" transform="translate(-122.163 -93.738)"/>
        <path id="Trazado_912460" data-name="Trazado 912460" d="M349.518,289.836a.864.864,0,1,1,.155-1.212.864.864,0,0,1-.155,1.212" transform="translate(-141.614 -117.275)"/>
        <path id="Trazado_912461" data-name="Trazado 912461" d="M348.785,290.109a1.163,1.163,0,0,1-.922-.451,1.163,1.163,0,0,1,1.84-1.423,1.163,1.163,0,0,1-.209,1.631h0a1.157,1.157,0,0,1-.71.242m.527-.479h0Zm-.494-1.25a.64.64,0,0,0-.375.135.522.522,0,0,0-.106.777.565.565,0,1,0,.893-.691.508.508,0,0,0-.412-.221" transform="translate(-141.408 -117.069)"/>
        <path id="Trazado_912462" data-name="Trazado 912462" d="M327.548,261.341a.1.1,0,0,1-.079-.039L315.2,245.431a.1.1,0,0,1,.158-.122l12.265,15.872a.1.1,0,0,1-.018.14.1.1,0,0,1-.061.021" transform="translate(-128.217 -99.776)"/>
        <rect id="Rectángulo_403122" data-name="Rectángulo 403122" width="12.325" height="3.687" transform="matrix(0.791, -0.611, 0.611, 0.791, 196.688, 168.159)" fill="#8f61c2"/>
        <path id="Trazado_912463" data-name="Trazado 912463" d="M333.62,281.321l-.038,0a.3.3,0,0,1-.2-.114l-2.255-2.917a.3.3,0,0,1,.054-.42l9.753-7.536a.3.3,0,0,1,.221-.06.3.3,0,0,1,.2.114l2.254,2.917a.3.3,0,0,1-.054.419l-9.752,7.536a.3.3,0,0,1-.183.063m-1.834-3.162,1.888,2.443,9.279-7.17-1.888-2.443Z" transform="translate(-134.679 -109.947)"/>
        <path id="Trazado_912464" data-name="Trazado 912464" d="M331.956,235.4a.3.3,0,0,1-.237-.116l-6.128-7.891a.3.3,0,1,1,.473-.367l6.128,7.891a.3.3,0,0,1-.236.483" transform="translate(-132.426 -92.309)"/>
        <path id="Trazado_912465" data-name="Trazado 912465" d="M333.863,226.852a.3.3,0,0,1-.234-.112l-2.655-3.317a.3.3,0,1,1,.467-.374l2.655,3.317a.3.3,0,0,1-.233.486" transform="translate(-134.614 -90.691)"/>
        <path id="Trazado_912466" data-name="Trazado 912466" d="M441.513,41.7c-2.8-2.306-6.261-2.864-8.9-.314s-3,7.933-.354,10.482c2.874,2.772,9.7,2.734,13.438,2.67,7.185-.125,14.494.221,21.68.221,13.466,0,12.007-11.568,8.414-14.033a4.589,4.589,0,0,0-5.7.463c.673-4.87-2.318-10.043-6.454-11.162s-8.786,1.99-10.033,6.7a6.183,6.183,0,0,0-7.421-1.763,9.384,9.384,0,0,0-4.665,6.731" transform="translate(-175.105 -12.12)" fill="#fff"/>
        <path id="Trazado_912467" data-name="Trazado 912467" d="M467.169,54.85c-3.046,0-6.164-.063-9.181-.124-4.108-.083-8.357-.169-12.494-.1-3.444.059-10.606.183-13.651-2.754a7.007,7.007,0,0,1-1.905-5.06,8.22,8.22,0,0,1,2.259-5.853c2.438-2.352,5.824-2.339,8.923,0a9.484,9.484,0,0,1,4.72-6.471,6.4,6.4,0,0,1,7.417,1.433,9.9,9.9,0,0,1,4.412-5.507,7.651,7.651,0,0,1,5.835-.888c4.113,1.112,7.08,5.942,6.746,10.774a4.907,4.907,0,0,1,5.5-.033c1.943,1.332,3.3,5.081,2.231,8.537-.7,2.257-3.035,6.042-10.814,6.042M448.767,54c3.089,0,6.2.063,9.233.124,3.013.061,6.129.124,9.169.124,7.4,0,9.591-3.522,10.242-5.621.979-3.156-.268-6.679-2-7.866a4.316,4.316,0,0,0-5.331.436.3.3,0,0,1-.5-.26c.65-4.7-2.264-9.758-6.234-10.832a7.056,7.056,0,0,0-5.379.829,9.315,9.315,0,0,0-4.287,5.664.3.3,0,0,1-.519.114,5.919,5.919,0,0,0-7.059-1.685,9.057,9.057,0,0,0-4.5,6.523.3.3,0,0,1-.483.17c-2.99-2.46-6.169-2.583-8.5-.33a7.61,7.61,0,0,0-2.076,5.422,6.41,6.41,0,0,0,1.723,4.629c2.866,2.765,10.125,2.639,13.225,2.586,1.088-.019,2.185-.027,3.283-.027" transform="translate(-174.9 -11.916)"/>
        <rect id="Rectángulo_403123" data-name="Rectángulo 403123" width="6.046" height="6.046" transform="translate(343.725 30.756)" fill="#8f61c2"/>
        <path id="Trazado_912468" data-name="Trazado 912468" d="M585.286,57.986H579.24a.3.3,0,0,1-.3-.3V51.641a.3.3,0,0,1,.3-.3h6.046a.3.3,0,0,1,.3.3v6.046a.3.3,0,0,1-.3.3m-5.747-.6h5.447V51.941h-5.447Z" transform="translate(-235.514 -20.886)"/>
      </g>
    </g>
  </g>
</svg>
