<svg xmlns="http://www.w3.org/2000/svg" xmlns:xlink="http://www.w3.org/1999/xlink" width="85" height="91.394" viewBox="0 0 85 91.394">
  <defs>
    <clipPath id="clip-path">
      <rect id="Rect치ngulo_403025" data-name="Rect치ngulo 403025" width="67.003" height="82.788" transform="translate(0 0)" fill="none"/>
    </clipPath>
  </defs>
  <g id="Grupo_1102235" data-name="Grupo 1102235" transform="translate(-757.5 -614.606)">
    <rect id="Rect치ngulo_402863" data-name="Rect치ngulo 402863" width="85" height="50" rx="10" transform="translate(757.5 656)" fill="#8f61c2"/>
    <g id="Grupo_1101585" data-name="Grupo 1101585" transform="translate(410.448 -57.395)">
      <g id="Grupo_1101583" data-name="Grupo 1101583" transform="translate(356.051 672)">
        <g id="Grupo_1101582" data-name="Grupo 1101582" clip-path="url(#clip-path)">
          <path id="Trazado_912194" data-name="Trazado 912194" d="M61.037.981H10.027a.916.916,0,0,0-.916.916V12.624H61.953V1.9a.916.916,0,0,0-.916-.916" fill="#b9def9"/>
          <path id="Trazado_912195" data-name="Trazado 912195" d="M59.928,81.266a4.062,4.062,0,0,1-2.04-3.525l-4.1-32.518h7.7a.916.916,0,0,1,.916.916l1.759,31.6c0,2.248-3.643,3.87-4.24,3.527" fill="#ffc344"/>
          <path id="Trazado_912196" data-name="Trazado 912196" d="M65.1,45.223h-4.05a.916.916,0,0,1,.916.916v31.6a4.062,4.062,0,0,1-2.04,3.525,4.067,4.067,0,0,0,6.09-3.526v-31.6a.916.916,0,0,0-.916-.915" fill="#feb137"/>
          <path id="Trazado_912197" data-name="Trazado 912197" d="M58.289,77.749H5.046V5.961a.916.916,0,0,1,.916-.916H55.856l4.134,6.1v64.9a1.7,1.7,0,0,1-1.7,1.7Z" fill="#f0fcff"/>
          <path id="Trazado_912198" data-name="Trazado 912198" d="M57.022,8.5l.865,2.64v64.9a1.638,1.638,0,0,1-1.577,1.7h3.942a1.7,1.7,0,0,0,1.7-1.7v-64.9Z" fill="#d7ecfe"/>
          <path id="Trazado_912199" data-name="Trazado 912199" d="M55.856,5.046v5.181a.916.916,0,0,0,.916.916h5.181Z" fill="#9dcffd"/>
          <path id="Trazado_912200" data-name="Trazado 912200" d="M55.537,77.741h0V42.074a.916.916,0,0,0-.916-.916H39.6l-4.065,6.1H1.9a.916.916,0,0,0-.916.916V77.752a4.057,4.057,0,0,0,4.057,4.057H59.6a4.065,4.065,0,0,1-4.064-4.066Z" fill="#ffe177"/>
          <path id="Trazado_912201" data-name="Trazado 912201" d="M57.888,77.741h0V42.074a.916.916,0,0,0-.916-.916H53.046a.916.916,0,0,1,.916.916V77.741a4.065,4.065,0,0,0,4.064,4.064h3.926a4.065,4.065,0,0,1-4.064-4.064" fill="#f9d45d"/>
          <path id="Trazado_912202" data-name="Trazado 912202" d="M19.514,75.709H7.994a.916.916,0,0,1-.916-.916v-6.3a.916.916,0,0,1,.916-.916h11.52a.916.916,0,0,1,.916.916v6.3a.916.916,0,0,1-.916.916" fill="#ffc344"/>
          <path id="Trazado_912203" data-name="Trazado 912203" d="M22.421,67.579H18.5a.916.916,0,0,1,.916.916v6.3a.916.916,0,0,1-.916.916h3.926a.916.916,0,0,0,.916-.916V68.5a.916.916,0,0,0-.916-.916" fill="#feb137"/>
          <path id="Trazado_912204" data-name="Trazado 912204" d="M61.954,12.125a.981.981,0,0,1-.981-.981V1.9l-50.945.065.065,3.083a.982.982,0,1,1-1.963,0V1.9A1.9,1.9,0,0,1,10.03,0H61.04a1.9,1.9,0,0,1,1.9,1.9v9.246a.981.981,0,0,1-.983.979h0"/>
          <path id="Trazado_912205" data-name="Trazado 912205" d="M61.953,82.788a5.052,5.052,0,0,1-5.046-5.046.981.981,0,1,1,1.963,0,3.084,3.084,0,0,0,6.167,0v-31.6l-3.083.065a.982.982,0,0,1,0-1.963H65.1a1.9,1.9,0,0,1,1.9,1.9v31.6a5.052,5.052,0,0,1-5.05,5.044"/>
          <path id="Trazado_912206" data-name="Trazado 912206" d="M60.252,78.73H57.889a.982.982,0,0,1,0-1.963h2.363a.722.722,0,0,0,.72-.72v-64.5L55.45,6.027H5.962L6.027,33.66a.982.982,0,0,1-1.963,0V5.961a1.9,1.9,0,0,1,1.9-1.9H55.857a.979.979,0,0,1,.693.287l6.1,6.1a.983.983,0,0,1,.288.7v64.9a2.686,2.686,0,0,1-2.685,2.683"/>
          <path id="Trazado_912207" data-name="Trazado 912207" d="M5.046,48.193a.981.981,0,0,1-.981-.981V37.936a.981.981,0,0,1,1.962,0v9.276a.981.981,0,0,1-.981.981"/>
          <path id="Trazado_912208" data-name="Trazado 912208" d="M61.954,12.124H56.773a1.9,1.9,0,0,1-1.9-1.9V5.045a.981.981,0,1,1,1.963,0v5.181l5.116-.065a.981.981,0,1,1,0,1.963Z"/>
          <path id="Trazado_912209" data-name="Trazado 912209" d="M61.953,82.788H5.038A5.044,5.044,0,0,1,0,77.75V48.172a1.9,1.9,0,0,1,1.9-1.9H35.01l3.773-5.66a.982.982,0,0,1,.817-.437H56.972a1.9,1.9,0,0,1,1.9,1.9v8.767a.982.982,0,1,1-1.963,0V42.075l-16.783.063L36.349,47.8a.982.982,0,0,1-.817.437H1.9l.065,29.513A3.079,3.079,0,0,0,5.04,80.828H57.961a5.024,5.024,0,0,1-1.054-3.083V55.118H58.87V77.741a3.086,3.086,0,0,0,3.083,3.083.982.982,0,0,1,0,1.963Z"/>
          <path id="Trazado_912210" data-name="Trazado 912210" d="M22.422,76.691H18.945a.982.982,0,0,1,0-1.963h3.476L22.356,68.5l-14.362.065.065,6.232,6.608-.065a.982.982,0,1,1,0,1.963H7.994a1.9,1.9,0,0,1-1.9-1.9v-6.3a1.9,1.9,0,0,1,1.9-1.9H22.422a1.9,1.9,0,0,1,1.9,1.9v6.3a1.9,1.9,0,0,1-1.9,1.9"/>
        </g>
      </g>
    </g>
    <g id="Layer_2" data-name="Layer 2" transform="translate(781.001 619.754)">
      <path id="Trazado_912211" data-name="Trazado 912211" d="M13.555,16.652a.778.778,0,0,0,.778.778h9.333a.778.778,0,0,0,.778-.778,5.447,5.447,0,0,0-2.924-4.822,3.889,3.889,0,1,0-5.04,0,5.447,5.447,0,0,0-2.924,4.822Zm3.111-7.777A2.333,2.333,0,1,1,19,11.208a2.333,2.333,0,0,1-2.333-2.333ZM19,12.763a3.9,3.9,0,0,1,3.811,3.111H15.188A3.9,3.9,0,0,1,19,12.763ZM5,32.207a.778.778,0,0,0,.778.778h9.333a.778.778,0,0,0,.778-.778,5.447,5.447,0,0,0-2.924-4.822,3.889,3.889,0,1,0-5.04,0A5.447,5.447,0,0,0,5,32.207Zm3.111-7.777a2.333,2.333,0,1,1,2.333,2.333A2.333,2.333,0,0,1,8.111,24.429Zm2.333,3.889a3.9,3.9,0,0,1,3.811,3.111H6.633a3.9,3.9,0,0,1,3.811-3.111Zm14.59-.933a5.447,5.447,0,0,0-2.924,4.822.778.778,0,0,0,.778.778h9.333A.778.778,0,0,0,33,32.207a5.447,5.447,0,0,0-2.924-4.822,3.889,3.889,0,1,0-5.04,0Zm6.331,4.044H23.743a3.889,3.889,0,0,1,7.622,0ZM27.554,22.1a2.333,2.333,0,1,1-2.333,2.333A2.333,2.333,0,0,1,27.554,22.1Zm-7.777-3.111V23.34l2.884,2.884a.779.779,0,0,1-1.1,1.1L19,24.753l-2.56,2.56a.779.779,0,0,1-1.1-1.1l2.884-2.871V18.985a.778.778,0,0,1,1.555,0Z"/>
    </g>
  </g>
</svg>
