<svg xmlns="http://www.w3.org/2000/svg" xmlns:xlink="http://www.w3.org/1999/xlink" width="409.787" height="640.614" viewBox="0 0 409.787 640.614">
  <defs>
    <clipPath id="clip-path">
      <rect id="Rectángulo_403157" data-name="Rectángulo 403157" width="190.815" height="241.66" fill="none"/>
    </clipPath>
    <clipPath id="clip-path-2">
      <rect id="Rectángulo_403154" data-name="Rectángulo 403154" width="91.559" height="75.949" fill="none"/>
    </clipPath>
    <clipPath id="clip-path-3">
      <rect id="Rectángulo_403155" data-name="Rectángulo 403155" width="117.245" height="93.148" fill="none"/>
    </clipPath>
    <clipPath id="clip-path-4">
      <rect id="Rectángulo_403156" data-name="Rectángulo 403156" width="31.028" height="35.381" fill="none"/>
    </clipPath>
    <clipPath id="clip-path-5">
      <rect id="Rectángulo_403153" data-name="Rectángulo 403153" width="349.615" height="468.473" fill="none"/>
    </clipPath>
    <clipPath id="clip-path-7">
      <rect id="Rectángulo_403129" data-name="Rectángulo 403129" width="49.384" height="422.162" fill="none"/>
    </clipPath>
    <clipPath id="clip-path-8">
      <rect id="Rectángulo_403131" data-name="Rectángulo 403131" width="47.977" height="8.115" fill="none"/>
    </clipPath>
    <clipPath id="clip-path-9">
      <rect id="Rectángulo_403133" data-name="Rectángulo 403133" width="102.726" height="79.82" fill="none"/>
    </clipPath>
    <clipPath id="clip-path-10">
      <rect id="Rectángulo_403134" data-name="Rectángulo 403134" width="74.395" height="58.166" fill="none"/>
    </clipPath>
    <clipPath id="clip-path-11">
      <rect id="Rectángulo_403137" data-name="Rectángulo 403137" width="74.758" height="64.449" fill="none"/>
    </clipPath>
    <clipPath id="clip-path-12">
      <rect id="Rectángulo_403140" data-name="Rectángulo 403140" width="54.677" height="8.113" fill="none"/>
    </clipPath>
    <clipPath id="clip-path-13">
      <rect id="Rectángulo_403142" data-name="Rectángulo 403142" width="49.856" height="8.115" fill="none"/>
    </clipPath>
    <clipPath id="clip-path-16">
      <rect id="Rectángulo_403146" data-name="Rectángulo 403146" width="9.531" height="34.294" fill="none"/>
    </clipPath>
    <clipPath id="clip-path-17">
      <rect id="Rectángulo_403147" data-name="Rectángulo 403147" width="49.293" height="31.881" fill="none"/>
    </clipPath>
    <clipPath id="clip-path-18">
      <rect id="Rectángulo_403148" data-name="Rectángulo 403148" width="56.362" height="5.746" fill="none"/>
    </clipPath>
    <clipPath id="clip-path-19">
      <rect id="Rectángulo_403149" data-name="Rectángulo 403149" width="62.9" height="30.116" fill="none"/>
    </clipPath>
    <clipPath id="clip-path-20">
      <rect id="Rectángulo_403150" data-name="Rectángulo 403150" width="34.763" height="39.601" fill="none"/>
    </clipPath>
    <clipPath id="clip-path-21">
      <rect id="Rectángulo_403151" data-name="Rectángulo 403151" width="37.024" height="12.479" fill="none"/>
    </clipPath>
  </defs>
  <g id="Grupo_1102233" data-name="Grupo 1102233" transform="translate(-1010.213 -2503.773)">
    <g id="freepik--background-simple--inject-4" transform="translate(1010.213 2849.919)">
      <path id="Trazado_911702" data-name="Trazado 911702" d="M68.876,398.9H413.809c5.659-6.771,38.594-49.621,23.84-114.744-16.121-71.083-25.608-72.076-96.727-116.648s-95.706-82.5-177.3-52.155S79.228,202.607,83,248.118,34.7,328.724,31.812,357.175C29.525,380.012,49.282,394.894,68.876,398.9Z" transform="translate(-31.631 -104.436)" fill="#bca0db"/>
    </g>
    <path id="Trazado_911233" data-name="Trazado 911233" d="M6.021,0a.67.67,0,0,0-.627.424C.185,13.891-1.146,24.113.946,34.6A73.032,73.032,0,0,0,6.474,50.778c2.815,6.157,6.471,12.807,10,19.077,6.674,11.848,4.96,25.866,3.145,40.707C18.365,120.834,17.066,131.455,18.47,142a57.681,57.681,0,0,0,1.609,7.912,51.706,51.706,0,0,0,2.89,7.837,52.32,52.32,0,0,0,4.428,7.708,59.7,59.7,0,0,0,6.217,7.526,65.94,65.94,0,0,0,9.587,8.2,57.472,57.472,0,0,0,10.179,5.671A55.527,55.527,0,0,0,64,190.19a59.038,59.038,0,0,0,10.891,1.193,70.966,70.966,0,0,0,18.579-2.259,94.728,94.728,0,0,0,18.219-6.763,121.259,121.259,0,0,0,17.175-10.282,138.7,138.7,0,0,0,15.448-12.83c22.621-21.716,51.058-32.8,82.782-32.8,16.278,0,33.42,2.918,51.087,8.816a58.768,58.768,0,0,0,11.591,2.586,64.091,64.091,0,0,0,11.87.294,70.611,70.611,0,0,0,11.843-1.83A76.517,76.517,0,0,0,325,132.53a80.41,80.41,0,0,0,20.856-12.781,77.956,77.956,0,0,0,8.741-8.671,73.277,73.277,0,0,0,7.215-9.976,66.131,66.131,0,0,0,8.4-21.934,64.7,64.7,0,0,0-.271-24.912,74.43,74.43,0,0,0-4.033-13.206,88.972,88.972,0,0,0-6.966-13.51,112.079,112.079,0,0,0-10.148-13.673A146.173,146.173,0,0,0,335.214.17a.68.68,0,0,0-.947.046.648.648,0,0,0,.047.928A126.686,126.686,0,0,1,357.8,28.227a79.783,79.783,0,0,1,10.827,26.286,63.3,63.3,0,0,1-7.975,45.922c-17.1,28.481-53.14,43.233-82.044,33.585a184.394,184.394,0,0,0-21.345-5.763,156.635,156.635,0,0,0-20.161-2.8,137.34,137.34,0,0,0-18.935-.06,125.007,125.007,0,0,0-17.667,2.456,118.39,118.39,0,0,0-16.355,4.747,116.4,116.4,0,0,0-15,6.811,119.768,119.768,0,0,0-25.775,18.9,129.43,129.43,0,0,1-32.282,22.873,93.373,93.373,0,0,1-17.956,6.667,69.6,69.6,0,0,1-18.22,2.218C59.465,189.8,45.9,183.746,34.586,172.08c-18.77-19.357-16.159-40.711-13.633-61.361.929-7.593,1.806-14.765,1.618-21.722a50.31,50.31,0,0,0-1.234-10.2,38.216,38.216,0,0,0-1.486-4.877,35.009,35.009,0,0,0-2.2-4.7C14.133,62.975,10.493,56.354,7.7,50.24A71.789,71.789,0,0,1,2.262,34.352C.222,24.118,1.533,14.111,6.648.891A.654.654,0,0,0,6.259.043.681.681,0,0,0,6.021,0Z" transform="translate(1409.85 3133) rotate(-177)" fill="#ffdba9"/>
    <g id="Grupo_1101737" data-name="Grupo 1101737" transform="translate(1105 2503.773)">
      <g id="Grupo_1101736" data-name="Grupo 1101736" clip-path="url(#clip-path)">
        <g id="Grupo_1101729" data-name="Grupo 1101729" transform="translate(97.572 165.711)" opacity="0.2" style="isolation: isolate">
          <g id="Grupo_1101728" data-name="Grupo 1101728">
            <g id="Grupo_1101727" data-name="Grupo 1101727" clip-path="url(#clip-path-2)">
              <path id="Trazado_912561" data-name="Trazado 912561" d="M73.378,193.286a5.532,5.532,0,0,0,6.775-3.908L92.61,142.942a4.586,4.586,0,0,0-3.421-5.5l-4.365-1.172a4.758,4.758,0,0,1-3.481-3.6l-.427-2.156a4.763,4.763,0,0,0-3.481-3.6l-20.727-5.56a4.8,4.8,0,0,0-4.5,1.046l-1.451,1.341a4.8,4.8,0,0,1-4.5,1.046L19.842,117.7a4.586,4.586,0,0,0-5.716,3.053L1.384,168.244a5.531,5.531,0,0,0,3.908,6.775Z" transform="translate(-1.194 -117.527)"/>
            </g>
          </g>
        </g>
        <path id="Trazado_912562" data-name="Trazado 912562" d="M47.6,125.533l16.818,4.472,2.255-2.405a6,6,0,0,1,5.935-1.593l16.431,4.408A5.316,5.316,0,0,1,93,136.794l-.513,1.916L78.956,189.131a6.041,6.041,0,0,1-7.528,4.02l-66.736-17.9A6.041,6.041,0,0,1,.189,168l12.777-47.631a3.983,3.983,0,0,1,4.88-2.814Z" transform="translate(97.652 48.139)" fill="#f4d9a9"/>
        <g id="Grupo_1101732" data-name="Grupo 1101732" opacity="0.2" style="isolation: isolate">
          <g id="Grupo_1101731" data-name="Grupo 1101731">
            <g id="Grupo_1101730" data-name="Grupo 1101730" clip-path="url(#clip-path-3)">
              <path id="Trazado_912563" data-name="Trazado 912563" d="M153.977,93.1a7.507,7.507,0,0,0,8.282-6.642l7.13-64.868a6.228,6.228,0,0,0-5.725-6.678l-6.1-.67a6.461,6.461,0,0,1-5.413-4.109l-1.018-2.8a6.463,6.463,0,0,0-5.413-4.109L116.768.041a6.519,6.519,0,0,0-5.818,2.332l-1.669,2.1A6.516,6.516,0,0,1,103.465,6.8L66.554,2.745a6.228,6.228,0,0,0-7.039,5.276L52.223,74.365a7.507,7.507,0,0,0,6.642,8.282Z" transform="translate(-52.178 0)"/>
            </g>
          </g>
        </g>
        <path id="Trazado_912564" data-name="Trazado 912564" d="M106.382,6.447l23.486,2.53L132.4,5.284a8.153,8.153,0,0,1,7.635-3.363l22.95,2.522a7.218,7.218,0,0,1,6.635,7.741l-.293,2.676L161.581,85.3a8.2,8.2,0,0,1-9.269,6.947L59.083,82A8.2,8.2,0,0,1,51.545,73.2L58.859,6.663a5.408,5.408,0,0,1,5.966-4.784Z" transform="translate(-51.455 0.757)" fill="#f4d9a9"/>
        <g id="Grupo_1101735" data-name="Grupo 1101735" transform="translate(36.748 31.725)" opacity="0.6" style="isolation: isolate">
          <g id="Grupo_1101734" data-name="Grupo 1101734">
            <g id="Grupo_1101733" data-name="Grupo 1101733" clip-path="url(#clip-path-4)">
              <path id="Trazado_912565" data-name="Trazado 912565" d="M101.294,39.671a9.1,9.1,0,0,1-4.471-8.963c.53-5,4.759-8.656,9.448-8.162s8.059,4.948,7.531,9.949a9.091,9.091,0,0,1-6.336,7.855c12.841,3.4,10.689,17.532,10.689,17.532L87.263,54.629s.873-14.426,14.031-14.959" transform="translate(-87.261 -22.5)" fill="#fff"/>
            </g>
          </g>
        </g>
        <path id="Trazado_912566" data-name="Trazado 912566" d="M36.777,60.41a16,16,0,0,0-4.064-1.225l-1.248-3.732L24.99,56.1,24.506,60a15.973,15.973,0,0,0-3.741,2l-3.519-1.755-4.123,5.038,2.42,3.1a15.907,15.907,0,0,0-1.225,4.064L10.587,73.7l.647,6.477,3.906.484a15.833,15.833,0,0,0,2,3.739l-1.757,3.521,5.038,4.121,3.1-2.418a15.9,15.9,0,0,0,4.064,1.224l1.246,3.732,6.477-.649.484-3.9a15.936,15.936,0,0,0,3.739-2l3.519,1.757,4.123-5.039-2.418-3.1a15.937,15.937,0,0,0,1.224-4.064l3.732-1.248-.649-6.477-3.9-.482a15.973,15.973,0,0,0-2-3.741l1.757-3.519L39.878,57.99Zm-2.432,9.017a6.983,6.983,0,1,1-9.826.983,6.984,6.984,0,0,1,9.826-.983" transform="translate(126.17 22.734)" fill="#b7cc95"/>
      </g>
    </g>
    <g id="Grupo_1101726" data-name="Grupo 1101726" transform="translate(1045.062 2675.914)">
      <g id="Grupo_1101725" data-name="Grupo 1101725" clip-path="url(#clip-path-5)">
        <rect id="Rectángulo_403127" data-name="Rectángulo 403127" width="180.641" height="422.162" transform="translate(0 46.311)" fill="#455a64"/>
        <g id="Grupo_1101704" data-name="Grupo 1101704">
          <g id="Grupo_1101703" data-name="Grupo 1101703" clip-path="url(#clip-path-5)">
            <g id="Grupo_1101681" data-name="Grupo 1101681" transform="translate(0 46.311)" opacity="0.3">
              <g id="Grupo_1101680" data-name="Grupo 1101680">
                <g id="Grupo_1101679" data-name="Grupo 1101679" clip-path="url(#clip-path-7)">
                  <rect id="Rectángulo_403128" data-name="Rectángulo 403128" width="49.384" height="422.162"/>
                </g>
              </g>
            </g>
            <path id="Trazado_912469" data-name="Trazado 912469" d="M165.267,146.867s-.018-.531-.027-1.538-.015-2.507-.029-4.443c-.014-3.9-.036-9.6-.064-16.893-.031-14.575-.076-35.479-.131-60.872l.251.251L47.429,63.43h-.01l.309-.309c-.011,29.98-.02,58.428-.029,83.746l-.281-.282,84.955.139,24.216.076,6.44.033,1.664.017c.374.006.574.017.574.017s-.177.011-.542.017l-1.633.017-6.383.033-24.153.076-85.138.139h-.282v-.282c-.008-25.317-.018-53.766-.029-83.746v-.31h.32l117.839.059h.251v.251c-.055,25.459-.1,46.416-.131,61.028-.029,7.266-.05,12.95-.064,16.837-.013,1.916-.023,3.386-.029,4.4-.009.99-.027,1.486-.027,1.486" transform="translate(8.885 11.847)" fill="#263238"/>
            <g id="Grupo_1101684" data-name="Grupo 1101684" transform="translate(92.348 126.447)" opacity="0.3">
              <g id="Grupo_1101683" data-name="Grupo 1101683">
                <g id="Grupo_1101682" data-name="Grupo 1101682" clip-path="url(#clip-path-8)">
                  <rect id="Rectángulo_403130" data-name="Rectángulo 403130" width="47.976" height="8.115" transform="translate(0.001)"/>
                </g>
              </g>
            </g>
            <path id="Trazado_912470" data-name="Trazado 912470" d="M115.023,99.483H90.3a2.963,2.963,0,0,1-2.963-2.963V78.957A2.963,2.963,0,0,1,90.3,75.995h24.723a2.963,2.963,0,0,1,2.963,2.962V96.52a2.963,2.963,0,0,1-2.963,2.963" transform="translate(16.473 14.333)" fill="#fff"/>
            <path id="Trazado_912471" data-name="Trazado 912471" d="M115.683,94.617a7.762,7.762,0,0,1-1.105-1.154c-.75-.871-1.7-1.977-2.837-3.3q-.9-1.066-1.934-2.294c-.174-.2-.347-.412-.525-.623a.561.561,0,0,0-.521-.174c-.2.03-.311.175-.531.424l-.6.669q-.61.678-1.246,1.386a1.342,1.342,0,0,1-1,.586,1.128,1.128,0,0,1-.632-.175,1.226,1.226,0,0,1-.253-.218l-.162-.185q-1.3-1.5-2.673-3.093-.683-.8-1.353-1.571l-.661-.77a.524.524,0,0,0-.576-.181.513.513,0,0,0-.253.174l-.3.383-.59.761q-.583.751-1.145,1.471c-1.479,1.883-2.823,3.593-3.982,5.071l-2.727,3.385a8.047,8.047,0,0,1-1.067,1.19,7.85,7.85,0,0,1,.876-1.337l2.571-3.505,3.878-5.151c.366-.484.744-.978,1.127-1.483.194-.253.386-.508.582-.765l.3-.391a1.133,1.133,0,0,1,1.767-.019l.666.768q.669.774,1.354,1.569l2.664,3.1c.363.515.779.5,1.152-.01l1.26-1.372.61-.661a1.468,1.468,0,0,1,.847-.584,1.1,1.1,0,0,1,1.013.358c.179.219.353.435.525.647.667.834,1.294,1.617,1.876,2.343l2.685,3.421a7.827,7.827,0,0,1,.92,1.307" transform="translate(16.788 15.714)" fill="#263238"/>
            <path id="Trazado_912472" data-name="Trazado 912472" d="M105.754,82.119c-.05,0-.07-.226-.2-.591a2.552,2.552,0,0,0-.94-1.254A2.337,2.337,0,0,0,102.446,80a2.264,2.264,0,0,0,0,4.234,2.34,2.34,0,0,0,2.173-.272,2.556,2.556,0,0,0,.939-1.254c.126-.365.146-.592.2-.591.034,0,.1.228.037.649a2.527,2.527,0,0,1-.907,1.544,2.741,2.741,0,0,1-2.632.46,2.809,2.809,0,0,1,0-5.306,2.741,2.741,0,0,1,2.632.46,2.533,2.533,0,0,1,.907,1.544c.063.421,0,.65-.037.649" transform="translate(18.93 14.959)" fill="#263238"/>
            <g id="Grupo_1101687" data-name="Grupo 1101687" transform="translate(54.931 165.012)" opacity="0.4">
              <g id="Grupo_1101686" data-name="Grupo 1101686">
                <g id="Grupo_1101685" data-name="Grupo 1101685" clip-path="url(#clip-path-9)">
                  <rect id="Rectángulo_403132" data-name="Rectángulo 403132" width="102.726" height="79.82" transform="translate(0.001)"/>
                </g>
              </g>
            </g>
            <path id="Trazado_912473" data-name="Trazado 912473" d="M105.134,142.031H85.613l-1.147-1.961a4.29,4.29,0,0,0-3.7-2.124H66.36a4.288,4.288,0,0,0-4.284,4.085H56.949a4.016,4.016,0,0,0-4.016,4.016V156h56.218v-9.953a4.017,4.017,0,0,0-4.016-4.016" transform="translate(9.984 26.018)" fill="#e0e0e0"/>
            <path id="Trazado_912474" data-name="Trazado 912474" d="M113.808,142.031H94.287L93.14,140.07a4.29,4.29,0,0,0-3.7-2.124h-14.4a4.29,4.29,0,0,0-4.285,4.085H65.622a4.016,4.016,0,0,0-4.015,4.016V156h56.218v-9.953a4.017,4.017,0,0,0-4.016-4.016" transform="translate(11.62 26.018)" fill="#ebebeb"/>
            <path id="Trazado_912475" data-name="Trazado 912475" d="M125.08,142.031H105.559l-1.147-1.961a4.29,4.29,0,0,0-3.7-2.124h-14.4a4.29,4.29,0,0,0-4.285,4.085H76.894a4.016,4.016,0,0,0-4.015,4.016V156H129.1v-9.953a4.017,4.017,0,0,0-4.016-4.016" transform="translate(13.746 26.018)" fill="#f5f5f5"/>
            <path id="Trazado_912476" data-name="Trazado 912476" d="M78.688,194.3V146.442A4.146,4.146,0,0,1,83,142.487h4.124a4.354,4.354,0,0,0,3.916-2.3l.887-1.759a4.353,4.353,0,0,1,3.918-2.3h19.575a4.4,4.4,0,0,1,3.714,1.942l.962,1.492a4.406,4.406,0,0,0,3.714,1.942h24.955a4.147,4.147,0,0,1,4.315,3.954V194.3Z" transform="translate(14.841 25.676)" fill="#e07199"/>
            <g id="Grupo_1101690" data-name="Grupo 1101690" transform="translate(93.529 161.808)" opacity="0.3">
              <g id="Grupo_1101689" data-name="Grupo 1101689">
                <g id="Grupo_1101688" data-name="Grupo 1101688" clip-path="url(#clip-path-10)">
                  <path id="Trazado_912477" data-name="Trazado 912477" d="M78.688,194.3V146.442A4.146,4.146,0,0,1,83,142.487h4.124a4.354,4.354,0,0,0,3.916-2.3l.887-1.759a4.353,4.353,0,0,1,3.918-2.3h19.575a4.4,4.4,0,0,1,3.714,1.942l.962,1.492a4.406,4.406,0,0,0,3.714,1.942h24.955a4.147,4.147,0,0,1,4.315,3.954V194.3Z" transform="translate(-78.688 -136.132)"/>
                </g>
              </g>
            </g>
            <path id="Trazado_912478" data-name="Trazado 912478" d="M91.84,159.168V121.352a5.641,5.641,0,0,1,5.641-5.641h60.21a5.641,5.641,0,0,1,5.641,5.641v36.768Z" transform="translate(17.322 21.824)" fill="#fff"/>
            <path id="Trazado_912479" data-name="Trazado 912479" d="M93.822,170.78V122.924a4.146,4.146,0,0,1,4.315-3.954h4.124a4.354,4.354,0,0,0,3.916-2.3l.887-1.76a4.355,4.355,0,0,1,3.918-2.3h19.575a4.4,4.4,0,0,1,3.714,1.942l.962,1.492a4.406,4.406,0,0,0,3.714,1.942H163.9a4.147,4.147,0,0,1,4.315,3.954V170.78Z" transform="translate(17.696 21.24)" fill="#e07199"/>
            <path id="Trazado_912480" data-name="Trazado 912480" d="M93.861,170.827a3.366,3.366,0,0,1,.368-.017l1.057-.017,4.076-.033,15.3-.076,53.6-.139-.282.282c-.006-8.008-.013-16.51-.02-25.383q0-6.654-.006-13.57,0-3.454,0-6.963v-1.758a13.279,13.279,0,0,0-.051-1.709,3.622,3.622,0,0,0-1.859-2.552,4.231,4.231,0,0,0-1.443-.491,11.772,11.772,0,0,0-1.594-.053h-9.737l-12.65,0h-1.551a5.083,5.083,0,0,1-1.614-.246,4.579,4.579,0,0,1-2.519-1.979l-.825-1.281a3.8,3.8,0,0,0-.946-1.033,4.287,4.287,0,0,0-2.633-.845l-11.705-.009-5.642-.007c-.912.017-1.888-.039-2.729.034a4.234,4.234,0,0,0-2.293,1.046c-1.255,1.082-1.387,3.269-3.027,4.356a4.772,4.772,0,0,1-2.567.891l-2.577,0a24.534,24.534,0,0,0-2.478.05,4.156,4.156,0,0,0-2.1.943,3.64,3.64,0,0,0-1.2,1.891,12.179,12.179,0,0,0-.106,2.311q-.012,4.7-.023,9.016c-.05,11.493-.09,20.8-.119,27.263-.023,3.216-.039,5.722-.052,7.45-.01.838-.017,1.487-.023,1.951-.007.442-.023.68-.023.68s-.015-.208-.023-.636q-.009-.679-.023-1.909c-.013-1.716-.03-4.2-.052-7.394-.029-6.478-.069-15.81-.119-27.332q-.011-4.338-.023-9.077a12.279,12.279,0,0,1,.111-2.437,4.125,4.125,0,0,1,1.348-2.153,4.655,4.655,0,0,1,2.349-1.065,24.35,24.35,0,0,1,2.554-.064l2.55-.012a4.255,4.255,0,0,0,2.285-.8c1.451-.92,1.51-2.947,2.969-4.329a4.784,4.784,0,0,1,2.59-1.191c.984-.086,1.857-.025,2.8-.045l5.642-.006,11.705-.011a4.877,4.877,0,0,1,2.991.96,4.391,4.391,0,0,1,1.091,1.185l.826,1.279a3.96,3.96,0,0,0,2.2,1.731,4.433,4.433,0,0,0,1.428.215h1.551l12.65,0H163a12.02,12.02,0,0,1,1.685.059,4.836,4.836,0,0,1,1.655.563,4.24,4.24,0,0,1,2.167,2.991,13.485,13.485,0,0,1,.058,1.81v1.758q0,3.507,0,6.963,0,6.907-.006,13.57c-.007,8.873-.014,17.375-.02,25.383v.282h-.282l-53.78-.14-15.234-.075-4.02-.033-1.025-.017a2.382,2.382,0,0,1-.336-.017" transform="translate(17.657 21.193)" fill="#263238"/>
            <path id="Trazado_912481" data-name="Trazado 912481" d="M124.952,116.3c0,.171-3.538.309-7.9.309s-7.9-.138-7.9-.309,3.538-.309,7.9-.309,7.9.138,7.9.309" transform="translate(20.586 21.876)" fill="#fff"/>
            <path id="Trazado_912482" data-name="Trazado 912482" d="M113.306,187.7V139.842c0-2.185,2.183-3.954,4.876-3.954h4.662a5.054,5.054,0,0,0,4.428-2.3l1-1.759a5.051,5.051,0,0,1,4.428-2.3h22.125a5.187,5.187,0,0,1,4.2,1.942l1.086,1.492a5.187,5.187,0,0,0,4.2,1.942h28.2c2.693,0,4.876,1.771,4.876,3.954V187.7Z" transform="translate(21.371 24.431)" fill="#e07199"/>
            <path id="Trazado_912483" data-name="Trazado 912483" d="M113.345,187.745s.147-.012.418-.017l1.2-.017,4.634-.036,17.36-.077,60.466-.139-.285.285c-.006-8.1-.012-16.6-.018-25.416q0-6.609,0-13.44,0-3.412,0-6.874c-.01-1.137.021-2.345-.02-3.435a3.545,3.545,0,0,0-1.764-2.552,5.622,5.622,0,0,0-3.22-.763H181.655l-13.583,0h-3.325a6.256,6.256,0,0,1-3.321-.744,4.845,4.845,0,0,1-1.342-1.1c-.36-.46-.65-.884-.978-1.325a4.517,4.517,0,0,0-2.334-1.88,7.944,7.944,0,0,0-3.052-.338l-3.161,0-6.212,0-11.942,0a5.3,5.3,0,0,0-2.585.825,4.034,4.034,0,0,0-.988.894,11.148,11.148,0,0,0-.717,1.174c-.24.412-.448.806-.713,1.229a4.341,4.341,0,0,1-1.01,1.072,5.638,5.638,0,0,1-2.645,1.072c-1.884.122-3.625.029-5.4.053a4.927,4.927,0,0,0-4.261,2.024,3.617,3.617,0,0,0-.512,2.271q0,1.237,0,2.447-.007,2.421-.012,4.734c-.05,12.341-.092,22.335-.119,29.268-.023,3.454-.04,6.145-.052,8-.011.9-.018,1.6-.024,2.092-.007.474-.023.729-.023.729s-.015-.225-.023-.683c-.006-.486-.013-1.167-.024-2.053-.012-1.839-.03-4.512-.052-7.942-.027-6.953-.069-16.977-.119-29.355q-.005-2.329-.011-4.766,0-1.218-.006-2.463a4.127,4.127,0,0,1,.576-2.533,5.409,5.409,0,0,1,4.665-2.263c1.738-.029,3.581.051,5.324-.067a5.123,5.123,0,0,0,2.4-.977,6.046,6.046,0,0,0,1.581-2.149,11.538,11.538,0,0,1,.756-1.241,4.572,4.572,0,0,1,1.114-1.015,5.836,5.836,0,0,1,2.849-.919l11.973-.024,6.212-.006,3.161,0a8.513,8.513,0,0,1,3.256.37,5.127,5.127,0,0,1,2.613,2.085c.317.427.644.9.954,1.292a4.23,4.23,0,0,0,1.178.958,5.646,5.646,0,0,0,3.027.663h3.325l13.583,0h10.456a6.238,6.238,0,0,1,3.546.855,4.164,4.164,0,0,1,2.053,3.008c.049,1.229.013,2.337.024,3.505q0,3.461,0,6.874,0,6.825,0,13.44c-.007,8.812-.013,17.314-.018,25.416v.286h-.286l-60.655-.139-17.294-.077-4.576-.034-1.17-.018a2.861,2.861,0,0,1-.385-.017" transform="translate(21.332 24.384)" fill="#263238"/>
            <path id="Trazado_912484" data-name="Trazado 912484" d="M150.738,133.757c0,.171-4.675.309-10.44.309s-10.44-.138-10.44-.309,4.674-.309,10.44-.309,10.44.138,10.44.309" transform="translate(24.493 25.17)" fill="#fff"/>
            <rect id="Rectángulo_403135" data-name="Rectángulo 403135" width="74.759" height="64.449" transform="translate(54.93 180.972)" fill="#455a64"/>
            <g id="Grupo_1101693" data-name="Grupo 1101693" transform="translate(54.931 180.972)" opacity="0.3">
              <g id="Grupo_1101692" data-name="Grupo 1101692">
                <g id="Grupo_1101691" data-name="Grupo 1101691" clip-path="url(#clip-path-11)">
                  <rect id="Rectángulo_403136" data-name="Rectángulo 403136" width="74.759" height="64.449" transform="translate(-0.001)"/>
                </g>
              </g>
            </g>
            <rect id="Rectángulo_403138" data-name="Rectángulo 403138" width="117.848" height="83.746" transform="translate(129.69 163.964)" fill="#455a64"/>
            <path id="Trazado_912485" data-name="Trazado 912485" d="M227.008,221.742s-.018-.531-.027-1.538-.015-2.507-.029-4.443c-.014-3.9-.036-9.6-.064-16.893-.031-14.575-.076-35.479-.131-60.872l.251.251-117.84.058h-.008l.309-.309c-.011,29.98-.02,58.428-.029,83.746l-.281-.282,84.953.14,24.217.075,6.44.033,1.664.017c.374.006.574.017.574.017s-.177.011-.542.017l-1.633.017-6.383.033-24.153.076-85.138.139h-.282v-.282c-.01-25.317-.018-53.766-.029-83.746v-.31h.319l117.84.059h.251V138c-.055,25.459-.1,46.416-.131,61.028-.029,7.266-.05,12.95-.064,16.837-.013,1.916-.023,3.386-.029,4.4-.01.99-.027,1.486-.027,1.486" transform="translate(20.53 25.969)" fill="#263238"/>
            <g id="Grupo_1101696" data-name="Grupo 1101696" transform="translate(167.64 219.134)" opacity="0.3">
              <g id="Grupo_1101695" data-name="Grupo 1101695">
                <g id="Grupo_1101694" data-name="Grupo 1101694" clip-path="url(#clip-path-12)">
                  <rect id="Rectángulo_403139" data-name="Rectángulo 403139" width="54.677" height="8.115" transform="translate(0 -0.001)"/>
                </g>
              </g>
            </g>
            <path id="Trazado_912486" data-name="Trazado 912486" d="M177.327,181.417H152.6a2.963,2.963,0,0,1-2.963-2.963V160.891a2.963,2.963,0,0,1,2.963-2.962h24.723a2.963,2.963,0,0,1,2.963,2.962v17.563a2.963,2.963,0,0,1-2.963,2.963" transform="translate(28.224 29.787)" fill="#fff"/>
            <path id="Trazado_912487" data-name="Trazado 912487" d="M155.11,163.784h6.27l.011,2.1h-.3a1.907,1.907,0,0,0-.844-1.525,2.591,2.591,0,0,0-1.17-.239v5.485a1.06,1.06,0,0,0,.2.763,1.289,1.289,0,0,0,.837.189v.264H156.4v-.264a1.224,1.224,0,0,0,.811-.191,1.058,1.058,0,0,0,.2-.761V164.12a2.658,2.658,0,0,0-1.17.239,1.768,1.768,0,0,0-.844,1.525h-.3Z" transform="translate(29.254 30.891)" fill="#263238"/>
            <path id="Trazado_912488" data-name="Trazado 912488" d="M171.753,164.3c0,.171-2.2.309-4.916.309s-4.916-.138-4.916-.309,2.2-.309,4.916-.309,4.916.138,4.916.309" transform="translate(30.54 30.93)" fill="#263238"/>
            <path id="Trazado_912489" data-name="Trazado 912489" d="M171.919,168c0,.171-2.2.309-4.916.309s-4.916-.138-4.916-.309,2.2-.309,4.916-.309,4.916.138,4.916.309" transform="translate(30.571 31.627)" fill="#263238"/>
            <path id="Trazado_912490" data-name="Trazado 912490" d="M174.368,171.7c0,.171-4.1.309-9.163.309s-9.163-.138-9.163-.309,4.1-.309,9.163-.309,9.163.138,9.163.309" transform="translate(29.431 32.325)" fill="#263238"/>
            <path id="Trazado_912491" data-name="Trazado 912491" d="M165.267,300.214s-.018-.531-.027-1.538-.015-2.507-.029-4.443c-.014-3.9-.036-9.6-.064-16.893-.031-14.575-.076-35.479-.131-60.872l.251.251-117.839.058h-.01l.309-.309c-.011,29.98-.02,58.428-.029,83.746l-.281-.282,84.955.14,24.216.075,6.44.033,1.664.017c.374.006.574.017.574.017s-.177.011-.542.017l-1.633.017-6.383.033-24.153.076-85.138.139h-.282v-.282c-.008-25.317-.018-53.766-.029-83.746v-.31h.32l117.839.059h.251v.251c-.055,25.459-.1,46.416-.131,61.028-.029,7.266-.05,12.95-.064,16.837-.013,1.916-.023,3.386-.029,4.4-.009.99-.027,1.486-.027,1.486" transform="translate(8.885 40.769)" fill="#263238"/>
            <g id="Grupo_1101699" data-name="Grupo 1101699" transform="translate(92.348 308.716)" opacity="0.3">
              <g id="Grupo_1101698" data-name="Grupo 1101698">
                <g id="Grupo_1101697" data-name="Grupo 1101697" clip-path="url(#clip-path-13)">
                  <rect id="Rectángulo_403141" data-name="Rectángulo 403141" width="49.855" height="8.115" transform="translate(0.001)"/>
                </g>
              </g>
            </g>
            <path id="Trazado_912492" data-name="Trazado 912492" d="M114.181,256.67H89.458a2.963,2.963,0,0,1-2.963-2.963V236.144a2.963,2.963,0,0,1,2.963-2.962h24.723a2.963,2.963,0,0,1,2.963,2.962v17.563a2.963,2.963,0,0,1-2.963,2.963" transform="translate(16.314 43.98)" fill="#fff"/>
            <path id="Trazado_912493" data-name="Trazado 912493" d="M98.135,246.431a1.81,1.81,0,1,1-.775-2.439,1.809,1.809,0,0,1,.775,2.439" transform="translate(17.865 45.981)" fill="#263238"/>
            <path id="Trazado_912494" data-name="Trazado 912494" d="M97.725,246.792c-.172.031-.58-1.847-.6-4.185a17.238,17.238,0,0,1,.2-4.208c.184-.017.411,1.879.423,4.2a23.935,23.935,0,0,1-.03,4.2" transform="translate(18.319 44.964)" fill="#263238"/>
            <path id="Trazado_912495" data-name="Trazado 912495" d="M103.077,239.437a5.022,5.022,0,0,1-5.27-.127c-.489-.37-.62-.756-.555-.792.08-.057.315.19.794.417a5.736,5.736,0,0,0,1.991.529c1.634.162,2.987-.218,3.04-.027" transform="translate(18.34 44.985)" fill="#263238"/>
            <path id="Trazado_912496" data-name="Trazado 912496" d="M102.986,247.322a1.81,1.81,0,1,1-.775-2.439,1.809,1.809,0,0,1,.775,2.439" transform="translate(18.78 46.149)" fill="#263238"/>
            <path id="Trazado_912497" data-name="Trazado 912497" d="M102.576,247.683c-.172.031-.58-1.847-.6-4.185a17.241,17.241,0,0,1,.2-4.208c.184-.017.411,1.879.423,4.2a23.935,23.935,0,0,1-.03,4.2" transform="translate(19.234 45.132)" fill="#263238"/>
            <path id="Trazado_912498" data-name="Trazado 912498" d="M103.1,240.381c.088.138-1.153.883-2.867.783-1.716-.084-2.87-.957-2.767-1.085.088-.162,1.259.389,2.8.458,1.539.1,2.764-.326,2.834-.156" transform="translate(18.382 45.276)" fill="#263238"/>
            <path id="Trazado_912499" data-name="Trazado 912499" d="M165.267,376.9s-.018-.531-.027-1.538-.015-2.507-.029-4.443c-.014-3.9-.036-9.6-.064-16.893-.031-14.575-.076-35.479-.131-60.872l.251.251-117.839.058h-.01l.309-.309c-.011,29.98-.02,58.428-.029,83.746l-.281-.282,84.955.14,24.216.075,6.44.033,1.664.017c.374.006.574.017.574.017s-.177.011-.542.017l-1.633.017-6.383.033-24.153.076-85.138.139h-.282V376.9c-.008-25.317-.018-53.766-.029-83.746v-.31h.32l117.839.059h.251v.251c-.055,25.459-.1,46.416-.131,61.028-.029,7.266-.05,12.95-.064,16.837-.013,1.916-.023,3.386-.029,4.4-.009.99-.027,1.486-.027,1.486" transform="translate(8.885 55.233)" fill="#263238"/>
            <g id="Grupo_1101702" data-name="Grupo 1101702" transform="translate(92.348 399.863)" opacity="0.3">
              <g id="Grupo_1101701" data-name="Grupo 1101701">
                <g id="Grupo_1101700" data-name="Grupo 1101700" clip-path="url(#clip-path-13)">
                  <rect id="Rectángulo_403143" data-name="Rectángulo 403143" width="49.855" height="8.115" transform="translate(0.001 -0.001)"/>
                </g>
              </g>
            </g>
            <path id="Trazado_912500" data-name="Trazado 912500" d="M114.181,333.1H89.458a2.963,2.963,0,0,1-2.963-2.963V312.571a2.963,2.963,0,0,1,2.963-2.963h24.723a2.963,2.963,0,0,1,2.963,2.963v17.562a2.963,2.963,0,0,1-2.963,2.963" transform="translate(16.314 58.395)" fill="#fff"/>
            <path id="Trazado_912501" data-name="Trazado 912501" d="M101.317,317.554l2.42,1.406a.707.707,0,0,1,.014,1.215l-2.428,1.489-2.365,1.45a.707.707,0,0,1-1.077-.6l0-2.849,0-2.879a.707.707,0,0,1,1.063-.613Z" transform="translate(18.459 59.615)" fill="#263238"/>
          </g>
        </g>
        <g id="Grupo_1101724" data-name="Grupo 1101724">
          <g id="Grupo_1101723" data-name="Grupo 1101723" clip-path="url(#clip-path-5)">
            <path id="Trazado_912502" data-name="Trazado 912502" d="M303.683,113.174c-1.781-31.832-16-46.635-20.171-71.515-2.1-12.486-1.563-25.277-10.418-34.326-3.189-3.26-9.13-6.611-13.654-7.179-2.479-.31-6.325-.209-8.575.85-4.192-.62-6.079-.825-9.029,0-3.492.977-8.342,3.666-10.639,6.471-6.312,7.7-7.613,18.3-7.713,28.258a165.69,165.69,0,0,0,6.644,47.618c.426,1.468.951,3.045,2.216,3.906,1.361.929,3.169.751,4.8.492a95.347,95.347,0,0,0,17.966-4.684,5.963,5.963,0,0,0,2.279-1.256c1.609-1.639.931-4.346.195-6.522l16.131-13.8c-1.073,9.6-4.16,18.862-5.527,28.42a80.408,80.408,0,0,0,2.542,34.249,52.205,52.205,0,0,1,19.024-.428c1.521.246,3.976,12.212,5.32,11.463,2.317-1.29,8.757-19.372,8.61-22.02" transform="translate(42.15 0)" fill="#263238"/>
            <path id="Trazado_912503" data-name="Trazado 912503" d="M245.581,6.679l4.577-.51,17.477,7.044a4.88,4.88,0,0,1,4.607,4.724l-.153,56.946a15.966,15.966,0,0,1-3.083,10.284l-2.456,3.241c-5.6,7.388-17.109,6.781-21.54-1.361a6.134,6.134,0,0,1-.618-1.473,11.514,11.514,0,0,1-.26-1.273,40.857,40.857,0,0,1-.55-8.554c-.311-5.03-.414-7.095-.415-7.047,0,0-10.7-1.23-13.6-14.972-1.439-6.833-1.659-18.145-1.54-27.407.108-8.336,7.26-19.655,17.553-19.642" transform="translate(43.003 1.164)" fill="#ffbe9d"/>
            <path id="Trazado_912504" data-name="Trazado 912504" d="M230.816,32.5a1.779,1.779,0,0,0,1.8,1.707,1.7,1.7,0,0,0,1.751-1.694,1.778,1.778,0,0,0-1.8-1.707,1.7,1.7,0,0,0-1.753,1.694" transform="translate(43.534 5.81)" fill="#263238"/>
            <path id="Trazado_912505" data-name="Trazado 912505" d="M245.774,31.564a1.779,1.779,0,0,0,1.8,1.707,1.7,1.7,0,0,0,1.751-1.694,1.78,1.78,0,0,0-1.8-1.707,1.7,1.7,0,0,0-1.753,1.694" transform="translate(46.355 5.634)" fill="#263238"/>
            <path id="Trazado_912506" data-name="Trazado 912506" d="M230.265,28.256c.232.221,1.527-.843,3.44-.934,1.908-.118,3.36.8,3.556.552.1-.109-.15-.516-.782-.931a4.885,4.885,0,0,0-2.861-.727,4.683,4.683,0,0,0-2.723,1.033c-.566.48-.744.909-.63,1.008" transform="translate(43.424 4.943)" fill="#263238"/>
            <path id="Trazado_912507" data-name="Trazado 912507" d="M245.524,27.445c.239.214,1.5-.887,3.413-1.033,1.9-.174,3.382.7,3.569.447.094-.112-.16-.511-.808-.907a4.884,4.884,0,0,0-2.881-.644,4.693,4.693,0,0,0-2.692,1.111c-.549.5-.716.931-.6,1.026" transform="translate(46.302 4.77)" fill="#263238"/>
            <path id="Trazado_912508" data-name="Trazado 912508" d="M241.746,42.179a12.668,12.668,0,0,0-3.133-.4c-.49-.026-.957-.1-1.057-.429a2.488,2.488,0,0,1,.254-1.463l1.256-3.789c1.74-5.393,2.973-9.817,2.755-9.884s-1.8,4.247-3.544,9.64q-.624,1.993-1.195,3.808a2.834,2.834,0,0,0-.158,1.929,1.228,1.228,0,0,0,.839.673,3.319,3.319,0,0,0,.834.074,12.432,12.432,0,0,0,3.147-.153" transform="translate(44.663 4.943)" fill="#263238"/>
            <path id="Trazado_912509" data-name="Trazado 912509" d="M240.8,59.665a35.291,35.291,0,0,0,18.3-5.878S254.924,63.61,241,63.008Z" transform="translate(45.418 10.145)" fill="#eb996e"/>
            <path id="Trazado_912510" data-name="Trazado 912510" d="M241.863,43.716a3.45,3.45,0,0,1,3.024-1.435,3.154,3.154,0,0,1,2.23,1.057,1.994,1.994,0,0,1,.266,2.27,2.313,2.313,0,0,1-2.475.76,7.268,7.268,0,0,1-2.516-1.335,2.125,2.125,0,0,1-.574-.538.64.64,0,0,1-.033-.712" transform="translate(45.585 7.974)" fill="#eb996e"/>
            <path id="Trazado_912511" data-name="Trazado 912511" d="M246.676,40.521c-.311,0-.212,2.073-1.914,3.635s-3.922,1.444-3.924,1.734c-.023.132.512.379,1.447.358a5.183,5.183,0,0,0,3.282-1.331,4.5,4.5,0,0,0,1.471-3.04c.036-.871-.221-1.374-.363-1.355" transform="translate(45.424 7.643)" fill="#263238"/>
            <path id="Trazado_912512" data-name="Trazado 912512" d="M245.522,21.639c.286.466,1.878-.178,3.881-.389,2-.257,3.717,0,3.864-.517.061-.245-.328-.654-1.079-.989a6.034,6.034,0,0,0-3.059-.416,5.793,5.793,0,0,0-2.841,1.107c-.634.5-.894.982-.765,1.2" transform="translate(46.302 3.638)" fill="#263238"/>
            <path id="Trazado_912513" data-name="Trazado 912513" d="M229.921,22.177c.358.417,1.652-.1,3.234-.2,1.58-.157,2.939.145,3.225-.324.125-.228-.108-.651-.714-1.034a4.695,4.695,0,0,0-5.2.423c-.537.474-.7.931-.54,1.135" transform="translate(43.354 3.777)" fill="#263238"/>
            <path id="Trazado_912514" data-name="Trazado 912514" d="M262.943,36.342c-.049-1.032,1.021-3.523,2.033-3.733,2.7-.56,7.613-.587,8.005,6.319.535,9.441-9.054,8.031-9.086,7.762-.025-.21-.782-6.785-.952-10.347" transform="translate(49.593 6.108)" fill="#ffbe9d"/>
            <path id="Trazado_912515" data-name="Trazado 912515" d="M266,42.474c.039-.032.17.106.455.218a1.646,1.646,0,0,0,1.23-.045c.978-.422,1.727-2.053,1.676-3.757a5.409,5.409,0,0,0-.594-2.33,1.9,1.9,0,0,0-1.307-1.191.839.839,0,0,0-.946.505c-.111.271-.04.456-.089.475-.025.025-.21-.146-.158-.541a1.067,1.067,0,0,1,.338-.613,1.25,1.25,0,0,1,.9-.291,2.313,2.313,0,0,1,1.8,1.366,5.591,5.591,0,0,1,.72,2.6c.046,1.905-.825,3.742-2.167,4.214a1.77,1.77,0,0,1-1.52-.165c-.3-.216-.366-.424-.334-.443" transform="translate(50.169 6.583)" fill="#eb996e"/>
            <path id="Trazado_912516" data-name="Trazado 912516" d="M274.992,27.688c.657-3.758-.755-9.043-1.731-12.718A13.819,13.819,0,0,0,267.6,7.548a23.02,23.02,0,0,0-14.238-4.306l-1.888.625c-2.792-.226-5.778.361-7.313,2.616l-.059.065V3.955c-5.078.626-9.517,3.995-12.465,8.178s-4.588,9.137-5.915,14.079c6.241-5.592,13-11.759,18.21-18.343,5.457,7.169,13.531,11.717,20.9,17.058,1.305,3.089,1.649,6.657,1.63,10.841-.042,9.265,1.966,17.646,2.691,26.907.416,5.331.376,9.9,5.836,9.432.713-17.085-2.936-27.62,0-44.418" transform="translate(42.574 0.608)" fill="#263238"/>
            <path id="Trazado_912517" data-name="Trazado 912517" d="M275.177,23.641a8.761,8.761,0,0,1-2.617.472,25.545,25.545,0,0,1-6.421-.253,29.471,29.471,0,0,1-6.17-1.779,9.425,9.425,0,0,1-2.375-1.193c.08-.21,3.776,1.52,8.647,2.363s8.921.175,8.936.391" transform="translate(48.585 3.936)" fill="#455a64"/>
            <path id="Trazado_912518" data-name="Trazado 912518" d="M276.754,21.2a7.023,7.023,0,0,1-1.51-.094c-.969-.093-2.362-.3-4.072-.617a69.565,69.565,0,0,1-13.032-3.844,69.428,69.428,0,0,1-12.03-6.32c-1.45-.963-2.592-1.785-3.352-2.394a7.01,7.01,0,0,1-1.148-.984,7.041,7.041,0,0,1,1.288.788c.8.547,1.977,1.311,3.447,2.22a81.559,81.559,0,0,0,12.028,6.115,81.592,81.592,0,0,0,12.887,3.989c1.689.372,3.065.643,4.02.807a7.057,7.057,0,0,1,1.474.333" transform="translate(45.57 1.309)" fill="#455a64"/>
            <path id="Trazado_912519" data-name="Trazado 912519" d="M228.73,19.861a9.225,9.225,0,0,1-2.174,2.538,9.206,9.206,0,0,1-2.6,2.094,9.214,9.214,0,0,1,2.174-2.539,9.214,9.214,0,0,1,2.6-2.093" transform="translate(42.238 3.744)" fill="#455a64"/>
            <path id="Trazado_912520" data-name="Trazado 912520" d="M256.687,74.084c1.051-1.839.254-9.377.254-9.377l-2.44,4.412C249.323,71.131,242.213,74,240.213,75.4c-2.989,2.092-7.023,10.908-7.023,10.908l-24.9,31.594-46.724-8.174-4.4,23.429,15.77,3.266,27.711,3.6c7.783,1.677,15.36,2.3,21.46-2.816l.418-.8c-2.2,31.5.83,66.223,1.866,97.78.081,2.466.194,5.023,1.315,7.222,1.586,3.115,7.482,4.747,10.948,4.294s2.368-2.674,3.1-6.092c.4-1.866-1.342-4.456-1.576-6.351Q233.093,192.136,228,151.02c-.113-1.689-.227-3.256-.341-4.647-1.2-14.494-1.372-18.407-.732-25.04.991-10.268,22.645-34.8,29.758-47.248" transform="translate(29.643 12.204)" fill="#e07199"/>
            <path id="Trazado_912521" data-name="Trazado 912521" d="M220.459,89.821a7.778,7.778,0,0,1-.711,1.423c-.5.887-1.181,2.2-1.971,3.834a64.8,64.8,0,0,0-6.428,27.438c-.021,1.819.007,3.294.062,4.311a7.883,7.883,0,0,1,0,1.589,7.787,7.787,0,0,1-.245-1.571,43.137,43.137,0,0,1-.259-4.328,58.605,58.605,0,0,1,6.474-27.634,43.084,43.084,0,0,1,2.155-3.762,7.92,7.92,0,0,1,.918-1.3" transform="translate(39.778 16.941)" fill="#263238"/>
            <g id="Grupo_1101707" data-name="Grupo 1101707" transform="translate(247.404 112.22)" opacity="0.3">
              <g id="Grupo_1101706" data-name="Grupo 1101706">
                <g id="Grupo_1101705" data-name="Grupo 1101705" clip-path="url(#clip-path-16)">
                  <path id="Trazado_912522" data-name="Trazado 912522" d="M217.678,94.413c-3.644,5.264-7.012,10.924-8.614,17.147s-.591,9.757-.736,16.3l3.75.844c-.836-11.723-.441-19.463,5.6-34.294" transform="translate(-208.146 -94.413)"/>
                </g>
              </g>
            </g>
            <path id="Trazado_912523" data-name="Trazado 912523" d="M215.014,116.46a2.263,2.263,0,0,1,.048-.615c.065-.4.107-1,.288-1.747a48.238,48.238,0,0,1,1.9-6.216,183.285,183.285,0,0,1,8.872-19.491c1.095-2.117,2.178-4.166,3.246-6.109l.083-.152.174,0,3.934-.076-.257.408a3.939,3.939,0,0,0-1.529-1.731l-.277-.168.207-.247a92.537,92.537,0,0,1,8.443-8.859c1.1-1,1.988-1.767,2.607-2.277a6.417,6.417,0,0,1,.984-.742,6.657,6.657,0,0,1-.868.874l-2.5,2.386a109.306,109.306,0,0,0-8.243,8.973l-.07-.415a4.485,4.485,0,0,1,1.767,1.967l.183.4-.439.012-3.933.1.257-.156c-1.054,1.94-2.132,3.99-3.225,6.1-3.818,7.42-7.034,14.268-9.011,19.361a59.088,59.088,0,0,0-2.08,6.118c-.367,1.477-.513,2.313-.569,2.306" transform="translate(40.552 12.907)" fill="#263238"/>
            <path id="Trazado_912524" data-name="Trazado 912524" d="M255.245,349.137l15.325,24.668s-19.927,23.863-17.539,28.7l48.9-28-22.3-39.417Z" transform="translate(47.686 63.201)" fill="#e07199"/>
            <path id="Trazado_912525" data-name="Trazado 912525" d="M279.714,358.606a2.3,2.3,0,0,1,2.685,1.488,2.212,2.212,0,0,1-1.451,2.674,2.426,2.426,0,0,1-2.836-1.59,2.3,2.3,0,0,1,1.819-2.615" transform="translate(52.449 67.625)" fill="#e0e0e0"/>
            <g id="Grupo_1101710" data-name="Grupo 1101710" transform="translate(300.322 433.822)" opacity="0.6">
              <g id="Grupo_1101709" data-name="Grupo 1101709">
                <g id="Grupo_1101708" data-name="Grupo 1101708" clip-path="url(#clip-path-17)">
                  <path id="Trazado_912526" data-name="Trazado 912526" d="M301.96,368.868l-2.4-3.886-45.985,28.295s-1.634,2.194-.51,3.587Z" transform="translate(-252.667 -364.983)" fill="#fff"/>
                </g>
              </g>
            </g>
            <path id="Trazado_912527" data-name="Trazado 912527" d="M266.971,368.026c.145.234,1.4-.341,3.014-.246,1.618.053,2.816.74,2.981.521.194-.172-.979-1.4-2.937-1.477-1.955-.1-3.235,1.014-3.058,1.2" transform="translate(50.35 69.185)" fill="#263238"/>
            <path id="Trazado_912528" data-name="Trazado 912528" d="M263.676,372.176c.077.263,1.344.077,2.734.623,1.4.5,2.235,1.479,2.466,1.332.246-.09-.389-1.584-2.13-2.229-1.733-.661-3.195.043-3.07.273" transform="translate(49.73 70.092)" fill="#263238"/>
            <path id="Trazado_912529" data-name="Trazado 912529" d="M264.852,379.161c.246-.074-.1-1.456-1.467-2.413s-2.777-.838-2.764-.581c-.023.273,1.1.56,2.211,1.362,1.124.776,1.769,1.744,2.019,1.632" transform="translate(49.156 70.914)" fill="#263238"/>
            <path id="Trazado_912530" data-name="Trazado 912530" d="M264.562,363.234c.225.16,1.132-.8,2.534-1.477,1.387-.71,2.7-.857,2.705-1.134.038-.252-1.493-.548-3.133.277s-2.331,2.214-2.106,2.334" transform="translate(49.891 67.967)" fill="#263238"/>
            <path id="Trazado_912531" data-name="Trazado 912531" d="M261.011,355.54l1.652,28.994s-28.916,11.418-29.133,16.806l56.334-1.185-.721-45.282Z" transform="translate(44.046 66.932)" fill="#e07199"/>
            <path id="Trazado_912532" data-name="Trazado 912532" d="M273.082,377.479a2.3,2.3,0,0,1,1.646,2.592,2.212,2.212,0,0,1-2.555,1.653,2.426,2.426,0,0,1-1.728-2.754,2.294,2.294,0,0,1,2.848-1.425" transform="translate(50.995 71.18)" fill="#e0e0e0"/>
            <g id="Grupo_1101713" data-name="Grupo 1101713" transform="translate(277.547 462.525)" opacity="0.6">
              <g id="Grupo_1101712" data-name="Grupo 1101712">
                <g id="Grupo_1101711" data-name="Grupo 1101711" clip-path="url(#clip-path-18)">
                  <path id="Trazado_912533" data-name="Trazado 912533" d="M289.868,393.693l-.252-4.562L235.7,391.973s-2.485,1.143-2.164,2.9Z" transform="translate(-233.506 -389.131)" fill="#fff"/>
                </g>
              </g>
            </g>
            <path id="Trazado_912534" data-name="Trazado 912534" d="M257.267,379.645c.014.275,1.393.371,2.765,1.227,1.394.82,2.117,2,2.368,1.883.253-.059-.191-1.695-1.871-2.7-1.67-1.022-3.327-.659-3.262-.408" transform="translate(48.523 71.553)" fill="#263238"/>
            <path id="Trazado_912535" data-name="Trazado 912535" d="M252.339,381.782c-.057.267,1.143.711,2.1,1.854.992,1.116,1.254,2.369,1.529,2.351.259.038.416-1.577-.8-2.976s-2.827-1.492-2.828-1.229" transform="translate(47.593 71.985)" fill="#263238"/>
            <path id="Trazado_912536" data-name="Trazado 912536" d="M250.006,388.517c.251.053.6-1.329-.133-2.821s-2.037-2.065-2.148-1.833c-.151.229.7,1.021,1.288,2.255.616,1.22.719,2.377.993,2.4" transform="translate(46.72 72.391)" fill="#263238"/>
            <path id="Trazado_912537" data-name="Trazado 912537" d="M257.569,374.174c.12.248,1.374-.158,2.931-.084,1.559.04,2.78.537,2.918.3.156-.2-1.047-1.2-2.882-1.255-1.834-.075-3.107.828-2.967,1.041" transform="translate(48.578 70.376)" fill="#263238"/>
            <path id="Trazado_912538" data-name="Trazado 912538" d="M221.5,173.2s-2.588,123.391-.258,131.932,50.02,95.88,50.02,95.88l28.776-14.13L261.88,294.667,270.3,176.1Z" transform="translate(41.546 32.667)" fill="#263238"/>
            <path id="Trazado_912539" data-name="Trazado 912539" d="M284.376,167.4S300.92,194.412,298,210.62c-1.2,6.646-10.253,21.357-10.253,21.357l-.008,79.113,6.983,105.6H261.171l-14.394-93.119s-5.047-8.541-6.988-15.918-8.244-94.555-8.244-94.555l-10.037-35.457Z" transform="translate(41.779 31.573)" fill="#263238"/>
            <path id="Trazado_912540" data-name="Trazado 912540" d="M280.35,330.209a13.668,13.668,0,0,0,0,2.223c.045,1.429.146,3.495.291,6.046.289,5.1.793,12.144,1.384,19.915s1.1,14.811,1.429,19.908c.163,2.458.3,4.492.4,6.036a13.406,13.406,0,0,0,.227,2.212,13.572,13.572,0,0,0,.044-2.223c-.013-1.43-.074-3.5-.178-6.051-.2-5.107-.636-12.157-1.225-19.934-.616-7.712-1.172-14.69-1.587-19.9-.209-2.454-.382-4.486-.512-6.029a13.582,13.582,0,0,0-.275-2.206" transform="translate(52.87 62.281)" fill="#455a64"/>
            <path id="Trazado_912541" data-name="Trazado 912541" d="M276.357,179.026a4.9,4.9,0,0,1-.9,1.02,20.183,20.183,0,0,1-2.879,2.33,22.914,22.914,0,0,1-23.385,1.372,20.137,20.137,0,0,1-3.132-1.977,4.921,4.921,0,0,1-1.01-.908c.073-.1,1.551,1.164,4.338,2.487A23.666,23.666,0,0,0,272.339,182c2.615-1.64,3.935-3.068,4.019-2.977" transform="translate(46.219 33.765)" fill="#455a64"/>
            <path id="Trazado_912542" data-name="Trazado 912542" d="M230.195,199.913a2.211,2.211,0,0,1,.058.435c.027.32.063.743.108,1.279.086,1.164.207,2.816.36,4.924.3,4.315.72,10.493,1.243,18.113,1.073,15.291,2.422,36.431,4.462,59.724.281,3.174.6,6.3.96,9.367.2,1.53.363,3.061.694,4.5a38.186,38.186,0,0,0,1.4,4.258c2.073,5.573,4.283,10.834,6.395,15.755l.015.034.006.037c2.232,14.342,4.121,26.474,5.458,35.059.693,4.241,1.243,7.6,1.626,9.947q.3,1.683.466,2.629c.127.585.207.889.19.9a8.058,8.058,0,0,1-.282-.878c-.132-.591-.338-1.468-.553-2.616-.455-2.293-1.053-5.659-1.785-9.926-1.461-8.529-3.429-20.662-5.684-35.027l.02.07c-2.134-4.924-4.357-10.179-6.448-15.77a38.847,38.847,0,0,1-1.423-4.305c-.355-1.526-.515-3.049-.717-4.588q-.553-4.618-.966-9.388c-2.041-23.31-3.32-44.452-4.28-59.753-.439-7.625-.8-13.809-1.044-18.128-.1-2.111-.185-3.766-.242-4.93-.019-.538-.034-.963-.046-1.284a2.252,2.252,0,0,1,.006-.439" transform="translate(43.415 37.706)" fill="#455a64"/>
            <path id="Trazado_912543" data-name="Trazado 912543" d="M246.672,70.19s-.357,5.415,4.036,5.415c6.182,0,19.147-11.932,19.147-11.932l-24.993,59.571v72.087l-21.135,2.229s-2.476-.355-2.981-3.924c-.989-6.98-.846-19.7-1.656-24.941-2.515-16.278-7.462-25.151-6.763-38.049,1.039-19.171,28.016-52.245,28.016-52.245Z" transform="translate(40.035 12.009)" fill="#fff"/>
            <path id="Trazado_912544" data-name="Trazado 912544" d="M271.087,57.4a162.171,162.171,0,0,1-10.44,16.9c-5.389,7.5-39.576,59.867-39.576,59.867L234.733,240.4l1.515,9a4.505,4.505,0,0,0,5.375,3.66l60.383-10.618a5.476,5.476,0,0,0,4.287-7l-26.958-75.754,17.412-67.243s-.641-9.788-11.244-19.724c-2.016-1.89-10.354-8.8-11.723-10.673Z" transform="translate(41.696 10.826)" fill="#e07199"/>
            <g id="Grupo_1101716" data-name="Grupo 1101716" transform="translate(266.051 170.517)" opacity="0.3">
              <g id="Grupo_1101715" data-name="Grupo 1101715">
                <g id="Grupo_1101714" data-name="Grupo 1101714" clip-path="url(#clip-path-19)">
                  <path id="Trazado_912545" data-name="Trazado 912545" d="M224.846,151.323s27.794,22.039,41.327,22.248,20.562-11.255,20.562-11.255l-27.213.745-35.687-19.6Z" transform="translate(-223.834 -143.459)"/>
                </g>
              </g>
            </g>
            <path id="Trazado_912546" data-name="Trazado 912546" d="M207.321,143.574s25.083,16.567,29.707,19.71,26.514,15.844,29.369,16.761,20.555,1.042,23.819-4.979,5.44-18.851,5.44-18.851l4.266-60.083A24.166,24.166,0,0,0,295.6,80.419c-2.594-3.664-6.018-6.966-9.724-6.414-7.9,1.178-24.9,20.291-24.086,30.107s.842,37.162.842,37.162l-44.776-14.823Z" transform="translate(39.103 13.947)" fill="#e07199"/>
            <path id="Trazado_912547" data-name="Trazado 912547" d="M295.667,79.363a14,14,0,0,1,.814,1.153,21.5,21.5,0,0,1,1.9,3.644,23.737,23.737,0,0,1,1.643,6.417c.354,2.613,0,5.62-.2,8.951-.928,13.385-2.251,32.445-3.832,55.239v.014l0,.012q-.683,3.84-1.647,7.777a67.963,67.963,0,0,1-2.4,7.913,16.51,16.51,0,0,1-1.9,3.848,9.58,9.58,0,0,1-3.429,2.727,26.856,26.856,0,0,1-8.476,2.509,36.154,36.154,0,0,1-9.07.241,12.56,12.56,0,0,1-4.507-1.22c-1.386-.7-2.735-1.455-4.1-2.206-5.439-3.036-10.929-6.23-16.473-9.527-6.636-3.852-12.8-8.206-18.938-12.215L207.222,142.8l-.238-.158.147-.242q5.482-9.038,10.552-17.4l.116-.191.21.073,44.751,15.179-.264.177c.914-11.166,1.641-20.052,2.143-26.168.26-3.03.462-5.373.6-6.981.073-.777.128-1.374.169-1.8.04-.4.076-.609.076-.609s0,.208-.02.615c-.026.427-.064,1.025-.113,1.8-.114,1.611-.281,3.957-.5,6.99-.458,6.119-1.123,15.007-1.959,26.177l-.019.259-.246-.083-44.8-15.031.327-.12q-5.049,8.353-10.524,17.413l-.089-.4,17.846,11.828c6.151,4.015,12.291,8.348,18.914,12.192,5.538,3.294,11.027,6.489,16.454,9.522,1.36.748,2.711,1.507,4.076,2.2a11.91,11.91,0,0,0,4.3,1.162,35.561,35.561,0,0,0,8.913-.231,26.263,26.263,0,0,0,8.289-2.438,8.987,8.987,0,0,0,3.234-2.551,16.051,16.051,0,0,0,1.828-3.708,67.529,67.529,0,0,0,2.389-7.841c.65-2.608,1.2-5.194,1.656-7.732l0,.026c1.672-22.788,3.073-41.844,4.054-55.224.231-3.342.6-6.322.278-8.9a24,24,0,0,0-1.555-6.38,23.051,23.051,0,0,0-1.817-3.662c-.231-.4-.437-.689-.56-.891a2.194,2.194,0,0,1-.182-.307" transform="translate(39.039 14.969)" fill="#263238"/>
            <path id="Trazado_912548" data-name="Trazado 912548" d="M227.481,121.648a4.3,4.3,0,0,1,.541-.636l1.621-1.753c1.457-1.575,3.483-3.767,5.968-6.455,2.553-2.728,5.573-5.957,8.922-9.537,3.417-3.543,7.07-7.529,11.38-11.314l-.034.447-.363-.4L252.5,88.658l-.5-.552.743.038,5.59.292-.277.151c4.5-7.829,8.414-14.645,11.245-19.574l3.332-5.685c.376-.619.677-1.118.916-1.511a2.712,2.712,0,0,1,.347-.505,2.558,2.558,0,0,1-.256.557l-.828,1.561c-.776,1.41-1.848,3.359-3.177,5.772-2.784,4.957-6.634,11.809-11.056,19.682l-.09.16-.187-.008-5.591-.278.245-.513q1.48,1.64,3.013,3.335l.364.4.21.233-.244.214c-4.24,3.722-7.933,7.716-11.361,11.228l-9.016,9.443c-2.565,2.686-4.65,4.85-6.112,6.322-.733.735-1.305,1.3-1.707,1.675a4.23,4.23,0,0,1-.629.549" transform="translate(42.905 11.564)" fill="#263238"/>
            <g id="Grupo_1101719" data-name="Grupo 1101719" transform="translate(268.377 96.935)" opacity="0.3">
              <g id="Grupo_1101718" data-name="Grupo 1101718">
                <g id="Grupo_1101717" data-name="Grupo 1101717" clip-path="url(#clip-path-20)">
                  <path id="Trazado_912549" data-name="Trazado 912549" d="M225.792,121.154l34-32.058L256.9,85.928H259.8l.76-4.375-1.912,3.366-5.591-.284,3.3,3.027L228.1,117.527Z" transform="translate(-225.791 -81.553)"/>
                </g>
              </g>
            </g>
            <path id="Trazado_912550" data-name="Trazado 912550" d="M243.856,186.2a3.476,3.476,0,0,1,.567-.146l1.728-.376c1.594-.335,3.811-.8,6.566-1.376l22.912-4.661.2-.04.109.177c1.978,3.219,4.109,6.69,6.315,10.279l.234.382-.44.084-.746.143-33.419,6.272-.17.032-.058-.159c-1.2-3.3-2.162-5.96-2.85-7.853l-.73-2.066a5.091,5.091,0,0,1-.22-.692,7.8,7.8,0,0,1,.322.742c.213.525.491,1.215.839,2.078l3.019,7.648-.228-.128,33.379-6.482.746-.141-.206.465-6.294-10.292.31.136-22.752,4.331-6.672,1.23-1.808.32a5.443,5.443,0,0,1-.656.1" transform="translate(45.993 33.875)" fill="#263238"/>
            <g id="Grupo_1101722" data-name="Grupo 1101722" transform="translate(290.228 221.077)" opacity="0.3">
              <g id="Grupo_1101721" data-name="Grupo 1101721">
                <g id="Grupo_1101720" data-name="Grupo 1101720" clip-path="url(#clip-path-21)">
                  <path id="Trazado_912551" data-name="Trazado 912551" d="M244.174,186l2.409,12.479,34.615-6.24-.97-2.9-32.442,6.2Z" transform="translate(-244.174 -185.996)"/>
                </g>
              </g>
            </g>
            <path id="Trazado_912552" data-name="Trazado 912552" d="M262.685,141.085c-.17.089-1.612-2.766-4.2-5.679-2.564-2.936-5.213-4.725-5.1-4.883.065-.135,2.933,1.462,5.567,4.474a16.873,16.873,0,0,1,3.733,6.088" transform="translate(47.79 24.616)" fill="#263238"/>
            <path id="Trazado_912553" data-name="Trazado 912553" d="M161.243,108.29s-8.671-5.2-12.139-8.527c0,0-5.059-1.589-7.371,1.59,0,0-5.348,1.481-6.07,2.475s-5.2,7.93-5.2,7.93,2.4,8.26,2.6,8.671c.435.9,1.4,1.86,2.224.865a1.81,1.81,0,0,0,.386-1.184l-.008-.548,1.3-.913s.579,3.21,2.313,2.712,5.636-3.39,5.636-3.39,5.491,3.126,8.382,3.442a91.922,91.922,0,0,1,9.485,2.135l2.951-15.726Z" transform="translate(24.606 18.741)" fill="#ffbe9d"/>
            <path id="Trazado_912554" data-name="Trazado 912554" d="M134.968,119.425c.024.021-.209.223-.687.126a1.76,1.76,0,0,1-1.24-1.426,25.833,25.833,0,0,1,.03-6.032,57.062,57.062,0,0,1,.949-5.917,9.718,9.718,0,0,1,.65-2.4c.2.033-.474,3.766-.983,8.375a36.733,36.733,0,0,0-.215,5.884,1.537,1.537,0,0,0,.881,1.283c.363.147.6.053.616.1" transform="translate(25.062 19.574)" fill="#eb996e"/>
            <path id="Trazado_912555" data-name="Trazado 912555" d="M144.049,105.546c.1.107-1.526,1.463-4.1,1.9l.248-.232c-.023.1-.048.2-.074.308-.622,2.575-1.261,4.628-1.428,4.589s.2-2.16.826-4.735c.026-.1.051-.209.075-.307l.049-.2.2-.032a31.864,31.864,0,0,0,4.2-1.291" transform="translate(26.152 19.904)" fill="#eb996e"/>
            <path id="Trazado_912556" data-name="Trazado 912556" d="M151.645,106.664a4.247,4.247,0,0,0-4.762-.975l-.912,1.157-6.843,5.714a10.481,10.481,0,0,0-3.065,3.451,3.58,3.58,0,0,0,.716,4.254c1.4,1.074,3.481.467,4.85-.642s2.357-2.641,3.776-3.684c2.208-1.622,5.421-2.063,6.779-4.444a4.248,4.248,0,0,0-.538-4.831" transform="translate(25.591 19.868)" fill="#ffbe9d"/>
            <path id="Trazado_912557" data-name="Trazado 912557" d="M146.372,104.643a3.8,3.8,0,0,1-.606,2.485,9,9,0,0,1-1.722,2.212,21.036,21.036,0,0,1-2.68,2.085,16.929,16.929,0,0,0-4.526,3.883,14.939,14.939,0,0,0-1.161,2.187,3.976,3.976,0,0,1,.8-2.431,9.851,9.851,0,0,1,1.83-2.118,27.115,27.115,0,0,1,2.709-2.031,25.446,25.446,0,0,0,2.642-1.992,9.743,9.743,0,0,0,1.732-2.015,12.593,12.593,0,0,0,.985-2.265" transform="translate(25.585 19.737)" fill="#eb996e"/>
            <path id="Trazado_912558" data-name="Trazado 912558" d="M173.645,130.411s.24-8.521,2.4-11.042,14.761-5.761,14.761-5.761l31.667,7.348-7.357,11.909-2.225-2.093s-9.962,3-14.883,1.921a55.621,55.621,0,0,1-8.641-2.641l-5.161.36s-3.72,3.84-4.921,3.84-2.521-1.079-1.921-2.28l-1.08-1.8s-2.16,1.321-2.64.24" transform="translate(32.751 21.428)" fill="#ffbe9d"/>
            <path id="Trazado_912559" data-name="Trazado 912559" d="M189.691,122.756a5.369,5.369,0,0,1-2.262.765,39.3,39.3,0,0,0-5.529,1.088,7.662,7.662,0,0,0-3.965,3.636,13.307,13.307,0,0,1-1.2,2.036,6.922,6.922,0,0,1,.812-2.243,9.575,9.575,0,0,1,1.441-2.193,6.7,6.7,0,0,1,2.695-1.816,26.226,26.226,0,0,1,5.677-.939c1.438-.16,2.3-.423,2.33-.334" transform="translate(33.332 23.15)" fill="#eb996e"/>
            <path id="Trazado_912560" data-name="Trazado 912560" d="M187.375,117.442c.009.093-1.006.26-2.569.808a28.778,28.778,0,0,0-2.693,1.088,13.512,13.512,0,0,0-3,1.779,6.882,6.882,0,0,0-1.015,1.439c-.305.508-.579,1.01-.817,1.5a14.644,14.644,0,0,0-1.027,2.686c-.418,1.59-.349,2.635-.459,2.636a5.473,5.473,0,0,1,.032-2.734,12.649,12.649,0,0,1,.938-2.832,17.219,17.219,0,0,1,.809-1.562,6.991,6.991,0,0,1,1.121-1.589,12.576,12.576,0,0,1,3.182-1.842,21.1,21.1,0,0,1,2.8-.984,6.761,6.761,0,0,1,2.7-.391" transform="translate(33.132 22.144)" fill="#eb996e"/>
          </g>
        </g>
      </g>
    </g>
  </g>
</svg>
