<svg xmlns="http://www.w3.org/2000/svg" width="85" height="70.534" viewBox="0 0 85 70.534">
  <g id="Grupo_1102231" data-name="Grupo 1102231" transform="translate(-337.451 -779.541)">
    <rect id="Rectángulo_402863" data-name="Rectángulo 402863" width="85" height="50" rx="10" transform="translate(337.451 800.075)" fill="#8f61c2"/>
    <g id="pyramids" transform="translate(340.355 716.578)">
      <path id="Trazado_912110" data-name="Trazado 912110" d="M403.8,310.3l14.886,20.565h-6.26Z" transform="translate(-341.266 -209.038)" fill="#ffc265"/>
      <path id="Trazado_912111" data-name="Trazado 912111" d="M374.385,308.744a.617.617,0,0,0-1.041,0l-4.349,6.189L379.4,329.309h4.074Z" transform="translate(-311.853 -207.478)" fill="#ffb541"/>
      <path id="Trazado_912112" data-name="Trazado 912112" d="M373.5,316.116a2.049,2.049,0,0,1-.017-2.379l1.906-2.712-1.008-2.281a.617.617,0,0,0-1.041,0l-4.349,6.189L379.4,329.308h3.652Z" transform="translate(-311.853 -207.477)" fill="#ffa812"/>
      <path id="Trazado_912113" data-name="Trazado 912113" d="M262.13,197.756l27.1,37.994H278.214Z" transform="translate(-221.537 -113.919)" fill="#ffc265"/>
      <path id="Trazado_912114" data-name="Trazado 912114" d="M181.322,194.874a1.114,1.114,0,0,0-1.9,0l-12.912,18.649,13.8,19.345h17.558Z" transform="translate(-140.729 -111.038)" fill="#ffb541"/>
      <path id="Trazado_912115" data-name="Trazado 912115" d="M171,214.7a2.049,2.049,0,0,1-.016-2.356L182,196.432l-.679-1.558a1.114,1.114,0,0,0-1.9,0l-12.912,18.649,13.8,19.345h3.652Z" transform="translate(-140.729 -111.037)" fill="#ffa812"/>
      <path id="Trazado_912116" data-name="Trazado 912116" d="M137.588,273.25l18.6,26.3h-7.552Z" transform="translate(-116.281 -177.722)" fill="#ffc265"/>
      <path id="Trazado_912117" data-name="Trazado 912117" d="M43.308,297.558l-11.359-26.3a.761.761,0,0,0-1.3,0l-18.056,26.3Z" transform="translate(-10.642 -175.727)" fill="#ffb541"/>
      <path id="Trazado_912118" data-name="Trazado 912118" d="M31.949,271.255a.761.761,0,0,0-1.3,0l-18.056,26.3h3.652l16.613-24.2Z" transform="translate(-10.642 -175.727)" fill="#ffa812"/>
      <circle id="Elipse_11553" data-name="Elipse 11553" cx="7.132" cy="7.132" r="7.132" transform="translate(48.903 70.428) rotate(-4.069)" fill="#ffe02f"/>
      <path id="Trazado_912119" data-name="Trazado 912119" d="M323.539,114.9a7.134,7.134,0,0,1,4.742-6.72,7.132,7.132,0,1,0,0,13.44A7.134,7.134,0,0,1,323.539,114.9Z" transform="translate(-269.396 -37.868)" fill="#fbc700"/>
      <path id="Trazado_912120" data-name="Trazado 912120" d="M234.947,281.471a1.161,1.161,0,0,0-1.161-1.161H227.9a1.161,1.161,0,1,0,0,2.323h5.888A1.161,1.161,0,0,0,234.947,281.471Z" transform="translate(-191.624 -183.689)"/>
      <path id="Trazado_912121" data-name="Trazado 912121" d="M251.274,309.66a1.161,1.161,0,1,0,0,2.323h2.894a1.161,1.161,0,1,0,0-2.323Z" transform="translate(-211.381 -208.494)"/>
      <path id="Trazado_912122" data-name="Trazado 912122" d="M111.551,359.576a1.161,1.161,0,0,0-1.161-1.161H104.5a1.161,1.161,0,0,0,0,2.323h5.888A1.161,1.161,0,0,0,111.551,359.576Z" transform="translate(-87.337 -249.698)"/>
      <path id="Trazado_912123" data-name="Trazado 912123" d="M130.774,387.766h-2.894a1.161,1.161,0,0,0,0,2.323h2.894a1.161,1.161,0,0,0,0-2.323Z" transform="translate(-107.095 -274.504)"/>
      <path id="Trazado_912124" data-name="Trazado 912124" d="M242.118,360.738a1.161,1.161,0,1,0,0-2.323h-2.894a1.161,1.161,0,0,0,0,2.323Z" transform="translate(-201.197 -249.698)"/>
      <path id="Trazado_912125" data-name="Trazado 912125" d="M78.127,223.809h-.121l-14.2-20.074c-.013-.018-.027-.035-.04-.052a1.752,1.752,0,0,0-2.89.076l-3.3,4.8-3.807-5.383a1.161,1.161,0,1,0-1.9,1.341l13.64,19.288H58.065l-11.69-27.07,2.374,3.357a1.162,1.162,0,0,0,1.9-1.341l-8.8-12.449,0-.006a2.26,2.26,0,0,0-3.789.032L26.2,203.594,22.241,198c-.013-.018-.027-.034-.04-.051a1.917,1.917,0,0,0-3.175.076l-17.7,25.787H1.161a1.161,1.161,0,1,0,0,2.323H78.127a1.161,1.161,0,1,0,0-2.323ZM62.236,205.887l7.74,17.922H68.363l-9.352-13.224Zm-34.607-.272,12.307-17.928,15.6,36.122H40.5L27.629,205.615Zm5.787,18.194L26.774,208.43,37.65,223.809ZM20.558,199.9l.048.112,10.279,23.8H4.142Zm51.948,23.914-4.164-9.642,6.818,9.642Z" transform="translate(0 -103.382)"/>
      <path id="Trazado_912126" data-name="Trazado 912126" d="M359.548,66.094V64.124a1.161,1.161,0,1,0-2.323,0v1.969a1.161,1.161,0,1,0,2.323,0Z" transform="translate(-301.905)"/>
      <path id="Trazado_912127" data-name="Trazado 912127" d="M357.225,215v1.969a1.161,1.161,0,1,0,2.323,0V215a1.161,1.161,0,1,0-2.323,0Z" transform="translate(-301.905 -127.513)"/>
      <path id="Trazado_912128" data-name="Trazado 912128" d="M301.118,90.3a1.161,1.161,0,0,0,1.643-1.642l-1.392-1.392a1.161,1.161,0,0,0-1.643,1.642Z" transform="translate(-253.023 -20.248)"/>
      <path id="Trazado_912129" data-name="Trazado 912129" d="M407.8,196.983a1.161,1.161,0,1,0,1.643-1.642l-1.392-1.393a1.161,1.161,0,0,0-1.643,1.642Z" transform="translate(-343.188 -110.414)"/>
      <path id="Trazado_912130" data-name="Trazado 912130" d="M276.589,144.76a1.161,1.161,0,0,0,0,2.323h1.969a1.161,1.161,0,0,0,0-2.323Z" transform="translate(-232.775 -69.13)"/>
      <path id="Trazado_912131" data-name="Trazado 912131" d="M426.306,145.921a1.161,1.161,0,0,0,1.161,1.161h1.969a1.161,1.161,0,0,0,0-2.323h-1.969A1.161,1.161,0,0,0,426.306,145.921Z" transform="translate(-360.288 -69.13)"/>
      <path id="Trazado_912132" data-name="Trazado 912132" d="M301.368,196.983l1.392-1.393a1.161,1.161,0,0,0-1.643-1.643l-1.392,1.393a1.161,1.161,0,0,0,1.643,1.643Z" transform="translate(-253.023 -110.413)"/>
      <path id="Trazado_912133" data-name="Trazado 912133" d="M406.413,90.3a1.161,1.161,0,0,0,1.642,0l1.392-1.392a1.161,1.161,0,1,0-1.642-1.642l-1.392,1.392A1.161,1.161,0,0,0,406.413,90.3Z" transform="translate(-343.188 -20.248)"/>
      <path id="Trazado_912134" data-name="Trazado 912134" d="M327.136,110.151a1.161,1.161,0,0,0-2.148-.883,5.971,5.971,0,1,1,0-4.537,1.161,1.161,0,0,0,2.148-.883,8.293,8.293,0,1,0,0,6.3Z" transform="translate(-262.983 -30.208)"/>
    </g>
  </g>
</svg>
