<svg xmlns="http://www.w3.org/2000/svg" xmlns:xlink="http://www.w3.org/1999/xlink" width="85" height="74.36" viewBox="0 0 85 74.36">
  <defs>
    <clipPath id="clip-path">
      <rect id="Rect치ngulo_403040" data-name="Rect치ngulo 403040" width="59.844" height="64.498" fill="none"/>
    </clipPath>
  </defs>
  <g id="Grupo_1102230" data-name="Grupo 1102230" transform="translate(-238.294 -1181.502)">
    <rect id="Rect치ngulo_402863" data-name="Rect치ngulo 402863" width="85" height="50" rx="10" transform="translate(238.294 1205.862)" fill="#ffdba9"/>
    <g id="Grupo_1101628" data-name="Grupo 1101628" transform="translate(250.872 1181.502)">
      <g id="Grupo_1101627" data-name="Grupo 1101627" transform="translate(0 0)">
        <g id="Grupo_1101626" data-name="Grupo 1101626" clip-path="url(#clip-path)">
          <path id="Trazado_912218" data-name="Trazado 912218" d="M35.335,7.5H32.478a2.142,2.142,0,0,0-2.142,2.142V44.289a2.142,2.142,0,0,0,2.142,2.142H67.125a2.142,2.142,0,0,0,2.142-2.142V9.642H36.407Z" transform="translate(-26.514 -6.555)" fill="#f47c7c"/>
          <path id="Trazado_912219" data-name="Trazado 912219" d="M59.427,9.033,58.371,7.5H55.158a2.142,2.142,0,0,0-2.142,2.142V44.289a2.142,2.142,0,0,0,2.142,2.142h31.79a2.142,2.142,0,0,0,2.142-2.142V9.642A2.136,2.136,0,0,0,89,9.032H59.427Z" transform="translate(-46.337 -6.555)" fill="#ee6161"/>
          <path id="Trazado_912220" data-name="Trazado 912220" d="M112.1,46.431a2.139,2.139,0,0,0,1.847-1.061h1.614V8.445h-1.685A2.139,2.139,0,0,0,112.1,7.5H80.669a2.142,2.142,0,0,0-2.142,2.142V44.289a2.142,2.142,0,0,0,2.142,2.142c37.219,0,34.876.071,35.432-.149-.49.193-.475.149-4,.149Z" transform="translate(-68.635 -6.555)" fill="#60b7ff"/>
          <path id="Trazado_912221" data-name="Trazado 912221" d="M348.266,7.5h-3.214a2.142,2.142,0,0,1,2.142,2.142V44.289a2.142,2.142,0,0,1-2.142,2.142h3.214a2.142,2.142,0,0,0,2.142-2.142V9.642A2.142,2.142,0,0,0,348.266,7.5" transform="translate(-301.585 -6.555)" fill="#26a6fe"/>
          <path id="Trazado_912222" data-name="Trazado 912222" d="M166.453,48.709h-1.267a2.142,2.142,0,0,0-2.049-1.519H131.7a2.142,2.142,0,0,0-2.142,2.142V83.979A2.142,2.142,0,0,0,131.7,86.12h31.433a2.141,2.141,0,0,0,2.1-1.751h1.212V48.709Z" transform="translate(-113.241 -41.245)" fill="#eaf6ff"/>
          <path id="Trazado_912223" data-name="Trazado 912223" d="M399.3,47.19h-3.214a2.142,2.142,0,0,1,2.142,2.142V83.979a2.142,2.142,0,0,1-2.142,2.142H399.3a2.142,2.142,0,0,0,2.142-2.142V49.332A2.142,2.142,0,0,0,399.3,47.19Z" transform="translate(-346.187 -41.245)" fill="#d8ecfe"/>
          <path id="Trazado_912224" data-name="Trazado 912224" d="M166.564,112.925V85.082a.882.882,0,0,1,.882-.882H195.29a.882.882,0,0,1,.882.882v27.843a.882.882,0,0,1-.882.882H167.446a.882.882,0,0,1-.882-.882Z" transform="translate(-145.581 -73.593)" fill="#c4e2ff"/>
          <path id="Trazado_912225" data-name="Trazado 912225" d="M61.525,205.366a2.519,2.519,0,0,0-2.5-2.541H27L24.131,197.6H22.12a1.889,1.889,0,0,0-1.677-1.019H9.389a1.89,1.89,0,0,0-1.89,1.89v34.381a2.519,2.519,0,0,0,2.519,2.519H59.006A2.518,2.518,0,0,0,61.518,233H63.9v-27.63Z" transform="translate(-6.554 -171.815)" fill="#fdb441"/>
          <path id="Trazado_912226" data-name="Trazado 912226" d="M111.927,197.592l2.738,5.233h3.928l-2.738-5.233a1.89,1.89,0,0,0-1.674-1.014h-3.928a1.89,1.89,0,0,1,1.674,1.014" transform="translate(-96.364 -171.814)" fill="#fea613"/>
          <path id="Trazado_912227" data-name="Trazado 912227" d="M420.3,246.164h-3.928a2.519,2.519,0,0,1,2.519,2.519v27.5a2.519,2.519,0,0,1-2.519,2.519H420.3a2.519,2.519,0,0,0,2.519-2.519v-27.5a2.519,2.519,0,0,0-2.519-2.519Z" transform="translate(-363.918 -215.154)" fill="#fea613"/>
          <path id="Trazado_912228" data-name="Trazado 912228" d="M56.38,30.065H56.2v-5.31a.945.945,0,1,0-1.89,0v5.31H51.535V11.489a1.829,1.829,0,0,0-1.827-1.827H21.865a1.829,1.829,0,0,0-1.827,1.827v13.4a2.824,2.824,0,0,0-2.22-1.074h-.552V8.086a1.2,1.2,0,0,1,1.2-1.2H53.11a1.2,1.2,0,0,1,1.2,1.2v12.26a.945.945,0,1,0,1.89,0V8.086A3.09,3.09,0,0,0,53.11,5H49.768V3.086A3.09,3.09,0,0,0,46.681,0H5.963A3.09,3.09,0,0,0,2.877,3.086V23.819H2.835A2.838,2.838,0,0,0,0,26.653V42.43a.945.945,0,1,0,1.89,0V26.653a.946.946,0,0,1,.945-.945H17.817a.942.942,0,0,1,.837.507l2.738,5.233a.945.945,0,0,0,.837.507H56.38a1.577,1.577,0,0,1,1.575,1.575v27.5a1.577,1.577,0,0,1-1.575,1.575H3.464A1.577,1.577,0,0,1,1.89,61.034V46.841a.945.945,0,1,0-1.89,0V61.034A3.469,3.469,0,0,0,3.464,64.5H56.38a3.469,3.469,0,0,0,3.464-3.464V33.53a3.469,3.469,0,0,0-3.464-3.465M4.766,3.086a1.2,1.2,0,0,1,1.2-1.2H9.189a3.1,3.1,0,0,0-.242,1.2V23.819H4.765Zm6.071,0a1.2,1.2,0,0,1,1.2-1.2H46.681a1.2,1.2,0,0,1,1.2,1.2V5H18.463a3.09,3.09,0,0,0-3.086,3.086V23.819H10.837V3.086Zm38.808,8.465V30.065H22.893l-.965-1.732V11.551Z"/>
          <path id="Trazado_912229" data-name="Trazado 912229" d="M194.863,125.083h21.111a1.038,1.038,0,0,1,.135-.815c1.4-2.094.422-3.062-.98-3.208-1.115-.116-2.386-.041-2.648-.451a3.216,3.216,0,0,0-2.6-1.84c-5.934-.614-2.737-2.833-4.564-3.774-2.222-1.144,1.128-5.068,3.543-5.171,1.582-.067-.306-4.345-4.2-.761-.66.607-2.771,1.193-3.925,1.532-1.33.391-.634.905-1.737,2.558-1.064,1.594-.924.164-1.424,1.15-.628,1.238-1.207,1.387-1.671,1.423-1.3.1-2.506,2.4-1.617,3.66.975,1.385.315,4.9.448,5.226a2.335,2.335,0,0,1,.134.469Z" transform="translate(-169.539 -94.076)" fill="#ffc144" fill-rule="evenodd"/>
          <path id="Trazado_912230" data-name="Trazado 912230" d="M199.073,246.145H177.962c.257,1.415-.539,3.393-1.72,3.464-2.251.134-.677,1.125-1.419,1.575-.7.424.783,1.744,1.037,1.734,1.588-.063,3.142,3.082,4.046,1.529.113-.194,1,.043,1.97.423h12.455c.351-.807,1.191-.452,1.505-1.059.546-1.053-.683-1.96.09-2.422,1.53-.917,2.423,1.573,3.862.72,1.238-.734-.976-2.976-.285-3.748.5-.555-.271-1.407-.43-2.215Z" transform="translate(-152.638 -215.137)" fill="#60a4ff" fill-rule="evenodd"/>
          <path id="Trazado_912231" data-name="Trazado 912231" d="M244.552,315.4H232.1c1.214.478,2.544,1.184,2.589,1.546.169,1.386,1.05.569,1.032,1.182-.043,1.456,1.045.927,1.1,1.345.272,1.973,2.792.982,3.41.91,2.915-.34,1.565,4.024,3.314,3.727s.814-2.419,1.076-4.191c.181-1.226.732-1.343.355-2.72-.241-.881-.7-1.127-.434-1.773l.011-.025" transform="translate(-202.859 -275.668)" fill="#ff5a58" fill-rule="evenodd"/>
          <path id="Trazado_912232" data-name="Trazado 912232" d="M195.8,216.6a.709.709,0,0,0,.709-.709h0a.709.709,0,1,0-.709.71" transform="translate(-170.517 -188.073)"/>
          <path id="Trazado_912233" data-name="Trazado 912233" d="M195.946,125.168a5.637,5.637,0,0,0-.457-1.386,4.211,4.211,0,0,1-.329-.952,1.925,1.925,0,0,0-.052-2.1c-.2-.456-.339-.793-.226-.962.8-1.185,1-2.2.616-3.029a2.461,2.461,0,0,0-2.111-1.28c-.318-.033-.639-.051-.949-.069a6.534,6.534,0,0,1-1.225-.135,3.855,3.855,0,0,0-3.078-2.087c-1.911-.2-2.668-.556-2.968-.822-.25-.222-.267-.451-.281-.909a1.978,1.978,0,0,0-1.064-1.968c-.261-.134-.414-.317-.313-.773a4.842,4.842,0,0,1,3.562-3.058,1.238,1.238,0,0,0,1.194-.949,2.226,2.226,0,0,0-1.142-2.284c-.623-.371-2.335-.994-4.766,1.241a13.464,13.464,0,0,1-3.4,1.3l-.244.071a1.867,1.867,0,0,0-1.5,1.5,4.537,4.537,0,0,1-.627,1.35,3.536,3.536,0,0,1-.354.464c-.677-.1-.99.516-1.113.759-.5.991-.858,1.018-1.093,1.037a2.558,2.558,0,0,0-1.769,1.069,3.628,3.628,0,0,0-.769,2.729.709.709,0,1,0,1.4-.239,2.239,2.239,0,0,1,.489-1.618,1.232,1.232,0,0,1,.76-.527c.638-.05,1.466-.3,2.225-1.762.544-.017.965-.465,1.405-1.125a5.932,5.932,0,0,0,.8-1.725c.129-.426.129-.426.542-.547l.241-.071a11.873,11.873,0,0,0,3.963-1.62c1.206-1.109,2.322-1.5,3.062-1.077a1.047,1.047,0,0,1,.5.615,5.411,5.411,0,0,0-2.929,1.415,5.5,5.5,0,0,0-1.827,2.746,1.983,1.983,0,0,0,1.05,2.34c.249.128.28.205.3.749a2.422,2.422,0,0,0,.756,1.927,6.8,6.8,0,0,0,3.764,1.173c.648.067,1.252.227,2.079,1.518.387.6,1.227.651,2.291.71.293.016.6.033.881.063a1.182,1.182,0,0,1,.974.47c.154.328-.032.925-.51,1.638a1.64,1.64,0,0,0-.228.5H173.047a.709.709,0,0,0-.7.835,3.148,3.148,0,0,1-.542,2.272.851.851,0,0,1-.522.357,2.161,2.161,0,0,0-1.711.626,1.321,1.321,0,0,0-.18,1.131l0,.02a1.1,1.1,0,0,0-.326,1.2c.2.662,1.213,1.778,1.9,1.748h.02c.418,0,1.023.516,1.51.932.66.564,1.285,1.1,2.008,1.021h.024a.7.7,0,0,0,.368-.1,1.417,1.417,0,0,0,.483-.366,9.821,9.821,0,0,1,1.755.6,7.653,7.653,0,0,1,1.726.942,1.422,1.422,0,0,0,1.017,1.309,1.493,1.493,0,0,0,1.168,1.424,1.929,1.929,0,0,0,.765,1.108,3.877,3.877,0,0,0,3.012.137c.135-.032.289-.069.347-.075.872-.1,1.095.286,1.406,1.673a4.78,4.78,0,0,0,.43,1.326,1.377,1.377,0,0,0,1.229.748,1.7,1.7,0,0,0,.285-.025,1.843,1.843,0,0,0,1.574-1.37,5.747,5.747,0,0,0,.079-1.86,7.837,7.837,0,0,1,.007-1.557,3.7,3.7,0,0,1,.24-.855,2.95,2.95,0,0,0,.1-2.156,4.723,4.723,0,0,0-.354-.889c-.155-.314-.153-.321-.108-.428.051-.124.078-.148.39-.239a1.607,1.607,0,0,0,1.1-.787,2.363,2.363,0,0,0,0-1.981c-.023-.067-.051-.148-.071-.216.288-.124.534-.007,1.124.392a2.293,2.293,0,0,0,2.627.386,1.5,1.5,0,0,0,.711-1.6Zm-6.845,7.011a5.078,5.078,0,0,0-.317,1.152,9.006,9.006,0,0,0-.019,1.85c.09,1.487-.017,1.669-.474,1.746l-.027,0a3.79,3.79,0,0,1-.3-.965,5.125,5.125,0,0,0-.682-1.855,2.191,2.191,0,0,0-1.886-.94,3.315,3.315,0,0,0-.387.023,4.744,4.744,0,0,0-.511.1c-.478.114-1.474.351-1.882.072a.616.616,0,0,1-.233-.479,1.011,1.011,0,0,0-.888-.81,1.228,1.228,0,0,1-.168-.045.9.9,0,0,1-.041-.372.935.935,0,0,0-.938-1.008l-.039,0a1.221,1.221,0,0,1-.06-.277,1.146,1.146,0,0,0-.464-.75h8.86a2.732,2.732,0,0,0,.248.641,3.353,3.353,0,0,1,.257.635,1.593,1.593,0,0,1-.055,1.277Zm5.442-6.657a.129.129,0,0,1-.031.023c-.27.16-.446.106-1.109-.341a2.377,2.377,0,0,0-2.756-.377,1.383,1.383,0,0,0-.433,1.836c.129.378.2.623.081.864a1.548,1.548,0,0,1-.242.084,1.95,1.95,0,0,0-1.026.6H177.095a9.508,9.508,0,0,0-1.388-.433c-.273-.056-1-.205-1.329.362a.683.683,0,0,1-.042.066,4.862,4.862,0,0,1-.912-.676,4.2,4.2,0,0,0-2.335-1.27,2.813,2.813,0,0,1-.583-.595,1.272,1.272,0,0,0,.281-1.222,3.229,3.229,0,0,1,.582-.076,2.144,2.144,0,0,0,1.553-.9,4.562,4.562,0,0,0,.879-2.565h19.836c.058.149.12.287.175.412a2.761,2.761,0,0,1,.232.638c-.589.68-.2,1.587.14,2.388a3.268,3.268,0,0,1,.359,1.183Z" transform="translate(-147.723 -89.185)"/>
        </g>
      </g>
    </g>
  </g>
</svg>
