<svg xmlns="http://www.w3.org/2000/svg" xmlns:xlink="http://www.w3.org/1999/xlink" width="348.579" height="432.047" viewBox="0 0 348.579 432.047">
  <defs>
    <clipPath id="clip-path">
      <rect id="Rectángulo_403314" data-name="Rectángulo 403314" width="322.431" height="432.047" fill="none"/>
    </clipPath>
    <clipPath id="clip-path-3">
      <rect id="Rectángulo_403291" data-name="Rectángulo 403291" width="45.544" height="389.337" fill="none"/>
    </clipPath>
    <clipPath id="clip-path-4">
      <rect id="Rectángulo_403293" data-name="Rectángulo 403293" width="44.246" height="7.484" fill="none"/>
    </clipPath>
    <clipPath id="clip-path-5">
      <rect id="Rectángulo_403295" data-name="Rectángulo 403295" width="94.739" height="73.614" fill="none"/>
    </clipPath>
    <clipPath id="clip-path-6">
      <rect id="Rectángulo_403296" data-name="Rectángulo 403296" width="68.611" height="53.643" fill="none"/>
    </clipPath>
    <clipPath id="clip-path-7">
      <rect id="Rectángulo_403299" data-name="Rectángulo 403299" width="68.945" height="59.438" fill="none"/>
    </clipPath>
    <clipPath id="clip-path-8">
      <rect id="Rectángulo_403302" data-name="Rectángulo 403302" width="50.426" height="7.483" fill="none"/>
    </clipPath>
    <clipPath id="clip-path-9">
      <rect id="Rectángulo_403304" data-name="Rectángulo 403304" width="45.979" height="7.484" fill="none"/>
    </clipPath>
    <clipPath id="clip-path-11">
      <rect id="Rectángulo_403307" data-name="Rectángulo 403307" width="8.79" height="31.627" fill="none"/>
    </clipPath>
    <clipPath id="clip-path-12">
      <rect id="Rectángulo_403308" data-name="Rectángulo 403308" width="45.46" height="29.402" fill="none"/>
    </clipPath>
    <clipPath id="clip-path-13">
      <rect id="Rectángulo_403309" data-name="Rectángulo 403309" width="51.979" height="5.299" fill="none"/>
    </clipPath>
    <clipPath id="clip-path-14">
      <rect id="Rectángulo_403310" data-name="Rectángulo 403310" width="58.009" height="27.774" fill="none"/>
    </clipPath>
    <clipPath id="clip-path-15">
      <rect id="Rectángulo_403311" data-name="Rectángulo 403311" width="32.06" height="36.522" fill="none"/>
    </clipPath>
    <clipPath id="clip-path-16">
      <rect id="Rectángulo_403312" data-name="Rectángulo 403312" width="34.145" height="11.509" fill="none"/>
    </clipPath>
  </defs>
  <g id="Grupo_1102233" data-name="Grupo 1102233" transform="translate(-986.421 -3157.61)">
    <g id="Grupo_1101994" data-name="Grupo 1101994" transform="translate(986.421 3374.363)">
      <path id="Trazado_911259" data-name="Trazado 911259" d="M299.1,182.288c-7.532-25.667,32.921-63.925,23.156-111.613S286.1,22.018,248.1,17.76s-60.982-31.636-87.777-8.722-36.313,37.1-86.728,12S-14.757,60.371,5.609,101.382s13.95,80.906,13.95,80.906Z" transform="translate(4.789 32.714)" fill="#ffdba9"/>
      <path id="Trazado_911233" data-name="Trazado 911233" d="M323.365,191.648a.593.593,0,0,0,.554-.383c4.607-12.145,5.783-21.364,3.933-30.826a66.767,66.767,0,0,0-4.888-14.587c-2.489-5.553-5.722-11.551-8.845-17.2-5.9-10.686-4.386-23.328-2.781-36.713,1.111-9.264,2.26-18.843,1.019-28.356a52.938,52.938,0,0,0-1.423-7.135,46.724,46.724,0,0,0-6.472-14.02,53.627,53.627,0,0,0-5.5-6.787,58.635,58.635,0,0,0-8.478-7.4,50.544,50.544,0,0,0-9-5.114,48.412,48.412,0,0,0-9.387-3.005,51.231,51.231,0,0,0-9.631-1.076,61.6,61.6,0,0,0-16.429,2.038,82.739,82.739,0,0,0-16.111,6.1,106.813,106.813,0,0,0-15.188,9.273A123.231,123.231,0,0,0,201.08,48.026c-20,19.585-45.15,29.583-73.2,29.583A140.33,140.33,0,0,1,82.7,69.658a51.109,51.109,0,0,0-10.25-2.332,55.579,55.579,0,0,0-10.5-.265,61.315,61.315,0,0,0-10.473,1.65A66.736,66.736,0,0,0,41.3,72.124a70.38,70.38,0,0,0-9.63,5.029,71.349,71.349,0,0,0-8.813,6.5,69.622,69.622,0,0,0-7.73,7.82,66.069,66.069,0,0,0-6.38,9,60.361,60.361,0,0,0-7.432,19.782,59.492,59.492,0,0,0,.24,22.468,68.124,68.124,0,0,0,3.566,11.91,80.841,80.841,0,0,0,6.16,12.184,100.983,100.983,0,0,0,8.974,12.331,130.617,130.617,0,0,0,12.009,12.353.593.593,0,0,0,.8-.879A113.652,113.652,0,0,1,12.29,166.191a72.757,72.757,0,0,1-9.574-23.706,58.048,58.048,0,0,1,7.052-41.415C24.891,75.383,56.76,62.079,82.319,70.78a160.539,160.539,0,0,0,18.875,5.2A135.97,135.97,0,0,0,119.022,78.5a119.088,119.088,0,0,0,16.744.054,108.517,108.517,0,0,0,15.623-2.215,103.134,103.134,0,0,0,14.463-4.281,101.966,101.966,0,0,0,13.265-6.143A106.043,106.043,0,0,0,201.91,48.873a114.492,114.492,0,0,1,28.547-20.629,81.555,81.555,0,0,1,15.879-6.013,60.414,60.414,0,0,1,16.112-2c13.659.244,25.656,5.7,35.659,16.223,16.6,17.458,14.289,36.716,12.056,55.34-.821,6.848-1.6,13.316-1.431,19.591a46.237,46.237,0,0,0,1.091,9.2,34.975,34.975,0,0,0,1.314,4.4,31.862,31.862,0,0,0,1.946,4.237c3.111,5.632,6.33,11.6,8.8,17.116a65.629,65.629,0,0,1,4.807,14.329c1.8,9.23.645,18.255-3.878,30.178a.593.593,0,0,0,.554.8Z" transform="translate(-0.359 23.645)" fill="#ffdba9"/>
      <g id="Grupo_1100874" data-name="Grupo 1100874" transform="translate(6.533 0)">
        <path id="Elipse_11537" data-name="Elipse 11537" d="M8.425,16.851A8.425,8.425,0,0,0,14.383,2.468,8.425,8.425,0,1,0,2.468,14.383,8.37,8.37,0,0,0,8.425,16.851Zm0-14.621a6.2,6.2,0,1,1-6.2,6.2A6.2,6.2,0,0,1,8.425,2.23Z" transform="translate(290.067 119.709) rotate(-121.717)" fill="#39274d"/>
        <path id="Elipse_11538" data-name="Elipse 11538" d="M8.425,16.851A8.425,8.425,0,0,0,14.383,2.468,8.425,8.425,0,0,0,2.468,14.383,8.37,8.37,0,0,0,8.425,16.851Zm0-14.621a6.2,6.2,0,1,1-6.2,6.2A6.2,6.2,0,0,1,8.425,2.23Z" transform="translate(16.633 100.887) rotate(-170.783)" fill="#39274d"/>
        <path id="Trazado_911233-2" data-name="Trazado 911233" d="M560.749,247H575.2a1.115,1.115,0,0,0,1-1.613l-7.227-14.453a1.115,1.115,0,0,0-1.994,0l-7.227,14.453a1.115,1.115,0,0,0,1,1.613Zm12.649-2.23H562.553l5.423-10.845Z" transform="translate(-527.074 -63.222)" fill="#39274d"/>
        <path id="Trazado_911234" data-name="Trazado 911234" d="M419.371,63.592a4.074,4.074,0,1,1,4.074,4.074,4.074,4.074,0,0,1-4.074-4.074" transform="translate(-412.598 -59.518)" fill="#fe729d"/>
        <path id="Trazado_911235" data-name="Trazado 911235" d="M0,156.448a2.058,2.058,0,1,1,2.058,2.058A2.058,2.058,0,0,1,0,156.448" transform="translate(83.974 -72.836)" fill="#fe729d"/>
        <path id="Trazado_911236" data-name="Trazado 911236" d="M115.542,32.369a2.058,2.058,0,1,1,2.058,2.058,2.058,2.058,0,0,1-2.058-2.058" transform="translate(163.607 110.841)" fill="#fe729d"/>
        <path id="Trazado_911237" data-name="Trazado 911237" d="M600.278,291.686a2.058,2.058,0,1,1,2.058,2.058,2.058,2.058,0,0,1-2.058-2.058" transform="translate(-585.359 -78.45)" fill="#ffdba9"/>
      </g>
    </g>
    <g id="Grupo_1101992" data-name="Grupo 1101992" transform="translate(1012.569 3157.61)">
      <g id="Grupo_1101991" data-name="Grupo 1101991" clip-path="url(#clip-path)">
        <rect id="Rectángulo_403289" data-name="Rectángulo 403289" width="166.596" height="389.337" transform="translate(0 42.71)" fill="#455a64"/>
        <g id="Grupo_1101990" data-name="Grupo 1101990">
          <g id="Grupo_1101989" data-name="Grupo 1101989" clip-path="url(#clip-path)">
            <g id="Grupo_1101949" data-name="Grupo 1101949" transform="translate(0 42.71)" opacity="0.3">
              <g id="Grupo_1101948" data-name="Grupo 1101948">
                <g id="Grupo_1101947" data-name="Grupo 1101947" clip-path="url(#clip-path-3)">
                  <rect id="Rectángulo_403290" data-name="Rectángulo 403290" width="45.545" height="389.337"/>
                </g>
              </g>
            </g>
            <path id="Trazado_913056" data-name="Trazado 913056" d="M156.08,140.331s-.016-.49-.025-1.418-.014-2.312-.026-4.1c-.013-3.6-.033-8.856-.059-15.579-.029-13.441-.07-32.72-.121-56.139l.231.231L47.4,63.382H47.4l.285-.285c-.01,27.649-.019,53.885-.026,77.234l-.259-.26,78.349.128,22.333.07,5.939.031,1.535.015c.345.005.529.015.529.015s-.163.01-.5.015l-1.506.015-5.887.031-22.275.07-78.518.128h-.26v-.26c-.008-23.349-.016-49.585-.026-77.234v-.286H47.4l108.676.055h.231V63.1c-.05,23.479-.092,42.807-.121,56.283-.026,6.7-.046,11.943-.059,15.528-.012,1.767-.021,3.123-.026,4.054-.009.913-.025,1.37-.025,1.37" transform="translate(4.531 6.042)" fill="#263238"/>
            <g id="Grupo_1101952" data-name="Grupo 1101952" transform="translate(85.168 116.615)" opacity="0.3">
              <g id="Grupo_1101951" data-name="Grupo 1101951">
                <g id="Grupo_1101950" data-name="Grupo 1101950" clip-path="url(#clip-path-4)">
                  <rect id="Rectángulo_403292" data-name="Rectángulo 403292" width="44.246" height="7.484" transform="translate(0.001)"/>
                </g>
              </g>
            </g>
            <path id="Trazado_913057" data-name="Trazado 913057" d="M112.871,97.657H90.07a2.733,2.733,0,0,1-2.733-2.733v-16.2A2.732,2.732,0,0,1,90.07,76h22.8a2.732,2.732,0,0,1,2.733,2.732v16.2a2.733,2.733,0,0,1-2.733,2.733" transform="translate(8.401 7.31)" fill="#fff"/>
            <path id="Trazado_913058" data-name="Trazado 913058" d="M113.609,93.739a7.16,7.16,0,0,1-1.019-1.064c-.692-.8-1.568-1.823-2.617-3.04q-.83-.983-1.784-2.116c-.16-.189-.32-.38-.485-.574a.518.518,0,0,0-.48-.16c-.184.027-.287.161-.49.391l-.552.617q-.562.625-1.149,1.278a1.237,1.237,0,0,1-.924.54,1.04,1.04,0,0,1-.583-.161,1.131,1.131,0,0,1-.233-.2l-.149-.171-2.465-2.852q-.63-.733-1.247-1.449l-.609-.71a.483.483,0,0,0-.532-.167.473.473,0,0,0-.233.16l-.275.353-.544.7q-.538.692-1.056,1.357c-1.364,1.736-2.6,3.314-3.672,4.676L89.995,94.27a7.421,7.421,0,0,1-.984,1.1,7.24,7.24,0,0,1,.808-1.233L92.189,90.9l3.577-4.751c.338-.446.686-.9,1.039-1.368.179-.233.356-.468.537-.706l.276-.361a1.045,1.045,0,0,1,1.63-.018l.614.708q.617.714,1.249,1.447l2.457,2.859c.334.475.718.463,1.062-.009l1.162-1.265.562-.609a1.354,1.354,0,0,1,.782-.538,1.01,1.01,0,0,1,.934.33c.166.2.326.4.485.6.615.77,1.194,1.491,1.73,2.161l2.476,3.155a7.218,7.218,0,0,1,.848,1.206" transform="translate(8.562 8.014)" fill="#263238"/>
            <path id="Trazado_913059" data-name="Trazado 913059" d="M105.335,81.9c-.046,0-.065-.208-.181-.545a2.354,2.354,0,0,0-.867-1.156,2.155,2.155,0,0,0-2-.251,2.088,2.088,0,0,0,0,3.9,2.158,2.158,0,0,0,2-.251,2.357,2.357,0,0,0,.866-1.156c.116-.337.135-.546.181-.545s.092.21.034.6a2.331,2.331,0,0,1-.836,1.424,2.528,2.528,0,0,1-2.427.424,2.59,2.59,0,0,1,0-4.893,2.528,2.528,0,0,1,2.427.424,2.336,2.336,0,0,1,.836,1.424c.058.388,0,.6-.034.6" transform="translate(9.654 7.629)" fill="#263238"/>
            <g id="Grupo_1101955" data-name="Grupo 1101955" transform="translate(50.66 152.182)" opacity="0.4">
              <g id="Grupo_1101954" data-name="Grupo 1101954">
                <g id="Grupo_1101953" data-name="Grupo 1101953" clip-path="url(#clip-path-5)">
                  <rect id="Rectángulo_403294" data-name="Rectángulo 403294" width="94.738" height="73.614" transform="translate(0.001)"/>
                </g>
              </g>
            </g>
            <path id="Trazado_913060" data-name="Trazado 913060" d="M101.076,141.714h-18L82.014,139.9a3.956,3.956,0,0,0-3.415-1.959H65.316a3.955,3.955,0,0,0-3.951,3.768H56.637a3.7,3.7,0,0,0-3.7,3.7v9.18H104.78v-9.18a3.7,3.7,0,0,0-3.7-3.7" transform="translate(5.092 13.269)" fill="#e0e0e0"/>
            <path id="Trazado_913061" data-name="Trazado 913061" d="M109.75,141.714h-18L90.688,139.9a3.956,3.956,0,0,0-3.415-1.959H73.99a3.957,3.957,0,0,0-3.952,3.768H65.31a3.7,3.7,0,0,0-3.7,3.7v9.18h51.847v-9.18a3.7,3.7,0,0,0-3.7-3.7" transform="translate(5.926 13.269)" fill="#ebebeb"/>
            <path id="Trazado_913062" data-name="Trazado 913062" d="M121.022,141.714h-18L101.96,139.9a3.956,3.956,0,0,0-3.415-1.959H85.262a3.957,3.957,0,0,0-3.952,3.768H76.582a3.7,3.7,0,0,0-3.7,3.7v9.18h51.847v-9.18a3.7,3.7,0,0,0-3.7-3.7" transform="translate(7.01 13.269)" fill="#f5f5f5"/>
            <path id="Trazado_913063" data-name="Trazado 913063" d="M78.688,189.775V145.64a3.823,3.823,0,0,1,3.979-3.647h3.8a4.015,4.015,0,0,0,3.612-2.119l.818-1.622a4.015,4.015,0,0,1,3.613-2.119h18.053a4.062,4.062,0,0,1,3.426,1.791l.887,1.376a4.063,4.063,0,0,0,3.426,1.791h23.015a3.824,3.824,0,0,1,3.979,3.647v45.037Z" transform="translate(7.569 13.095)" fill="#b7cc95"/>
            <g id="Grupo_1101958" data-name="Grupo 1101958" transform="translate(86.257 149.227)" opacity="0.3">
              <g id="Grupo_1101957" data-name="Grupo 1101957">
                <g id="Grupo_1101956" data-name="Grupo 1101956" clip-path="url(#clip-path-6)">
                  <path id="Trazado_913064" data-name="Trazado 913064" d="M78.688,189.775V145.64a3.823,3.823,0,0,1,3.979-3.647h3.8a4.015,4.015,0,0,0,3.612-2.119l.818-1.622a4.015,4.015,0,0,1,3.613-2.119h18.053a4.062,4.062,0,0,1,3.426,1.791l.887,1.376a4.063,4.063,0,0,0,3.426,1.791h23.015a3.824,3.824,0,0,1,3.979,3.647v45.037Z" transform="translate(-78.688 -136.132)"/>
                </g>
              </g>
            </g>
            <path id="Trazado_913065" data-name="Trazado 913065" d="M91.84,155.789V120.914a5.2,5.2,0,0,1,5.2-5.2h55.529a5.2,5.2,0,0,1,5.2,5.2v33.91Z" transform="translate(8.834 11.13)" fill="#fff"/>
            <path id="Trazado_913066" data-name="Trazado 913066" d="M93.822,166.257V122.122a3.823,3.823,0,0,1,3.979-3.647h3.8a4.015,4.015,0,0,0,3.612-2.119l.818-1.623a4.016,4.016,0,0,1,3.613-2.118H127.7a4.062,4.062,0,0,1,3.426,1.791l.887,1.376a4.063,4.063,0,0,0,3.426,1.791h23.015a3.824,3.824,0,0,1,3.979,3.647v45.037Z" transform="translate(9.025 10.833)" fill="#b7cc95"/>
            <path id="Trazado_913067" data-name="Trazado 913067" d="M93.842,166.281a3.088,3.088,0,0,1,.34-.015l.975-.015,3.759-.031,14.109-.07,49.428-.128-.26.26c-.005-7.385-.012-15.226-.019-23.409q0-6.137-.005-12.515,0-3.185,0-6.421v-1.621a12.25,12.25,0,0,0-.047-1.576,3.34,3.34,0,0,0-1.714-2.354,3.9,3.9,0,0,0-1.331-.453,10.857,10.857,0,0,0-1.47-.049h-8.98l-11.667,0h-1.431a4.688,4.688,0,0,1-1.489-.227,4.223,4.223,0,0,1-2.323-1.825l-.761-1.182a3.5,3.5,0,0,0-.873-.953,3.954,3.954,0,0,0-2.428-.779l-10.8-.009-5.2-.007c-.841.015-1.741-.036-2.517.032a3.905,3.905,0,0,0-2.115.965c-1.158,1-1.279,3.015-2.792,4.018a4.4,4.4,0,0,1-2.368.822l-2.377,0a22.629,22.629,0,0,0-2.286.046,3.832,3.832,0,0,0-1.939.869,3.356,3.356,0,0,0-1.1,1.744,11.231,11.231,0,0,0-.1,2.131q-.012,4.336-.021,8.315c-.046,10.6-.083,19.184-.11,25.143-.021,2.966-.036,5.277-.048,6.871-.009.773-.015,1.371-.021,1.8-.007.408-.021.627-.021.627s-.014-.192-.021-.586q-.008-.626-.021-1.76c-.012-1.583-.027-3.876-.048-6.819-.026-5.974-.064-14.58-.11-25.207q-.01-4-.021-8.372a11.324,11.324,0,0,1,.1-2.247,3.8,3.8,0,0,1,1.243-1.985,4.293,4.293,0,0,1,2.166-.982,22.459,22.459,0,0,1,2.356-.059l2.351-.011a3.924,3.924,0,0,0,2.107-.738c1.338-.848,1.392-2.717,2.738-3.992a4.412,4.412,0,0,1,2.389-1.1c.908-.079,1.712-.023,2.583-.042l5.2-.005,10.8-.01a4.5,4.5,0,0,1,2.758.886,4.05,4.05,0,0,1,1.006,1.093l.762,1.18a3.652,3.652,0,0,0,2.03,1.6,4.089,4.089,0,0,0,1.317.2h1.431l11.667,0h8.98a11.085,11.085,0,0,1,1.554.055,4.46,4.46,0,0,1,1.526.52,3.91,3.91,0,0,1,2,2.758,12.439,12.439,0,0,1,.054,1.67v1.621q0,3.234,0,6.421,0,6.37-.005,12.515c-.007,8.183-.013,16.024-.019,23.409v.26h-.26l-49.6-.129-14.05-.069-3.707-.031-.945-.015a2.2,2.2,0,0,1-.31-.015" transform="translate(9.005 10.809)" fill="#263238"/>
            <path id="Trazado_913068" data-name="Trazado 913068" d="M123.723,116.272a46.782,46.782,0,0,1-7.289.285,46.782,46.782,0,0,1-7.289-.285,46.782,46.782,0,0,1,7.289-.285,46.782,46.782,0,0,1,7.289.285" transform="translate(10.499 11.157)" fill="#fff"/>
            <path id="Trazado_913069" data-name="Trazado 913069" d="M113.306,183.175V139.04c0-2.015,2.014-3.647,4.5-3.647h4.3a4.661,4.661,0,0,0,4.083-2.119l.923-1.622a4.658,4.658,0,0,1,4.083-2.119h20.4a4.784,4.784,0,0,1,3.872,1.791l1,1.376a4.784,4.784,0,0,0,3.872,1.791h26.01c2.484,0,4.5,1.633,4.5,3.647v45.037Z" transform="translate(10.899 12.46)" fill="#b7cc95"/>
            <path id="Trazado_913070" data-name="Trazado 913070" d="M113.326,183.2s.136-.011.386-.015l1.108-.015,4.274-.033,16.01-.071,55.764-.128-.263.263c-.005-7.472-.011-15.313-.016-23.44q0-6.1,0-12.395,0-3.147,0-6.339c-.009-1.049.02-2.163-.019-3.168a3.269,3.269,0,0,0-1.627-2.354,5.184,5.184,0,0,0-2.97-.7h-9.643l-12.527,0h-3.066a5.769,5.769,0,0,1-3.063-.686,4.468,4.468,0,0,1-1.238-1.012c-.332-.424-.6-.816-.9-1.222a4.165,4.165,0,0,0-2.153-1.734,7.326,7.326,0,0,0-2.815-.311l-2.915,0-5.729,0-11.013,0a4.89,4.89,0,0,0-2.384.761,3.72,3.72,0,0,0-.911.824,10.282,10.282,0,0,0-.661,1.083c-.221.38-.413.743-.658,1.133a4,4,0,0,1-.932.989,5.2,5.2,0,0,1-2.439.989c-1.737.113-3.343.026-4.976.049a4.544,4.544,0,0,0-3.93,1.867,3.335,3.335,0,0,0-.472,2.095q0,1.141,0,2.257-.007,2.233-.011,4.366c-.046,11.382-.084,20.6-.11,26.993-.021,3.186-.037,5.667-.048,7.375-.01.833-.016,1.473-.022,1.929-.007.437-.021.672-.021.672s-.014-.207-.021-.63c-.005-.448-.012-1.076-.022-1.893-.011-1.7-.027-4.161-.048-7.325-.025-6.413-.064-15.657-.11-27.073q0-2.147-.01-4.4,0-1.123-.005-2.271a3.806,3.806,0,0,1,.532-2.336,4.988,4.988,0,0,1,4.3-2.087c1.6-.026,3.3.047,4.91-.061a4.725,4.725,0,0,0,2.212-.9,5.576,5.576,0,0,0,1.458-1.982,10.638,10.638,0,0,1,.7-1.144,4.216,4.216,0,0,1,1.027-.936,5.383,5.383,0,0,1,2.628-.847l11.042-.022,5.729-.005,2.915,0a7.852,7.852,0,0,1,3,.341,4.728,4.728,0,0,1,2.409,1.923c.293.394.594.827.88,1.192a3.9,3.9,0,0,0,1.086.884,5.207,5.207,0,0,0,2.792.612H163.8l12.527,0h9.643a5.753,5.753,0,0,1,3.27.788,3.84,3.84,0,0,1,1.893,2.774c.045,1.133.012,2.155.022,3.233q0,3.192,0,6.339,0,6.294,0,12.395c-.007,8.127-.012,15.968-.016,23.44v.264h-.264l-55.939-.128-15.95-.071-4.22-.032-1.079-.016a2.643,2.643,0,0,1-.355-.015" transform="translate(10.879 12.436)" fill="#263238"/>
            <path id="Trazado_913071" data-name="Trazado 913071" d="M149.115,133.733a81.449,81.449,0,0,1-9.628.285,81.434,81.434,0,0,1-9.628-.285,81.44,81.44,0,0,1,9.628-.285,81.455,81.455,0,0,1,9.628.285" transform="translate(12.491 12.836)" fill="#fff"/>
            <rect id="Rectángulo_403297" data-name="Rectángulo 403297" width="68.946" height="59.438" transform="translate(50.659 166.901)" fill="#455a64"/>
            <g id="Grupo_1101961" data-name="Grupo 1101961" transform="translate(50.66 166.901)" opacity="0.3">
              <g id="Grupo_1101960" data-name="Grupo 1101960">
                <g id="Grupo_1101959" data-name="Grupo 1101959" clip-path="url(#clip-path-7)">
                  <rect id="Rectángulo_403298" data-name="Rectángulo 403298" width="68.946" height="59.438" transform="translate(-0.001)"/>
                </g>
              </g>
            </g>
            <rect id="Rectángulo_403300" data-name="Rectángulo 403300" width="108.685" height="77.234" transform="translate(119.606 151.215)" fill="#455a64"/>
            <path id="Trazado_913072" data-name="Trazado 913072" d="M217.821,215.206s-.016-.49-.025-1.418-.014-2.312-.026-4.1c-.013-3.6-.033-8.856-.059-15.579-.029-13.441-.07-32.72-.121-56.139l.231.231-108.677.054h-.008l.285-.285c-.01,27.649-.019,53.885-.026,77.234l-.259-.26,78.348.129,22.334.069,5.939.031,1.535.015c.345.005.529.015.529.015s-.163.01-.5.015l-1.506.015-5.887.031-22.275.07-78.518.128h-.26v-.26c-.009-23.349-.016-49.585-.026-77.234v-.286h.294l108.677.055h.231v.231c-.05,23.479-.092,42.807-.121,56.283-.026,6.7-.046,11.943-.059,15.528-.012,1.767-.021,3.123-.026,4.054-.009.913-.025,1.37-.025,1.37" transform="translate(10.47 13.244)" fill="#263238"/>
            <g id="Grupo_1101964" data-name="Grupo 1101964" transform="translate(154.606 202.096)" opacity="0.3">
              <g id="Grupo_1101963" data-name="Grupo 1101963">
                <g id="Grupo_1101962" data-name="Grupo 1101962" clip-path="url(#clip-path-8)">
                  <rect id="Rectángulo_403301" data-name="Rectángulo 403301" width="50.426" height="7.484" transform="translate(0 -0.001)"/>
                </g>
              </g>
            </g>
            <path id="Trazado_913073" data-name="Trazado 913073" d="M175.175,179.591h-22.8a2.733,2.733,0,0,1-2.733-2.733v-16.2a2.732,2.732,0,0,1,2.733-2.732h22.8a2.732,2.732,0,0,1,2.733,2.732v16.2a2.733,2.733,0,0,1-2.733,2.733" transform="translate(14.394 15.191)" fill="#fff"/>
            <path id="Trazado_913074" data-name="Trazado 913074" d="M155.11,163.784h5.782l.01,1.937h-.277a1.758,1.758,0,0,0-.778-1.406,2.39,2.39,0,0,0-1.079-.22v5.059a.978.978,0,0,0,.185.7,1.189,1.189,0,0,0,.772.174v.243H156.3v-.243a1.128,1.128,0,0,0,.748-.176.975.975,0,0,0,.185-.7v-5.059a2.451,2.451,0,0,0-1.079.22,1.631,1.631,0,0,0-.778,1.406H155.1Z" transform="translate(14.919 15.754)" fill="#263238"/>
            <path id="Trazado_913075" data-name="Trazado 913075" d="M170.989,164.274a18.254,18.254,0,0,1-4.534.285,18.247,18.247,0,0,1-4.534-.285,18.249,18.249,0,0,1,4.534-.285,18.256,18.256,0,0,1,4.534.285" transform="translate(15.575 15.774)" fill="#263238"/>
            <path id="Trazado_913076" data-name="Trazado 913076" d="M171.155,167.972a18.256,18.256,0,0,1-4.534.285,18.249,18.249,0,0,1-4.534-.285,18.247,18.247,0,0,1,4.534-.285,18.254,18.254,0,0,1,4.534.285" transform="translate(15.591 16.13)" fill="#263238"/>
            <path id="Trazado_913077" data-name="Trazado 913077" d="M172.943,171.671a62.807,62.807,0,0,1-8.451.285,62.793,62.793,0,0,1-8.451-.285,62.8,62.8,0,0,1,8.451-.285,62.811,62.811,0,0,1,8.451.285" transform="translate(15.01 16.486)" fill="#263238"/>
            <path id="Trazado_913078" data-name="Trazado 913078" d="M156.08,293.678s-.016-.49-.025-1.418-.014-2.312-.026-4.1c-.013-3.6-.033-8.856-.059-15.579-.029-13.441-.07-32.72-.121-56.139l.231.231L47.4,216.729H47.4l.285-.285c-.01,27.649-.019,53.885-.026,77.234l-.259-.26,78.349.129,22.333.069,5.939.031,1.535.015c.345.005.529.015.529.015s-.163.01-.5.015l-1.506.015-5.887.031-22.275.07-78.518.128h-.26v-.26c-.008-23.349-.016-49.585-.026-77.234v-.286H47.4l108.676.055h.231v.231c-.05,23.479-.092,42.807-.121,56.283-.026,6.7-.046,11.943-.059,15.528-.012,1.767-.021,3.123-.026,4.054-.009.913-.025,1.37-.025,1.37" transform="translate(4.531 20.792)" fill="#263238"/>
            <g id="Grupo_1101967" data-name="Grupo 1101967" transform="translate(85.168 284.713)" opacity="0.3">
              <g id="Grupo_1101966" data-name="Grupo 1101966">
                <g id="Grupo_1101965" data-name="Grupo 1101965" clip-path="url(#clip-path-9)">
                  <rect id="Rectángulo_403303" data-name="Rectángulo 403303" width="45.979" height="7.484" transform="translate(0.001)"/>
                </g>
              </g>
            </g>
            <path id="Trazado_913079" data-name="Trazado 913079" d="M112.029,254.844h-22.8a2.733,2.733,0,0,1-2.733-2.733v-16.2a2.732,2.732,0,0,1,2.733-2.732h22.8a2.732,2.732,0,0,1,2.733,2.732v16.2a2.733,2.733,0,0,1-2.733,2.733" transform="translate(8.32 22.43)" fill="#fff"/>
            <path id="Trazado_913080" data-name="Trazado 913080" d="M97.87,246.226a1.669,1.669,0,1,1-.715-2.249,1.668,1.668,0,0,1,.715,2.249" transform="translate(9.111 23.45)" fill="#263238"/>
            <path id="Trazado_913081" data-name="Trazado 913081" d="M97.679,246.139a9.465,9.465,0,0,1-.551-3.86,15.9,15.9,0,0,1,.189-3.88c.17-.015.379,1.733.39,3.87a22.074,22.074,0,0,1-.027,3.871" transform="translate(9.343 22.932)" fill="#263238"/>
            <path id="Trazado_913082" data-name="Trazado 913082" d="M102.623,239.365a4.632,4.632,0,0,1-4.861-.117c-.451-.341-.572-.7-.512-.73.073-.053.29.175.732.385a5.289,5.289,0,0,0,1.836.488c1.507.149,2.755-.2,2.8-.025" transform="translate(9.353 22.942)" fill="#263238"/>
            <path id="Trazado_913083" data-name="Trazado 913083" d="M102.721,247.117a1.669,1.669,0,1,1-.715-2.249,1.668,1.668,0,0,1,.715,2.249" transform="translate(9.578 23.536)" fill="#263238"/>
            <path id="Trazado_913084" data-name="Trazado 913084" d="M102.53,247.03a9.465,9.465,0,0,1-.551-3.86,15.9,15.9,0,0,1,.189-3.881c.17-.015.379,1.733.39,3.87a22.074,22.074,0,0,1-.027,3.871" transform="translate(9.809 23.017)" fill="#263238"/>
            <path id="Trazado_913085" data-name="Trazado 913085" d="M102.664,240.355a4.354,4.354,0,0,1-5.2-.278c.081-.149,1.161.358,2.583.422,1.42.089,2.549-.3,2.613-.144" transform="translate(9.375 23.09)" fill="#263238"/>
            <path id="Trazado_913086" data-name="Trazado 913086" d="M156.08,370.362s-.016-.49-.025-1.418-.014-2.312-.026-4.1c-.013-3.6-.033-8.856-.059-15.579-.029-13.442-.07-32.72-.121-56.139l.231.231L47.4,293.413H47.4l.285-.285c-.01,27.649-.019,53.885-.026,77.234l-.259-.26,78.349.129,22.333.069,5.939.031,1.535.015c.345.005.529.015.529.015s-.163.01-.5.015l-1.506.015-5.887.031-22.275.07-78.518.128h-.26v-.26c-.008-23.349-.016-49.585-.026-77.234v-.286H47.4l108.676.055h.231v.231c-.05,23.479-.092,42.807-.121,56.283-.026,6.7-.046,11.943-.059,15.528-.012,1.767-.021,3.123-.026,4.054-.009.913-.025,1.37-.025,1.37" transform="translate(4.531 28.169)" fill="#263238"/>
            <g id="Grupo_1101970" data-name="Grupo 1101970" transform="translate(85.168 368.772)" opacity="0.3">
              <g id="Grupo_1101969" data-name="Grupo 1101969">
                <g id="Grupo_1101968" data-name="Grupo 1101968" clip-path="url(#clip-path-9)">
                  <rect id="Rectángulo_403305" data-name="Rectángulo 403305" width="45.979" height="7.484" transform="translate(0.001 -0.001)"/>
                </g>
              </g>
            </g>
            <path id="Trazado_913087" data-name="Trazado 913087" d="M112.029,331.27h-22.8a2.733,2.733,0,0,1-2.733-2.733v-16.2a2.733,2.733,0,0,1,2.733-2.733h22.8a2.733,2.733,0,0,1,2.733,2.733v16.2a2.733,2.733,0,0,1-2.733,2.733" transform="translate(8.32 29.781)" fill="#fff"/>
            <path id="Trazado_913088" data-name="Trazado 913088" d="M101.049,317.439l2.232,1.3a.652.652,0,0,1,.013,1.12l-2.24,1.374-2.181,1.337a.652.652,0,0,1-.993-.555l0-2.628,0-2.655a.652.652,0,0,1,.98-.566Z" transform="translate(9.414 30.403)" fill="#263238"/>
            <path id="Trazado_913089" data-name="Trazado 913089" d="M297.447,104.374c-1.642-29.357-14.756-43.009-18.6-65.955C276.912,26.9,277.4,15.108,269.236,6.762c-2.941-3.007-8.42-6.1-12.592-6.621-2.287-.286-5.833-.193-7.908.784-3.866-.572-5.606-.761-8.327,0-3.221.9-7.693,3.381-9.812,5.968-5.821,7.1-7.021,16.877-7.113,26.061a152.806,152.806,0,0,0,6.128,43.916,6.2,6.2,0,0,0,2.043,3.6c1.255.857,2.922.693,4.425.454a87.934,87.934,0,0,0,16.569-4.32,5.5,5.5,0,0,0,2.1-1.159c1.484-1.512.858-4.008.18-6.015l14.876-12.722c-.99,8.85-3.837,17.4-5.1,26.21a74.156,74.156,0,0,0,2.345,31.586,48.146,48.146,0,0,1,17.545-.395c1.4.227,3.667,11.262,4.907,10.572,2.136-1.189,8.076-17.866,7.941-20.308" transform="translate(21.496 0)" fill="#263238"/>
            <path id="Trazado_913090" data-name="Trazado 913090" d="M244.214,6.639l4.221-.47,16.118,6.5a4.5,4.5,0,0,1,4.249,4.356l-.141,52.518a14.725,14.725,0,0,1-2.844,9.484l-2.265,2.989c-5.161,6.814-15.779,6.254-19.865-1.255a5.656,5.656,0,0,1-.57-1.358,10.612,10.612,0,0,1-.24-1.174,37.678,37.678,0,0,1-.508-7.889c-.287-4.639-.381-6.543-.383-6.5,0,0-9.872-1.135-12.542-13.808-1.327-6.3-1.53-16.734-1.421-25.276.1-7.688,6.7-18.127,16.189-18.115" transform="translate(21.931 0.593)" fill="#ffbe9d"/>
            <path id="Trazado_913091" data-name="Trazado 913091" d="M230.816,32.367a1.641,1.641,0,0,0,1.663,1.574,1.57,1.57,0,0,0,1.615-1.562,1.64,1.64,0,0,0-1.661-1.574,1.569,1.569,0,0,0-1.617,1.562" transform="translate(22.202 2.963)" fill="#263238"/>
            <path id="Trazado_913092" data-name="Trazado 913092" d="M245.774,31.432a1.641,1.641,0,0,0,1.663,1.574,1.57,1.57,0,0,0,1.615-1.562,1.641,1.641,0,0,0-1.661-1.574,1.569,1.569,0,0,0-1.617,1.562" transform="translate(23.641 2.873)" fill="#263238"/>
            <path id="Trazado_913093" data-name="Trazado 913093" d="M230.263,28.1c.214.2,1.409-.777,3.172-.862,1.759-.109,3.1.733,3.28.509.089-.1-.138-.476-.721-.858a4.506,4.506,0,0,0-2.639-.671,4.319,4.319,0,0,0-2.511.953c-.522.443-.686.839-.581.93" transform="translate(22.146 2.521)" fill="#263238"/>
            <path id="Trazado_913094" data-name="Trazado 913094" d="M245.522,27.277c.22.2,1.388-.818,3.147-.953,1.755-.16,3.119.642,3.292.412.087-.1-.148-.471-.745-.836a4.5,4.5,0,0,0-2.657-.594,4.328,4.328,0,0,0-2.483,1.025c-.506.458-.66.858-.554.946" transform="translate(23.614 2.433)" fill="#263238"/>
            <path id="Trazado_913095" data-name="Trazado 913095" d="M241.362,40.937a11.684,11.684,0,0,0-2.89-.373c-.452-.024-.882-.092-.975-.4a2.3,2.3,0,0,1,.235-1.349l1.159-3.495c1.6-4.973,2.742-9.053,2.541-9.116s-1.664,3.917-3.269,8.89q-.576,1.838-1.1,3.512a2.614,2.614,0,0,0-.146,1.779,1.133,1.133,0,0,0,.774.62,3.061,3.061,0,0,0,.77.068,11.466,11.466,0,0,0,2.9-.141" transform="translate(22.778 2.521)" fill="#263238"/>
            <path id="Trazado_913096" data-name="Trazado 913096" d="M240.805,59.208a32.547,32.547,0,0,0,16.879-5.421s-3.857,9.059-16.7,8.5Z" transform="translate(23.163 5.174)" fill="#eb996e"/>
            <path id="Trazado_913097" data-name="Trazado 913097" d="M241.85,43.6a3.182,3.182,0,0,1,2.789-1.323,2.909,2.909,0,0,1,2.056.975,1.839,1.839,0,0,1,.246,2.094,2.134,2.134,0,0,1-2.282.7,6.7,6.7,0,0,1-2.321-1.231,1.959,1.959,0,0,1-.529-.5.59.59,0,0,1-.031-.657" transform="translate(23.248 4.066)" fill="#eb996e"/>
            <path id="Trazado_913098" data-name="Trazado 913098" d="M246.222,40.521c-.287,0-.2,1.912-1.765,3.352s-3.617,1.332-3.619,1.6c-.021.122.472.35,1.334.33a4.78,4.78,0,0,0,3.027-1.228,4.15,4.15,0,0,0,1.357-2.8c.033-.8-.2-1.267-.334-1.25" transform="translate(23.166 3.898)" fill="#263238"/>
            <path id="Trazado_913099" data-name="Trazado 913099" d="M245.52,21.456c.264.43,1.732-.164,3.579-.358,1.843-.237,3.428,0,3.564-.477.056-.226-.3-.6-1-.912a5.565,5.565,0,0,0-2.822-.384,5.343,5.343,0,0,0-2.62,1.021c-.584.458-.824.905-.706,1.11" transform="translate(23.614 1.855)" fill="#263238"/>
            <path id="Trazado_913100" data-name="Trazado 913100" d="M229.917,22.009c.33.385,1.524-.091,2.983-.184,1.457-.145,2.711.134,2.974-.3.115-.21-.1-.6-.659-.954a4.33,4.33,0,0,0-4.8.39c-.5.437-.645.858-.5,1.047" transform="translate(22.111 1.926)" fill="#263238"/>
            <path id="Trazado_913101" data-name="Trazado 913101" d="M262.943,36.034c-.045-.951.942-3.249,1.875-3.443,2.488-.516,7.021-.542,7.383,5.827.493,8.707-8.35,7.407-8.379,7.158-.023-.194-.721-6.257-.878-9.542" transform="translate(25.293 3.115)" fill="#ffbe9d"/>
            <path id="Trazado_913102" data-name="Trazado 913102" d="M266,41.885c.036-.03.157.1.42.2a1.518,1.518,0,0,0,1.135-.042c.9-.389,1.593-1.893,1.546-3.465a4.988,4.988,0,0,0-.548-2.149,1.748,1.748,0,0,0-1.206-1.1.774.774,0,0,0-.873.466c-.1.25-.037.421-.082.438-.023.023-.194-.135-.146-.5a.984.984,0,0,1,.311-.566,1.153,1.153,0,0,1,.827-.269,2.133,2.133,0,0,1,1.661,1.26,5.156,5.156,0,0,1,.664,2.4c.043,1.757-.761,3.451-2,3.886a1.632,1.632,0,0,1-1.4-.152c-.281-.2-.338-.391-.308-.409" transform="translate(25.586 3.357)" fill="#eb996e"/>
            <path id="Trazado_913103" data-name="Trazado 913103" d="M271.161,25.786c.606-3.466-.7-8.34-1.6-11.729a12.745,12.745,0,0,0-5.219-6.845,21.23,21.23,0,0,0-13.131-3.971l-1.741.577c-2.575-.208-5.329.333-6.745,2.413l-.055.06V3.9c-4.683.578-8.777,3.684-11.5,7.542s-4.231,8.426-5.455,12.984c5.756-5.158,11.992-10.845,16.794-16.916C247.55,14.119,255,18.314,261.794,23.239c1.2,2.849,1.52,6.14,1.5,10-.038,8.545,1.813,16.274,2.482,24.814.384,4.916.346,9.127,5.382,8.7.658-15.757-2.708-25.472,0-40.965" transform="translate(21.713 0.31)" fill="#263238"/>
            <path id="Trazado_913104" data-name="Trazado 913104" d="M273.81,23.425a8.08,8.08,0,0,1-2.414.435,23.559,23.559,0,0,1-5.922-.233,27.18,27.18,0,0,1-5.69-1.641,8.693,8.693,0,0,1-2.19-1.1c.073-.194,3.483,1.4,7.975,2.179s8.227.161,8.241.361" transform="translate(24.778 2.007)" fill="#455a64"/>
            <path id="Trazado_913105" data-name="Trazado 913105" d="M274.021,20.09A6.476,6.476,0,0,1,272.629,20c-.893-.086-2.178-.275-3.756-.569a64.155,64.155,0,0,1-12.019-3.545,64.03,64.03,0,0,1-11.095-5.828c-1.337-.888-2.391-1.646-3.091-2.208a6.464,6.464,0,0,1-1.059-.908,6.5,6.5,0,0,1,1.188.727c.738.5,1.823,1.209,3.179,2.048a75.216,75.216,0,0,0,11.092,5.64,75.248,75.248,0,0,0,11.885,3.679c1.558.343,2.827.593,3.707.744a6.509,6.509,0,0,1,1.359.307" transform="translate(23.241 0.668)" fill="#455a64"/>
            <path id="Trazado_913106" data-name="Trazado 913106" d="M228.357,19.86a8.508,8.508,0,0,1-2,2.34,8.49,8.49,0,0,1-2.4,1.931,8.5,8.5,0,0,1,2-2.341,8.5,8.5,0,0,1,2.4-1.93" transform="translate(21.541 1.909)" fill="#455a64"/>
            <path id="Trazado_913107" data-name="Trazado 913107" d="M248.949,73.355c.969-1.7.235-8.648.235-8.648l-2.25,4.069c-4.775,1.856-11.332,4.5-13.177,5.79-2.757,1.929-6.477,10.06-6.477,10.06l-22.965,29.138-43.091-7.539-4.055,21.607,14.544,3.012,25.557,3.317c7.178,1.547,14.166,2.122,19.792-2.6l.386-.741c-2.03,29.048.765,61.074,1.721,90.177a15.65,15.65,0,0,0,1.212,6.66c1.462,2.873,6.9,4.378,10.1,3.961s2.184-2.466,2.863-5.618c.371-1.721-1.238-4.11-1.454-5.857q-4.7-37.919-9.391-75.838c-.1-1.558-.209-3-.315-4.286-1.1-13.367-1.265-16.976-.675-23.093.914-9.47,20.885-32.094,27.444-43.575" transform="translate(15.118 6.224)" fill="#b7cc95"/>
            <path id="Trazado_913108" data-name="Trazado 913108" d="M219.715,89.821a7.173,7.173,0,0,1-.656,1.312c-.461.818-1.09,2.026-1.817,3.536a59.76,59.76,0,0,0-5.928,25.3c-.02,1.677.007,3.038.057,3.976a7.27,7.27,0,0,1,0,1.466,7.182,7.182,0,0,1-.226-1.449,39.789,39.789,0,0,1-.239-3.991,54.049,54.049,0,0,1,5.971-25.485,39.729,39.729,0,0,1,1.987-3.469,7.3,7.3,0,0,1,.846-1.2" transform="translate(20.287 8.64)" fill="#263238"/>
            <g id="Grupo_1101973" data-name="Grupo 1101973" transform="translate(228.168 103.495)" opacity="0.3">
              <g id="Grupo_1101972" data-name="Grupo 1101972">
                <g id="Grupo_1101971" data-name="Grupo 1101971" clip-path="url(#clip-path-11)">
                  <path id="Trazado_913109" data-name="Trazado 913109" d="M216.936,94.413c-3.361,4.855-6.466,10.075-7.944,15.814s-.545,9-.679,15.035l3.458.778c-.771-10.812-.407-17.95,5.164-31.627" transform="translate(-208.146 -94.413)"/>
                </g>
              </g>
            </g>
            <path id="Trazado_913110" data-name="Trazado 913110" d="M215.014,112.726a2.088,2.088,0,0,1,.044-.567c.06-.366.1-.923.265-1.611a44.484,44.484,0,0,1,1.756-5.733,169.037,169.037,0,0,1,8.182-17.975c1.01-1.952,2.008-3.842,2.994-5.634l.077-.14.16,0,3.628-.07-.237.376a3.633,3.633,0,0,0-1.41-1.6l-.255-.155.191-.228a85.342,85.342,0,0,1,7.786-8.17c1.012-.926,1.834-1.63,2.4-2.1a5.917,5.917,0,0,1,.908-.684,6.141,6.141,0,0,1-.8.806l-2.3,2.2a100.809,100.809,0,0,0-7.6,8.275l-.065-.383a4.136,4.136,0,0,1,1.63,1.814l.169.366-.4.011-3.627.093.237-.144c-.972,1.789-1.967,3.68-2.974,5.628-3.521,6.844-6.487,13.159-8.31,17.856a54.5,54.5,0,0,0-1.918,5.642c-.339,1.363-.474,2.133-.525,2.127" transform="translate(20.681 6.583)" fill="#263238"/>
            <path id="Trazado_913111" data-name="Trazado 913111" d="M255.057,348.045,269.19,370.8S250.813,392.8,253.015,397.26l45.1-25.819L277.545,335.09Z" transform="translate(24.32 32.232)" fill="#b7cc95"/>
            <path id="Trazado_913112" data-name="Trazado 913112" d="M279.587,358.6a2.122,2.122,0,0,1,2.476,1.372,2.04,2.04,0,0,1-1.338,2.466,2.238,2.238,0,0,1-2.616-1.467,2.117,2.117,0,0,1,1.677-2.412" transform="translate(26.749 34.488)" fill="#e0e0e0"/>
            <g id="Grupo_1101976" data-name="Grupo 1101976" transform="translate(276.971 400.091)" opacity="0.6">
              <g id="Grupo_1101975" data-name="Grupo 1101975">
                <g id="Grupo_1101974" data-name="Grupo 1101974" clip-path="url(#clip-path-12)">
                  <path id="Trazado_913113" data-name="Trazado 913113" d="M298.127,368.565l-2.216-3.583L253.5,391.077s-1.507,2.024-.47,3.308Z" transform="translate(-252.667 -364.983)" fill="#fff"/>
                </g>
              </g>
            </g>
            <path id="Trazado_913114" data-name="Trazado 913114" d="M266.969,367.932c.134.216,1.291-.315,2.78-.227,1.492.049,2.6.683,2.749.48.179-.159-.9-1.288-2.709-1.363-1.8-.09-2.984.935-2.82,1.109" transform="translate(25.678 35.284)" fill="#263238"/>
            <path id="Trazado_913115" data-name="Trazado 913115" d="M263.676,372.133c.071.242,1.24.071,2.521.574,1.3.465,2.061,1.364,2.275,1.229.227-.083-.358-1.461-1.964-2.055-1.6-.609-2.947.039-2.831.252" transform="translate(25.362 35.747)" fill="#263238"/>
            <path id="Trazado_913116" data-name="Trazado 913116" d="M264.523,378.914c.227-.068-.1-1.343-1.353-2.225s-2.561-.773-2.549-.536c-.021.252,1.018.516,2.039,1.256,1.037.716,1.631,1.608,1.862,1.505" transform="translate(25.069 36.166)" fill="#263238"/>
            <path id="Trazado_913117" data-name="Trazado 913117" d="M264.558,363.011c.207.148,1.044-.734,2.337-1.363,1.279-.654,2.487-.79,2.495-1.046.035-.232-1.377-.505-2.89.255s-2.15,2.042-1.942,2.153" transform="translate(25.444 34.663)" fill="#263238"/>
            <path id="Trazado_913118" data-name="Trazado 913118" d="M258.874,355.488l1.524,26.739s-26.668,10.53-26.868,15.5l51.954-1.093-.665-41.762Z" transform="translate(22.463 34.135)" fill="#b7cc95"/>
            <path id="Trazado_913119" data-name="Trazado 913119" d="M272.871,377.472a2.122,2.122,0,0,1,1.518,2.391,2.04,2.04,0,0,1-2.357,1.525,2.238,2.238,0,0,1-1.594-2.54,2.116,2.116,0,0,1,2.626-1.314" transform="translate(26.007 36.302)" fill="#e0e0e0"/>
            <g id="Grupo_1101979" data-name="Grupo 1101979" transform="translate(255.967 426.562)" opacity="0.6">
              <g id="Grupo_1101978" data-name="Grupo 1101978">
                <g id="Grupo_1101977" data-name="Grupo 1101977" clip-path="url(#clip-path-13)">
                  <path id="Trazado_913120" data-name="Trazado 913120" d="M285.485,393.338l-.232-4.207-49.724,2.621s-2.292,1.055-2,2.679Z" transform="translate(-233.506 -389.131)" fill="#fff"/>
                </g>
              </g>
            </g>
            <path id="Trazado_913121" data-name="Trazado 913121" d="M257.267,379.624c.013.253,1.285.342,2.55,1.131,1.286.756,1.952,1.842,2.184,1.736.233-.055-.176-1.563-1.725-2.492s-3.068-.607-3.008-.376" transform="translate(24.747 36.492)" fill="#263238"/>
            <path id="Trazado_913122" data-name="Trazado 913122" d="M252.339,381.773c-.053.247,1.055.656,1.939,1.71.915,1.029,1.156,2.185,1.41,2.168.239.035.384-1.455-.741-2.745s-2.607-1.376-2.608-1.133" transform="translate(24.272 36.712)" fill="#263238"/>
            <path id="Trazado_913123" data-name="Trazado 913123" d="M249.827,388.152c.231.049.558-1.226-.123-2.6s-1.879-1.9-1.981-1.69c-.139.212.647.942,1.188,2.079.568,1.125.663,2.192.915,2.212" transform="translate(23.827 36.919)" fill="#263238"/>
            <path id="Trazado_913124" data-name="Trazado 913124" d="M257.568,374.093c.111.229,1.267-.146,2.7-.078,1.438.037,2.564.5,2.691.275.144-.186-.966-1.1-2.658-1.158s-2.865.764-2.736.96" transform="translate(24.775 35.891)" fill="#263238"/>
            <path id="Trazado_913125" data-name="Trazado 913125" d="M221.408,173.2s-2.386,113.8-.238,121.674S267.3,383.3,267.3,383.3l26.539-13.031-35.194-85.045,7.768-109.346Z" transform="translate(21.188 16.66)" fill="#263238"/>
            <path id="Trazado_913126" data-name="Trazado 913126" d="M279.488,167.4s15.258,24.911,12.56,39.859c-1.106,6.129-9.456,19.7-9.456,19.7l-.008,72.961,6.44,97.388H258.087l-13.275-85.879s-4.654-7.877-6.445-14.68-7.6-87.2-7.6-87.2l-9.256-32.7Z" transform="translate(21.307 16.102)" fill="#263238"/>
            <path id="Trazado_913127" data-name="Trazado 913127" d="M280.348,330.209a12.606,12.606,0,0,0,0,2.05c.042,1.318.135,3.223.269,5.576.266,4.706.731,11.2,1.276,18.367s1.013,13.66,1.318,18.36c.15,2.267.274,4.142.368,5.566a12.368,12.368,0,0,0,.209,2.04,12.511,12.511,0,0,0,.041-2.05c-.012-1.319-.068-3.225-.164-5.581-.189-4.71-.586-11.212-1.13-18.384-.568-7.112-1.081-13.548-1.463-18.35-.193-2.264-.352-4.137-.472-5.56a12.528,12.528,0,0,0-.253-2.035" transform="translate(26.964 31.763)" fill="#455a64"/>
            <path id="Trazado_913128" data-name="Trazado 913128" d="M273.923,179.025a4.522,4.522,0,0,1-.828.941,18.61,18.61,0,0,1-2.655,2.149,21.133,21.133,0,0,1-21.566,1.265,18.572,18.572,0,0,1-2.888-1.823,4.538,4.538,0,0,1-.932-.837c.067-.092,1.431,1.073,4,2.293a21.826,21.826,0,0,0,21.162-1.241c2.412-1.513,3.629-2.829,3.706-2.746" transform="translate(23.572 17.22)" fill="#455a64"/>
            <path id="Trazado_913129" data-name="Trazado 913129" d="M230.194,199.913a2.039,2.039,0,0,1,.054.4c.025.295.058.685.1,1.179.079,1.073.191,2.6.332,4.542.273,3.979.664,9.677,1.147,16.7.99,14.1,2.234,33.6,4.115,55.08.259,2.927.55,5.813.886,8.639.183,1.411.334,2.823.64,4.15a35.221,35.221,0,0,0,1.292,3.927c1.912,5.14,3.95,9.992,5.9,14.53l.014.032.005.034c2.059,13.227,3.8,24.415,5.034,32.333.639,3.911,1.147,7.013,1.5,9.174q.275,1.552.43,2.425c.117.539.191.82.175.829a7.446,7.446,0,0,1-.26-.81c-.122-.545-.311-1.354-.51-2.413-.42-2.115-.971-5.219-1.646-9.154-1.347-7.866-3.163-19.055-5.242-32.3l.019.065c-1.968-4.542-4.019-9.388-5.947-14.544a35.824,35.824,0,0,1-1.312-3.97c-.328-1.408-.475-2.812-.661-4.231q-.51-4.259-.891-8.658c-1.882-21.5-3.062-41-3.947-55.107-.4-7.032-.733-12.736-.962-16.718-.1-1.947-.171-3.473-.224-4.547-.018-.5-.032-.888-.043-1.184a2.074,2.074,0,0,1,.005-.4" transform="translate(22.142 19.23)" fill="#455a64"/>
            <path id="Trazado_913130" data-name="Trazado 913130" d="M244,69.683s-.329,4.994,3.723,4.994c5.7,0,17.659-11,17.659-11l-23.05,54.939v66.482l-19.491,2.055s-2.283-.328-2.749-3.619c-.912-6.437-.781-18.169-1.527-23-2.32-15.012-6.882-23.2-6.237-35.09.958-17.68,25.837-48.183,25.837-48.183Z" transform="translate(20.418 6.125)" fill="#fff"/>
            <path id="Trazado_913131" data-name="Trazado 913131" d="M267.2,57.4a149.564,149.564,0,0,1-9.628,15.586c-4.97,6.918-36.5,55.212-36.5,55.212l12.6,97.976,1.4,8.3a4.155,4.155,0,0,0,4.957,3.375l55.688-9.792a5.05,5.05,0,0,0,3.954-6.452l-24.862-69.864,16.058-62.015s-.591-9.027-10.37-18.19c-1.859-1.743-9.549-8.118-10.812-9.843Z" transform="translate(21.265 5.521)" fill="#b7cc95"/>
            <g id="Grupo_1101982" data-name="Grupo 1101982" transform="translate(245.365 157.258)" opacity="0.3">
              <g id="Grupo_1101981" data-name="Grupo 1101981">
                <g id="Grupo_1101980" data-name="Grupo 1101980" clip-path="url(#clip-path-14)">
                  <path id="Trazado_913132" data-name="Trazado 913132" d="M224.767,150.711S250.4,171.037,262.88,171.23s18.963-10.38,18.963-10.38l-25.1.687L223.834,143.46Z" transform="translate(-223.834 -143.459)"/>
                </g>
              </g>
            </g>
            <path id="Trazado_913133" data-name="Trazado 913133" d="M207.321,138.16s23.133,15.279,27.4,18.177,24.453,14.612,27.086,15.457,18.956.961,21.967-4.592,5.017-17.386,5.017-17.386l3.934-55.411a22.287,22.287,0,0,0-3.982-14.489c-2.392-3.38-5.55-6.425-8.968-5.915-7.289,1.086-22.966,18.713-22.213,27.767s.776,34.272.776,34.272L217.04,122.369Z" transform="translate(19.942 7.113)" fill="#b7cc95"/>
            <path id="Trazado_913134" data-name="Trazado 913134" d="M288.772,79.363a12.906,12.906,0,0,1,.751,1.063,19.824,19.824,0,0,1,1.754,3.361,21.892,21.892,0,0,1,1.515,5.918,45.29,45.29,0,0,1-.189,8.255c-.856,12.344-2.076,29.923-3.534,50.944v.013l0,.011q-.63,3.542-1.519,7.172a62.684,62.684,0,0,1-2.209,7.3,15.227,15.227,0,0,1-1.75,3.548,8.834,8.834,0,0,1-3.163,2.515,24.768,24.768,0,0,1-7.817,2.314,33.343,33.343,0,0,1-8.365.223,11.583,11.583,0,0,1-4.157-1.125c-1.278-.645-2.522-1.342-3.782-2.035-5.016-2.8-10.079-5.745-15.192-8.786-6.12-3.553-11.809-7.568-17.466-11.266L207.2,137.867l-.219-.146.136-.224q5.056-8.335,9.732-16.043l.107-.176.194.067,41.272,14-.243.163c.843-10.3,1.514-18.493,1.976-24.134.24-2.794.426-4.955.554-6.438.067-.717.118-1.267.156-1.66.037-.373.07-.561.07-.561s0,.192-.019.567c-.024.394-.059.945-.1,1.663l-.457,6.447c-.422,5.643-1.036,13.84-1.807,24.141l-.018.239-.227-.077L216.99,121.832l.3-.111-9.706,16.059-.082-.368,16.458,10.908c5.673,3.7,11.336,7.7,17.444,11.244,5.107,3.038,10.169,5.984,15.175,8.782,1.254.69,2.5,1.39,3.759,2.025a10.984,10.984,0,0,0,3.969,1.072,32.8,32.8,0,0,0,8.22-.213,24.22,24.22,0,0,0,7.645-2.248,8.288,8.288,0,0,0,2.983-2.352,14.8,14.8,0,0,0,1.686-3.42,62.276,62.276,0,0,0,2.2-7.232c.6-2.405,1.106-4.79,1.527-7.131l0,.024c1.542-21.016,2.834-38.59,3.739-50.93a45.723,45.723,0,0,0,.257-8.21,22.133,22.133,0,0,0-1.434-5.884,21.262,21.262,0,0,0-1.676-3.377c-.213-.372-.4-.636-.516-.822a2.022,2.022,0,0,1-.168-.283" transform="translate(19.91 7.634)" fill="#263238"/>
            <path id="Trazado_913135" data-name="Trazado 913135" d="M227.481,116.957a3.969,3.969,0,0,1,.5-.586l1.5-1.617c1.344-1.452,3.212-3.474,5.5-5.953,2.355-2.516,5.14-5.494,8.228-8.8,3.152-3.268,6.52-6.943,10.495-10.435l-.032.412-.334-.372-2.778-3.078-.459-.509.685.035,5.155.27-.255.139c4.149-7.221,7.76-13.506,10.371-18.052l3.073-5.243c.346-.571.625-1.032.845-1.393a2.5,2.5,0,0,1,.32-.466,2.358,2.358,0,0,1-.236.514l-.764,1.439c-.716,1.3-1.7,3.1-2.93,5.323l-10.2,18.152-.083.148-.172-.008-5.156-.257.226-.474q1.365,1.513,2.779,3.076l.335.372.194.215-.225.2c-3.91,3.432-7.316,7.116-10.477,10.355l-8.315,8.709c-2.366,2.477-4.288,4.472-5.637,5.831-.676.677-1.2,1.2-1.574,1.545a3.9,3.9,0,0,1-.58.506" transform="translate(21.881 5.898)" fill="#263238"/>
            <g id="Grupo_1101985" data-name="Grupo 1101985" transform="translate(247.51 89.398)" opacity="0.3">
              <g id="Grupo_1101984" data-name="Grupo 1101984">
                <g id="Grupo_1101983" data-name="Grupo 1101983" clip-path="url(#clip-path-15)">
                  <path id="Trazado_913136" data-name="Trazado 913136" d="M225.792,118.075l31.36-29.565-2.668-2.921h2.668l.7-4.035-1.764,3.1-5.157-.262,3.044,2.792L227.924,114.73Z" transform="translate(-225.791 -81.553)"/>
                </g>
              </g>
            </g>
            <path id="Trazado_913137" data-name="Trazado 913137" d="M243.856,185.689a3.21,3.21,0,0,1,.523-.135l1.594-.346,6.055-1.269,21.13-4.3.186-.037.1.163c1.824,2.968,3.79,6.169,5.824,9.48l.216.352-.406.078-.688.132-30.82,5.785-.157.03-.054-.147c-1.106-3.047-1.994-5.5-2.629-7.243l-.673-1.905a4.7,4.7,0,0,1-.2-.638,7.187,7.187,0,0,1,.3.684c.2.484.453,1.12.774,1.916l2.784,7.053-.21-.118,30.783-5.978.688-.13-.19.429-5.8-9.492.286.125-20.983,3.995-6.153,1.135-1.667.295a5.013,5.013,0,0,1-.605.088" transform="translate(23.456 17.276)" fill="#263238"/>
            <g id="Grupo_1101988" data-name="Grupo 1101988" transform="translate(267.661 203.887)" opacity="0.3">
              <g id="Grupo_1101987" data-name="Grupo 1101987">
                <g id="Grupo_1101986" data-name="Grupo 1101986" clip-path="url(#clip-path-16)">
                  <path id="Trazado_913138" data-name="Trazado 913138" d="M244.174,186l2.222,11.509,31.923-5.755-.895-2.67-29.919,5.713Z" transform="translate(-244.174 -185.996)"/>
                </g>
              </g>
            </g>
            <path id="Trazado_913139" data-name="Trazado 913139" d="M261.962,140.263c-.157.082-1.486-2.551-3.872-5.238-2.364-2.708-4.808-4.357-4.706-4.5a19.255,19.255,0,0,1,8.578,9.741" transform="translate(24.373 12.554)" fill="#263238"/>
            <path id="Trazado_913140" data-name="Trazado 913140" d="M158.849,107.6s-8-4.8-11.2-7.864c0,0-4.665-1.466-6.8,1.467,0,0-4.932,1.366-5.6,2.282s-4.8,7.314-4.8,7.314,2.215,7.617,2.4,8c.4.832,1.295,1.716,2.051.8a1.669,1.669,0,0,0,.356-1.092l-.008-.505,1.2-.842s.534,2.961,2.133,2.5,5.2-3.126,5.2-3.126,5.064,2.883,7.73,3.175a84.772,84.772,0,0,1,8.748,1.969l2.722-14.5Z" transform="translate(12.549 9.558)" fill="#ffbe9d"/>
            <path id="Trazado_913141" data-name="Trazado 913141" d="M134.805,118.208c.022.02-.193.206-.634.116a1.624,1.624,0,0,1-1.143-1.315,23.824,23.824,0,0,1,.027-5.563,52.627,52.627,0,0,1,.875-5.457,8.963,8.963,0,0,1,.6-2.21c.189.031-.437,3.473-.907,7.724a33.88,33.88,0,0,0-.2,5.426,1.418,1.418,0,0,0,.812,1.183c.334.136.555.049.568.1" transform="translate(12.782 9.983)" fill="#eb996e"/>
            <path id="Trazado_913142" data-name="Trazado 913142" d="M143.63,105.545a6.42,6.42,0,0,1-3.783,1.753l.229-.214c-.021.09-.044.186-.068.284a17.363,17.363,0,0,1-1.317,4.232,17.477,17.477,0,0,1,.762-4.367c.024-.1.047-.193.069-.283l.045-.185.185-.03a29.386,29.386,0,0,0,3.877-1.19" transform="translate(13.337 10.151)" fill="#eb996e"/>
            <path id="Trazado_913143" data-name="Trazado 913143" d="M150.4,106.561a3.917,3.917,0,0,0-4.391-.9l-.841,1.067L138.861,112a9.666,9.666,0,0,0-2.827,3.182,3.3,3.3,0,0,0,.66,3.923c1.287.991,3.211.431,4.472-.592s2.174-2.436,3.483-3.4c2.037-1.5,5-1.9,6.252-4.1a3.918,3.918,0,0,0-.5-4.455" transform="translate(13.051 10.133)" fill="#ffbe9d"/>
            <path id="Trazado_913144" data-name="Trazado 913144" d="M145.539,104.643a3.5,3.5,0,0,1-.559,2.292,8.3,8.3,0,0,1-1.588,2.04,19.4,19.4,0,0,1-2.472,1.923,15.613,15.613,0,0,0-4.174,3.581,13.776,13.776,0,0,0-1.071,2.017,3.667,3.667,0,0,1,.736-2.242A9.084,9.084,0,0,1,138.1,112.3a25,25,0,0,1,2.5-1.873,23.467,23.467,0,0,0,2.437-1.837,8.986,8.986,0,0,0,1.6-1.858,11.614,11.614,0,0,0,.909-2.089" transform="translate(13.048 10.066)" fill="#eb996e"/>
            <path id="Trazado_913145" data-name="Trazado 913145" d="M173.645,129.1s.221-7.859,2.214-10.184,13.614-5.313,13.614-5.313l29.2,6.777-6.785,10.983-2.052-1.93s-9.187,2.767-13.725,1.771a51.3,51.3,0,0,1-7.969-2.436l-4.76.332s-3.431,3.542-4.538,3.542-2.325-1-1.771-2.1l-1-1.661s-1.992,1.218-2.435.221" transform="translate(16.703 10.928)" fill="#ffbe9d"/>
            <path id="Trazado_913146" data-name="Trazado 913146" d="M188.683,122.754a4.952,4.952,0,0,1-2.086.706,36.246,36.246,0,0,0-5.1,1,7.067,7.067,0,0,0-3.657,3.353,12.27,12.27,0,0,1-1.1,1.878,6.385,6.385,0,0,1,.749-2.069,8.831,8.831,0,0,1,1.329-2.022,6.176,6.176,0,0,1,2.485-1.675,24.188,24.188,0,0,1,5.235-.866c1.326-.148,2.118-.39,2.149-.308" transform="translate(16.999 11.806)" fill="#eb996e"/>
            <path id="Trazado_913147" data-name="Trazado 913147" d="M186.465,117.439c.009.085-.927.24-2.369.745a26.54,26.54,0,0,0-2.484,1,12.461,12.461,0,0,0-2.763,1.641,6.347,6.347,0,0,0-.936,1.327c-.282.468-.534.932-.753,1.381a13.506,13.506,0,0,0-.947,2.477c-.386,1.467-.322,2.43-.423,2.431a5.048,5.048,0,0,1,.03-2.521,11.665,11.665,0,0,1,.865-2.612,15.885,15.885,0,0,1,.746-1.44,6.449,6.449,0,0,1,1.034-1.466,11.6,11.6,0,0,1,2.935-1.7,19.459,19.459,0,0,1,2.578-.908,6.235,6.235,0,0,1,2.488-.361" transform="translate(16.897 11.293)" fill="#eb996e"/>
          </g>
        </g>
      </g>
    </g>
  </g>
</svg>
