<svg xmlns="http://www.w3.org/2000/svg" xmlns:xlink="http://www.w3.org/1999/xlink" width="85" height="79.578" viewBox="0 0 85 79.578">
  <defs>
    <clipPath id="clip-path">
      <rect id="Rectángulo_403043" data-name="Rectángulo 403043" width="60.683" height="65.402" fill="none"/>
    </clipPath>
    <clipPath id="clip-path-2">
      <rect id="Rectángulo_403044" data-name="Rectángulo 403044" width="29.536" height="36.358" fill="none"/>
    </clipPath>
  </defs>
  <g id="Grupo_1102231" data-name="Grupo 1102231" transform="translate(-852.294 -1176.284)">
    <rect id="Rectángulo_402863" data-name="Rectángulo 402863" width="85" height="50" rx="10" transform="translate(852.294 1205.862)" fill="#ffdba9"/>
    <g id="Grupo_1101648" data-name="Grupo 1101648" transform="translate(115.659 88.284)">
      <g id="Grupo_1101647" data-name="Grupo 1101647" transform="translate(749.051 1088)">
        <g id="Grupo_1101644" data-name="Grupo 1101644">
          <g id="Grupo_1101643" data-name="Grupo 1101643" clip-path="url(#clip-path)">
            <path id="Trazado_912234" data-name="Trazado 912234" d="M15.064,2.471h-2.9A2.171,2.171,0,0,0,10,4.642V39.775a2.171,2.171,0,0,0,2.171,2.171H47.3a2.171,2.171,0,0,0,2.171-2.171V4.642H16.151Z" transform="translate(-6.12 -1.513)" fill="#f47c7c"/>
            <path id="Trazado_912235" data-name="Trazado 912235" d="M23.972,4.025,22.9,2.471H19.644a2.171,2.171,0,0,0-2.171,2.171V39.775a2.171,2.171,0,0,0,2.171,2.171H51.878a2.171,2.171,0,0,0,2.171-2.171V4.642a2.165,2.165,0,0,0-.09-.618H23.972Z" transform="translate(-10.698 -1.513)" fill="#ee6161"/>
            <path id="Trazado_912236" data-name="Trazado 912236" d="M59.918,41.947a2.171,2.171,0,0,0,1.873-1.076h1.637V3.429H61.72a2.171,2.171,0,0,0-1.8-.958H28.044a2.171,2.171,0,0,0-2.171,2.171V39.775a2.171,2.171,0,0,0,2.171,2.171c37.741,0,35.365.072,35.929-.15-.5.2-.482.15-4.056.15Z" transform="translate(-15.842 -1.513)" fill="#60b7ff"/>
            <path id="Trazado_912237" data-name="Trazado 912237" d="M116.942,2.471h-3.259a2.171,2.171,0,0,1,2.171,2.171V39.775a2.171,2.171,0,0,1-2.171,2.171h3.259a2.171,2.171,0,0,0,2.171-2.171V4.642a2.171,2.171,0,0,0-2.171-2.171" transform="translate(-69.606 -1.513)" fill="#26a6fe"/>
            <path id="Trazado_912238" data-name="Trazado 912238" d="M82.267,17.088H80.908a2.286,2.286,0,0,0-2.2-1.54H44.985a2.237,2.237,0,0,0-2.3,2.171V52.852a2.237,2.237,0,0,0,2.3,2.171H78.709a2.267,2.267,0,0,0,2.257-1.776h1.3V17.088Z" transform="translate(-26.137 -9.52)" fill="#eaf6ff"/>
            <path id="Trazado_912239" data-name="Trazado 912239" d="M57.256,73.677A2.555,2.555,0,0,0,54.723,71.1H22.245l-2.908-5.3H17.3a1.915,1.915,0,0,0-1.7-1.033H4.388a1.916,1.916,0,0,0-1.916,1.916v34.863A2.555,2.555,0,0,0,5.027,104.1H54.7a2.553,2.553,0,0,0,2.548-2.4H59.66V73.677Z" transform="translate(-1.514 -39.656)" fill="#fdb441"/>
            <path id="Trazado_912240" data-name="Trazado 912240" d="M38.023,65.794,40.8,71.1h3.983l-2.777-5.306a1.916,1.916,0,0,0-1.7-1.028H36.325a1.916,1.916,0,0,1,1.7,1.028" transform="translate(-22.241 -39.655)" fill="#fea613"/>
            <path id="Trazado_912241" data-name="Trazado 912241" d="M141.163,81.1H137.18a2.555,2.555,0,0,1,2.555,2.555v27.89a2.555,2.555,0,0,1-2.555,2.555h3.983a2.555,2.555,0,0,0,2.555-2.555V83.658a2.555,2.555,0,0,0-2.555-2.555Z" transform="translate(-83.993 -49.658)" fill="#fea613"/>
            <path id="Trazado_912242" data-name="Trazado 912242" d="M57.17,30.487h-.186V25.1a.958.958,0,1,0-1.916,0v5.384h-2.81l-29.152.081L20.319,25.24a2.864,2.864,0,0,0-2.251-1.088h-.559V8.2a1.215,1.215,0,0,1,1.214-1.214H53.854A1.215,1.215,0,0,1,55.067,8.2V20.632a.958.958,0,0,0,1.916,0V8.2a3.133,3.133,0,0,0-3.13-3.13H50.465V3.13A3.134,3.134,0,0,0,47.336,0H6.048A3.134,3.134,0,0,0,2.917,3.13V24.153H2.875A2.878,2.878,0,0,0,0,27.027v16a.958.958,0,0,0,1.916,0v-16a.959.959,0,0,1,.958-.958H18.068a.955.955,0,0,1,.849.514l2.776,5.306a.958.958,0,0,0,.849.514H57.171a1.6,1.6,0,0,1,1.6,1.6v27.89a1.6,1.6,0,0,1-1.6,1.6H3.513a1.6,1.6,0,0,1-1.6-1.6V47.5A.958.958,0,0,0,0,47.5V61.889A3.518,3.518,0,0,0,3.513,65.4H57.17a3.518,3.518,0,0,0,3.513-3.513V34a3.517,3.517,0,0,0-3.513-3.513M4.833,3.13A1.215,1.215,0,0,1,6.046,1.916H9.318A3.143,3.143,0,0,0,9.073,3.13V24.153H4.832Zm6.157,0A1.215,1.215,0,0,1,12.2,1.916H47.336A1.215,1.215,0,0,1,48.549,3.13V5.068H18.722a3.134,3.134,0,0,0-3.13,3.13V24.153h-4.6V3.13Z"/>
          </g>
        </g>
        <g id="Grupo_1101646" data-name="Grupo 1101646" transform="translate(23.096 9.454)">
          <g id="Grupo_1101645" data-name="Grupo 1101645" clip-path="url(#clip-path-2)">
            <path id="Trazado_912243" data-name="Trazado 912243" d="M66.616,73.835v-19.4l1.4-.889,1.4.889v19.4a.454.454,0,0,1-.195.373l-.941.661a.456.456,0,0,1-.523,0l-.94-.659a.454.454,0,0,1-.195-.373" transform="translate(-63.884 -42.24)" fill="#dedede"/>
            <path id="Trazado_912244" data-name="Trazado 912244" d="M124.292,73.835v-19.4l-1.4-.889-1.4.889v19.4a.455.455,0,0,0,.195.373l.941.661a.456.456,0,0,0,.523,0l.941-.661a.455.455,0,0,0,.194-.373" transform="translate(-97.488 -42.24)" fill="#dedede"/>
            <path id="Trazado_912245" data-name="Trazado 912245" d="M84.908,73.835v-19.4l1.4-.889,1.4.889v19.4a.454.454,0,0,1-.195.373l-.941.661a.456.456,0,0,1-.523,0l-.941-.661a.454.454,0,0,1-.194-.373" transform="translate(-75.084 -42.24)" fill="#dedede"/>
            <path id="Trazado_912246" data-name="Trazado 912246" d="M103.2,73.835v-19.4l1.4-.889,1.4.889v19.4a.454.454,0,0,1-.195.373l-.941.661a.456.456,0,0,1-.523,0l-.941-.659a.454.454,0,0,1-.194-.373" transform="translate(-86.284 -42.24)" fill="#dedede"/>
            <path id="Trazado_912247" data-name="Trazado 912247" d="M66.616,54.438v1.446h2.793V54.438l-1.4-.889Z" transform="translate(-63.884 -42.241)" fill="#bdbdbd"/>
            <path id="Trazado_912248" data-name="Trazado 912248" d="M121.5,54.438v1.446h2.793V54.438l-1.4-.889Z" transform="translate(-97.486 -42.241)" fill="#bdbdbd"/>
            <path id="Trazado_912249" data-name="Trazado 912249" d="M84.909,54.438v1.446H87.7V54.438l-1.4-.889Z" transform="translate(-75.085 -42.241)" fill="#bdbdbd"/>
            <path id="Trazado_912250" data-name="Trazado 912250" d="M103.2,54.438v1.446h2.793V54.438l-1.4-.889Z" transform="translate(-86.285 -42.241)" fill="#bdbdbd"/>
            <path id="Trazado_912251" data-name="Trazado 912251" d="M66.683,48.618l-2.24,1.023v.934a.842.842,0,0,0,.843.842h2.792a.843.843,0,0,0,.844-.841h0V49.64Z" transform="translate(-62.554 -39.222)" fill="#a3a3a3"/>
            <path id="Trazado_912252" data-name="Trazado 912252" d="M121.567,48.618l2.241,1.023v.934a.843.843,0,0,1-.842.842h-2.793a.842.842,0,0,1-.843-.842V49.64Z" transform="translate(-96.161 -39.222)" fill="#a3a3a3"/>
            <path id="Trazado_912253" data-name="Trazado 912253" d="M84.975,48.618l-2.239,1.023v.934a.842.842,0,0,0,.842.842h2.793a.842.842,0,0,0,.842-.842V49.64Z" transform="translate(-73.754 -39.222)" fill="#a3a3a3"/>
            <path id="Trazado_912254" data-name="Trazado 912254" d="M103.269,48.618l-2.239,1.023v.934a.843.843,0,0,0,.843.842h2.793a.843.843,0,0,0,.843-.842h0V49.64Z" transform="translate(-84.955 -39.222)" fill="#a3a3a3"/>
            <path id="Trazado_912255" data-name="Trazado 912255" d="M76.876,25.763a1.86,1.86,0,0,0-1.912,0l-12.81,7.676,3.127,1.023H86.558l3.127-1.023Z" transform="translate(-61.152 -25.066)" fill="#dedede"/>
            <path id="Trazado_912256" data-name="Trazado 912256" d="M88.79,45.978H61.257a.566.566,0,0,0-.566.566v.911a.566.566,0,0,0,.566.566H88.79a.566.566,0,0,0,.566-.566v-.911a.566.566,0,0,0-.566-.566" transform="translate(-60.256 -37.605)" fill="#bdbdbd"/>
            <path id="Trazado_912257" data-name="Trazado 912257" d="M66.616,103.208v.755a.454.454,0,0,0,.195.373l.941.661a.457.457,0,0,0,.523,0l.941-.661a.454.454,0,0,0,.194-.373v-.755a.456.456,0,0,0-.456-.456H67.072a.456.456,0,0,0-.456.456" transform="translate(-63.884 -72.367)" fill="#bdbdbd"/>
            <path id="Trazado_912258" data-name="Trazado 912258" d="M84.908,103.208v.755a.454.454,0,0,0,.195.373l.941.661a.457.457,0,0,0,.523,0l.941-.661a.454.454,0,0,0,.194-.373v-.755a.456.456,0,0,0-.456-.456H85.364a.456.456,0,0,0-.456.456" transform="translate(-75.084 -72.367)" fill="#bdbdbd"/>
            <path id="Trazado_912259" data-name="Trazado 912259" d="M106,103.96V103.2a.456.456,0,0,0-.456-.456h-1.882a.456.456,0,0,0-.456.456v.755a.454.454,0,0,0,.195.373l.941.661a.456.456,0,0,0,.523,0l.941-.661a.454.454,0,0,0,.194-.373" transform="translate(-86.287 -72.365)" fill="#bdbdbd"/>
            <path id="Trazado_912260" data-name="Trazado 912260" d="M123.835,102.752h-1.882a.456.456,0,0,0-.456.456v.755a.454.454,0,0,0,.195.373l.941.661a.456.456,0,0,0,.523,0l.941-.661a.455.455,0,0,0,.194-.373v-.755a.456.456,0,0,0-.456-.456" transform="translate(-97.488 -72.367)" fill="#bdbdbd"/>
            <path id="Trazado_912261" data-name="Trazado 912261" d="M89.791,106.479H66.175a1.023,1.023,0,0,0-1.023,1.023v.457a.566.566,0,0,0,.566.566l12,1.022a.511.511,0,0,0,.077,0l12-1.02a.566.566,0,0,0,.566-.566v-.911a.566.566,0,0,0-.566-.566" transform="translate(-62.988 -74.649)" fill="#dedede"/>
            <path id="Trazado_912262" data-name="Trazado 912262" d="M88.334,111.761H61.712a1.023,1.023,0,0,0,0,2.046H88.334a1.023,1.023,0,0,0,0-2.046Z" transform="translate(-60.256 -77.883)" fill="#bdbdbd"/>
            <path id="Trazado_912263" data-name="Trazado 912263" d="M59.569,59.283v.457a1,1,0,0,0,1,1H88.1a1,1,0,0,0,1-1v-.456a1.456,1.456,0,0,0-1.456-1.457h-.284a1.041,1.041,0,0,0,.01-.134v-.912a1,1,0,0,0-.39-.792.452.452,0,0,1-.177-.357V36.94a1.279,1.279,0,0,0,.842-1.2v-.5H88.1a1,1,0,0,0,1-1v-.911a1,1,0,0,0-.863-.991l-9.355-5.6a.434.434,0,0,0-.464.734l.018.011,8.094,4.85h-24.4L73.6,25.453a1.422,1.422,0,0,1,1.466,0l1.968,1.18a.434.434,0,0,0,.446-.745L75.516,24.71a2.29,2.29,0,0,0-2.36,0L60.433,32.332a1,1,0,0,0-.864.991v.911a1,1,0,0,0,1,1h.453v.5a1.278,1.278,0,0,0,.844,1.2V55.633a.451.451,0,0,1-.178.358,1,1,0,0,0-.39.792v.911a1.035,1.035,0,0,0,.01.134h-.283a1.457,1.457,0,0,0-1.457,1.455m20.145-3.959V36.937a1.279,1.279,0,0,0,.843-1.2v-.5H82.3v.5a1.278,1.278,0,0,0,.843,1.2V55.325a.456.456,0,0,1-.456.456H80.169a.456.456,0,0,1-.456-.456m-7.092,0V36.937a1.279,1.279,0,0,0,.842-1.2v-.5h1.747v.5a1.279,1.279,0,0,0,.843,1.2V55.325a.456.456,0,0,1-.456.456H73.077a.456.456,0,0,1-.456-.456m-7.092,0V36.937a1.278,1.278,0,0,0,.844-1.2v-.5H68.12v.5a1.278,1.278,0,0,0,.842,1.2V55.325a.456.456,0,0,1-.456.456H65.985a.456.456,0,0,1-.456-.456M62.737,37.013h1.927V55.325a.456.456,0,0,1-.456.456H63.19a.456.456,0,0,1-.456-.456ZM72.6,35.739a.411.411,0,0,1-.411.411H69.395a.411.411,0,0,1-.411-.411v-.5H72.6v.5Zm-2.771,1.274h1.926V55.325a.456.456,0,0,1-.456.456H70.285a.456.456,0,0,1-.456-.456Zm9.862-1.274a.411.411,0,0,1-.411.411H76.485a.411.411,0,0,1-.411-.411v-.5h3.612ZM76.92,37.013h1.927V55.325a.456.456,0,0,1-.456.456H77.375a.456.456,0,0,1-.456-.456Zm7.092,0h1.927V55.325a.456.456,0,0,1-.456.456H84.468a.456.456,0,0,1-.456-.456Zm2.769-1.274a.411.411,0,0,1-.411.411H83.578a.411.411,0,0,1-.411-.411v-.5h3.612Zm-26.344-1.5v-.911a.134.134,0,0,1,.134-.134H88.1a.134.134,0,0,1,.134.134v.911a.134.134,0,0,1-.134.134H60.571a.134.134,0,0,1-.134-.134h0m5.068,1v.5a.411.411,0,0,1-.411.411H62.3a.411.411,0,0,1-.411-.411v-.5Zm-3.339,22v-.456a.134.134,0,0,1,.134-.134h23.62a.59.59,0,1,1,0,1.18H67.394a.434.434,0,0,0,0,.868H87.648a.59.59,0,0,1,0,1.18H61.026a.589.589,0,0,1,0-1.178h4.637a.434.434,0,0,0,0-.868H62.756a.589.589,0,0,1-.59-.588v0" transform="translate(-59.569 -24.383)"/>
          </g>
        </g>
      </g>
    </g>
  </g>
</svg>
