<svg xmlns="http://www.w3.org/2000/svg" xmlns:xlink="http://www.w3.org/1999/xlink" width="420" height="371.273" viewBox="0 0 420 371.273">
  <defs>
    <clipPath id="clip-path">
      <rect id="Rectángulo_403378" data-name="Rectángulo 403378" width="378.912" height="371.273" fill="none"/>
    </clipPath>
    <clipPath id="clip-path-3">
      <rect id="Rectángulo_403320" data-name="Rectángulo 403320" width="310.254" height="228.597" fill="none"/>
    </clipPath>
    <clipPath id="clip-path-4">
      <rect id="Rectángulo_403321" data-name="Rectángulo 403321" width="8.184" height="8.183" fill="none"/>
    </clipPath>
    <clipPath id="clip-path-8">
      <rect id="Rectángulo_403327" data-name="Rectángulo 403327" width="40.081" height="29.971" fill="none"/>
    </clipPath>
    <clipPath id="clip-path-9">
      <rect id="Rectángulo_403330" data-name="Rectángulo 403330" width="45.874" height="34.303" fill="none"/>
    </clipPath>
    <clipPath id="clip-path-10">
      <rect id="Rectángulo_403331" data-name="Rectángulo 403331" width="56.392" height="6.268" fill="none"/>
    </clipPath>
    <clipPath id="clip-path-13">
      <rect id="Rectángulo_403338" data-name="Rectángulo 403338" width="56.393" height="6.268" fill="none"/>
    </clipPath>
    <clipPath id="clip-path-24">
      <rect id="Rectángulo_403361" data-name="Rectángulo 403361" width="51.164" height="22.238" fill="none"/>
    </clipPath>
    <clipPath id="clip-path-25">
      <rect id="Rectángulo_403364" data-name="Rectángulo 403364" width="43.27" height="35.065" fill="none"/>
    </clipPath>
    <clipPath id="clip-path-26">
      <rect id="Rectángulo_403365" data-name="Rectángulo 403365" width="52.041" height="25.268" fill="none"/>
    </clipPath>
    <clipPath id="clip-path-27">
      <rect id="Rectángulo_403366" data-name="Rectángulo 403366" width="52.041" height="18.731" fill="none"/>
    </clipPath>
    <clipPath id="clip-path-28">
      <rect id="Rectángulo_403367" data-name="Rectángulo 403367" width="57.423" height="9.63" fill="none"/>
    </clipPath>
    <clipPath id="clip-path-30">
      <rect id="Rectángulo_403369" data-name="Rectángulo 403369" width="7.744" height="20.361" fill="none"/>
    </clipPath>
    <clipPath id="clip-path-31">
      <rect id="Rectángulo_403370" data-name="Rectángulo 403370" width="15.715" height="14.809" fill="none"/>
    </clipPath>
    <clipPath id="clip-path-32">
      <rect id="Rectángulo_403371" data-name="Rectángulo 403371" width="41.354" height="33.915" fill="none"/>
    </clipPath>
    <clipPath id="clip-path-33">
      <rect id="Rectángulo_403372" data-name="Rectángulo 403372" width="40.233" height="33.331" fill="none"/>
    </clipPath>
    <clipPath id="clip-path-34">
      <rect id="Rectángulo_403373" data-name="Rectángulo 403373" width="8.627" height="34.934" fill="none"/>
    </clipPath>
    <clipPath id="clip-path-35">
      <rect id="Rectángulo_403374" data-name="Rectángulo 403374" width="9.43" height="6.028" fill="none"/>
    </clipPath>
    <clipPath id="clip-path-36">
      <rect id="Rectángulo_403375" data-name="Rectángulo 403375" width="21.131" height="6.82" fill="none"/>
    </clipPath>
    <clipPath id="clip-path-37">
      <rect id="Rectángulo_403376" data-name="Rectángulo 403376" width="13.085" height="38.176" fill="none"/>
    </clipPath>
  </defs>
  <g id="Grupo_1102234" data-name="Grupo 1102234" transform="translate(-895 -4151.384)">
    <g id="Grupo_1101997" data-name="Grupo 1101997" transform="translate(986.421 4307.363)">
      <path id="Trazado_911259" data-name="Trazado 911259" d="M299.1,182.288c-7.532-25.667,32.921-63.925,23.156-111.613S286.1,22.018,248.1,17.76s-60.982-31.636-87.777-8.722-36.313,37.1-86.728,12S-14.757,60.371,5.609,101.382s13.95,80.906,13.95,80.906Z" transform="translate(4.789 32.714)" fill="#ffdba9"/>
      <path id="Trazado_911233" data-name="Trazado 911233" d="M323.365,191.648a.593.593,0,0,0,.554-.383c4.607-12.145,5.783-21.364,3.933-30.826a66.767,66.767,0,0,0-4.888-14.587c-2.489-5.553-5.722-11.551-8.845-17.2-5.9-10.686-4.386-23.328-2.781-36.713,1.111-9.264,2.26-18.843,1.019-28.356a52.938,52.938,0,0,0-1.423-7.135,46.724,46.724,0,0,0-6.472-14.02,53.627,53.627,0,0,0-5.5-6.787,58.635,58.635,0,0,0-8.478-7.4,50.544,50.544,0,0,0-9-5.114,48.412,48.412,0,0,0-9.387-3.005,51.231,51.231,0,0,0-9.631-1.076,61.6,61.6,0,0,0-16.429,2.038,82.739,82.739,0,0,0-16.111,6.1,106.813,106.813,0,0,0-15.188,9.273A123.231,123.231,0,0,0,201.08,48.026c-20,19.585-45.15,29.583-73.2,29.583A140.33,140.33,0,0,1,82.7,69.658a51.109,51.109,0,0,0-10.25-2.332,55.579,55.579,0,0,0-10.5-.265,61.315,61.315,0,0,0-10.473,1.65A66.736,66.736,0,0,0,41.3,72.124a70.38,70.38,0,0,0-9.63,5.029,71.349,71.349,0,0,0-8.813,6.5,69.622,69.622,0,0,0-7.73,7.82,66.069,66.069,0,0,0-6.38,9,60.361,60.361,0,0,0-7.432,19.782,59.492,59.492,0,0,0,.24,22.468,68.124,68.124,0,0,0,3.566,11.91,80.841,80.841,0,0,0,6.16,12.184,100.983,100.983,0,0,0,8.974,12.331,130.617,130.617,0,0,0,12.009,12.353.593.593,0,0,0,.8-.879A113.652,113.652,0,0,1,12.29,166.191a72.757,72.757,0,0,1-9.574-23.706,58.048,58.048,0,0,1,7.052-41.415C24.891,75.383,56.76,62.079,82.319,70.78a160.539,160.539,0,0,0,18.875,5.2A135.97,135.97,0,0,0,119.022,78.5a119.088,119.088,0,0,0,16.744.054,108.517,108.517,0,0,0,15.623-2.215,103.134,103.134,0,0,0,14.463-4.281,101.966,101.966,0,0,0,13.265-6.143A106.043,106.043,0,0,0,201.91,48.873a114.492,114.492,0,0,1,28.547-20.629,81.555,81.555,0,0,1,15.879-6.013,60.414,60.414,0,0,1,16.112-2c13.659.244,25.656,5.7,35.659,16.223,16.6,17.458,14.289,36.716,12.056,55.34-.821,6.848-1.6,13.316-1.431,19.591a46.237,46.237,0,0,0,1.091,9.2,34.975,34.975,0,0,0,1.314,4.4,31.862,31.862,0,0,0,1.946,4.237c3.111,5.632,6.33,11.6,8.8,17.116a65.629,65.629,0,0,1,4.807,14.329c1.8,9.23.645,18.255-3.878,30.178a.593.593,0,0,0,.554.8Z" transform="translate(-0.359 23.645)" fill="#ffdba9"/>
      <g id="Grupo_1100874" data-name="Grupo 1100874" transform="translate(6.533 0)">
        <path id="Elipse_11537" data-name="Elipse 11537" d="M8.425,16.851A8.425,8.425,0,0,0,14.383,2.468,8.425,8.425,0,1,0,2.468,14.383,8.37,8.37,0,0,0,8.425,16.851Zm0-14.621a6.2,6.2,0,1,1-6.2,6.2A6.2,6.2,0,0,1,8.425,2.23Z" transform="translate(290.067 119.709) rotate(-121.717)" fill="#39274d"/>
        <path id="Elipse_11538" data-name="Elipse 11538" d="M8.425,16.851A8.425,8.425,0,0,0,14.383,2.468,8.425,8.425,0,0,0,2.468,14.383,8.37,8.37,0,0,0,8.425,16.851Zm0-14.621a6.2,6.2,0,1,1-6.2,6.2A6.2,6.2,0,0,1,8.425,2.23Z" transform="translate(16.633 100.887) rotate(-170.783)" fill="#39274d"/>
        <path id="Trazado_911233-2" data-name="Trazado 911233" d="M560.749,247H575.2a1.115,1.115,0,0,0,1-1.613l-7.227-14.453a1.115,1.115,0,0,0-1.994,0l-7.227,14.453a1.115,1.115,0,0,0,1,1.613Zm12.649-2.23H562.553l5.423-10.845Z" transform="translate(-527.074 -63.222)" fill="#39274d"/>
        <path id="Trazado_911234" data-name="Trazado 911234" d="M419.371,63.592a4.074,4.074,0,1,1,4.074,4.074,4.074,4.074,0,0,1-4.074-4.074" transform="translate(-412.598 -59.518)" fill="#fe729d"/>
        <path id="Trazado_911235" data-name="Trazado 911235" d="M0,156.448a2.058,2.058,0,1,1,2.058,2.058A2.058,2.058,0,0,1,0,156.448" transform="translate(83.974 -72.836)" fill="#fe729d"/>
        <path id="Trazado_911236" data-name="Trazado 911236" d="M115.542,32.369a2.058,2.058,0,1,1,2.058,2.058,2.058,2.058,0,0,1-2.058-2.058" transform="translate(163.607 110.841)" fill="#fe729d"/>
        <path id="Trazado_911237" data-name="Trazado 911237" d="M600.278,291.686a2.058,2.058,0,1,1,2.058,2.058,2.058,2.058,0,0,1-2.058-2.058" transform="translate(-585.359 -78.45)" fill="#ffdba9"/>
      </g>
    </g>
    <g id="Grupo_1102106" data-name="Grupo 1102106" transform="translate(895 4151.384)">
      <g id="Grupo_1102105" data-name="Grupo 1102105" clip-path="url(#clip-path)">
        <g id="Grupo_1102013" data-name="Grupo 1102013">
          <g id="Grupo_1102012" data-name="Grupo 1102012" clip-path="url(#clip-path)">
            <path id="Trazado_913154" data-name="Trazado 913154" d="M305.414,250.528H14.784A14.784,14.784,0,0,1,0,235.745V14.783A14.785,14.785,0,0,1,14.784,0h290.63A14.784,14.784,0,0,1,320.2,14.783V235.745a14.783,14.783,0,0,1-14.783,14.783" transform="translate(0 0)" fill="#8261bd"/>
            <g id="Grupo_1102002" data-name="Grupo 1102002" transform="translate(4.972 16.961)" opacity="0.8">
              <g id="Grupo_1102001" data-name="Grupo 1102001">
                <g id="Grupo_1102000" data-name="Grupo 1102000" clip-path="url(#clip-path-3)">
                  <path id="Rectángulo_403319" data-name="Rectángulo 403319" d="M7.9,0H302.36a7.894,7.894,0,0,1,7.894,7.894V220.7a7.894,7.894,0,0,1-7.894,7.894H7.9A7.9,7.9,0,0,1,0,220.7V7.9A7.9,7.9,0,0,1,7.9,0Z" transform="translate(0 0)" fill="#fff"/>
                </g>
              </g>
            </g>
            <g id="Grupo_1102005" data-name="Grupo 1102005" transform="translate(17.004 3.986)" opacity="0.3">
              <g id="Grupo_1102004" data-name="Grupo 1102004">
                <g id="Grupo_1102003" data-name="Grupo 1102003" clip-path="url(#clip-path-4)">
                  <path id="Trazado_913155" data-name="Trazado 913155" d="M19.52,11.391h-3.5a2.345,2.345,0,0,1-2.344-2.345V5.552a2.345,2.345,0,0,1,2.344-2.345h3.5a2.345,2.345,0,0,1,2.344,2.345V9.046a2.345,2.345,0,0,1-2.344,2.345" transform="translate(-13.681 -3.207)" fill="#fff"/>
                </g>
              </g>
            </g>
            <g id="Grupo_1102008" data-name="Grupo 1102008" transform="translate(30.275 3.986)" opacity="0.5">
              <g id="Grupo_1102007" data-name="Grupo 1102007">
                <g id="Grupo_1102006" data-name="Grupo 1102006" clip-path="url(#clip-path-4)">
                  <path id="Trazado_913156" data-name="Trazado 913156" d="M30.2,11.391H26.7a2.345,2.345,0,0,1-2.344-2.345V5.552A2.345,2.345,0,0,1,26.7,3.207h3.5a2.345,2.345,0,0,1,2.344,2.345V9.046A2.345,2.345,0,0,1,30.2,11.391" transform="translate(-24.358 -3.207)" fill="#fff"/>
                </g>
              </g>
            </g>
            <g id="Grupo_1102011" data-name="Grupo 1102011" transform="translate(43.547 3.986)" opacity="0.7">
              <g id="Grupo_1102010" data-name="Grupo 1102010">
                <g id="Grupo_1102009" data-name="Grupo 1102009" clip-path="url(#clip-path-4)">
                  <path id="Trazado_913157" data-name="Trazado 913157" d="M40.875,11.391h-3.5a2.345,2.345,0,0,1-2.344-2.345V5.552A2.345,2.345,0,0,1,37.38,3.207h3.5a2.345,2.345,0,0,1,2.344,2.345V9.046a2.345,2.345,0,0,1-2.344,2.345" transform="translate(-35.036 -3.207)" fill="#fff"/>
                </g>
              </g>
            </g>
          </g>
        </g>
        <g id="Grupo_1102078" data-name="Grupo 1102078">
          <g id="Grupo_1102077" data-name="Grupo 1102077" clip-path="url(#clip-path)">
            <path id="Trazado_913158" data-name="Trazado 913158" d="M56.315,55.55l-1.38-2.507a2.613,2.613,0,0,0-2.288-1.352H31.967A2.611,2.611,0,0,0,29.356,54.3V93.829a2.714,2.714,0,0,0,2.713,2.714H79.062a2.715,2.715,0,0,0,2.714-2.714v-34.5a2.612,2.612,0,0,0-2.611-2.613H58.294a2.259,2.259,0,0,1-1.98-1.17" transform="translate(7.131 12.556)" fill="#407bff"/>
            <path id="Trazado_913159" data-name="Trazado 913159" d="M56.315,55.55l-1.38-2.507a2.613,2.613,0,0,0-2.288-1.352H31.967A2.611,2.611,0,0,0,29.356,54.3V93.829a2.714,2.714,0,0,0,2.713,2.714H79.062a2.715,2.715,0,0,0,2.714-2.714v-34.5a2.612,2.612,0,0,0-2.611-2.613H58.294a2.259,2.259,0,0,1-1.98-1.17" transform="translate(7.131 12.556)" fill="#8261bd"/>
            <rect id="Rectángulo_403325" data-name="Rectángulo 403325" width="40.081" height="29.971" transform="translate(42.292 70.856)" fill="#263238"/>
            <g id="Grupo_1102016" data-name="Grupo 1102016" transform="translate(42.293 70.856)" opacity="0.8">
              <g id="Grupo_1102015" data-name="Grupo 1102015">
                <g id="Grupo_1102014" data-name="Grupo 1102014" clip-path="url(#clip-path-8)">
                  <rect id="Rectángulo_403326" data-name="Rectángulo 403326" width="40.081" height="29.971" transform="translate(0)" fill="#fff"/>
                </g>
              </g>
            </g>
            <rect id="Rectángulo_403328" data-name="Rectángulo 403328" width="45.874" height="34.303" transform="translate(39.396 73.866)" fill="#263238"/>
            <g id="Grupo_1102019" data-name="Grupo 1102019" transform="translate(39.396 73.866)" opacity="0.9">
              <g id="Grupo_1102018" data-name="Grupo 1102018">
                <g id="Grupo_1102017" data-name="Grupo 1102017" clip-path="url(#clip-path-9)">
                  <rect id="Rectángulo_403329" data-name="Rectángulo 403329" width="45.874" height="34.303" transform="translate(0)" fill="#fff"/>
                </g>
              </g>
            </g>
            <path id="Trazado_913160" data-name="Trazado 913160" d="M87.859,60.124h-27.5a4.067,4.067,0,0,0-3.05,1.167c-.732.865-1.094,1.3-1.8,2.164a3.312,3.312,0,0,1-2.539,1.01H26.113c-1.857,0-3.1,1.009-2.779,2.255,2.624,10.173,3.936,15.259,6.56,25.433A3.484,3.484,0,0,0,33.189,94.5H79.774a3.481,3.481,0,0,0,3.295-2.342L90.75,62.379c.322-1.245-.973-2.255-2.891-2.255" transform="translate(5.655 14.604)" fill="#407bff"/>
            <path id="Trazado_913161" data-name="Trazado 913161" d="M87.859,60.124h-27.5a4.067,4.067,0,0,0-3.05,1.167c-.732.865-1.094,1.3-1.8,2.164a3.312,3.312,0,0,1-2.539,1.01H26.113c-1.857,0-3.1,1.009-2.779,2.255,2.624,10.173,3.936,15.259,6.56,25.433A3.484,3.484,0,0,0,33.189,94.5H79.774a3.481,3.481,0,0,0,3.295-2.342L90.75,62.379c.322-1.245-.973-2.255-2.891-2.255" transform="translate(5.655 14.604)" fill="#e07199"/>
            <path id="Trazado_913162" data-name="Trazado 913162" d="M30.784,100.985a3.134,3.134,0,0,1,0-6.268H80.909a3.134,3.134,0,0,1,0,6.268Z" transform="translate(6.716 23.007)" fill="#263238"/>
            <g id="Grupo_1102022" data-name="Grupo 1102022" transform="translate(34.367 117.724)" opacity="0.6">
              <g id="Grupo_1102021" data-name="Grupo 1102021">
                <g id="Grupo_1102020" data-name="Grupo 1102020" clip-path="url(#clip-path-10)">
                  <path id="Trazado_913163" data-name="Trazado 913163" d="M30.784,100.985a3.134,3.134,0,0,1,0-6.268H80.909a3.134,3.134,0,0,1,0,6.268Z" transform="translate(-27.651 -94.717)" fill="#fff"/>
                </g>
              </g>
            </g>
            <path id="Trazado_913164" data-name="Trazado 913164" d="M131.529,55.55l-1.381-2.507a2.61,2.61,0,0,0-2.287-1.352H107.182a2.61,2.61,0,0,0-2.611,2.611V93.829a2.714,2.714,0,0,0,2.713,2.714h46.993a2.715,2.715,0,0,0,2.714-2.714v-34.5a2.612,2.612,0,0,0-2.613-2.613h-20.87a2.259,2.259,0,0,1-1.98-1.17" transform="translate(25.4 12.556)" fill="#407bff"/>
            <path id="Trazado_913165" data-name="Trazado 913165" d="M131.529,55.55l-1.381-2.507a2.61,2.61,0,0,0-2.287-1.352H107.182a2.61,2.61,0,0,0-2.611,2.611V93.829a2.714,2.714,0,0,0,2.713,2.714h46.993a2.715,2.715,0,0,0,2.714-2.714v-34.5a2.612,2.612,0,0,0-2.613-2.613h-20.87a2.259,2.259,0,0,1-1.98-1.17" transform="translate(25.4 12.556)" fill="#8261bd"/>
            <rect id="Rectángulo_403332" data-name="Rectángulo 403332" width="40.081" height="29.971" transform="translate(135.777 70.856)" fill="#263238"/>
            <g id="Grupo_1102025" data-name="Grupo 1102025" transform="translate(135.777 70.856)" opacity="0.8">
              <g id="Grupo_1102024" data-name="Grupo 1102024">
                <g id="Grupo_1102023" data-name="Grupo 1102023" clip-path="url(#clip-path-8)">
                  <rect id="Rectángulo_403333" data-name="Rectángulo 403333" width="40.081" height="29.971" transform="translate(0)" fill="#fff"/>
                </g>
              </g>
            </g>
            <rect id="Rectángulo_403335" data-name="Rectángulo 403335" width="45.874" height="34.303" transform="translate(132.881 73.866)" fill="#263238"/>
            <g id="Grupo_1102028" data-name="Grupo 1102028" transform="translate(132.881 73.866)" opacity="0.9">
              <g id="Grupo_1102027" data-name="Grupo 1102027">
                <g id="Grupo_1102026" data-name="Grupo 1102026" clip-path="url(#clip-path-9)">
                  <rect id="Rectángulo_403336" data-name="Rectángulo 403336" width="45.874" height="34.303" fill="#fff"/>
                </g>
              </g>
            </g>
            <path id="Trazado_913166" data-name="Trazado 913166" d="M163.074,60.124h-27.5a4.067,4.067,0,0,0-3.05,1.167c-.733.865-1.094,1.3-1.8,2.164a3.312,3.312,0,0,1-2.539,1.01H101.328c-1.857,0-3.1,1.009-2.779,2.255,2.624,10.173,3.936,15.259,6.56,25.433A3.484,3.484,0,0,0,108.4,94.5h46.585a3.481,3.481,0,0,0,3.295-2.342l7.681-29.775c.321-1.245-.973-2.255-2.891-2.255" transform="translate(23.925 14.604)" fill="#407bff"/>
            <path id="Trazado_913167" data-name="Trazado 913167" d="M163.074,60.124h-27.5a4.067,4.067,0,0,0-3.05,1.167c-.733.865-1.094,1.3-1.8,2.164a3.312,3.312,0,0,1-2.539,1.01H101.328c-1.857,0-3.1,1.009-2.779,2.255,2.624,10.173,3.936,15.259,6.56,25.433A3.484,3.484,0,0,0,108.4,94.5h46.585a3.481,3.481,0,0,0,3.295-2.342l7.681-29.775c.321-1.245-.973-2.255-2.891-2.255" transform="translate(23.925 14.604)" fill="#e07199"/>
            <path id="Trazado_913168" data-name="Trazado 913168" d="M106.106,100.985a3.134,3.134,0,0,1,0-6.268h50.125a3.134,3.134,0,0,1,0,6.268Z" transform="translate(25.012 23.007)" fill="#263238"/>
            <g id="Grupo_1102031" data-name="Grupo 1102031" transform="translate(127.985 117.724)" opacity="0.6">
              <g id="Grupo_1102030" data-name="Grupo 1102030">
                <g id="Grupo_1102029" data-name="Grupo 1102029" clip-path="url(#clip-path-13)">
                  <path id="Trazado_913169" data-name="Trazado 913169" d="M106.106,100.985a3.134,3.134,0,0,1,0-6.268h50.125a3.134,3.134,0,0,1,0,6.268Z" transform="translate(-102.973 -94.717)" fill="#fff"/>
                </g>
              </g>
            </g>
            <path id="Trazado_913170" data-name="Trazado 913170" d="M56.315,135.837l-1.38-2.507a2.611,2.611,0,0,0-2.288-1.352H31.967a2.611,2.611,0,0,0-2.611,2.611v39.527a2.714,2.714,0,0,0,2.713,2.715H79.062a2.715,2.715,0,0,0,2.714-2.715v-34.5a2.612,2.612,0,0,0-2.611-2.613H58.294a2.259,2.259,0,0,1-1.98-1.17" transform="translate(7.131 32.057)" fill="#407bff"/>
            <path id="Trazado_913171" data-name="Trazado 913171" d="M56.315,135.837l-1.38-2.507a2.611,2.611,0,0,0-2.288-1.352H31.967a2.611,2.611,0,0,0-2.611,2.611v39.527a2.714,2.714,0,0,0,2.713,2.715H79.062a2.715,2.715,0,0,0,2.714-2.715v-34.5a2.612,2.612,0,0,0-2.611-2.613H58.294a2.259,2.259,0,0,1-1.98-1.17" transform="translate(7.131 32.057)" fill="#8261bd"/>
            <rect id="Rectángulo_403339" data-name="Rectángulo 403339" width="40.081" height="29.971" transform="translate(42.292 170.645)" fill="#263238"/>
            <g id="Grupo_1102034" data-name="Grupo 1102034" transform="translate(42.293 170.645)" opacity="0.8">
              <g id="Grupo_1102033" data-name="Grupo 1102033">
                <g id="Grupo_1102032" data-name="Grupo 1102032" clip-path="url(#clip-path-8)">
                  <rect id="Rectángulo_403340" data-name="Rectángulo 403340" width="40.081" height="29.971" transform="translate(0 0)" fill="#fff"/>
                </g>
              </g>
            </g>
            <rect id="Rectángulo_403342" data-name="Rectángulo 403342" width="45.874" height="34.303" transform="translate(39.396 173.654)" fill="#263238"/>
            <g id="Grupo_1102037" data-name="Grupo 1102037" transform="translate(39.396 173.654)" opacity="0.9">
              <g id="Grupo_1102036" data-name="Grupo 1102036">
                <g id="Grupo_1102035" data-name="Grupo 1102035" clip-path="url(#clip-path-9)">
                  <rect id="Rectángulo_403343" data-name="Rectángulo 403343" width="45.874" height="34.303" transform="translate(0)" fill="#fff"/>
                </g>
              </g>
            </g>
            <path id="Trazado_913172" data-name="Trazado 913172" d="M87.859,140.411h-27.5a4.067,4.067,0,0,0-3.05,1.167c-.732.865-1.094,1.3-1.8,2.164a3.312,3.312,0,0,1-2.539,1.01H26.113c-1.857,0-3.1,1.009-2.779,2.253,2.624,10.174,3.936,15.26,6.56,25.435a3.484,3.484,0,0,0,3.295,2.342H79.774a3.481,3.481,0,0,0,3.295-2.342l7.681-29.775c.322-1.245-.973-2.255-2.891-2.255" transform="translate(5.655 34.106)" fill="#407bff"/>
            <path id="Trazado_913173" data-name="Trazado 913173" d="M87.859,140.411h-27.5a4.067,4.067,0,0,0-3.05,1.167c-.732.865-1.094,1.3-1.8,2.164a3.312,3.312,0,0,1-2.539,1.01H26.113c-1.857,0-3.1,1.009-2.779,2.253,2.624,10.174,3.936,15.26,6.56,25.435a3.484,3.484,0,0,0,3.295,2.342H79.774a3.481,3.481,0,0,0,3.295-2.342l7.681-29.775c.322-1.245-.973-2.255-2.891-2.255" transform="translate(5.655 34.106)" fill="#e07199"/>
            <path id="Trazado_913174" data-name="Trazado 913174" d="M30.784,182.276a3.134,3.134,0,0,1,0-6.268H80.909a3.134,3.134,0,0,1,0,6.268Z" transform="translate(6.716 42.752)" fill="#263238"/>
            <g id="Grupo_1102040" data-name="Grupo 1102040" transform="translate(34.367 218.76)" opacity="0.6">
              <g id="Grupo_1102039" data-name="Grupo 1102039">
                <g id="Grupo_1102038" data-name="Grupo 1102038" clip-path="url(#clip-path-10)">
                  <path id="Trazado_913175" data-name="Trazado 913175" d="M30.784,182.276a3.134,3.134,0,0,1,0-6.268H80.909a3.134,3.134,0,0,1,0,6.268Z" transform="translate(-27.651 -176.008)" fill="#fff"/>
                </g>
              </g>
            </g>
            <path id="Trazado_913176" data-name="Trazado 913176" d="M131.529,135.837l-1.381-2.507a2.607,2.607,0,0,0-2.287-1.352H107.182a2.61,2.61,0,0,0-2.611,2.611v39.527a2.714,2.714,0,0,0,2.713,2.715h46.993a2.715,2.715,0,0,0,2.714-2.715v-34.5a2.612,2.612,0,0,0-2.613-2.613h-20.87a2.259,2.259,0,0,1-1.98-1.17" transform="translate(25.4 32.057)" fill="#407bff"/>
            <path id="Trazado_913177" data-name="Trazado 913177" d="M131.529,135.837l-1.381-2.507a2.607,2.607,0,0,0-2.287-1.352H107.182a2.61,2.61,0,0,0-2.611,2.611v39.527a2.714,2.714,0,0,0,2.713,2.715h46.993a2.715,2.715,0,0,0,2.714-2.715v-34.5a2.612,2.612,0,0,0-2.613-2.613h-20.87a2.259,2.259,0,0,1-1.98-1.17" transform="translate(25.4 32.057)" fill="#8261bd"/>
            <rect id="Rectángulo_403346" data-name="Rectángulo 403346" width="40.081" height="29.971" transform="translate(135.777 170.645)" fill="#263238"/>
            <g id="Grupo_1102043" data-name="Grupo 1102043" transform="translate(135.777 170.645)" opacity="0.8">
              <g id="Grupo_1102042" data-name="Grupo 1102042">
                <g id="Grupo_1102041" data-name="Grupo 1102041" clip-path="url(#clip-path-8)">
                  <rect id="Rectángulo_403347" data-name="Rectángulo 403347" width="40.081" height="29.971" transform="translate(0 0)" fill="#fff"/>
                </g>
              </g>
            </g>
            <rect id="Rectángulo_403349" data-name="Rectángulo 403349" width="45.874" height="34.303" transform="translate(132.881 173.654)" fill="#263238"/>
            <g id="Grupo_1102046" data-name="Grupo 1102046" transform="translate(132.881 173.654)" opacity="0.9">
              <g id="Grupo_1102045" data-name="Grupo 1102045">
                <g id="Grupo_1102044" data-name="Grupo 1102044" clip-path="url(#clip-path-9)">
                  <rect id="Rectángulo_403350" data-name="Rectángulo 403350" width="45.874" height="34.303" fill="#fff"/>
                </g>
              </g>
            </g>
            <path id="Trazado_913178" data-name="Trazado 913178" d="M163.074,140.411h-27.5a4.067,4.067,0,0,0-3.05,1.167c-.733.865-1.094,1.3-1.8,2.164a3.312,3.312,0,0,1-2.539,1.01H101.328c-1.857,0-3.1,1.009-2.779,2.253,2.624,10.174,3.936,15.26,6.56,25.435a3.484,3.484,0,0,0,3.295,2.342h46.585a3.481,3.481,0,0,0,3.295-2.342l7.681-29.775c.321-1.245-.973-2.255-2.891-2.255" transform="translate(23.925 34.106)" fill="#407bff"/>
            <path id="Trazado_913179" data-name="Trazado 913179" d="M163.074,140.411h-27.5a4.067,4.067,0,0,0-3.05,1.167c-.733.865-1.094,1.3-1.8,2.164a3.312,3.312,0,0,1-2.539,1.01H101.328c-1.857,0-3.1,1.009-2.779,2.253,2.624,10.174,3.936,15.26,6.56,25.435a3.484,3.484,0,0,0,3.295,2.342h46.585a3.481,3.481,0,0,0,3.295-2.342l7.681-29.775c.321-1.245-.973-2.255-2.891-2.255" transform="translate(23.925 34.106)" fill="#e07199"/>
            <path id="Trazado_913180" data-name="Trazado 913180" d="M106.106,182.276a3.134,3.134,0,0,1,0-6.268h50.125a3.134,3.134,0,0,1,0,6.268Z" transform="translate(25.012 42.752)" fill="#263238"/>
            <g id="Grupo_1102049" data-name="Grupo 1102049" transform="translate(127.985 218.76)" opacity="0.6">
              <g id="Grupo_1102048" data-name="Grupo 1102048">
                <g id="Grupo_1102047" data-name="Grupo 1102047" clip-path="url(#clip-path-13)">
                  <path id="Trazado_913181" data-name="Trazado 913181" d="M106.106,182.276a3.134,3.134,0,0,1,0-6.268h50.125a3.134,3.134,0,0,1,0,6.268Z" transform="translate(-102.973 -176.008)" fill="#fff"/>
                </g>
              </g>
            </g>
            <path id="Trazado_913182" data-name="Trazado 913182" d="M205.048,135.837l-1.38-2.507a2.611,2.611,0,0,0-2.288-1.352H180.7a2.61,2.61,0,0,0-2.611,2.611v39.527a2.714,2.714,0,0,0,2.713,2.715H227.8a2.715,2.715,0,0,0,2.715-2.715v-34.5a2.612,2.612,0,0,0-2.611-2.613H207.028a2.259,2.259,0,0,1-1.98-1.17" transform="translate(43.258 32.057)" fill="#407bff"/>
            <path id="Trazado_913183" data-name="Trazado 913183" d="M205.048,135.837l-1.38-2.507a2.611,2.611,0,0,0-2.288-1.352H180.7a2.61,2.61,0,0,0-2.611,2.611v39.527a2.714,2.714,0,0,0,2.713,2.715H227.8a2.715,2.715,0,0,0,2.715-2.715v-34.5a2.612,2.612,0,0,0-2.611-2.613H207.028a2.259,2.259,0,0,1-1.98-1.17" transform="translate(43.258 32.057)" fill="#8261bd"/>
            <rect id="Rectángulo_403353" data-name="Rectángulo 403353" width="40.081" height="29.971" transform="translate(227.154 170.645)" fill="#263238"/>
            <g id="Grupo_1102052" data-name="Grupo 1102052" transform="translate(227.154 170.645)" opacity="0.8">
              <g id="Grupo_1102051" data-name="Grupo 1102051">
                <g id="Grupo_1102050" data-name="Grupo 1102050" clip-path="url(#clip-path-8)">
                  <rect id="Rectángulo_403354" data-name="Rectángulo 403354" width="40.081" height="29.971" transform="translate(0 0)" fill="#fff"/>
                </g>
              </g>
            </g>
            <rect id="Rectángulo_403356" data-name="Rectángulo 403356" width="45.874" height="34.303" transform="translate(224.256 173.654)" fill="#263238"/>
            <g id="Grupo_1102055" data-name="Grupo 1102055" transform="translate(224.256 173.654)" opacity="0.9">
              <g id="Grupo_1102054" data-name="Grupo 1102054">
                <g id="Grupo_1102053" data-name="Grupo 1102053" clip-path="url(#clip-path-9)">
                  <rect id="Rectángulo_403357" data-name="Rectángulo 403357" width="45.874" height="34.303" transform="translate(0)" fill="#fff"/>
                </g>
              </g>
            </g>
            <path id="Trazado_913184" data-name="Trazado 913184" d="M236.593,140.411H209.1a4.067,4.067,0,0,0-3.05,1.167c-.733.865-1.094,1.3-1.8,2.164a3.312,3.312,0,0,1-2.539,1.01H174.847c-1.857,0-3.1,1.009-2.779,2.253,2.624,10.174,3.936,15.26,6.56,25.435a3.484,3.484,0,0,0,3.295,2.342h46.585a3.481,3.481,0,0,0,3.295-2.342l7.681-29.775c.321-1.245-.973-2.255-2.891-2.255" transform="translate(41.783 34.106)" fill="#407bff"/>
            <path id="Trazado_913185" data-name="Trazado 913185" d="M236.593,140.411H209.1a4.067,4.067,0,0,0-3.05,1.167c-.733.865-1.094,1.3-1.8,2.164a3.312,3.312,0,0,1-2.539,1.01H174.847c-1.857,0-3.1,1.009-2.779,2.253,2.624,10.174,3.936,15.26,6.56,25.435a3.484,3.484,0,0,0,3.295,2.342h46.585a3.481,3.481,0,0,0,3.295-2.342l7.681-29.775c.321-1.245-.973-2.255-2.891-2.255" transform="translate(41.783 34.106)" fill="#e07199"/>
            <path id="Trazado_913186" data-name="Trazado 913186" d="M179.625,182.276a3.134,3.134,0,0,1,0-6.268H229.75a3.134,3.134,0,0,1,0,6.268Z" transform="translate(42.87 42.752)" fill="#263238"/>
            <g id="Grupo_1102058" data-name="Grupo 1102058" transform="translate(219.362 218.76)" opacity="0.6">
              <g id="Grupo_1102057" data-name="Grupo 1102057">
                <g id="Grupo_1102056" data-name="Grupo 1102056" clip-path="url(#clip-path-10)">
                  <path id="Trazado_913187" data-name="Trazado 913187" d="M179.625,182.276a3.134,3.134,0,0,1,0-6.268H229.75a3.134,3.134,0,0,1,0,6.268Z" transform="translate(-176.492 -176.008)" fill="#fff"/>
                </g>
              </g>
            </g>
            <path id="Trazado_913188" data-name="Trazado 913188" d="M179.105,100.985a3.134,3.134,0,0,1,0-6.268H229.23a3.134,3.134,0,0,1,0,6.268Z" transform="translate(42.744 23.007)" fill="#263238"/>
            <g id="Grupo_1102061" data-name="Grupo 1102061" transform="translate(218.716 117.724)" opacity="0.6">
              <g id="Grupo_1102060" data-name="Grupo 1102060">
                <g id="Grupo_1102059" data-name="Grupo 1102059" clip-path="url(#clip-path-13)">
                  <path id="Trazado_913189" data-name="Trazado 913189" d="M179.105,100.985a3.134,3.134,0,0,1,0-6.268H229.23a3.134,3.134,0,0,1,0,6.268Z" transform="translate(-175.972 -94.717)" fill="#fff"/>
                </g>
              </g>
            </g>
            <path id="Trazado_913190" data-name="Trazado 913190" d="M177.143,98.062l10.686,31.274a3.858,3.858,0,0,0,3.465,2.368h21.03a1.826,1.826,0,0,0,1.908-1.227l.628-2.272a1.58,1.58,0,0,1,1.651-1.061h21.224a1.733,1.733,0,0,0,1.847-2.368l-9.129-26.714-.126-5.22v-40.2a2.656,2.656,0,0,0-2.656-2.656H206.64a2.656,2.656,0,0,0-2.327,1.376l-1.4,2.549A2.3,2.3,0,0,1,200.9,55.1H179.673a2.655,2.655,0,0,0-2.656,2.656V92.842Z" transform="translate(42.997 12.142)" fill="#407bff"/>
            <path id="Trazado_913191" data-name="Trazado 913191" d="M177.143,98.062l10.686,31.274a3.858,3.858,0,0,0,3.465,2.368h21.03a1.826,1.826,0,0,0,1.908-1.227l.628-2.272a1.58,1.58,0,0,1,1.651-1.061h21.224a1.733,1.733,0,0,0,1.847-2.368l-9.129-26.714-.126-5.22v-40.2a2.656,2.656,0,0,0-2.656-2.656H206.64a2.656,2.656,0,0,0-2.327,1.376l-1.4,2.549A2.3,2.3,0,0,1,200.9,55.1H179.673a2.655,2.655,0,0,0-2.656,2.656V92.842Z" transform="translate(42.997 12.142)" fill="#e07199"/>
            <path id="Trazado_913192" data-name="Trazado 913192" d="M177.118,88.667,187.8,119.941a3.858,3.858,0,0,0,3.465,2.368H212.3a1.826,1.826,0,0,0,1.908-1.227l.628-2.272a1.58,1.58,0,0,1,1.651-1.061h21.224a1.733,1.733,0,0,0,1.847-2.368l-9.129-26.714Z" transform="translate(43.022 21.537)" fill="#407bff"/>
            <path id="Trazado_913193" data-name="Trazado 913193" d="M177.118,88.667,187.8,119.941a3.858,3.858,0,0,0,3.465,2.368H212.3a1.826,1.826,0,0,0,1.908-1.227l.628-2.272a1.58,1.58,0,0,1,1.651-1.061h21.224a1.733,1.733,0,0,0,1.847-2.368l-9.129-26.714Z" transform="translate(43.022 21.537)" fill="#8261bd"/>
            <g id="Grupo_1102064" data-name="Grupo 1102064" transform="translate(225.277 110.204)" opacity="0.1">
              <g id="Grupo_1102063" data-name="Grupo 1102063">
                <g id="Grupo_1102062" data-name="Grupo 1102062" clip-path="url(#clip-path-24)">
                  <path id="Trazado_913194" data-name="Trazado 913194" d="M181.251,88.667h43.27l7.894,22.239h-43.27Z" transform="translate(-181.251 -88.667)"/>
                </g>
              </g>
            </g>
            <rect id="Rectángulo_403362" data-name="Rectángulo 403362" width="43.27" height="35.065" transform="translate(225.277 75.14)" fill="#263238"/>
            <g id="Grupo_1102067" data-name="Grupo 1102067" transform="translate(225.277 75.14)" opacity="0.8">
              <g id="Grupo_1102066" data-name="Grupo 1102066">
                <g id="Grupo_1102065" data-name="Grupo 1102065" clip-path="url(#clip-path-25)">
                  <rect id="Rectángulo_403363" data-name="Rectángulo 403363" width="43.27" height="35.065" transform="translate(0 0)" fill="#fff"/>
                </g>
              </g>
            </g>
            <path id="Trazado_913195" data-name="Trazado 913195" d="M181.251,93.6h43.27l8.771-25.267h-43.27Z" transform="translate(44.026 16.599)" fill="#263238"/>
            <g id="Grupo_1102070" data-name="Grupo 1102070" transform="translate(225.277 84.936)" opacity="0.9">
              <g id="Grupo_1102069" data-name="Grupo 1102069">
                <g id="Grupo_1102068" data-name="Grupo 1102068" clip-path="url(#clip-path-26)">
                  <path id="Trazado_913196" data-name="Trazado 913196" d="M181.251,93.6h43.27l8.771-25.267h-43.27Z" transform="translate(-181.251 -68.337)" fill="#fff"/>
                </g>
              </g>
            </g>
            <path id="Trazado_913197" data-name="Trazado 913197" d="M181.251,88.667h43.27l8.771,18.731h-43.27Z" transform="translate(44.026 21.537)" fill="#263238"/>
            <g id="Grupo_1102073" data-name="Grupo 1102073" transform="translate(225.277 110.204)" opacity="0.9">
              <g id="Grupo_1102072" data-name="Grupo 1102072">
                <g id="Grupo_1102071" data-name="Grupo 1102071" clip-path="url(#clip-path-27)">
                  <path id="Trazado_913198" data-name="Trazado 913198" d="M181.251,88.667h43.27l8.771,18.731h-43.27Z" transform="translate(-181.251 -88.667)" fill="#fff"/>
                </g>
              </g>
            </g>
            <path id="Trazado_913199" data-name="Trazado 913199" d="M181.251,90.548h43.27l14.153-9.629H195.4Z" transform="translate(44.026 19.655)" fill="#263238"/>
            <g id="Grupo_1102076" data-name="Grupo 1102076" transform="translate(225.277 100.574)" opacity="0.8">
              <g id="Grupo_1102075" data-name="Grupo 1102075">
                <g id="Grupo_1102074" data-name="Grupo 1102074" clip-path="url(#clip-path-28)">
                  <path id="Trazado_913200" data-name="Trazado 913200" d="M181.251,90.548h43.27l14.153-9.629H195.4Z" transform="translate(-181.251 -80.919)" fill="#fff"/>
                </g>
              </g>
            </g>
          </g>
        </g>
        <g id="Grupo_1102104" data-name="Grupo 1102104">
          <g id="Grupo_1102103" data-name="Grupo 1102103" clip-path="url(#clip-path)">
            <path id="Trazado_913201" data-name="Trazado 913201" d="M274.667,82.639s22.258,19.144,22.258,30.486c0,10.427-22.112,21.6-31.829,23.048a79.673,79.673,0,0,1-9.11,0,4.964,4.964,0,0,1-4.681-3.311l-.113-.321a4.9,4.9,0,0,1,1.157-5.149,7.59,7.59,0,0,1,3.931-2.195c3.51-.548,8.449,4.391,8.449,4.391s21.585-12.988,21.585-15.366-9.862-10.154-12.8-14.451c-2.466-3.6-5-8.837,1.157-17.132" transform="translate(60.944 20.073)" fill="#b97964"/>
            <path id="Trazado_913202" data-name="Trazado 913202" d="M271.673,81.84c2.161,1.294,7.031,5.029,14.881,15.4,0,0-.288,5.668-10.372,10.95,0,0-10.757-8.26-10.662-16.232.066-5.441,2.3-8.473,3.709-9.848a2.011,2.011,0,0,1,2.444-.273" transform="translate(64.495 19.808)" fill="#b7cc95"/>
            <g id="Grupo_1102081" data-name="Grupo 1102081" transform="translate(333.901 107.64)" opacity="0.2">
              <g id="Grupo_1102080" data-name="Grupo 1102080">
                <g id="Grupo_1102079" data-name="Grupo 1102079" clip-path="url(#clip-path-30)">
                  <path id="Trazado_913203" data-name="Trazado 913203" d="M268.647,100.119a41.608,41.608,0,0,0,6.775,6.846c.273-.143.537-.287.8-.431C277.239,94.356,273.4,86.6,273.4,86.6l-3.8,5.185Z" transform="translate(-268.647 -86.604)"/>
                </g>
              </g>
            </g>
            <g id="Grupo_1102084" data-name="Grupo 1102084" transform="translate(325.829 141.365)" opacity="0.2">
              <g id="Grupo_1102083" data-name="Grupo 1102083">
                <g id="Grupo_1102082" data-name="Grupo 1102082" clip-path="url(#clip-path-31)">
                  <path id="Trazado_913204" data-name="Trazado 913204" d="M262.781,128.547a54.8,54.8,0,0,0,15.086-5.72c-2.04-1.49-2.644-6.672-2.818-9.089-5.532,3.734-11.88,7.588-12.9,8.2Z" transform="translate(-262.152 -113.738)" fill="#606060"/>
                </g>
              </g>
            </g>
            <path id="Trazado_913205" data-name="Trazado 913205" d="M272.939,105.089s8.98-4.849,11.814-12.148l1.68,2.833a23.353,23.353,0,0,1-11.749,11.1Z" transform="translate(66.297 22.575)" fill="#407bff"/>
            <path id="Trazado_913206" data-name="Trazado 913206" d="M272.939,105.089s8.98-4.849,11.814-12.148l1.68,2.833a23.353,23.353,0,0,1-11.749,11.1Z" transform="translate(66.297 22.575)" fill="#b7cc95"/>
            <path id="Trazado_913207" data-name="Trazado 913207" d="M268.1,96.491l-1.252-1.611a1.861,1.861,0,0,0-1.761-.7l-14.557,2.306a1.861,1.861,0,0,0-1.546,2.13l4.406,27.824a1.936,1.936,0,0,0,2.214,1.608l33.08-5.24a1.933,1.933,0,0,0,1.607-2.212l-3.846-24.284a1.863,1.863,0,0,0-2.13-1.547L269.62,97.093a1.611,1.611,0,0,1-1.524-.6" transform="translate(60.472 22.871)" fill="#407bff"/>
            <g id="Grupo_1102087" data-name="Grupo 1102087" transform="translate(309.429 117.03)" opacity="0.4">
              <g id="Grupo_1102086" data-name="Grupo 1102086">
                <g id="Grupo_1102085" data-name="Grupo 1102085" clip-path="url(#clip-path-32)">
                  <path id="Trazado_913208" data-name="Trazado 913208" d="M268.1,96.491l-1.252-1.611a1.861,1.861,0,0,0-1.761-.7l-14.557,2.306a1.861,1.861,0,0,0-1.546,2.13l4.406,27.824a1.936,1.936,0,0,0,2.214,1.608l33.08-5.24a1.933,1.933,0,0,0,1.607-2.212l-3.846-24.284a1.863,1.863,0,0,0-2.13-1.547L269.62,97.093a1.611,1.611,0,0,1-1.524-.6" transform="translate(-248.957 -94.159)" fill="#fff"/>
                </g>
              </g>
            </g>
            <path id="Trazado_913209" data-name="Trazado 913209" d="M284.092,94.653l-14.557,2.306a1.861,1.861,0,0,0-1.459,1.207l-.692,1.919a1.612,1.612,0,0,1-1.263,1.044l-14.691,2.327a1.862,1.862,0,0,0-1.547,2.13l3.285,20.743a1.935,1.935,0,0,0,2.214,1.608l33.079-5.24a1.933,1.933,0,0,0,1.608-2.212L286.222,96.2a1.863,1.863,0,0,0-2.13-1.547" transform="translate(60.691 22.986)" fill="#407bff"/>
            <g id="Grupo_1102090" data-name="Grupo 1102090" transform="translate(310.55 117.614)" opacity="0.7">
              <g id="Grupo_1102089" data-name="Grupo 1102089">
                <g id="Grupo_1102088" data-name="Grupo 1102088" clip-path="url(#clip-path-33)">
                  <path id="Trazado_913210" data-name="Trazado 913210" d="M284.092,94.653l-14.557,2.306a1.861,1.861,0,0,0-1.459,1.207l-.692,1.919a1.612,1.612,0,0,1-1.263,1.044l-14.691,2.327a1.862,1.862,0,0,0-1.547,2.13l3.285,20.743a1.935,1.935,0,0,0,2.214,1.608l33.079-5.24a1.933,1.933,0,0,0,1.608-2.212L286.222,96.2a1.863,1.863,0,0,0-2.13-1.547" transform="translate(-249.859 -94.629)" fill="#fff"/>
                </g>
              </g>
            </g>
            <path id="Trazado_913211" data-name="Trazado 913211" d="M291.82,278.4l4.491,15.656,7.323-1.441L301.712,275.9Z" transform="translate(70.883 67.017)" fill="#b97964"/>
            <path id="Trazado_913212" data-name="Trazado 913212" d="M297.027,288.884l8.641-1.569a.708.708,0,0,1,.778.421l2.839,6.746a1.175,1.175,0,0,1-.616,1.544,1.11,1.11,0,0,1-.239.075c-3.126.511-5.926.843-9.8,1.552-4.578.831-3.316,1.168-8.684,2.221-3.233.631-4.5-2.946-3.153-3.377,6.147-1.934,6.456-3.952,8.475-6.645a2.826,2.826,0,0,1,1.764-.969" transform="translate(69.532 69.786)" fill="#263238"/>
            <path id="Trazado_913213" data-name="Trazado 913213" d="M240.483,275.464V296.21h7.779l4.011-20.266Z" transform="translate(58.413 66.91)" fill="#b97964"/>
            <path id="Trazado_913214" data-name="Trazado 913214" d="M242.788,291.094l8.767.313a.706.706,0,0,1,.669.577l1.33,7.189a1.175,1.175,0,0,1-1.178,1.4c-3.159-.168-5.963-.441-9.9-.577-4.643-.164-3.485.432-8.946.316-3.291-.075-3.759-3.834-2.358-3.969,6.412-.575,7.143-2.48,9.687-4.676a2.827,2.827,0,0,1,1.928-.569" transform="translate(55.971 70.705)" fill="#263238"/>
            <path id="Trazado_913215" data-name="Trazado 913215" d="M260.7,136.809l14.527-4.1s10.3,6.6,11.827,36.626c.613,12.071,4.058,21.388,3.577,44.265a41.171,41.171,0,0,0,4.3,19.279,99.984,99.984,0,0,1,8.029,22.769c4.354,19.465,9.733,64.031,9.733,64.031l-10.5,1.793s-9.733-33.04-22.539-66.08-21.771-83.5-21.771-83.5l-3.366-35.088Z" transform="translate(61.822 32.236)" fill="#263238"/>
            <g id="Grupo_1102093" data-name="Grupo 1102093" transform="translate(321.409 205.67)" opacity="0.6">
              <g id="Grupo_1102092" data-name="Grupo 1102092">
                <g id="Grupo_1102091" data-name="Grupo 1102091" clip-path="url(#clip-path-34)">
                  <path id="Trazado_913216" data-name="Trazado 913216" d="M265.73,165.476l-2.946.64-3.33,3.33-.859,3.4c1.331,6.686,3.4,16.549,6.054,27.563,5.071-28.03,1.08-34.934,1.08-34.934" transform="translate(-258.596 -165.476)"/>
                </g>
              </g>
            </g>
            <path id="Trazado_913217" data-name="Trazado 913217" d="M237.856,134.978l2.69,188.634h10.372s10.757-46.487,10.757-64.927c0-10.916-.717-22.46-1.3-30.065a42.189,42.189,0,0,1,2.082-16.677c3.411-10.153,8.775-27.643,9.467-39.059,0,0,13.574-.512,3.842-37.906Z" transform="translate(57.775 32.786)" fill="#263238"/>
            <path id="Trazado_913218" data-name="Trazado 913218" d="M245.246,58.19l-4.786,4.641a5,5,0,0,0,4.253,1.467Z" transform="translate(58.408 14.134)" fill="#a24e3f"/>
            <path id="Trazado_913219" data-name="Trazado 913219" d="M270.944,62.073c-1.925,9.457-2.537,13.509-8.043,17.729-8.063,3.951-19.495,1.918-20.431-7.932-.846-8.862,2.437-22.806,12.326-25.343a13.174,13.174,0,0,1,16.148,15.546" transform="translate(58.865 11.201)" fill="#b97964"/>
            <path id="Trazado_913220" data-name="Trazado 913220" d="M246.412,53.85a.394.394,0,0,1-.3-.206,2.984,2.984,0,0,0-2.153-1.667.381.381,0,0,1-.337-.415.387.387,0,0,1,.42-.337,3.7,3.7,0,0,1,2.749,2.073.381.381,0,0,1-.165.512h0a.4.4,0,0,1-.215.04" transform="translate(59.176 12.442)" fill="#263238"/>
            <g id="Grupo_1102096" data-name="Grupo 1102096" transform="translate(302.324 86.768)" opacity="0.2">
              <g id="Grupo_1102095" data-name="Grupo 1102095">
                <g id="Grupo_1102094" data-name="Grupo 1102094" clip-path="url(#clip-path-35)">
                  <path id="Trazado_913221" data-name="Trazado 913221" d="M248.444,71.281a10.533,10.533,0,0,1-5.2-1.469c1.716,3.643,5.349,5.588,9.43,6.028l-.139-2s.358-2.424-4.088-2.559" transform="translate(-243.241 -69.811)" fill="#606060"/>
                </g>
              </g>
            </g>
            <path id="Trazado_913222" data-name="Trazado 913222" d="M250.22,82.681l.848-12.149s4.916-1.792,7.86,0c0,0,1.409,9.092,4.1,11.269Z" transform="translate(60.778 16.939)" fill="#b97964"/>
            <path id="Trazado_913223" data-name="Trazado 913223" d="M242.6,56.677c-.175.7.046,1.368.507,1.485s1.015-.383,1.167-1.073-.046-1.367-.51-1.477-.982.363-1.165,1.064" transform="translate(58.914 13.505)" fill="#263238"/>
            <path id="Trazado_913224" data-name="Trazado 913224" d="M244.251,55.918a3.028,3.028,0,0,1-2.093-1.641,2.478,2.478,0,0,0,1.82,2.456Z" transform="translate(58.82 13.184)" fill="#263238"/>
            <path id="Trazado_913225" data-name="Trazado 913225" d="M245.193,58.65a7.408,7.408,0,0,0-.094,5.688c.981,2.425,3.552,2.061,5.018.071,1.33-1.8,2.4-5.221.572-7.027s-4.508-.931-5.495,1.269" transform="translate(59.408 13.702)" fill="#b97964"/>
            <path id="Trazado_913226" data-name="Trazado 913226" d="M268.647,55.179s5.122-4.885,1.024-8.47.577,3.879-1.024,8.47" transform="translate(65.082 11.116)" fill="#263238"/>
            <path id="Trazado_913227" data-name="Trazado 913227" d="M252.962,48.5s-5.443-4.547-7.3-1.089,3.137-.447,7.3,1.089" transform="translate(59.574 11.2)" fill="#263238"/>
            <path id="Trazado_913228" data-name="Trazado 913228" d="M253.648,57.429l-8.037-2.579.053-.18a1.312,1.312,0,0,0-.889-1.629l-1.469-.434a1.312,1.312,0,0,0-1.629.889l-1.537,5.221a1.723,1.723,0,0,0,1.167,2.14l.681.2a1.721,1.721,0,0,0,2.14-1.167l1.267-4.3,8.018,2.573Zm-10.972-4.041a.535.535,0,0,1,.414-.045l1.47.433a.546.546,0,0,1,.368.676l-.047.163-2.5-.8.031-.1a.536.536,0,0,1,.261-.324m.716,6.285a.955.955,0,0,1-1.186.648l-.681-.2a.955.955,0,0,1-.648-1.186l1.29-4.381,2.5.8Z" transform="translate(58.313 12.765)" fill="#263238"/>
            <path id="Trazado_913229" data-name="Trazado 913229" d="M246.82,84.227s1.273-4.8,9.569-6.531,11.561,4.87,11.561,4.87Z" transform="translate(59.953 18.802)" fill="#407bff"/>
            <g id="Grupo_1102099" data-name="Grupo 1102099" transform="translate(306.773 96.209)" opacity="0.5">
              <g id="Grupo_1102098" data-name="Grupo 1102098">
                <g id="Grupo_1102097" data-name="Grupo 1102097" clip-path="url(#clip-path-36)">
                  <path id="Trazado_913230" data-name="Trazado 913230" d="M246.82,84.227s1.273-4.8,9.569-6.531,11.561,4.87,11.561,4.87Z" transform="translate(-246.82 -77.407)" fill="#fff"/>
                </g>
              </g>
            </g>
            <path id="Trazado_913231" data-name="Trazado 913231" d="M238.02,149.546s33.712,4.164,44.47-4.064A91.9,91.9,0,0,1,280.4,119.2c1.032-14.022,5.354-27.853.745-35.441s-38.706-1.92-45.431,5,2.306,33.808,2.306,60.8" transform="translate(56.651 19.466)" fill="#b7cc95"/>
            <g id="Grupo_1102102" data-name="Grupo 1102102" transform="translate(290.9 111.194)" opacity="0.2">
              <g id="Grupo_1102101" data-name="Grupo 1102101">
                <g id="Grupo_1102100" data-name="Grupo 1102100" clip-path="url(#clip-path-37)">
                  <path id="Trazado_913232" data-name="Trazado 913232" d="M243.1,92.44l-2.785,8.313-6.269,7.828c.73,5.755,1.714,12.228,2.5,19.059a37.565,37.565,0,0,0,7.52-12.341c6.085-16.6,1.248-25.835,1.248-25.835Z" transform="translate(-234.049 -89.463)"/>
                </g>
              </g>
            </g>
            <path id="Trazado_913233" data-name="Trazado 913233" d="M247.393,66.992s-9.989,24.7,6.915,24.516,20.925-4.283,16.417-7.613,10.3-14.342,4.752-28.173c0,0-1.96-11.013-13.229-10.885a11.02,11.02,0,0,0-7.057-4.241,5.194,5.194,0,0,0-5.049,7.894l2.325,3.775s-8.789,2.818-5.075,14.727" transform="translate(59.38 9.849)" fill="#263238"/>
            <path id="Trazado_913234" data-name="Trazado 913234" d="M248.322,85.985s-8.273,1.827-9.9,12.23-2.659,18.294-5.69,19.344c-3.2,1.107-17.393-10.878-17.393-10.878l.472-6.984a3.9,3.9,0,0,0-2.184-3.767l-1.083-.526a3.9,3.9,0,0,0-4.175.493l-.881.725a3.9,3.9,0,0,0-1.349,3.77c.549,2.8,1.708,7.3,3.672,8.714,0,0,20.157,23.185,26.172,20.776s10.552-16.99,13-23.052c1.954-4.831,4.517-10.156-.667-20.846" transform="translate(50.054 20.886)" fill="#b97964"/>
            <path id="Trazado_913235" data-name="Trazado 913235" d="M243.187,84.979c-2.253-1.449-11.622.288-13.832,21.8,0,0,7.4,6.242,14.408,5.378,0,0,9.124-20.938-.575-27.181" transform="translate(55.71 20.548)" fill="#b7cc95"/>
            <path id="Trazado_913236" data-name="Trazado 913236" d="M229.035,100.784s7.251,6.176,16.328,5.874l-1.053,2.422s-7.687,1.693-15.611-5.9Z" transform="translate(55.551 24.48)" fill="#407bff"/>
            <path id="Trazado_913237" data-name="Trazado 913237" d="M229.035,100.784s7.251,6.176,16.328,5.874l-1.053,2.422s-7.687,1.693-15.611-5.9Z" transform="translate(55.551 24.48)" fill="#b7cc95"/>
            <path id="Trazado_913238" data-name="Trazado 913238" d="M291.423,283.032l.986,3.86,12.3-2.344-.429-3.826Z" transform="translate(70.787 68.188)" fill="#407bff"/>
            <path id="Trazado_913239" data-name="Trazado 913239" d="M239,284.757l.144,3.842h12.726l.768-3.842Z" transform="translate(58.052 69.167)" fill="#407bff"/>
          </g>
        </g>
      </g>
    </g>
  </g>
</svg>
